<svg xmlns="http://www.w3.org/2000/svg" width="931" height="558" viewBox="0 0 931 558" fill="none"><path d="M59.0818 510.435C61.7278 509.325 64.53 508.509 67.4885 507.986C70.4431 507.314 73.4836 507.085 76.6101 507.301C79.5841 507.372 82.4194 507.817 85.1159 508.639C87.957 509.307 90.5108 510.355 92.7773 511.782C105.45 519.029 116.42 523.646 125.686 525.632C135.1 527.615 141.843 526.918 145.916 523.542C147.522 522.46 147.783 521.041 146.696 519.286C145.759 517.528 143.852 515.646 140.976 513.64C138.244 511.483 134.766 509.196 130.542 506.78C126.462 504.212 122.083 501.577 117.406 498.876C112.877 496.171 108.271 493.394 103.59 490.544C99.0568 487.691 94.8931 484.753 91.0987 481.732C87.0035 478.57 83.2697 475.027 79.8976 471.103C76.67 467.026 74.103 462.635 72.1964 457.929C70.286 453.075 69.1846 447.903 68.8922 442.412C68.5998 436.921 69.3411 431.18 71.1162 425.189C72.3205 420.105 74.4062 414.626 77.3732 408.752C80.4887 402.875 84.1279 397.133 88.2908 391.525C92.4536 385.917 97.0717 380.669 102.145 375.781C107.218 370.893 112.385 366.745 117.646 363.338C119.542 361.951 121.885 360.626 124.675 359.364C127.462 357.954 130.555 356.907 133.956 356.223C137.504 355.536 141.287 355.288 145.305 355.48C149.467 355.52 153.793 356.15 158.283 357.369C165.028 359.571 171.787 362.292 178.559 365.532C185.332 368.773 191.002 372.488 195.57 376.678C198.61 379.274 200.91 381.963 202.469 384.746C204.172 387.376 205.356 390.02 206.02 392.678C206.833 395.331 207.272 397.92 207.338 400.445C207.549 402.817 207.683 405.117 207.742 407.345C207.401 411.366 206.773 415.767 205.858 420.546C204.943 425.326 203.881 430.183 202.673 435.119C201.461 439.906 200.097 444.549 198.58 449.047C197.063 453.545 195.53 457.449 193.982 460.759C192.426 463.772 190.693 465.675 188.782 466.468C186.871 467.261 184.19 467.034 180.739 465.787C160.355 459.187 150.744 449.705 151.907 437.34C151.989 434.812 152.359 431.904 153.016 428.617C153.817 425.178 154.547 421.815 155.204 418.529C156.005 415.09 156.664 411.877 157.18 408.892C157.693 405.757 157.775 403.229 157.428 401.306C157.229 399.379 156.531 398.283 155.335 398.017C154.139 397.751 152.156 398.621 149.385 400.625C147.044 402.024 144.423 404.099 141.523 406.85C138.623 409.601 135.807 412.721 133.074 416.21C130.491 419.696 128.137 423.473 126.015 427.541C124.041 431.605 122.735 435.652 122.097 439.681C121.46 443.71 121.637 447.644 122.629 451.482C123.621 455.319 125.864 458.679 129.358 461.559C133.769 465.456 138.621 469.119 143.912 472.547C149.352 475.971 154.715 479.323 160.002 482.603C165.434 485.73 170.495 488.867 175.184 492.013C180.022 495.156 183.973 498.471 187.036 501.957C190.244 505.291 192.27 508.879 193.114 512.721C194.102 516.41 193.464 520.439 191.201 524.808C189.798 527.966 187.806 531.362 185.226 534.996C182.646 538.63 179.17 542.065 174.796 545.3C170.419 548.387 165.064 551.054 158.733 553.3C152.401 555.546 144.782 556.86 135.876 557.242C124.003 557.85 112.365 556.075 100.961 551.915C89.5543 547.607 77.6903 540.041 65.3695 529.218C58.8397 523.89 55.3914 519.894 55.0244 517.229C54.9505 514.407 56.303 512.142 59.0818 510.435Z" fill="black"></path><path d="M328.426 371.639C334.19 376.095 338.402 380.889 341.063 386.02C343.868 391 345.951 396.741 347.31 403.244C349.227 414.043 349.908 425.839 349.351 438.634C348.791 451.281 346.893 463.962 343.66 476.679C340.571 489.243 336.128 501.174 330.331 512.471C324.682 523.765 317.578 533.388 309.018 541.34C303.198 546.099 297.04 549.307 290.545 550.963C284.053 552.768 276.563 553.335 268.075 552.666C262.416 552.22 256.599 551.406 250.624 550.225C244.652 549.193 239.183 547.478 234.216 545.082C230.152 543.108 226.147 540.538 222.2 537.372C218.253 534.205 215.112 530.572 212.775 526.473C209.032 519.735 206.157 512.082 204.149 503.515C202.141 494.948 201.087 485.911 200.987 476.402C200.887 466.894 201.748 457.212 203.57 447.356C205.389 437.351 208.18 427.619 211.945 418.158C215.71 408.697 220.379 399.732 225.953 391.264C231.672 382.643 238.305 374.891 245.852 368.005C250.945 363.86 257.028 360.654 264.102 358.388C271.325 356.118 278.217 355.418 284.778 356.286C293.278 357.401 301.352 359.27 309 361.894C316.796 364.513 323.272 367.761 328.426 371.639ZM293.145 394.854C289.999 393.896 286.544 395.324 282.78 399.138C279.012 402.804 275.279 407.805 271.581 414.144C267.883 420.482 264.428 427.558 261.214 435.369C258.145 443.029 255.665 450.45 253.772 457.633C251.876 464.667 250.581 471.983 249.889 479.58C249.192 487.029 249.078 494.017 249.546 500.543C250.01 506.921 251.193 512.389 253.096 516.946C254.999 521.503 257.672 524.257 261.114 525.207C264.26 526.165 267.51 525.411 270.864 522.945C274.217 520.48 277.537 516.752 280.825 511.762C284.112 506.771 287.148 500.673 289.931 493.467C292.859 486.108 295.326 478.167 297.332 469.644C299.08 462.614 300.439 454.925 301.409 446.577C302.376 438.081 302.764 430.195 302.573 422.918C302.379 415.492 301.471 409.2 299.85 404.041C298.373 398.73 296.138 395.668 293.145 394.854Z" fill="black"></path><path d="M471.556 497.182C477.238 498.519 480.194 500.745 480.425 503.86C480.803 506.971 479.791 510.861 477.387 515.531C474.853 520.947 471.566 525.938 467.524 530.502C463.483 535.066 459.422 538.887 455.341 541.966C453.297 543.357 450.806 544.686 447.867 545.952C445.076 547.214 442.057 548.259 438.809 549.087C435.71 549.911 432.382 550.518 428.826 550.909C425.418 551.295 422.076 551.383 418.801 551.171C411.81 550.908 405.469 549.96 399.779 548.326C394.093 546.84 389.003 545.413 384.509 544.044C380.456 542.516 376.384 540.244 372.293 537.231C368.202 534.217 364.988 530.66 362.651 526.56C358.623 520.276 355.753 512.846 354.043 504.271C352.18 495.552 351.342 486.286 351.531 476.473C351.716 466.511 352.935 456.299 355.187 445.838C357.287 435.231 360.361 424.897 364.407 414.834C368.453 404.771 373.331 395.281 379.042 386.363C384.898 377.293 391.599 369.316 399.147 362.431C405.244 356.921 411.464 353.266 417.807 351.465C424.15 349.664 430.149 348.913 435.804 349.211C439.974 349.547 444.302 350.251 448.789 351.323C453.271 352.246 457.613 353.469 461.814 354.994C466.011 356.37 469.991 357.975 473.755 359.808C477.514 361.493 480.904 363.262 483.925 365.115C486.809 367.417 489.173 369.733 491.017 372.063C493.006 374.24 494.551 376.503 495.653 378.852C496.903 381.197 497.786 383.7 498.302 386.361C498.813 388.874 499.182 391.614 499.409 394.58C499.647 397.992 499.666 401.558 499.466 405.279C499.415 408.995 499.215 412.716 498.867 416.44C498.514 420.016 498.012 423.521 497.359 426.957C496.702 430.243 495.963 433.235 495.142 435.931C494.727 437.131 494.311 438.256 493.892 439.308C493.474 440.359 492.827 441.193 491.952 441.811C491.225 442.424 490.121 442.824 488.639 443.012C487.158 443.199 485.15 443.103 482.613 442.724C477.838 441.957 473.723 440.876 470.268 439.48C466.81 437.936 463.939 436.154 461.657 434.133C459.371 431.964 457.523 429.486 456.113 426.699C454.702 423.912 453.651 420.671 452.96 416.973C452.433 413.866 452.134 410.976 452.064 408.303C452.088 403.547 451.753 399.246 451.058 395.4C450.362 391.555 448.514 389.077 445.513 387.967C442.519 387.153 439.074 388.953 435.177 393.364C431.28 397.776 427.344 403.526 423.369 410.615C419.389 417.555 415.652 425.232 412.157 433.646C408.811 442.056 406.191 449.852 404.299 457.035C402.563 464.511 401.272 471.975 400.427 479.428C399.727 486.728 399.605 493.419 400.061 499.5C400.514 505.432 401.611 510.456 403.354 514.572C405.096 518.687 407.538 521.15 410.68 521.959C416.671 523.734 425.592 518.225 437.443 505.431C445.972 496.291 457.343 493.541 471.556 497.182Z" fill="black"></path><path d="M563.18 364.6C567.412 367.313 569.927 369.699 570.724 371.759C571.669 373.815 571.675 376.861 570.74 380.898C568.836 387.635 566.735 395.344 564.435 404.023C562.285 412.699 560.074 421.896 557.802 431.615C555.675 441.182 553.555 451.046 551.443 461.207C549.328 471.219 547.283 481.081 545.308 490.792C543.329 500.355 541.487 509.468 539.782 518.133C538.222 526.644 536.861 534.259 535.699 540.977C535.023 543.521 534.026 545.182 532.709 545.959C531.54 546.733 529.013 546.725 525.129 545.935C521.24 544.996 517.501 544.054 513.909 543.108C510.466 542.158 507.164 540.907 504.003 539.355C500.544 537.811 498.268 536.013 497.174 533.961C495.927 531.764 495.476 528.729 495.821 524.857C495.982 519.651 496.475 512.951 497.301 504.755C497.974 496.416 498.925 487.326 500.153 477.485C501.233 467.649 502.522 457.286 504.021 446.399C505.519 435.511 507.023 424.846 508.533 414.404C510.191 403.958 511.865 394.105 513.554 384.847C515.24 375.441 516.808 367.226 518.259 360.203C519.483 355.862 521.197 353.216 523.401 352.267C525.75 351.165 529.244 351.222 533.883 352.438C538.518 353.506 543.539 355.158 548.948 357.394C554.356 359.63 559.1 362.032 563.18 364.6Z" fill="black"></path><path d="M671.301 496.632C660.202 498.409 649.105 500.26 638.01 502.185C627.059 503.958 617.38 506.069 608.974 508.519C606.155 514.388 603.698 519.877 601.603 524.984C599.503 529.944 597.476 534.826 595.522 539.633C594.4 542.189 592.954 543.713 591.183 544.205C589.561 544.693 587.027 544.388 583.58 543.29C581.63 542.598 579.53 541.835 577.279 541.003C574.875 540.025 572.47 538.974 570.063 537.848C568.249 536.706 566.665 535.782 565.309 535.074C563.949 534.218 562.882 533.206 562.109 532.037C561.335 530.869 560.925 529.393 560.878 527.611C560.679 525.685 560.984 523.15 561.794 520.008C565.089 509.668 569.452 497.516 574.883 483.553C580.164 469.594 585.88 455.178 592.029 440.304C598.327 425.427 604.705 410.771 611.163 396.335C617.766 381.747 624.04 368.802 629.986 357.501C632.108 353.433 634.918 350.09 638.417 347.472C641.915 344.854 647.161 343.75 654.157 344.162C660.253 344.299 665.688 344.677 670.459 345.295C675.227 345.765 679.553 346.395 683.438 347.184C687.471 347.97 691.135 348.841 694.429 349.795C697.872 350.745 701.313 351.621 704.752 352.422C709.399 353.935 712.351 356.013 713.609 358.655C715.015 361.293 715.552 364.771 715.22 369.09C714.605 379.657 714.179 391.78 713.943 405.458C713.707 419.136 713.634 433.405 713.726 448.264C713.818 463.122 713.986 478.053 714.23 493.056C714.619 507.907 715.055 521.716 715.538 534.484C715.608 537.157 715.063 539.029 713.902 540.1C712.89 541.167 710.453 541.751 706.592 541.852C702.73 541.953 699.162 541.898 695.887 541.686C692.616 541.623 689.257 541.042 685.81 539.944C682.219 538.998 679.659 537.727 678.132 536.132C676.752 534.534 675.711 531.663 675.008 527.521C674.301 523.229 673.659 518.565 673.081 513.527C672.5 508.341 671.906 502.71 671.301 496.632ZM627.937 466.56C634.593 465.345 641.252 464.279 647.916 463.362C654.728 462.44 661.544 461.667 668.363 461.043C667.747 448.873 667.208 436.775 666.744 424.75C666.277 412.576 666.036 400.545 666.022 388.657C660.366 399.654 654.22 411.852 647.587 425.252C641.097 438.499 634.548 452.269 627.937 466.56Z" fill="black"></path><path d="M824.484 525.613C815.174 527.64 805.57 529.749 795.67 531.94C785.916 533.979 776.606 536.006 767.742 538.021C764.499 538.998 761.765 539.59 759.541 539.796C757.317 540.003 755.383 539.905 753.737 539.503C752.096 539.248 750.674 538.84 749.47 538.277C748.415 537.71 747.358 537.069 746.299 536.354C743.731 534.786 741.387 533.213 739.265 531.634C737.139 529.906 734.333 527.75 730.848 525.167C728.269 523.154 726.278 520.902 724.875 518.413C723.468 515.775 723.014 512.591 723.51 508.863C723.804 503.06 724.368 496.209 725.201 488.311C726.031 480.264 727.068 471.617 728.312 462.371C729.556 453.125 730.94 443.577 732.466 433.729C733.987 423.732 735.659 413.806 737.482 403.95C739.304 394.094 741.136 384.609 742.978 375.496C744.969 366.379 746.904 358.006 748.785 350.377C750.157 346.032 751.948 343.459 754.156 342.658C756.509 341.704 760.004 341.836 764.643 343.052C769.278 344.119 774.298 345.697 779.702 347.784C785.103 349.724 789.843 351.977 793.923 354.545C797.858 357.266 800.298 359.654 801.244 361.71C802.338 363.762 802.267 366.736 801.032 370.632C798.295 379.62 795.507 389.502 792.668 400.276C789.978 411.046 787.222 422.116 784.399 433.484C781.724 444.848 779.124 456.211 776.597 467.571C774.216 478.779 771.971 489.538 769.864 499.847C776.664 498.48 783.026 497.422 788.951 496.672C794.876 495.923 801.322 495.234 808.291 494.606C812.441 494.2 815.567 494.415 817.67 495.252C819.917 495.936 821.969 497.666 823.825 500.44C825.677 503.067 827.159 505.777 828.273 508.572C829.531 511.214 830.49 513.789 831.15 516.299C832.271 519.39 832.549 521.463 831.982 522.518C831.563 523.57 829.064 524.601 824.484 525.613Z" fill="black"></path><path d="M149.339 163.881C154.383 163.075 157.484 161.982 158.641 160.602C159.796 159.055 159.999 156.098 159.253 151.734C158.458 144.504 155.724 137.156 151.048 129.69C149.492 127.37 148.029 125.554 146.659 124.241C145.285 122.759 143.835 121.701 142.307 121.067C140.945 120.259 139.336 119.795 137.479 119.675C135.788 119.382 133.679 119.269 131.151 119.335C121.046 119.937 110.776 120.796 100.343 121.913C90.0771 123.024 79.9844 124.385 70.0644 125.994C60.1416 127.434 50.6442 129.116 41.5724 131.039C32.6663 132.79 24.6069 134.772 17.3943 136.984C18.0368 145.23 18.1119 154.839 17.6195 165.813C17.1271 176.786 16.2232 188.36 14.9078 200.536C13.7581 212.538 12.3585 224.715 10.7088 237.068C9.05921 249.421 7.48265 261.097 5.97917 272.097C4.4729 282.928 3.20263 292.741 2.16836 301.537C0.962784 310.168 0.314867 316.846 0.224609 321.569C0.297277 325.952 0.774462 329.312 1.65616 331.649C2.53787 333.987 5.10192 336.112 9.34833 338.024C12.5725 339.289 16.3035 340.624 20.5416 342.031C24.9481 343.433 29.0935 344.336 32.9777 344.74C36.8647 345.313 40.1508 345.227 42.8358 344.482C45.5237 343.906 46.9267 342.099 47.0449 339.06C48.9162 329.906 50.935 319.483 53.1013 307.791C55.4334 295.926 58.0927 283.463 61.0793 270.401C70.6511 268.127 80.3085 265.935 90.0516 263.825C99.7947 261.715 109.456 259.776 119.037 258.007C123.578 257.382 126.427 256.38 127.585 255.001C128.908 253.449 128.863 250.752 127.451 246.911C126.552 243.562 125.486 240.302 124.254 237.13C123.187 233.785 121.614 230.454 119.536 227.136C115.734 221.503 109.708 219.047 101.459 219.769C96.2383 220.074 91.1041 220.546 86.0571 221.184C81.1758 221.649 76.2958 222.198 71.4173 222.832C74.1311 213.655 76.2621 204.915 77.8103 196.612C79.527 188.305 81.5077 180.665 83.7523 173.692C95.6889 171.694 107.04 169.963 117.805 168.501C128.739 167.034 139.25 165.494 149.339 163.881Z" fill="black"></path><path d="M255.784 325.753C260.991 324.605 263.837 323.435 264.323 322.242C264.978 321.044 264.686 318.691 263.448 315.183C262.726 312.335 261.666 309.412 260.268 306.413C259.035 303.242 257.382 300.165 255.31 297.184C253.235 294.035 250.926 292.072 248.384 291.295C246.008 290.346 242.464 290.101 237.751 290.562C229.839 291.275 222.519 292.057 215.789 292.908C209.06 293.758 201.831 294.959 194.101 296.511C196.605 284.81 199.268 272.6 202.092 259.879C205.081 246.986 208.155 234.09 211.313 221.192C214.639 208.289 217.887 195.726 221.056 183.503C224.394 171.274 227.664 160.06 230.866 149.858C232.31 145.436 232.423 142.061 231.204 139.732C230.154 137.399 227.411 134.689 222.977 131.601C218.377 128.686 213.024 126.128 206.918 123.927C200.81 121.558 195.132 119.768 189.886 118.556C184.637 117.176 180.673 117.027 177.993 118.109C175.479 119.018 173.421 121.938 171.816 126.87C169.6 135.528 167.313 145.031 164.956 155.378C162.767 165.722 160.585 176.486 158.41 187.672C156.236 198.858 154.231 210.124 152.396 221.47C150.558 232.647 148.883 243.483 147.372 253.977C145.86 264.471 144.589 274.285 143.561 283.417C142.529 292.381 141.815 300.156 141.419 306.743C140.815 310.974 141.296 314.587 142.863 317.581C144.427 320.407 146.661 322.962 149.565 325.247C153.491 328.179 156.65 330.626 159.043 332.587C161.433 334.379 164.076 336.165 166.971 337.944C168.165 338.755 169.357 339.483 170.548 340.126C171.907 340.765 173.516 341.229 175.376 341.517C177.238 341.975 179.431 342.086 181.956 341.851C184.481 341.616 187.589 340.945 191.279 339.836C201.357 337.549 211.94 335.248 223.028 332.935C234.282 330.448 245.201 328.054 255.784 325.753Z" fill="black"></path><path d="M398.289 284.588C398.91 291.485 399.521 297.877 400.125 303.763C400.725 309.48 401.403 314.774 402.158 319.644C402.91 324.346 404.06 327.604 405.608 329.418C407.324 331.228 410.214 332.67 414.277 333.744C418.176 334.991 421.98 335.65 425.69 335.722C429.403 335.962 433.45 336.024 437.831 335.909C442.213 335.795 444.983 335.132 446.143 333.921C447.472 332.706 448.111 330.582 448.061 327.548C447.652 313.057 447.308 297.384 447.028 280.529C446.914 263.501 446.886 246.556 446.944 229.692C447.001 212.828 447.239 196.634 447.656 181.11C448.073 165.586 448.687 151.827 449.5 139.833C449.925 134.932 449.353 130.985 447.786 127.99C446.388 124.992 443.061 122.634 437.807 120.917C433.914 120.007 430.02 119.013 426.125 117.934C422.398 116.852 418.251 115.864 413.684 114.972C409.286 114.075 404.385 113.361 398.982 112.828C393.575 112.126 387.415 111.697 380.5 111.541C372.569 111.074 366.604 112.327 362.608 115.298C358.611 118.269 355.386 122.063 352.934 126.68C346.066 139.507 338.807 154.198 331.158 170.755C323.675 187.139 316.28 203.773 308.974 220.658C301.836 237.539 295.195 253.9 289.051 269.743C282.739 285.59 277.657 299.381 273.806 311.117C272.853 314.683 272.48 317.56 272.684 319.746C272.718 321.769 273.167 323.443 274.032 324.77C274.897 326.096 276.096 327.245 277.63 328.217C279.16 329.02 280.948 330.069 282.992 331.364C285.711 332.642 288.428 333.836 291.144 334.945C293.688 335.89 296.063 336.755 298.268 337.541C302.166 338.788 305.038 339.134 306.883 338.58C308.897 338.021 310.554 336.291 311.854 333.391C314.124 327.935 316.477 322.394 318.912 316.765C321.345 310.968 324.192 304.739 327.453 298.078C337.017 295.298 348.019 292.902 360.462 290.89C373.069 288.705 385.679 286.604 398.289 284.588ZM349.423 250.457C357.078 234.237 364.658 218.61 372.164 203.574C379.835 188.366 386.939 174.522 393.476 162.041C393.362 175.534 393.504 189.188 393.902 203.005C394.297 216.653 394.777 230.383 395.344 244.196C387.6 244.904 379.86 245.781 372.122 246.827C364.553 247.868 356.987 249.078 349.423 250.457Z" fill="black"></path><path d="M762.235 135.944C763.511 131.526 763.624 128.151 762.573 125.818C761.692 123.48 759.033 120.768 754.599 117.68C749.83 114.769 744.814 112.203 739.551 109.98C734.285 107.589 729.197 105.783 724.288 104.562C719.039 103.182 714.989 102.951 712.138 103.869C709.453 104.613 707.397 107.702 705.97 113.136C702.331 127.564 698.637 143.68 694.886 161.483C691.301 179.114 687.55 196.918 683.633 214.894C677.238 215.567 670.59 216.247 663.689 216.934C656.957 217.616 650.059 218.471 642.996 219.499C646.12 204.579 649.007 190.592 651.656 177.538C654.474 164.481 657.152 153.113 659.689 143.435C660.158 141.231 660.463 139.283 660.604 137.594C660.744 135.904 660.466 134.393 659.77 133.063C659.242 131.727 658.208 130.406 656.669 129.097C655.299 127.784 653.337 126.402 650.784 124.951C646.184 122.036 640.746 119.396 634.469 117.032C628.357 114.494 622.593 112.537 617.175 111.161C612.258 109.435 608.543 109.111 606.032 110.188C603.521 111.266 601.637 114.519 600.378 119.948C598.591 134.159 596.825 149.718 595.083 166.626C593.506 183.361 591.846 200.182 590.103 217.09C588.361 233.998 586.522 250.234 584.589 265.798C582.655 281.362 580.521 294.992 578.186 306.688C577.248 311.097 577.642 314.543 579.369 317.027C581.094 319.343 583.909 321.377 587.816 323.13C591.048 324.9 594.865 326.317 599.266 327.382C603.835 328.443 608.236 329.508 612.469 330.578C616.867 331.474 619.733 331.484 621.067 330.606C622.57 329.723 623.634 327.84 624.261 324.957C625.475 316.832 626.841 307.69 628.358 297.533C629.873 287.208 631.882 276.195 634.385 264.494C641.443 263.129 648.335 261.937 655.062 260.917C661.954 259.725 668.931 258.531 675.992 257.334C674.3 267.159 672.846 276.049 671.629 284.006C670.413 291.964 669.517 298.985 668.944 305.07C667.528 311.178 668.783 315.698 672.709 318.63C676.633 321.394 682.066 323.697 689.008 325.538C692.392 326.293 695.523 326.97 698.399 327.569C701.446 328.332 704.065 328.685 706.255 328.628C708.449 328.739 710.128 328.358 711.294 327.484C712.631 326.775 713.28 325.24 713.241 322.88C716.379 308.803 719.919 293.534 723.861 277.074C727.971 260.61 732.165 244.06 736.441 227.423C740.885 210.781 745.337 194.561 749.795 178.763C754.254 162.964 758.401 148.691 762.235 135.944Z" fill="black"></path><path d="M926.575 137.964C927.71 135.236 928.599 132.937 929.242 131.065C929.883 129.025 930.105 127.164 929.908 125.483C929.881 123.797 929.433 122.207 928.565 120.712C927.694 119.049 926.486 117.31 924.938 115.496C922.2 113.038 918.866 110.259 914.938 107.158C911.177 104.052 907.344 101.624 903.437 99.871C899.528 97.9499 895.891 97.202 892.526 97.6274C889.158 97.8842 886.751 100.139 885.304 104.393C876.802 120.297 868.295 135.949 859.783 151.348C851.272 166.747 842.587 181.813 833.727 196.547C828.937 182.17 824.328 168.548 819.9 155.68C815.472 142.812 811.236 131.373 807.192 121.361C804.407 116.038 801.813 112.144 799.412 109.677C797.177 107.038 793.522 105.194 788.447 104.147C783.372 103.099 778.393 102.808 773.512 103.273C768.796 103.565 763.829 103.948 758.611 104.422C754.243 105.38 751.652 106.712 750.838 108.42C749.852 109.963 750.323 112.986 752.253 117.488C755.442 126.848 759.066 136.954 763.124 147.809C767.01 158.499 771.07 169.521 775.305 180.877C779.536 192.064 783.768 203.251 788 214.438C792.231 225.625 796.2 236.228 799.907 246.248C798.077 257.931 796.737 268.59 795.885 278.223C795.03 287.689 794.073 296.06 793.014 303.339C792.75 307.73 793.227 311.09 794.446 313.419C795.662 315.579 798.143 317.791 801.889 320.053C805.622 321.473 809.69 322.8 814.094 324.033C818.5 325.436 822.734 326.589 826.795 327.495C831.193 328.391 834.145 328.483 835.65 327.769C837.156 327.055 838.302 325.001 839.089 321.608C840.791 312.458 842.574 303.053 844.437 293.393C846.297 283.564 848.566 272.966 851.243 261.598C858.482 250.785 865.965 239.46 873.692 227.623C881.42 215.785 888.731 204.296 895.627 193.155C902.523 182.014 908.673 171.651 914.078 162.067C919.651 152.478 923.817 144.444 926.575 137.964Z" fill="black"></path><path d="M427.008 425.435C426.439 425.435 425.871 425.296 425.348 424.989C423.965 424.19 423.35 422.545 423.842 421.039L474.212 269.589L445.899 250.913C444.469 249.976 443.993 248.116 444.762 246.609L476.672 184.588L452.263 168.51C450.818 167.557 450.341 165.651 451.171 164.129L527.58 23.6847C527.918 23.0698 528.426 22.578 529.056 22.2706L567.375 3.76394C567.837 3.54875 568.328 3.42578 568.82 3.42578C569.404 3.42578 569.989 3.57949 570.511 3.88691C571.48 4.45563 572.094 5.45474 572.14 6.57682L575.614 67.8454C575.63 68.1067 575.614 68.3834 575.568 68.6447L542.705 246.994C542.644 247.332 542.521 247.655 542.367 247.962L477.84 369.008C477.717 369.239 477.578 369.454 477.409 369.638L429.514 424.297C428.868 425.051 427.93 425.435 427.008 425.435Z" fill="#00AD6E"></path><path d="M568.827 6.76375L572.301 68.0323L539.422 246.381L474.895 367.427L426.999 422.102L478.185 264.626L447.735 246.35L479.214 179.87L454.098 162.117L530.507 25.2704L568.827 6.76375ZM568.827 0.0927734C567.828 0.0927734 566.844 0.307965 565.922 0.753722L527.618 19.2603C526.357 19.8598 525.327 20.8589 524.651 22.0732L448.242 158.92C446.582 161.963 447.55 165.775 450.44 167.681L470.545 182.13L441.802 243.291C440.249 246.319 441.218 250.039 444.061 251.914L470.253 267.377L420.682 419.996C419.683 423.009 420.943 426.313 423.695 427.881C424.74 428.481 425.877 428.773 426.999 428.773C428.875 428.773 430.719 427.989 432.026 426.498L479.922 371.823C480.26 371.439 480.552 371.024 480.798 370.563L545.325 249.502C545.648 248.902 545.878 248.241 546.001 247.58L578.864 69.2312C578.972 68.7086 579.003 68.1706 578.972 67.648L575.498 6.36411C575.375 4.1507 574.145 2.12173 572.224 0.999653C571.163 0.415558 569.995 0.0927734 568.827 0.0927734Z" fill="#1D1D1B"></path><path d="M449.552 165.767C448.511 165.506 447.688 164.588 447.504 163.306C447.238 161.528 448.298 159.749 449.881 159.321L486.43 149.39C488 148.959 489.504 150.048 489.783 151.829C490.048 153.607 488.988 155.385 487.402 155.828L450.826 165.753C450.385 165.88 449.951 165.867 449.552 165.767Z" fill="#1D1D1B"></path><path d="M445.429 249.11C444.194 248.945 443.112 248.103 442.707 246.84C442.134 245.089 443.081 243.215 444.832 242.641L485.245 229.354C486.98 228.778 488.87 229.728 489.458 231.481C490.031 233.232 489.084 235.106 487.331 235.695L446.919 248.982C446.418 249.133 445.916 249.175 445.429 249.11Z" fill="#1D1D1B"></path><path d="M473.875 182.812C472.773 182.589 471.863 181.62 471.657 180.277C471.392 178.482 472.461 176.707 474.045 176.307L512.01 166.586C513.596 166.17 515.104 167.291 515.383 169.088C515.648 170.883 514.578 172.658 512.994 173.059L475.03 182.779C474.626 182.885 474.243 182.886 473.875 182.812Z" fill="#1D1D1B"></path><path d="M472.754 268.315C471.701 268.076 470.853 267.174 470.638 265.895C470.33 264.123 471.354 262.322 472.939 261.847L509.432 251.161C511 250.698 512.549 251.759 512.857 253.532C513.165 255.304 512.141 257.105 510.557 257.58L474.064 268.266C473.61 268.399 473.17 268.409 472.754 268.315Z" fill="#1D1D1B"></path><path d="M471.074 375.14C470.49 375.14 469.906 374.987 469.383 374.679C467.984 373.865 467.385 372.159 467.954 370.637L512.452 251.051L484.216 232.437C482.802 231.499 482.31 229.639 483.079 228.133L515.004 166.111L488.796 153.615C487.351 152.662 486.875 150.756 487.705 149.235L565.882 5.17734C566.328 4.36268 567.096 3.76322 568.003 3.53265C568.264 3.47117 568.541 3.44043 568.802 3.44043C569.448 3.44043 570.093 3.62488 570.631 3.99378L637.526 48.1238C638.294 48.631 638.817 49.4303 638.971 50.3372C639.124 51.244 638.909 52.1817 638.356 52.9195L566.312 148.327L603.325 172.736C604.125 173.274 604.663 174.119 604.801 175.072C604.924 176.025 604.647 176.994 604.002 177.716L561.025 227.072L582.313 241.106C583.113 241.628 583.651 242.474 583.789 243.427C583.927 244.38 583.635 245.333 583.02 246.055L473.595 373.972C472.964 374.741 472.027 375.14 471.074 375.14Z" fill="#00FFA3"></path><path d="M568.814 6.76473L635.708 50.8793L561.528 149.115L601.507 175.492L556.025 227.722L580.495 243.861L471.07 371.778L516.475 249.702L486.026 231.411L515.706 166.731L490.59 150.776L568.814 6.76473ZM568.814 0.09375C568.276 0.09375 567.722 0.155232 567.2 0.29357C565.386 0.739328 563.849 1.93825 562.957 3.58295L484.734 147.625C483.074 150.668 484.042 154.465 486.932 156.386L507.052 169.036L480.108 228.399C478.54 231.427 479.524 235.147 482.367 237.022L508.406 252.377L459.938 384.153C458.816 387.181 463.453 382.524 466.235 384.153C467.296 384.783 469.948 378.465 471.1 378.465C472.991 378.465 474.866 377.65 476.173 376.128L585.599 248.211C586.844 246.751 587.397 244.83 587.136 242.939C586.859 241.033 585.798 239.358 584.2 238.297L566.093 226.354L606.564 179.872C607.825 178.427 608.394 176.491 608.148 174.585C607.886 172.679 606.826 170.972 605.212 169.912L571.165 147.455L641.072 54.8911C642.179 53.4155 642.64 51.5556 642.317 49.7419C642.01 47.9281 640.949 46.3295 639.412 45.2997L572.533 1.16972C571.38 0.478023 570.105 0.09375 568.814 0.09375Z" fill="#1D1D1B"></path><path d="M575.548 21.6787L508.516 142.525L516.447 147.479L592.97 34.3584L575.548 21.6787Z" fill="white"></path></svg>