<svg width="120" height="105" viewBox="0 0 120 105" fill="none" xmlns="http://www.w3.org/2000/svg">
<g id="Frame" cliPpath="url(#clip0_2432_32575)">
<path id="Vector" d="M103.155 64.6321C97.7032 87.7766 76.9952 105 52.2807 105C23.4069 105 0 81.4938 0 52.5025C0 23.5112 23.4069 0 52.2807 0C81.1546 0 104.561 23.5062 104.561 52.5025C104.561 56.6795 104.078 60.7376 103.16 64.6321" fill="#393939"/>
<path id="Vector_2" d="M69.7471 42.1071C73.3959 42.1071 76.3538 38.1162 76.3538 33.1932C76.3538 28.2702 73.3959 24.2793 69.7471 24.2793C66.0984 24.2793 63.1405 28.2702 63.1405 33.1932C63.1405 38.1162 66.0984 42.1071 69.7471 42.1071Z" fill="#1C1C1C"/>
<path id="Vector_3" d="M47.7612 75.8453C40.5822 70.0678 32.4312 67.3377 25.0648 67.189C23.0319 67.1543 21.8823 68.7597 22.1833 70.494C22.4941 72.2431 23.9102 73.5363 25.6568 73.6651C32.1253 74.1012 39.2944 76.9701 45.3879 82.7178C47.0112 84.2687 49.0292 84.348 49.868 82.4552C50.7068 80.5723 49.7447 77.4061 47.7661 75.8453H47.7612Z" fill="#1C1C1C"/>
<path id="Vector_4" d="M109.407 69.7607L89.6164 52.9635C85.5952 49.5842 90.1937 43.1874 94.6392 45.9126L116.867 59.2909C124.564 64.2211 116.556 75.4836 109.412 69.7607H109.407Z" fill="#545454"/>
<path id="Vector_5" d="M76.5413 64.5879C60.1308 67.328 44.5541 56.1447 41.8256 39.6646C39.0971 23.1845 50.2381 7.54179 66.6535 4.80172C83.069 2.06164 98.6357 13.2449 101.364 29.73C104.093 46.215 92.9567 61.8479 76.5413 64.5879ZM68.2719 14.5828C57.2246 16.426 49.7299 26.9453 51.5653 38.0394C53.4008 49.1335 63.8806 56.6551 74.9278 54.8119C85.9751 52.9686 93.4649 42.4493 91.6295 31.3552C89.794 20.2611 79.3191 12.7395 68.2719 14.5828Z" fill="#545454"/>
<path id="Vector_6" d="M19.3166 38.6981C18.5667 38.6981 17.8216 38.3562 17.343 37.7021C16.5289 36.6071 16.751 35.0562 17.8463 34.2386C21.4481 31.5332 25.7062 29.9328 30.5415 29.4522C28.484 28.0648 25.9331 27.3314 22.8494 27.2274C21.4925 27.1778 20.4268 26.0333 20.4712 24.6607C20.5205 23.2981 21.6652 22.2774 23.027 22.2725C29.8656 22.5103 34.992 25.295 38.2534 30.5571C38.7418 31.3499 38.7517 32.3508 38.2682 33.1436C37.7896 33.9463 36.9853 34.3972 35.9788 34.3377C29.8705 33.9017 24.8625 35.1602 20.7968 38.2026C20.3528 38.5346 19.8396 38.6981 19.3216 38.6981H19.3166Z" fill="#1C1C1C"/>
</g>
<defs>
<clipPath id="clip0_2432_32575">
<rect width="120" height="105" fill="white"/>
</clipPath>
</defs>
</svg>
