<svg width="120" height="120" viewBox="0 0 120 120" fill="none" xmlns="http://www.w3.org/2000/svg">
<path d="M45.5174 108.037C45.5224 107.509 44.8363 107.075 43.9849 107.067C43.1336 107.059 42.4395 107.48 42.4345 108.008C42.4296 108.536 43.1157 108.97 43.967 108.978C44.8183 108.986 45.5124 108.565 45.5174 108.037Z" fill="#1F3154"/>
<path d="M51.9816 104.225C51.9866 103.697 51.3005 103.263 50.4492 103.255C49.5978 103.247 48.9037 103.668 48.8987 104.196C48.8938 104.724 49.5799 105.158 50.4312 105.166C51.2825 105.174 51.9767 104.753 51.9816 104.225Z" fill="#1F3154"/>
<path d="M58.4459 100.413C58.4508 99.8856 57.7647 99.4513 56.9134 99.4433C56.0621 99.4353 55.3679 99.8567 55.363 100.385C55.358 100.912 56.0441 101.347 56.8955 101.355C57.7468 101.363 58.4409 100.941 58.4459 100.413Z" fill="#1F3154"/>
<path d="M64.9102 96.6001C64.9152 96.0723 64.2291 95.6379 63.3777 95.6299C62.5264 95.6219 61.8323 96.0433 61.8273 96.5712C61.8224 97.099 62.5085 97.5333 63.3598 97.5413C64.2111 97.5493 64.9053 97.1279 64.9102 96.6001Z" fill="#1F3154"/>
<path d="M71.3745 92.8074C71.3794 92.2796 70.6933 91.8452 69.842 91.8372C68.9907 91.8292 68.2965 92.2506 68.2916 92.7784C68.2866 93.3063 68.9727 93.7406 69.824 93.7486C70.6754 93.7566 71.3695 93.3352 71.3745 92.8074Z" fill="#1F3154"/>
<path d="M77.8387 89.0013C77.8436 88.4735 77.1575 88.0392 76.3062 88.0312C75.4549 88.0232 74.7608 88.4446 74.7558 88.9724C74.7508 89.5002 75.437 89.9346 76.2883 89.9426C77.1396 89.9506 77.8337 89.5292 77.8387 89.0013Z" fill="#1F3154"/>
<path d="M84.3029 85.2053C84.3079 84.6775 83.6218 84.2432 82.7705 84.2352C81.9191 84.2272 81.225 84.6486 81.22 85.1764C81.2151 85.7042 81.9012 86.1386 82.7525 86.1466C83.6038 86.1545 84.298 85.7331 84.3029 85.2053Z" fill="#1F3154"/>
<path d="M90.7672 81.3895C90.7721 80.8617 90.086 80.4274 89.2347 80.4194C88.3834 80.4114 87.6892 80.8328 87.6843 81.3606C87.6793 81.8884 88.3654 82.3228 89.2167 82.3308C90.0681 82.3387 90.7622 81.9173 90.7672 81.3895Z" fill="#1F3154"/>
<path d="M97.2314 77.5732C97.2363 77.0454 96.5502 76.6111 95.6989 76.6031C94.8476 76.5951 94.1535 77.0165 94.1485 77.5443C94.1435 78.0721 94.8297 78.5065 95.681 78.5145C96.5323 78.5225 97.2264 78.1011 97.2314 77.5732Z" fill="#1F3154"/>
<path d="M50.1147 112.379C50.1197 111.851 49.4336 111.417 48.5823 111.409C47.731 111.401 47.0368 111.822 47.0319 112.35C47.0269 112.878 47.713 113.312 48.5643 113.32C49.4156 113.328 50.1098 112.907 50.1147 112.379Z" fill="#1F3154"/>
<path d="M56.5791 108.567C56.584 108.039 55.8979 107.604 55.0466 107.596C54.1953 107.588 53.5011 108.01 53.4962 108.538C53.4912 109.066 54.1773 109.5 55.0286 109.508C55.88 109.516 56.5741 109.094 56.5791 108.567Z" fill="#1F3154"/>
<path d="M63.0433 104.755C63.0482 104.227 62.3621 103.793 61.5108 103.785C60.6595 103.777 59.9653 104.198 59.9604 104.726C59.9554 105.254 60.6415 105.688 61.4929 105.696C62.3442 105.704 63.0383 105.283 63.0433 104.755Z" fill="#1F3154"/>
<path d="M69.5075 100.942C69.5125 100.414 68.8264 99.9795 67.975 99.9715C67.1237 99.9635 66.4296 100.385 66.4246 100.913C66.4197 101.441 67.1058 101.875 67.9571 101.883C68.8084 101.891 69.5026 101.469 69.5075 100.942Z" fill="#1F3154"/>
<path d="M75.9718 97.1489C75.9767 96.6211 75.2906 96.1868 74.4393 96.1788C73.588 96.1708 72.8938 96.5922 72.8889 97.12C72.8839 97.6478 73.57 98.0822 74.4213 98.0902C75.2726 98.0981 75.9668 97.6767 75.9718 97.1489Z" fill="#1F3154"/>
<path d="M82.436 93.3429C82.4409 92.8151 81.7548 92.3807 80.9035 92.3727C80.0522 92.3647 79.358 92.7861 79.3531 93.314C79.3481 93.8418 80.0343 94.2761 80.8856 94.2841C81.7369 94.2921 82.431 93.8707 82.436 93.3429Z" fill="#1F3154"/>
<path d="M88.9003 89.5469C88.9053 89.0191 88.2192 88.5847 87.3679 88.5767C86.5165 88.5687 85.8224 88.9901 85.8174 89.5179C85.8125 90.0458 86.4986 90.4801 87.3499 90.4881C88.2012 90.4961 88.8954 90.0747 88.9003 89.5469Z" fill="#1F3154"/>
<path d="M95.3646 85.7311C95.3695 85.2033 94.6834 84.7689 93.8321 84.7609C92.9808 84.7529 92.2866 85.1743 92.2817 85.7021C92.2767 86.23 92.9628 86.6643 93.8141 86.6723C94.6655 86.6803 95.3596 86.2589 95.3646 85.7311Z" fill="#1F3154"/>
<path d="M101.829 81.9148C101.834 81.387 101.148 80.9526 100.296 80.9446C99.445 80.9366 98.7509 81.358 98.7459 81.8859C98.741 82.4137 99.4271 82.848 100.278 82.856C101.13 82.864 101.824 82.4426 101.829 81.9148Z" fill="#1F3154"/>
<path d="M50.0074 112.374C50.0124 111.846 49.3263 111.412 48.475 111.404C47.6237 111.396 46.9295 111.817 46.9246 112.345C46.9196 112.873 47.6057 113.307 48.457 113.315C49.3083 113.323 50.0025 112.902 50.0074 112.374Z" fill="#1F3154"/>
<path d="M56.4718 108.562C56.4767 108.034 55.7906 107.599 54.9393 107.591C54.088 107.583 53.3938 108.005 53.3889 108.533C53.3839 109.061 54.07 109.495 54.9213 109.503C55.7727 109.511 56.4668 109.089 56.4718 108.562Z" fill="#1F3154"/>
<path d="M62.936 104.75C62.9409 104.222 62.2548 103.788 61.4035 103.78C60.5522 103.772 59.858 104.193 59.8531 104.721C59.8481 105.249 60.5342 105.683 61.3856 105.691C62.2369 105.699 62.931 105.278 62.936 104.75Z" fill="#1F3154"/>
<path d="M69.4002 100.937C69.4052 100.409 68.7191 99.9745 67.8677 99.9665C67.0164 99.9585 66.3223 100.38 66.3173 100.908C66.3124 101.436 66.9985 101.87 67.8498 101.878C68.7011 101.886 69.3953 101.464 69.4002 100.937Z" fill="#1F3154"/>
<path d="M75.8645 97.1439C75.8694 96.6161 75.1833 96.1817 74.332 96.1738C73.4807 96.1658 72.7865 96.5872 72.7816 97.115C72.7766 97.6428 73.4627 98.0772 74.314 98.0852C75.1653 98.0931 75.8595 97.6717 75.8645 97.1439Z" fill="#1F3154"/>
<path d="M82.3287 93.3379C82.3336 92.8101 81.6475 92.3757 80.7962 92.3677C79.9449 92.3597 79.2507 92.7811 79.2458 93.309C79.2408 93.8368 79.927 94.2711 80.7783 94.2791C81.6296 94.2871 82.3237 93.8657 82.3287 93.3379Z" fill="#1F3154"/>
<path d="M88.793 89.5419C88.798 89.0141 88.1119 88.5797 87.2606 88.5717C86.4092 88.5637 85.7151 88.9851 85.7101 89.5129C85.7052 90.0407 86.3913 90.4751 87.2426 90.4831C88.0939 90.4911 88.7881 90.0697 88.793 89.5419Z" fill="#1F3154"/>
<path d="M95.2573 85.7261C95.2622 85.1983 94.5761 84.7639 93.7248 84.7559C92.8735 84.7479 92.1793 85.1693 92.1744 85.6971C92.1694 86.225 92.8555 86.6593 93.7068 86.6673C94.5582 86.6753 95.2523 86.2539 95.2573 85.7261Z" fill="#1F3154"/>
<path d="M101.721 81.9098C101.726 81.382 101.04 80.9476 100.189 80.9396C99.3377 80.9316 98.6436 81.353 98.6386 81.8809C98.6337 82.4087 99.3198 82.843 100.171 82.851C101.022 82.859 101.717 82.4376 101.721 81.9098Z" fill="#1F3154"/>
<path d="M54.6048 116.715C54.6098 116.188 53.9236 115.753 53.0723 115.745C52.221 115.737 51.5269 116.159 51.5219 116.687C51.517 117.214 52.2031 117.649 53.0544 117.657C53.9057 117.665 54.5998 117.243 54.6048 116.715Z" fill="#1F3154"/>
<path d="M61.069 112.903C61.074 112.376 60.3879 111.941 59.5366 111.933C58.6852 111.925 57.9911 112.347 57.9861 112.874C57.9812 113.402 58.6673 113.837 59.5186 113.845C60.3699 113.853 61.0641 113.431 61.069 112.903Z" fill="#1F3154"/>
<path d="M67.5333 109.092C67.5382 108.564 66.8521 108.13 66.0008 108.122C65.1495 108.114 64.4553 108.535 64.4504 109.063C64.4454 109.591 65.1315 110.025 65.9829 110.033C66.8342 110.041 67.5283 109.619 67.5333 109.092Z" fill="#1F3154"/>
<path d="M73.9975 105.278C74.0025 104.75 73.3164 104.316 72.465 104.308C71.6137 104.3 70.9196 104.721 70.9146 105.249C70.9097 105.777 71.5958 106.211 72.4471 106.219C73.2984 106.227 73.9926 105.806 73.9975 105.278Z" fill="#1F3154"/>
<path d="M80.4619 101.485C80.4668 100.958 79.7807 100.523 78.9294 100.515C78.0781 100.507 77.3839 100.929 77.379 101.457C77.374 101.984 78.0601 102.419 78.9114 102.427C79.7628 102.435 80.4569 102.013 80.4619 101.485Z" fill="#1F3154"/>
<path d="M36.0329 98.917C36.0379 98.3892 35.3517 97.9548 34.5004 97.9468C33.6491 97.9388 32.955 98.3602 32.95 98.8881C32.9451 99.4159 33.6312 99.8502 34.4825 99.8582C35.3338 99.8662 36.0279 99.4448 36.0329 98.917Z" fill="#1F3154"/>
<path d="M42.4971 95.105C42.5021 94.5772 41.816 94.1428 40.9647 94.1348C40.1133 94.1268 39.4192 94.5482 39.4142 95.076C39.4093 95.6039 40.0954 96.0382 40.9467 96.0462C41.798 96.0542 42.4922 95.6328 42.4971 95.105Z" fill="#1F3154"/>
<path d="M48.9614 91.2932C48.9664 90.7654 48.2803 90.331 47.429 90.323C46.5776 90.3151 45.8835 90.7365 45.8785 91.2643C45.8736 91.7921 46.5597 92.2264 47.411 92.2344C48.2623 92.2424 48.9565 91.821 48.9614 91.2932Z" fill="#1F3154"/>
<path d="M55.4256 87.4799C55.4306 86.952 54.7445 86.5177 53.8931 86.5097C53.0418 86.5017 52.3477 86.9231 52.3427 87.4509C52.3378 87.9787 53.0239 88.4131 53.8752 88.4211C54.7265 88.4291 55.4207 88.0077 55.4256 87.4799Z" fill="#1F3154"/>
<path d="M61.89 83.6871C61.8949 83.1593 61.2088 82.725 60.3575 82.717C59.5062 82.709 58.812 83.1304 58.8071 83.6582C58.8021 84.186 59.4882 84.6204 60.3395 84.6284C61.1909 84.6364 61.885 84.215 61.89 83.6871Z" fill="#1F3154"/>
<path d="M68.3542 79.8811C68.3591 79.3533 67.673 78.9189 66.8217 78.9109C65.9704 78.9029 65.2763 79.3243 65.2713 79.8522C65.2663 80.38 65.9525 80.8143 66.8038 80.8223C67.6551 80.8303 68.3492 80.4089 68.3542 79.8811Z" fill="#1F3154"/>
<path d="M74.8184 76.0851C74.8234 75.5573 74.1373 75.1229 73.286 75.1149C72.4346 75.1069 71.7405 75.5283 71.7355 76.0561C71.7306 76.584 72.4167 77.0183 73.268 77.0263C74.1193 77.0343 74.8135 76.6129 74.8184 76.0851Z" fill="#1F3154"/>
<path d="M81.2827 72.2693C81.2876 71.7415 80.6015 71.3071 79.7502 71.2991C78.8989 71.2911 78.2047 71.7125 78.1998 72.2403C78.1948 72.7682 78.8809 73.2025 79.7322 73.2105C80.5836 73.2185 81.2777 72.7971 81.2827 72.2693Z" fill="#1F3154"/>
<path d="M87.7469 68.453C87.7518 67.9252 87.0657 67.4908 86.2144 67.4828C85.3631 67.4748 84.669 67.8962 84.664 68.4241C84.659 68.9519 85.3452 69.3862 86.1965 69.3942C87.0478 69.4022 87.7419 68.9808 87.7469 68.453Z" fill="#1F3154"/>
<path d="M40.4235 103.308C40.4285 102.78 39.7424 102.346 38.8911 102.338C38.0397 102.33 37.3456 102.751 37.3406 103.279C37.3357 103.807 38.0218 104.241 38.8731 104.249C39.7244 104.257 40.4186 103.836 40.4235 103.308Z" fill="#1F3154"/>
<path d="M46.8878 99.4957C46.8927 98.9679 46.2066 98.5336 45.3553 98.5256C44.504 98.5176 43.8098 98.939 43.8049 99.4668C43.7999 99.9946 44.486 100.429 45.3373 100.437C46.1887 100.445 46.8828 100.024 46.8878 99.4957Z" fill="#1F3154"/>
<path d="M53.3521 95.684C53.357 95.1561 52.6709 94.7218 51.8196 94.7138C50.9683 94.7058 50.2741 95.1272 50.2692 95.655C50.2642 96.1828 50.9503 96.6172 51.8016 96.6252C52.653 96.6332 53.3471 96.2118 53.3521 95.684Z" fill="#1F3154"/>
<path d="M59.8164 91.8706C59.8213 91.3428 59.1352 90.9084 58.2839 90.9004C57.4326 90.8924 56.7384 91.3138 56.7335 91.8417C56.7285 92.3695 57.4146 92.8038 58.2659 92.8118C59.1173 92.8198 59.8114 92.3984 59.8164 91.8706Z" fill="#1F3154"/>
<path d="M66.2806 88.0779C66.2855 87.5501 65.5994 87.1157 64.7481 87.1077C63.8968 87.0997 63.2026 87.5211 63.1977 88.0489C63.1927 88.5768 63.8789 89.0111 64.7302 89.0191C65.5815 89.0271 66.2756 88.6057 66.2806 88.0779Z" fill="#1F3154"/>
<path d="M72.7448 84.2719C72.7498 83.744 72.0637 83.3097 71.2123 83.3017C70.361 83.2937 69.6669 83.7151 69.6619 84.2429C69.657 84.7707 70.3431 85.2051 71.1944 85.2131C72.0457 85.2211 72.7399 84.7997 72.7448 84.2719Z" fill="#1F3154"/>
<path d="M79.2091 80.4758C79.214 79.948 78.5279 79.5137 77.6766 79.5057C76.8253 79.4977 76.1311 79.9191 76.1262 80.4469C76.1212 80.9747 76.8073 81.4091 77.6586 81.4171C78.5099 81.4251 79.2041 81.0037 79.2091 80.4758Z" fill="#1F3154"/>
<path d="M85.6733 76.66C85.6782 76.1322 84.9921 75.6979 84.1408 75.6899C83.2895 75.6819 82.5953 76.1033 82.5904 76.6311C82.5854 77.1589 83.2715 77.5933 84.1229 77.6013C84.9742 77.6093 85.6683 77.1879 85.6733 76.66Z" fill="#1F3154"/>
<path d="M92.1375 72.8438C92.1425 72.3159 91.4564 71.8816 90.605 71.8736C89.7537 71.8656 89.0596 72.287 89.0546 72.8148C89.0497 73.3426 89.7358 73.777 90.5871 73.785C91.4384 73.793 92.1326 73.3716 92.1375 72.8438Z" fill="#1F3154"/>
<path d="M86.1519 35.1977L86.1119 50.6977C85.1816 51.2484 83.6614 51.2484 82.7214 50.6977C82.2414 50.4273 82.0114 50.0669 82.0114 49.7064L82.0514 34.1964C82.0514 34.5569 82.2912 34.9174 82.7614 35.1977C83.7015 35.7384 85.2216 35.7384 86.1519 35.1977Z" fill="white"/>
<path d="M84.4206 51.6587C83.711 51.6587 82.9992 51.496 82.4437 51.1707C81.824 50.8217 81.4633 50.2865 81.4633 49.7064L81.5039 34.195C81.505 33.8921 81.7501 33.6481 82.052 33.6481C82.3538 33.6481 82.6 33.8932 82.6 34.1961C82.6 34.3631 82.7659 34.5621 83.042 34.727C83.8084 35.169 85.1089 35.168 85.8774 34.7238C86.0454 34.6264 86.2563 34.6242 86.4265 34.7238C86.5966 34.8212 86.7005 35.0031 86.7005 35.199L86.6598 50.6986C86.6598 50.8924 86.557 51.0711 86.3911 51.1685C85.8399 51.4949 85.1303 51.6587 84.4206 51.6587ZM82.5957 35.732L82.5593 49.7075C82.5593 49.8787 82.7166 50.066 82.9896 50.2202C83.6864 50.6269 84.7931 50.6719 85.5648 50.3583L85.6023 36.006C84.6219 36.2661 83.4477 36.1762 82.5957 35.732Z" fill="#1F3154"/>
<path d="M95.5843 33.4574L95.5345 48.9673C95.5345 48.4967 95.2346 48.0361 94.6047 47.6657C93.9845 47.3052 93.1841 47.135 92.3642 47.135C91.5438 47.135 90.764 47.3052 90.134 47.6657L86.6537 49.6883L86.6937 34.1883L90.1741 32.1557C90.804 31.7953 91.5941 31.625 92.4043 31.625C93.2242 31.625 94.0246 31.7953 94.6545 32.1657C95.2747 32.5262 95.5745 32.9868 95.5843 33.4574Z" fill="white"/>
<path d="M86.6534 50.2363C86.5592 50.2363 86.4639 50.2117 86.3794 50.1624C86.2092 50.065 86.1053 49.8831 86.1053 49.6872L86.146 34.1876C86.146 33.9928 86.2498 33.8129 86.4179 33.7155L89.8976 31.683C91.3019 30.8813 93.5785 30.8963 94.9325 31.6937C95.6913 32.1347 96.1184 32.7576 96.1323 33.4469V33.4597L96.082 48.969C96.0809 49.2708 95.8358 49.5149 95.534 49.5149C95.2322 49.5149 94.986 49.2687 94.986 48.9669C94.986 48.5826 94.5728 48.2829 94.3267 48.1373C93.3195 47.5529 91.4528 47.5412 90.406 48.1416L86.9284 50.1624C86.8439 50.2117 86.7486 50.2363 86.6534 50.2363ZM87.241 34.5033L87.2035 48.7346L89.859 47.1912C91.2558 46.3927 93.5271 46.4077 94.88 47.1912C94.9175 47.2136 94.9549 47.2361 94.9913 47.2597L95.0363 33.4629C95.0245 33.0723 94.6199 32.7801 94.3791 32.6398C93.3644 32.0415 91.4902 32.033 90.4456 32.6313L87.241 34.5033Z" fill="#1F3154"/>
<path d="M75.3355 3.40588L75.1856 56.3741C75.1856 57.095 74.7154 57.816 73.7653 58.3667L32.4012 82.4376C31.0009 83.2487 30.3309 84.29 30.3309 85.3614L30.4808 32.3932C30.4808 31.3118 31.1511 30.2805 32.5511 29.4695L73.9155 5.39844C74.8655 4.84775 75.3355 4.12685 75.3355 3.40588Z" fill="#E0FEF2"/>
<path d="M75.3354 3.4093L75.1854 56.3775C75.1854 57.0984 74.7154 57.8194 73.7654 58.3701L32.401 82.441C31.001 83.2521 30.3307 84.2935 30.3307 85.3648L30.4609 40.6372C33.4011 42.9903 37.0416 44.382 41.002 44.382C50.713 44.382 58.5936 35.9912 58.5936 25.6479C58.5936 22.0533 57.6436 18.689 55.9935 15.8353L73.9153 5.40186C74.8654 4.85115 75.3354 4.13025 75.3354 3.4093Z" fill="#1BF3A4"/>
<path d="M30.3309 85.9097C30.0291 85.9097 29.7829 85.6635 29.7829 85.3617V85.3413L29.9328 32.3926C29.9328 31.4624 30.3395 30.1181 32.2757 28.9953L73.6391 4.92437C74.3766 4.49729 74.7844 3.96106 74.7876 3.41305V3.40448C74.7886 3.10157 75.0337 2.85754 75.3356 2.85754C75.6374 2.85754 75.8836 3.10371 75.8836 3.40555V3.42053L75.7338 56.3746C75.7338 57.3326 75.1322 58.2081 74.0394 58.8407L32.6771 82.9116C31.5061 83.5892 30.8843 84.4326 30.8789 85.3488V85.3627C30.8779 85.6656 30.6327 85.9097 30.3309 85.9097ZM74.7822 5.46811C74.6045 5.61153 74.4065 5.74639 74.1903 5.87269L32.827 29.9436C32.006 30.4188 31.0288 31.2291 31.0288 32.3936L30.8864 82.902C31.2257 82.5595 31.641 82.2448 32.1259 81.9633L73.4892 57.8924C74.2299 57.4642 74.6377 56.9248 74.6377 56.3736L74.7822 5.46811Z" fill="#1F3154"/>
<path d="M90.9438 11.2402C92.8625 12.3493 92.8727 14.1409 90.9664 15.25L49.5989 39.3187C46.3279 41.2284 41.9765 42.1932 37.6593 42.1899C33.3535 42.1932 28.9912 41.2285 25.6873 39.3188C22.3892 37.4124 20.7116 34.8858 20.6976 32.3854C20.6834 29.885 22.3328 27.3584 25.6095 25.452L66.977 1.38329C68.8832 0.274184 71.9783 0.277473 73.897 1.38656C75.81 2.49233 75.8256 4.28713 73.9194 5.39626L32.5519 29.4649C31.1533 30.2787 30.4801 31.3157 30.4805 32.3886C30.4922 33.4551 31.177 34.4919 32.5847 35.3057C33.9927 36.1195 35.7885 36.5165 37.6275 36.5198C39.472 36.5133 41.2634 36.1227 42.662 35.3089L84.0295 11.2403C85.9358 10.1312 89.0308 10.1344 90.9438 11.2402Z" fill="white"/>
<path d="M37.6285 42.7374C33.0357 42.7374 28.6986 41.6928 25.4138 39.7929C22.0839 37.8695 20.1648 35.1701 20.1498 32.3883C20.1348 29.6054 22.024 26.9049 25.3346 24.9783L66.7022 0.909532C68.7872 -0.304245 72.0689 -0.303176 74.1711 0.912737C75.2778 1.55174 75.8868 2.43477 75.889 3.39806C75.89 4.35602 75.2885 5.2337 74.1946 5.87057L32.827 29.9393C31.6496 30.6233 31.0277 31.4699 31.0288 32.3872C31.0384 33.2981 31.6721 34.1447 32.8591 34.8319C34.1263 35.564 35.8196 35.9686 37.6285 35.9718C39.447 35.9654 41.1371 35.5619 42.3873 34.8351L83.7549 10.7663C85.8399 9.5536 89.1205 9.55254 91.2184 10.7663C92.3262 11.4064 92.9363 12.2894 92.9374 13.2516C92.9395 14.2096 92.3369 15.0873 91.2419 15.7241L49.8743 39.7929C46.6215 41.6917 42.292 42.7374 37.682 42.7374H37.6285ZM70.427 1.0947C69.2753 1.0947 68.1258 1.34943 67.2534 1.85678L25.8847 25.9266C22.9231 27.6488 21.233 30.0025 21.2458 32.3819C21.2587 34.7645 22.9777 37.1203 25.9618 38.8446C29.0379 40.6224 33.2904 41.6414 37.6317 41.6414C37.6467 41.6403 37.6628 41.6403 37.6799 41.6414C42.0362 41.6414 46.2779 40.6224 49.3231 38.8457L90.6918 14.7758C91.4335 14.3445 91.8424 13.8029 91.8413 13.2527C91.8413 12.6972 91.425 12.1513 90.6704 11.7146C88.9097 10.6989 86.0551 10.6967 84.3051 11.7146L42.9374 35.7834C41.5042 36.6161 39.6686 37.0603 37.6296 37.0678C35.6291 37.0646 33.741 36.6076 32.311 35.7802C30.7912 34.9025 29.9467 33.6995 29.9328 32.3947C29.9317 31.0771 30.7633 29.8708 32.2768 28.991L73.6445 4.92223C74.3851 4.49196 74.7929 3.95036 74.7929 3.40022C74.7919 2.84362 74.3766 2.29669 73.6231 1.86106C72.74 1.3505 71.5819 1.0947 70.427 1.0947Z" fill="#1F3154"/>
<path d="M92.3876 13.2585L92.2372 66.2267C92.2372 66.9477 91.7674 67.6686 90.8171 68.2193L49.453 92.2903L49.6029 39.3221L90.967 15.2511C91.9173 14.7004 92.3876 13.9794 92.3876 13.2585Z" fill="#E0FEF2"/>
<path d="M92.3871 13.2621L92.2372 66.2303C92.2372 66.9512 91.767 67.6721 90.8172 68.2228L49.4528 92.2938L49.5527 57.2487C50.6829 57.4189 51.833 57.5091 53.0133 57.5091C65.5446 57.5091 75.6955 47.3359 75.6955 34.7898C75.6955 31.4155 74.9554 28.2113 73.6352 25.3376L90.9671 15.2546C91.9174 14.704 92.3871 13.983 92.3871 13.2621Z" fill="#1BF3A4"/>
<path d="M49.599 39.3187L49.449 92.2894C46.178 94.1992 41.8265 95.1639 37.5094 95.1606C33.2035 95.1639 28.8412 94.1992 25.5374 92.2895C22.2393 90.3831 20.5617 87.8565 20.5477 85.3561L20.6976 32.3855C20.7117 34.8858 22.3893 37.4124 25.6874 39.3188C28.9912 41.2286 33.3535 42.1933 37.6594 42.1899C41.9765 42.1932 46.328 41.2285 49.599 39.3187Z" fill="#E0FEF2"/>
<path d="M49.6041 39.319L49.4472 92.2918C46.1815 94.1978 41.8274 95.1614 37.5048 95.1614C33.2029 95.1614 28.8381 94.1978 25.5412 92.2918C22.2443 90.3857 20.5591 87.8511 20.5486 85.3586L20.6219 60.6631C22.3488 61.679 24.2643 62.234 26.2843 62.234C33.9355 62.234 40.1527 54.1907 40.1527 44.2622C40.1527 43.5291 40.1215 42.796 40.0482 42.0839C43.5439 41.8011 46.9351 40.869 49.6041 39.319Z" fill="white"/>
<path d="M49.4526 92.8381C49.3584 92.8381 49.2632 92.8134 49.1786 92.7642C49.0084 92.6668 48.9035 92.4848 48.9046 92.289L49.0544 39.3209C49.0555 39.1261 49.1583 38.9463 49.3263 38.8478L90.6908 14.7769C91.4314 14.3488 91.8392 13.8093 91.8392 13.2581C91.8403 12.9552 92.0854 12.7101 92.3873 12.7101C92.6891 12.7101 92.9353 12.9563 92.9353 13.2581V13.2688L92.7854 66.2283C92.7854 67.1852 92.1839 68.0607 91.0911 68.6933L49.7288 92.7642C49.6431 92.8134 49.5479 92.8381 49.4526 92.8381ZM50.1494 39.6378L50.0039 91.3353L90.5409 67.7449C91.2816 67.3168 91.6894 66.7774 91.6894 66.2272L91.8339 15.3206C91.6562 15.4641 91.4582 15.6 91.2409 15.7252L50.1494 39.6378Z" fill="#1F3154"/>
<path d="M81.5843 61.7756C80.8704 61.7756 80.1554 61.6118 79.5988 61.2864C78.977 60.9279 78.6184 60.3937 78.6184 59.8222L78.658 44.3108C78.658 43.7403 79.0048 43.2265 79.6331 42.8658L92.0512 35.6378C92.2224 35.5372 92.4323 35.5383 92.6014 35.6367C92.7715 35.7352 92.8764 35.9172 92.8754 36.1141L92.8154 55.5879C92.8154 55.7827 92.7116 55.9625 92.5436 56.0599L83.5527 61.296C83.5281 61.311 83.5024 61.3228 83.4767 61.3335C82.9383 61.6279 82.2619 61.7756 81.5843 61.7756ZM91.774 37.0667L80.1822 43.8141C79.9125 43.9694 79.754 44.1545 79.754 44.3119L79.7144 59.8233C79.7144 59.9881 79.8771 60.1818 80.1501 60.3381C80.8372 60.7416 81.9429 60.7887 82.7189 60.4804L82.7681 45.3116C82.7692 45.0097 83.0143 44.7657 83.3161 44.7657C83.6191 44.7668 83.8652 45.0129 83.8642 45.3148L83.8267 59.8682L91.7205 55.2711L91.774 37.0667Z" fill="#1F3154"/>
<path d="M37.5322 95.7087H37.4872C32.888 95.7087 28.5477 94.6629 25.2629 92.7631C21.9341 90.8386 20.015 88.1403 20 85.3595L20.1498 32.384C20.1509 32.0822 20.395 31.837 20.6968 31.837C20.9986 31.837 21.2437 32.08 21.2459 32.3819C21.2587 34.7644 22.9777 37.1203 25.9618 38.8446C29.038 40.6224 33.2904 41.6414 37.6317 41.6414C37.6467 41.6403 37.6628 41.6403 37.6799 41.6414C42.0362 41.6414 46.278 40.6224 49.3231 38.8457C49.4933 38.7461 49.7009 38.7472 49.8733 38.8435C50.0434 38.942 50.1483 39.1239 50.1473 39.3198L49.9974 92.29C49.9963 92.4848 49.8936 92.6646 49.7255 92.762C46.4717 94.6629 42.1422 95.7087 37.5322 95.7087ZM37.5097 94.6126H37.5301C41.7601 94.6126 45.8798 93.6525 48.9024 91.9699L49.0491 40.2446C45.9055 41.8576 41.911 42.7374 37.682 42.7374H37.6285C33.0357 42.7374 28.6987 41.6927 25.4138 39.7929C23.5503 38.7161 22.1289 37.3975 21.2362 35.9568L21.096 85.3574C21.1089 87.7346 22.8278 90.0904 25.8109 91.8148C28.8871 93.5936 33.1427 94.6126 37.4883 94.6126H37.5097Z" fill="#1F3154"/>
<path d="M90.9441 11.2401C89.0308 10.1343 85.9357 10.131 84.0298 11.2401L42.662 35.3088C41.2634 36.1226 39.472 36.5132 37.6276 36.5198C35.7885 36.5164 33.9927 36.1194 32.5848 35.3056C31.1769 34.4919 30.4923 33.455 30.4806 32.3886C30.4801 31.3155 31.1533 30.2786 32.5518 29.4648L37.7868 26.419L29.7234 27.3308L28.6545 23.6803L25.6095 25.4519C22.3328 27.3583 20.6834 29.8849 20.6976 32.3853C20.7118 34.8857 22.3892 37.4123 25.6874 39.3187C28.9912 41.2284 33.3534 42.1931 37.6593 42.1898C41.9766 42.1931 46.3279 41.2283 49.599 39.3186L90.9665 15.2499C92.8725 14.1408 92.8627 12.3492 90.9441 11.2401Z" fill="white"/>
<path d="M37.6296 42.7374C33.0357 42.7374 28.6986 41.6927 25.4138 39.7929C22.0839 37.8695 20.1648 35.1701 20.1498 32.3882C20.1348 29.6053 22.024 26.9049 25.3335 24.9783L28.3797 23.2058C28.6387 23.0538 28.9737 23.1405 29.1289 23.4048C29.2809 23.666 29.1921 24.001 28.9298 24.1541L25.8847 25.9255C22.9241 27.6487 21.233 30.0024 21.2458 32.3818C21.2587 34.7644 22.9777 37.1202 25.9618 38.8445C29.0379 40.6224 33.2904 41.6413 37.6317 41.6413C37.6467 41.6403 37.6628 41.6403 37.6799 41.6413C42.0362 41.6413 46.2779 40.6224 49.3231 38.8456L90.6918 14.7757C91.4335 14.3444 91.8424 13.8028 91.8413 13.2526C91.8403 12.6971 91.425 12.1513 90.6704 11.7146C88.9097 10.6988 86.0551 10.6967 84.3051 11.7146L42.9374 35.7834C41.5042 36.6161 39.6686 37.0603 37.6296 37.0678C35.6291 37.0646 33.741 36.6075 32.311 35.7801C30.7912 34.9025 29.9467 33.6994 29.9328 32.3947C29.9317 31.0771 30.7633 29.8708 32.2768 28.991L37.5108 25.9448C37.7709 25.7928 38.1059 25.8806 38.2611 26.1428C38.4131 26.405 38.3242 26.74 38.0631 26.8931L32.828 29.9393C31.6496 30.6232 31.0277 31.4699 31.0288 32.3872C31.0384 33.298 31.6721 34.1447 32.8591 34.8318C34.1263 35.5639 35.8196 35.9685 37.6285 35.9717C39.447 35.9653 41.1371 35.5618 42.3873 34.835L83.7549 10.7663C85.8399 9.55355 89.1205 9.55248 91.2184 10.7663C92.3251 11.4063 92.9363 12.2883 92.9374 13.2516C92.9384 14.2085 92.3369 15.0862 91.243 15.7241L49.8743 39.7929C46.6215 41.6916 42.292 42.7374 37.682 42.7374H37.6296Z" fill="#1F3154"/>
<path d="M100.388 33.478L100.348 48.988C100.338 50.1595 99.5681 51.331 98.0377 52.2322L92.267 55.5865L83.2764 60.8232L83.3164 45.3132L92.3071 40.0765L98.0777 36.7222C99.6081 35.831 100.378 34.6595 100.388 33.478Z" fill="#E0FEF2"/>
<path d="M100.388 33.478L100.348 48.988C100.338 50.1595 99.5681 51.331 98.0377 52.2322L92.267 55.5865L83.2764 60.8232L83.2964 52.883C83.8463 53.0032 84.4264 53.0732 85.0163 53.0732C89.317 53.0732 92.8071 49.5787 92.8071 45.2832C92.8071 43.561 92.247 41.9589 91.2972 40.6673L92.3071 40.0765L98.0777 36.7222C99.6081 35.831 100.378 34.6595 100.388 33.478Z" fill="white"/>
<path d="M83.2765 61.3709C83.1823 61.3709 83.0871 61.3463 83.0025 61.2982C82.8323 61.1997 82.7285 61.0177 82.7285 60.8219L82.7681 45.3126C82.7681 45.1178 82.8719 44.938 83.04 44.8406L97.8021 36.2479C99.1079 35.4879 99.8315 34.5032 99.8401 33.4735C99.8422 33.1728 100.087 32.9298 100.388 32.9298H100.391C100.693 32.9319 100.937 33.1771 100.936 33.4789L100.896 48.9892C100.884 50.4138 99.9674 51.7325 98.3159 52.7044L83.5527 61.296C83.4671 61.3463 83.3718 61.3709 83.2765 61.3709ZM83.8631 45.6294L83.8267 59.8682L97.7625 51.7582C99.0662 50.9908 99.7908 50.005 99.8005 48.9828L99.8336 36.0413C99.4387 36.4641 98.9431 36.8526 98.3523 37.1962L83.8631 45.6294Z" fill="#1F3154"/>
<path d="M83.3165 45.3133L83.2662 60.8233C82.3364 61.364 80.8162 61.364 79.8762 60.8133C79.4059 60.5429 79.1661 60.1825 79.1661 59.822L79.2062 44.312C79.2062 44.6725 79.4459 45.033 79.9162 45.3133C80.8562 45.854 82.3764 45.854 83.3165 45.3133Z" fill="#1F3154"/>
<path d="M81.5833 61.7756C80.8704 61.7756 80.1554 61.6119 79.5988 61.2865C78.977 60.9279 78.6184 60.3938 78.6184 59.8223L78.658 44.3109C78.6591 44.0079 78.9042 43.7639 79.206 43.7639C79.5079 43.7639 79.754 44.009 79.754 44.3119C79.754 44.4789 79.92 44.678 80.1961 44.8428C80.9614 45.2827 82.2694 45.2827 83.0432 44.8385C83.2144 44.7422 83.4243 44.7422 83.5912 44.8396C83.7603 44.9381 83.8652 45.12 83.8642 45.3159L83.8138 60.8252C83.8128 61.0189 83.71 61.1987 83.5409 61.2972C82.9929 61.6162 82.2886 61.7756 81.5833 61.7756ZM79.7498 45.8479L79.7144 59.8233C79.7144 59.9882 79.8771 60.1819 80.1501 60.3381C80.8372 60.7417 81.9429 60.7888 82.7189 60.4805L82.766 46.1208C81.7802 46.3809 80.605 46.291 79.7498 45.8479Z" fill="#1F3154"/>
<path d="M100.388 33.478C100.378 34.6596 99.608 35.8311 98.0776 36.7222L92.307 40.0765L83.3163 45.3132C82.3763 45.854 80.8561 45.854 79.9161 45.3132C79.4458 45.0329 79.2061 44.6725 79.2061 44.3119C79.2061 43.9615 79.4356 43.6111 79.9058 43.3407L92.327 36.1114L94.6676 34.7497C95.2873 34.3892 95.5876 33.9286 95.5774 33.458C95.5774 32.9874 95.2775 32.5268 94.6471 32.1664C94.0274 31.7958 93.227 31.6256 92.4071 31.6256H92.3373L92.347 28.8421C94.3971 28.832 96.4578 29.2827 98.0376 30.1938C99.6081 31.1049 100.388 32.2965 100.388 33.478Z" fill="white"/>
<path d="M81.6153 46.2653C80.9057 46.2653 80.196 46.1068 79.6427 45.7889C79.0047 45.4079 78.658 44.8856 78.658 44.3119C78.658 43.7403 79.0047 43.2265 79.633 42.8658L94.3931 34.2753C94.6339 34.1351 95.0374 33.8439 95.0299 33.4682C95.0299 33.0733 94.62 32.7821 94.3749 32.643C93.8654 32.338 93.1697 32.1731 92.4076 32.1731C92.262 32.1731 92.0865 32.1153 91.9837 32.0115C91.881 31.9087 91.7889 31.7685 91.7889 31.623L91.7985 28.8401C91.7996 28.5168 92.0886 28.2921 92.4119 28.2942C94.6253 28.2942 96.7178 28.7994 98.3116 29.7199C100.005 30.7014 100.936 32.0361 100.936 33.4779V33.4822C100.924 34.9143 100.007 36.2329 98.3523 37.1962L83.5922 45.7868C83.0378 46.1058 82.326 46.2653 81.6153 46.2653ZM92.8871 31.0985C93.6888 31.1606 94.3727 31.365 94.9282 31.6957C95.6967 32.1346 96.1259 32.7629 96.1259 33.4575C96.1399 34.1404 95.7203 34.7708 94.9443 35.2236L80.1821 43.8142C79.9124 43.9694 79.754 44.1545 79.754 44.3119C79.754 44.4789 79.9199 44.6779 80.196 44.8428C80.9613 45.2827 82.2693 45.2827 83.0431 44.8385L97.8021 36.2479C99.1068 35.489 99.8315 34.5043 99.84 33.4747C99.839 32.4407 99.1004 31.4442 97.7625 30.6682C96.447 29.9093 94.7345 29.4641 92.8924 29.3988L92.8871 31.0985Z" fill="#1F3154"/>
<path d="M88.9846 46.6819C90.5537 45.7768 91.83 46.5035 91.8352 48.3057C91.8403 50.1072 90.5722 52.3018 89.0031 53.207C87.4335 54.1125 86.1571 53.3857 86.152 51.5842C86.1469 49.7821 87.415 47.5874 88.9846 46.6819Z" fill="#E0FEF2"/>
<path d="M91.8345 48.3063C91.84 50.1077 90.5723 52.3022 89.0037 53.207C87.4337 54.1131 86.1565 53.3852 86.1524 51.5839C86.151 51.3566 86.1714 51.1226 86.2096 50.8859C86.5255 51.0519 86.885 51.1458 87.2676 51.1458C88.5026 51.1458 89.5047 50.1675 89.5047 48.9594C89.5047 48.1607 89.0649 47.4614 88.41 47.0805C88.5952 46.9295 88.7872 46.7961 88.9846 46.6818C90.5532 45.7771 91.8305 46.5036 91.8345 48.3063Z" fill="#1BF3A4"/>
<path d="M87.727 54.1473C87.361 54.1473 87.0184 54.0595 86.7113 53.8829C86.0006 53.4729 85.6067 52.6573 85.6045 51.5849C85.5981 49.578 86.9628 47.2157 88.7107 46.2075C89.6515 45.6669 90.5602 45.5963 91.2752 46.0073C91.9859 46.4162 92.3798 47.2318 92.383 48.3032C92.3894 50.3112 91.0247 52.6734 89.2769 53.6817C88.7406 53.991 88.214 54.1473 87.727 54.1473ZM89.2587 47.1569C87.8672 47.9596 86.6963 49.9858 86.7006 51.5816C86.7016 52.2378 86.9061 52.7301 87.2582 52.9335C87.6157 53.1369 88.1509 53.0652 88.7288 52.7333C90.1203 51.9295 91.2912 49.9034 91.2869 48.3075C91.2848 47.6524 91.0815 47.1601 90.7282 46.9567C90.3707 46.7512 89.8356 46.824 89.2587 47.1569Z" fill="#1F3154"/>
<path d="M60.8447 61.4657C70.665 55.8064 78.6535 60.3416 78.6855 71.6051C78.7175 82.8686 70.7808 96.5814 60.9605 102.241C51.1404 107.9 43.1596 103.36 43.1276 92.0969C43.0956 80.8334 51.0246 67.125 60.8447 61.4657Z" fill="#E0FEF2"/>
<path d="M78.6842 71.6064C78.72 82.8682 70.7795 96.582 60.9611 102.239C51.1429 107.9 43.1615 103.36 43.1257 92.0978C43.1205 89.784 43.4479 87.3729 44.0619 84.9465C45.8577 86.4003 48.0731 87.2552 50.4675 87.2552C56.469 87.2552 61.3397 81.8751 61.3397 75.2306C61.3397 70.8692 59.237 67.0504 56.0955 64.9465C57.6049 63.59 59.196 62.4126 60.8435 61.4656C70.6668 55.804 78.6534 60.3394 78.6842 71.6064Z" fill="#1BF3A4"/>
<path d="M60.8677 68.8918C67.1011 65.2996 72.189 68.1937 72.2093 75.3387C72.2296 82.4837 67.1747 91.223 60.9414 94.8152C54.7119 98.4052 49.6241 95.5111 49.6038 88.3661C49.5835 81.2211 54.6383 72.4818 60.8677 68.8918Z" fill="#E0FEF2"/>
<path d="M72.2068 75.3381C72.2273 82.4842 67.1724 91.2224 60.9408 94.8159C54.7141 98.4043 49.6234 95.5121 49.6029 88.3659C49.6029 87.8285 49.6285 87.2807 49.6848 86.7279C50.3652 86.8814 51.0662 86.9582 51.7876 86.9582C57.7942 86.9582 62.6598 81.5781 62.6598 74.9337C62.6598 72.6762 62.097 70.562 61.1147 68.755C67.2338 65.3765 72.1915 68.2892 72.2068 75.3381Z" fill="white"/>
<path d="M68.7435 57.436C65.5054 55.5587 61.0318 55.826 56.0833 58.6754C52.5622 60.704 49.2868 63.772 46.5316 67.3885L51.2903 70.1809C54.0461 66.5636 57.3222 63.4942 60.844 61.463C65.7863 58.6196 70.2661 58.3523 73.5042 60.2296L68.7435 57.436Z" fill="white"/>
<path d="M73.5064 60.2319C70.2679 58.3532 65.7859 58.6194 60.8435 61.4605C57.3235 63.4927 54.0439 66.5641 51.2914 70.1832L46.5331 67.3883C47.7713 65.7605 49.1118 64.2452 50.5393 62.8835C51.3527 63.3954 52.3197 63.6923 53.3533 63.6923C56.2798 63.6923 58.6537 61.3171 58.6537 58.3839C58.6537 58.0614 58.623 57.7492 58.5668 57.4421C62.5217 55.7937 66.0572 55.8756 68.7432 57.4369L73.5064 60.2319Z" fill="#F0F5F7"/>
<path d="M38.3711 89.308C38.3833 94.9035 40.3614 98.8405 43.551 100.687L48.3116 103.481C45.1222 101.628 43.144 97.6911 43.1258 92.0955C43.1063 84.8722 46.3637 76.6476 51.2903 70.1809L46.5316 67.3884C41.6046 73.8557 38.3478 82.0838 38.3711 89.308Z" fill="#1F3154"/>
<path d="M52.9815 105.231C51.1876 105.231 49.5275 104.812 48.0601 103.967C44.5419 101.94 42.596 97.7252 42.5799 92.0984C42.5478 80.6821 50.6182 66.727 60.5702 60.9899C65.5216 58.1385 70.2033 57.6954 73.7526 59.7387C77.2708 61.7659 79.2177 65.9788 79.2338 71.6035C79.2659 83.0197 71.1923 96.977 61.2349 102.716C58.3332 104.387 55.5236 105.231 52.9815 105.231ZM61.1183 61.9404C51.4691 67.5019 43.6449 81.0299 43.676 92.0962C43.6909 97.3152 45.442 101.194 48.6081 103.017C51.8041 104.859 56.0919 104.415 60.6869 101.766C70.3414 96.2021 78.1688 82.6729 78.1378 71.6056C78.1228 66.3898 76.3717 62.512 73.2056 60.6892C70.0085 58.846 65.7154 59.2902 61.1183 61.9404Z" fill="#1F3154"/>
<path d="M55.8821 96.9106C54.7058 96.9106 53.613 96.6334 52.6454 96.0757C50.341 94.7485 49.0662 92.0117 49.0555 88.3671C49.0352 81.046 54.2113 72.0958 60.5938 68.416C63.7984 66.5696 66.8435 66.2913 69.1683 67.6282C71.4717 68.9554 72.7464 71.6933 72.7571 75.3379C72.7775 82.659 67.6002 91.6103 61.2156 95.2901C59.3468 96.3669 57.5315 96.9106 55.8821 96.9106ZM61.1418 69.3664C55.0623 72.8707 50.1312 81.3939 50.1515 88.365C50.1612 91.6006 51.2411 94.0025 53.1924 95.1263C55.1639 96.2641 57.8195 95.9837 60.6676 94.3396C66.7493 90.8353 71.6814 82.3122 71.6611 75.34C71.6515 72.1033 70.5726 69.7025 68.6213 68.5786C66.6498 67.443 63.9943 67.7224 61.1418 69.3664Z" fill="#1F3154"/>
<path d="M51.2904 70.729C51.1951 70.729 51.0998 70.7044 51.0131 70.6541L46.2544 67.8616C46.1196 67.7813 46.0243 67.6486 45.9943 67.4944C45.9633 67.3403 46.0007 67.1808 46.096 67.0567C48.9902 63.257 52.3489 60.1947 55.8094 58.1996C60.7747 55.3428 65.4639 54.9019 69.0184 56.9623C69.0192 56.963 69.0199 56.9633 69.0206 56.9633L73.7815 59.7569C74.0426 59.91 74.1293 60.245 73.9773 60.5062C73.8243 60.7673 73.4882 60.854 73.2292 60.7042C70.0267 58.8471 65.7272 59.2849 61.1172 61.9383C57.782 63.8617 54.5346 66.8266 51.726 70.5128C51.619 70.6541 51.4563 70.729 51.2904 70.729ZM47.3462 67.2311L51.1512 69.4639C53.978 65.8408 57.2276 62.9166 60.5702 60.9878C63.717 59.1779 66.7429 58.3398 69.4605 58.4929L68.4683 57.9106C65.2701 56.0546 60.9673 56.4956 56.3563 59.15C53.1699 60.9857 50.0648 63.7729 47.3462 67.2311Z" fill="#1F3154"/>
<path d="M48.3116 104.03C48.2174 104.03 48.1232 104.006 48.0365 103.956C48.013 103.942 47.9905 103.929 47.968 103.915L43.2735 101.16C39.7713 99.1327 37.8351 94.9231 37.8233 89.3102C37.7998 82.2053 40.8931 73.8866 46.096 67.0567C46.2651 66.8341 46.5712 66.7774 46.8088 66.9154L51.5676 69.708C51.7024 69.7882 51.7977 69.921 51.8277 70.0751C51.8587 70.2292 51.8213 70.3887 51.726 70.5129C46.6654 77.1554 43.6556 85.2236 43.6738 92.0942C43.6909 97.2671 45.4142 101.127 48.5278 102.973L48.5867 103.007L48.5888 103.008C48.85 103.162 48.9378 103.497 48.7847 103.758C48.683 103.932 48.5 104.03 48.3116 104.03ZM46.6761 68.1089C41.79 74.6776 38.8969 82.5671 38.9194 89.3059C38.9301 94.5131 40.6726 98.3878 43.8247 100.213L44.7559 100.76C43.3441 98.5387 42.5895 95.5888 42.5778 92.0974C42.5596 85.1637 45.5062 77.0751 50.4833 70.3427L46.6761 68.1089Z" fill="#1F3154"/>
<path d="M63.8005 80.0128C65.4576 80.246 65.514 81.9564 65.2687 83.3598C65.1644 83.9384 64.9369 84.5614 64.5834 85.2042C64.1986 85.9205 63.7989 86.4462 63.3587 86.8319C63.0385 87.113 62.0746 87.7559 61.9231 87.872C61.9232 87.9287 61.9263 89.0059 61.9209 89.1069C61.902 89.5158 61.6396 89.9564 61.3135 90.143C60.973 90.3313 60.7032 90.1789 60.6935 89.7961C60.6871 89.5746 60.6844 88.6305 60.6843 88.5808L59.9948 88.9754C59.9949 89.0187 59.9973 89.842 59.998 90.0897C59.9993 90.5589 59.7456 91.0402 59.3795 91.2497C59.0161 91.4576 58.7548 91.2775 58.7449 90.8067L58.7417 89.6924C58.6592 89.7396 57.0909 90.637 56.985 90.6748C56.6701 90.7864 56.4517 90.5981 56.4793 90.2168C56.4954 89.8388 56.7579 89.421 57.0926 89.2131L57.6362 88.9021L57.6071 78.7365L57.1036 79.0246C56.7144 79.2342 56.4475 79.0997 56.4377 78.7039C56.4366 78.2999 56.7104 77.843 57.0938 77.6236C57.4657 77.4043 57.8262 77.198 58.221 76.972L58.7046 76.6954C58.7042 76.5813 58.702 75.7896 58.7097 75.511C58.7146 75.2145 58.8398 74.8948 59.034 74.6597C59.1224 74.5487 59.2211 74.4621 59.3213 74.4047C59.4214 74.3474 59.523 74.3195 59.6176 74.3257C59.8411 74.3382 59.9534 74.4926 59.9542 74.7826L59.9576 75.9784L60.6414 75.5871C60.6519 75.2352 60.644 74.5151 60.6495 74.4011C60.6482 73.9742 60.9162 73.4913 61.2596 73.2948C61.6114 73.0935 61.8698 73.2589 61.8825 73.6857C61.883 73.8649 61.8939 74.8198 61.8945 74.87C63.2913 74.2959 64.1863 74.6063 64.5565 75.7782C64.9468 77.0202 64.6958 78.4366 63.8005 80.0128ZM62.9572 85.7235C63.7231 84.972 64.1271 83.9837 64.1182 82.8824C64.1005 81.7013 63.337 81.2636 62.2956 81.8595C62.1171 81.9604 61.8743 82.0988 61.6 82.2557C60.5028 82.8835 58.9825 83.7614 58.9025 83.8076L58.915 88.1638C59.0479 88.0878 61.5728 86.643 62.4912 86.111C62.6486 86.0209 62.8057 85.869 62.9572 85.7235ZM58.8946 78.0226L58.8984 82.3609L58.9184 82.3495L58.9785 82.3281C59.0975 82.26 61.3589 80.9661 61.8452 80.6747C62.2314 80.444 62.597 80.0487 62.9307 79.4922C63.3244 78.833 63.4859 78.1923 63.4635 77.399C63.4347 76.345 62.7571 75.8875 61.8844 76.3281C61.4122 76.5689 60.3536 77.1747 59.6298 77.5888C59.2865 77.7853 59.0176 77.9392 58.926 77.9883L58.8946 78.0226Z" fill="#1F3154"/>
</svg>
