<svg width="120" height="120" viewBox="0 0 120 120" fill="none" xmlns="http://www.w3.org/2000/svg">
<g clip-path="url(#clip0_10673_27208)">
<path d="M59.9642 114.489C59.9697 113.906 59.2115 113.426 58.2707 113.417C57.3299 113.408 56.5628 113.874 56.5573 114.457C56.5518 115.04 57.31 115.52 58.2508 115.529C59.1917 115.538 59.9588 115.072 59.9642 114.489Z" fill="#1F3154"/>
<path d="M67.108 110.275C67.1135 109.691 66.3553 109.211 65.4145 109.203C64.4737 109.194 63.7066 109.659 63.7011 110.243C63.6956 110.826 64.4538 111.306 65.3946 111.315C66.3355 111.324 67.1026 110.858 67.108 110.275Z" fill="#1F3154"/>
<path d="M74.2518 106.083C74.2573 105.5 73.499 105.02 72.5582 105.011C71.6174 105.002 70.8503 105.468 70.8448 106.051C70.8393 106.635 71.5976 107.115 72.5384 107.123C73.4792 107.132 74.2463 106.667 74.2518 106.083Z" fill="#1F3154"/>
<path d="M81.3956 101.877C81.4011 101.294 80.6428 100.814 79.702 100.805C78.7612 100.796 77.9941 101.262 77.9886 101.845C77.9831 102.429 78.7414 102.909 79.6822 102.917C80.623 102.926 81.3901 102.461 81.3956 101.877Z" fill="#1F3154"/>
<path d="M88.5394 97.6821C88.5449 97.0988 87.7866 96.6188 86.8458 96.61C85.905 96.6011 85.1379 97.0668 85.1324 97.6501C85.1269 98.2334 85.8852 98.7135 86.826 98.7223C87.7668 98.7311 88.5339 98.2654 88.5394 97.6821Z" fill="#1F3154"/>
<path d="M95.6831 93.4652C95.6886 92.8819 94.9304 92.4019 93.9896 92.3931C93.0487 92.3842 92.2816 92.8499 92.2762 93.4332C92.2707 94.0165 93.0289 94.4965 93.9697 94.5054C94.9105 94.5142 95.6776 94.0485 95.6831 93.4652Z" fill="#1F3154"/>
<path d="M71.9603 115.127C71.9658 114.544 71.2075 114.064 70.2667 114.055C69.3259 114.046 68.5588 114.512 68.5533 115.095C68.5478 115.678 69.3061 116.158 70.2469 116.167C71.1877 116.176 71.9548 115.71 71.9603 115.127Z" fill="#1F3154"/>
<path d="M79.1041 110.936C79.1096 110.352 78.3513 109.872 77.4105 109.863C76.4697 109.855 75.7026 110.32 75.6971 110.904C75.6916 111.487 76.4499 111.967 77.3907 111.976C78.3315 111.985 79.0986 111.519 79.1041 110.936Z" fill="#1F3154"/>
<path d="M86.2478 106.729C86.2533 106.146 85.4951 105.666 84.5542 105.657C83.6134 105.649 82.8463 106.114 82.8408 106.698C82.8354 107.281 83.5936 107.761 84.5344 107.77C85.4752 107.778 86.2423 107.313 86.2478 106.729Z" fill="#1F3154"/>
<path d="M93.3916 102.534C93.3971 101.951 92.6389 101.471 91.698 101.462C90.7572 101.453 89.9901 101.919 89.9846 102.502C89.9792 103.086 90.7374 103.566 91.6782 103.575C92.619 103.583 93.3861 103.118 93.3916 102.534Z" fill="#1F3154"/>
<path d="M51.8496 95.0164C51.8551 94.4331 51.0969 93.953 50.1561 93.9442C49.2152 93.9354 48.4481 94.4011 48.4427 94.9844C48.4372 95.5677 49.1954 96.0477 50.1362 96.0565C51.077 96.0654 51.8441 95.5997 51.8496 95.0164Z" fill="#1F3154"/>
<path d="M58.9934 90.8248C58.9989 90.2415 58.2407 89.7615 57.2999 89.7527C56.359 89.7438 55.5919 90.2095 55.5865 90.7928C55.581 91.3761 56.3392 91.8562 57.28 91.865C58.2208 91.8738 58.9879 91.4081 58.9934 90.8248Z" fill="#1F3154"/>
<path d="M66.1372 86.6188C66.1426 86.0355 65.3844 85.5555 64.4436 85.5466C63.5028 85.5378 62.7357 86.0035 62.7302 86.5868C62.7247 87.1701 63.4829 87.6501 64.4238 87.6589C65.3646 87.6678 66.1317 87.2021 66.1372 86.6188Z" fill="#1F3154"/>
<path d="M73.281 82.4237C73.2864 81.8404 72.5282 81.3604 71.5874 81.3515C70.6466 81.3427 69.8795 81.8084 69.874 82.3917C69.8685 82.975 70.6268 83.455 71.5676 83.4639C72.5084 83.4727 73.2755 83.007 73.281 82.4237Z" fill="#1F3154"/>
<path d="M49.7113 104.236C49.7168 103.653 48.9586 103.173 48.0177 103.164C47.0769 103.155 46.3098 103.621 46.3043 104.204C46.2989 104.787 47.0571 105.267 47.9979 105.276C48.9387 105.285 49.7058 104.819 49.7113 104.236Z" fill="#1F3154"/>
<path d="M56.8551 100.022C56.8606 99.4384 56.1024 98.9584 55.1615 98.9496C54.2207 98.9407 53.4536 99.4064 53.4481 99.9897C53.4427 100.573 54.2009 101.053 55.1417 101.062C56.0825 101.071 56.8496 100.605 56.8551 100.022Z" fill="#1F3154"/>
<path d="M63.9989 95.8302C64.0043 95.2469 63.2461 94.7669 62.3053 94.758C61.3645 94.7492 60.5974 95.2149 60.5919 95.7982C60.5864 96.3815 61.3446 96.8615 62.2855 96.8704C63.2263 96.8792 63.9934 96.4135 63.9989 95.8302Z" fill="#1F3154"/>
<path d="M71.1426 91.6243C71.1481 91.041 70.3899 90.5609 69.4491 90.5521C68.5083 90.5433 67.7412 91.009 67.7357 91.5923C67.7302 92.1756 68.4884 92.6556 69.4293 92.6644C70.3701 92.6733 71.1372 92.2076 71.1426 91.6243Z" fill="#1F3154"/>
<path d="M78.2865 87.4291C78.2919 86.8458 77.5337 86.3658 76.5929 86.3569C75.6521 86.3481 74.885 86.8138 74.8795 87.3971C74.874 87.9804 75.6322 88.4604 76.5731 88.4692C77.5139 88.4781 78.281 88.0124 78.2865 87.4291Z" fill="#1F3154"/>
<path d="M85.4302 83.2121C85.4357 82.6288 84.6774 82.1488 83.7366 82.14C82.7958 82.1312 82.0287 82.5969 82.0232 83.1802C82.0177 83.7635 82.776 84.2435 83.7168 84.2523C84.6576 84.2612 85.4247 83.7955 85.4302 83.2121Z" fill="#1F3154"/>
<path d="M47.4197 113.301C47.4252 112.717 46.6669 112.237 45.7261 112.228C44.7853 112.22 44.0182 112.685 44.0127 113.269C44.0072 113.852 44.7655 114.332 45.7063 114.341C46.6471 114.35 47.4142 113.884 47.4197 113.301Z" fill="#1F3154"/>
<path d="M54.5635 109.088C54.569 108.505 53.8107 108.025 52.8699 108.016C51.9291 108.007 51.162 108.473 51.1565 109.056C51.151 109.639 51.9093 110.119 52.8501 110.128C53.7909 110.137 54.558 109.671 54.5635 109.088Z" fill="#1F3154"/>
<path d="M61.7072 104.874C61.7127 104.291 60.9545 103.811 60.0137 103.802C59.0729 103.793 58.3057 104.259 58.3003 104.842C58.2948 105.425 59.053 105.905 59.9938 105.914C60.9346 105.923 61.7018 105.457 61.7072 104.874Z" fill="#1F3154"/>
<path d="M68.851 100.682C68.8565 100.099 68.0983 99.619 67.1575 99.6102C66.2167 99.6014 65.4495 100.067 65.4441 100.65C65.4386 101.234 66.1968 101.714 67.1376 101.723C68.0784 101.731 68.8456 101.266 68.851 100.682Z" fill="#1F3154"/>
<path d="M75.9948 96.4764C76.0003 95.8931 75.2421 95.4131 74.3013 95.4043C73.3605 95.3954 72.5933 95.8612 72.5879 96.4445C72.5824 97.0278 73.3406 97.5078 74.2814 97.5166C75.2222 97.5254 75.9893 97.0597 75.9948 96.4764Z" fill="#1F3154"/>
<path d="M83.1386 92.2812C83.144 91.6979 82.3858 91.2179 81.445 91.2091C80.5042 91.2003 79.7371 91.666 79.7316 92.2493C79.7261 92.8326 80.4844 93.3126 81.4252 93.3214C82.366 93.3302 83.1331 92.8645 83.1386 92.2812Z" fill="#1F3154"/>
<path d="M90.2824 88.0643C90.2878 87.481 89.5296 87.001 88.5888 86.9922C87.648 86.9833 86.8809 87.449 86.8754 88.0323C86.8699 88.6156 87.6282 89.0957 88.569 89.1045C89.5098 89.1133 90.2769 88.6476 90.2824 88.0643Z" fill="#1F3154"/>
<path d="M97.4262 83.8469C97.4316 83.2636 96.6734 82.7836 95.7326 82.7748C94.7918 82.7659 94.0247 83.2316 94.0192 83.8149C94.0137 84.3982 94.7719 84.8783 95.7128 84.8871C96.6536 84.8959 97.4207 84.4302 97.4262 83.8469Z" fill="#1F3154"/>
<path d="M43.3625 77.7563L72.2668 90.1256L83.3234 17.8219L35.6479 58.1804L43.3625 77.7563Z" stroke="#1F3154" stroke-width="1.10771" stroke-linecap="round" stroke-linejoin="round"/>
<path d="M72.8703 68.2303C80.99 63.5433 87.5951 67.3066 87.6216 76.6386C87.6481 85.9669 81.0859 97.3309 72.9661 102.018C64.8433 106.707 58.2382 102.943 58.2117 93.6151C58.1853 84.2831 64.7475 72.9191 72.8703 68.2303Z" fill="white"/>
<path d="M87.6185 76.6418C87.6467 85.9694 81.0865 97.3331 72.969 102.018C64.8445 106.71 58.2351 102.941 58.2139 93.6133C58.2068 92.4368 58.3125 91.225 58.5098 89.9992C60.1446 90.8587 62.0049 91.3448 63.9848 91.3448C70.376 91.3448 75.562 86.2794 75.562 80.0234C75.562 75.888 73.286 72.2668 69.8969 70.2942C70.8551 69.5122 71.8487 68.8218 72.8704 68.23C80.9879 63.545 87.5973 67.3071 87.6185 76.6418Z" fill="#1BF3A4"/>
<path d="M66.3655 104.535C64.8776 104.535 63.4986 104.187 62.2796 103.485C59.351 101.8 57.7321 98.2952 57.7186 93.6166C57.6916 84.1428 64.3775 72.563 72.6235 67.803C76.721 65.4373 80.6026 65.0667 83.5524 66.7642C86.4809 68.4496 88.1018 71.9559 88.1153 76.6374C88.1413 86.1092 81.4564 97.6866 73.2133 102.445C70.807 103.834 68.4759 104.535 66.3655 104.535ZM79.4645 66.7021C77.5285 66.7021 75.3671 67.3588 73.1169 68.6578C65.1436 73.2602 58.6793 84.4551 58.7054 93.6137C58.7169 97.9256 60.1615 101.127 62.771 102.63C65.4019 104.144 68.9346 103.775 72.7199 101.59C80.6903 96.9894 87.1545 85.7965 87.1285 76.6403C87.116 72.326 85.6715 69.1223 83.0599 67.6194C81.9951 67.0066 80.7819 66.7021 79.4645 66.7021Z" fill="#1F3154"/>
<path d="M72.8726 68.2279C76.9525 65.8749 80.6589 65.6565 83.3296 67.2064L80.3223 65.4731C77.6447 63.9162 73.9453 64.1346 69.8584 66.4947C67.8547 67.6518 65.9479 69.2176 64.2099 71.0556L67.2216 72.7914C68.9603 70.9521 70.8681 69.3856 72.8726 68.2279Z" fill="#1F3154"/>
<path d="M67.2216 72.7915L64.2099 71.0557C58.9007 76.6707 55.1807 84.8507 55.2019 91.878C55.216 96.5136 56.8508 99.7755 59.4861 101.311L62.5004 103.045C59.858 101.509 58.2232 98.2469 58.2091 93.6183C58.1933 86.5868 61.9133 78.4068 67.2216 72.7915Z" fill="white"/>
<path d="M62.4981 103.047L59.4839 101.313C56.8485 99.7776 55.2137 96.5157 55.1996 91.8801C55.1996 91.6617 55.1996 91.4362 55.2137 91.2178C57.5673 89.985 58.3336 86.5753 58.3336 83.2148C58.3336 81.7142 58.8848 80.8405 58.3072 79.6358C59.8432 76.4937 61.8725 73.5277 64.2119 71.0549L67.2192 72.7882C61.9132 78.4101 58.1927 86.5894 58.2068 93.6204C58.2209 98.249 59.8557 101.511 62.4981 103.047Z" fill="#F0F5F7"/>
<path d="M67.2212 73.2848C67.1364 73.2848 67.0516 73.2631 66.9745 73.2188L63.9631 71.4832C63.833 71.4081 63.7434 71.2765 63.7212 71.1272C63.7 70.9778 63.7472 70.8265 63.8513 70.7167C65.6813 68.7816 67.6192 67.2176 69.6121 66.0675C73.7269 63.6916 77.6182 63.3288 80.5698 65.047L83.5408 66.7584C83.5514 66.7647 83.563 66.7714 83.5745 66.7777L83.5765 66.7791C83.8116 66.916 83.8935 67.2181 83.7567 67.4537C83.6208 67.6903 83.3201 67.7698 83.0831 67.6339L83.0474 67.6132C80.4185 66.1084 76.8944 66.477 73.1198 68.6554C71.2079 69.7588 69.3442 71.2645 67.5797 73.1306C67.4843 73.2318 67.3532 73.2848 67.2212 73.2848ZM65.0038 70.9441L67.1326 72.1708C68.8835 70.3649 70.7299 68.8958 72.6264 67.8006C75.1348 66.3546 77.5729 65.6521 79.7411 65.7191C77.1431 64.4008 73.7414 64.8224 70.1055 66.9222C68.3516 67.9341 66.6382 69.2856 65.0038 70.9441Z" fill="#1F3154"/>
<path d="M62.5003 103.538C62.4164 103.538 62.3316 103.517 62.2545 103.472L59.2402 101.739C56.3309 100.044 54.7226 96.5428 54.7081 91.8797C54.6869 84.9206 58.2756 76.6133 63.8513 70.7167C64.0074 70.5505 64.258 70.5153 64.4565 70.6285L67.4679 72.3641C67.598 72.4392 67.6876 72.5708 67.7098 72.7202C67.731 72.8695 67.6838 73.0208 67.5797 73.1302C62.1726 78.851 58.688 86.8927 58.7025 93.6176C58.716 97.9126 60.1528 101.109 62.7479 102.618C62.9831 102.755 63.064 103.056 62.9272 103.292C62.8356 103.45 62.6699 103.538 62.5003 103.538ZM64.3033 71.6789C59.0436 77.3814 55.6747 85.2675 55.6949 91.8767C55.7074 96.0253 57.044 99.1495 59.4667 100.72C58.3305 98.8869 57.7244 96.471 57.7157 93.62C57.7012 86.8339 61.1087 78.7715 66.4387 72.91L64.3033 71.6789Z" fill="#1F3154"/>
<path d="M72.946 96.0383C78.1945 93.009 82.4334 85.6648 82.4164 79.6398C82.3993 73.6148 78.1326 71.1841 72.8841 74.2134C67.639 77.2408 63.4 84.5806 63.4171 90.6057C63.4342 96.6307 67.7009 99.0656 72.946 96.0383Z" fill="#E0FEF2"/>
<path d="M82.4184 79.6372C82.4311 85.6667 78.1933 93.0071 72.948 96.0408C67.703 99.0682 63.4333 96.6298 63.4144 90.6068V90.4737H63.4333C67.8675 90.4737 71.4719 86.7497 71.4719 82.1579C71.4719 80.1122 70.7624 78.2439 69.578 76.7998C70.6105 75.7675 71.7256 74.8871 72.8846 74.2158C78.1298 71.1821 82.3992 73.6141 82.4184 79.6372Z" fill="white"/>
<path d="M68.687 97.8374C67.6954 97.8374 66.7751 97.6047 65.9598 97.1354C64.0103 96.0137 62.932 93.6951 62.9233 90.6071C62.9069 84.4329 67.2636 76.887 72.637 73.7859C75.3439 72.2243 77.915 71.9858 79.876 73.1137C81.8236 74.2345 82.9009 76.5516 82.9096 79.6382C82.927 85.8138 78.5683 93.3627 73.193 96.4656C71.6136 97.3773 70.0795 97.8374 68.687 97.8374ZM77.1469 73.4C75.926 73.4 74.5585 73.8163 73.1304 74.6407C68.0307 77.5842 63.8937 84.7456 63.9101 90.6042C63.9178 93.3256 64.8208 95.3411 66.4513 96.2801C68.0953 97.2255 70.3146 96.9889 72.6997 95.6109C77.8022 92.6659 81.9402 85.5016 81.9228 79.6411C81.9151 76.9212 81.0132 74.9071 79.3836 73.969C78.7225 73.5888 77.968 73.4 77.1469 73.4Z" fill="#1F3154"/>
<path d="M72.8122 78.4275C73.9708 77.7586 74.9179 78.2912 74.9216 79.6261C74.9254 80.9574 73.9845 82.5872 72.8259 83.2561C71.6673 83.925 70.7233 83.3835 70.7195 82.0522C70.7157 80.7174 71.6536 79.0964 72.8122 78.4275Z" fill="#1F3154"/>
<path d="M72.8281 84.0662C75.5836 82.4753 77.8556 83.5695 78.1401 86.4885C78.1717 86.8124 77.9365 87.2445 77.6393 87.4161L68.0548 92.9497C67.7575 93.1214 67.5207 92.9618 67.5503 92.6025C67.8175 89.365 70.0757 85.6553 72.8281 84.0662Z" fill="#1F3154"/>
<path d="M83.3816 7.6247C91.5013 2.93767 98.1064 6.70096 98.1328 16.033C98.1593 25.3613 91.5971 36.7253 83.4774 41.4124C75.3545 46.1012 68.7494 42.3379 68.723 33.0095C68.6965 23.6775 75.2587 12.3135 83.3816 7.6247Z" fill="white"/>
<path d="M98.1297 16.0362C98.1579 25.3638 91.5977 36.7275 83.4802 41.4124C75.3557 46.1044 68.7463 42.3353 68.7251 33.0077C68.7181 31.8312 68.8237 30.6194 69.021 29.3936C70.6558 30.2531 72.5162 30.7392 74.4961 30.7392C80.8872 30.7392 86.0733 25.6738 86.0733 19.4178C86.0733 15.2824 83.7973 11.6612 80.4081 9.68861C81.3663 8.90659 82.36 8.21619 83.3816 7.62442C91.4991 2.93945 98.1085 6.70148 98.1297 16.0362Z" fill="#1BF3A4"/>
<path d="M76.8767 43.9297C75.3888 43.9297 74.0099 43.5814 72.7908 42.8793C69.8623 41.1944 68.2433 37.6896 68.2298 33.011C68.2028 23.5373 74.8887 11.9574 83.1347 7.19744C87.2322 4.83166 91.1139 4.46113 94.0636 6.15862C96.9922 7.84406 98.6131 11.3503 98.6265 16.0318C98.6526 25.5036 91.9676 37.081 83.7245 41.8396C81.3182 43.2282 78.9872 43.9293 76.8767 43.9297ZM89.9758 6.09646C88.0398 6.09646 85.8783 6.75319 83.6281 8.0522C75.6548 12.6546 69.1906 23.8495 69.2166 33.0081C69.2282 37.32 70.6727 40.5218 73.2823 42.0241C75.9131 43.5385 79.4459 43.1699 83.2311 40.9848C91.2015 36.3838 97.6658 25.1909 97.6398 16.0347C97.6272 11.7204 96.1827 8.51668 93.5712 7.01385C92.5063 6.40097 91.2931 6.09646 89.9758 6.09646Z" fill="#1F3154"/>
<path d="M83.3839 7.6223C87.4638 5.26927 91.1702 5.05088 93.8408 6.60076L90.8336 4.86755C88.1559 3.31058 84.4565 3.52898 80.3696 5.8891C78.366 7.04622 76.4592 8.61196 74.7211 10.45L77.7328 12.1858C79.4715 10.3465 81.3794 8.77997 83.3839 7.6223Z" fill="#1F3154"/>
<path d="M77.7328 12.1859L74.7211 10.4501C69.4119 16.0651 65.6919 24.2451 65.713 31.2724C65.7272 35.9081 67.362 39.1699 69.9973 40.7057L73.0116 42.439C70.3692 40.9031 68.7344 37.6413 68.7202 33.0127C68.7044 25.9812 72.4244 17.8012 77.7328 12.1859Z" fill="white"/>
<path d="M73.0093 42.4409L69.9951 40.7077C67.3597 39.1719 65.7249 35.91 65.7108 31.2744C65.7108 31.056 65.7108 30.8305 65.7249 30.6121C68.0785 29.3792 68.8448 25.9696 68.8448 22.6091C68.8448 21.1085 69.3961 20.2348 68.8184 19.0301C70.3545 15.888 72.3837 12.922 74.7232 10.4492L77.7304 12.1825C72.4245 17.8044 68.7039 25.9837 68.718 33.0147C68.7322 37.6433 70.367 40.9051 73.0093 42.4409Z" fill="#F0F5F7"/>
<path d="M77.7325 12.6792C77.6477 12.6792 77.5629 12.6575 77.4858 12.6132L74.4743 10.8776C74.3442 10.8025 74.2546 10.671 74.2324 10.5216C74.2112 10.3722 74.2585 10.2209 74.3625 10.1111C76.1925 8.17603 78.1305 6.612 80.1233 5.46188C84.2381 3.08598 88.1294 2.72317 91.0811 4.44137L94.052 6.15282C94.0626 6.15909 94.0742 6.16584 94.0858 6.1721L94.0877 6.17353C94.3228 6.31038 94.4048 6.61249 94.2679 6.84811C94.132 7.08468 93.8314 7.16418 93.5943 7.02832L93.5586 7.00759C90.9298 5.50283 87.4057 5.87144 83.631 8.04979C81.7191 9.15318 79.8554 10.6589 78.0909 12.525C77.9955 12.6262 77.8645 12.6792 77.7325 12.6792ZM75.5151 10.3385L77.6438 11.5652C79.3948 9.75931 81.2412 8.29023 83.1376 7.19502C85.646 5.74905 88.0841 5.04654 90.2523 5.11351C87.6543 3.79523 84.2526 4.21683 80.6167 6.31664C78.8628 7.32849 77.1495 8.68003 75.5151 10.3385Z" fill="#1F3154"/>
<path d="M73.0115 42.9324C72.9277 42.9324 72.8428 42.9112 72.7658 42.8669L69.7514 41.1337C66.8421 39.4382 65.2338 35.9372 65.2193 31.2741C65.1981 24.315 68.7868 16.0077 74.3625 10.1111C74.5187 9.94488 74.7692 9.90972 74.9677 10.0229L77.9792 11.7585C78.1092 11.8337 78.1989 11.9652 78.221 12.1146C78.2422 12.2639 78.195 12.4152 78.0909 12.5246C72.6838 18.2454 69.1992 26.2871 69.2137 33.012C69.2272 37.307 70.664 40.5035 73.2591 42.0126C73.4943 42.149 73.5752 42.4506 73.4384 42.6862C73.3468 42.8442 73.1811 42.9324 73.0115 42.9324ZM74.8145 11.0733C69.5548 16.7758 66.1859 24.6619 66.2061 31.2712C66.2187 35.4197 67.5552 38.5439 69.9779 40.1147C68.8417 38.2813 68.2356 35.8654 68.2269 33.0144C68.2125 26.2283 71.62 18.1659 76.95 12.3044L74.8145 11.0733Z" fill="#1F3154"/>
<path d="M83.4572 35.4327C88.7057 32.4034 92.9447 25.0592 92.9276 19.0342C92.9105 13.0092 88.6438 10.5785 83.3953 13.6078C78.1502 16.6352 73.9112 23.975 73.9283 30.0001C73.9454 36.0251 78.2121 38.46 83.4572 35.4327Z" fill="#E0FEF2"/>
<path d="M92.9296 19.0316C92.9423 25.0611 88.7045 32.4015 83.4592 35.4352C78.2142 38.4627 73.9445 36.0242 73.9257 30.0012V29.8682H73.9445C78.3788 29.8682 81.9832 26.1441 81.9832 21.5523C81.9832 19.5067 81.2736 17.6383 80.0893 16.1942C81.1217 15.1619 82.2368 14.2815 83.3958 13.6102C88.6411 10.5765 92.9105 13.0085 92.9296 19.0316Z" fill="white"/>
<path d="M79.1982 37.2318C78.2066 37.2318 77.2863 36.9991 76.471 36.5298C74.5216 35.4081 73.4432 33.0895 73.4346 30.0015C73.4182 23.8273 77.7749 16.2814 83.1482 13.1803C85.8552 11.6187 88.4262 11.3802 90.3873 12.5082C92.3348 13.6289 93.4122 15.946 93.4209 19.0326C93.4382 25.2082 89.0796 32.7571 83.7043 35.86C82.1248 36.7717 80.5907 37.2318 79.1982 37.2318ZM87.6582 12.7944C86.4372 12.7944 85.0698 13.2107 83.6416 14.0351C78.542 16.9786 74.405 24.14 74.4213 29.9986C74.429 32.72 75.332 34.7355 76.9625 35.6745C78.6065 36.6199 80.8258 36.3833 83.2109 35.0053C88.3135 32.0603 92.4514 24.896 92.4341 19.0355C92.4264 16.3156 91.5244 14.3015 89.8948 13.3634C89.2338 12.9833 88.4792 12.7944 87.6582 12.7944Z" fill="#1F3154"/>
<path d="M83.3233 17.8219C84.482 17.153 85.429 17.6856 85.4328 19.0205C85.4366 20.3518 84.4956 21.9816 83.337 22.6505C82.1785 23.3194 81.2344 22.7779 81.2307 21.4466C81.2269 20.1118 82.1648 18.4908 83.3233 17.8219Z" fill="#1F3154"/>
<path d="M83.3393 23.4606C86.0949 21.8697 88.3668 22.9639 88.6513 25.8829C88.683 26.2068 88.4478 26.6389 88.1505 26.8106L78.566 32.3441C78.2687 32.5158 78.0319 32.3562 78.0615 31.9969C78.3287 28.7594 80.5869 25.0497 83.3393 23.4606Z" fill="#1F3154"/>
<path d="M35.7087 35.39C47.3943 28.6446 56.9001 34.0606 56.9382 47.4909C56.9763 60.9159 47.5322 77.2706 35.8466 84.016C24.1564 90.764 14.6506 85.348 14.6125 71.9229C14.5745 58.4926 24.0185 42.138 35.7087 35.39Z" fill="white"/>
<path d="M56.9336 47.4954C56.9742 60.9195 47.533 77.2737 35.8506 84.016C24.1581 90.7686 14.6461 85.3442 14.6156 71.9203C14.6054 70.2271 14.7574 68.4831 15.0414 66.7189C17.3942 67.9559 20.0715 68.6555 22.9209 68.6555C32.1188 68.6555 39.5824 61.3656 39.5824 52.3622C39.5824 46.4106 36.3069 41.1992 31.4293 38.3603C32.8083 37.2348 34.2384 36.2412 35.7088 35.3896C47.3911 28.6471 56.9032 34.0613 56.9336 47.4954Z" fill="#1BF3A4"/>
<path d="M26.3472 87.6388C24.2059 87.6388 22.2213 87.1375 20.4669 86.1271C16.2522 83.7022 13.9222 78.6582 13.9028 71.925C13.864 58.2907 23.4861 41.6254 35.3535 34.775C41.2504 31.3702 46.8367 30.837 51.0819 33.2799C55.2966 35.7056 57.6293 40.7517 57.6488 47.4891C57.6862 61.1206 48.0655 77.7824 36.2022 84.6307C32.7392 86.6292 29.3844 87.6381 26.3472 87.6388ZM45.1988 33.1905C42.4126 33.1905 39.3019 34.1356 36.0636 36.0051C24.5886 42.6288 15.2855 58.74 15.323 71.9208C15.3396 78.1263 17.4185 82.7342 21.1742 84.8963C24.9603 87.0758 30.0446 86.5453 35.4922 83.4006C46.9629 76.779 56.266 60.6705 56.2286 47.4932C56.2106 41.2842 54.1317 36.6736 50.3732 34.5108C48.8408 33.6287 47.0947 33.1905 45.1988 33.1905Z" fill="#1F3154"/>
<path d="M35.712 35.3865C41.5836 32.0001 46.9178 31.6858 50.7612 33.9164L46.4333 31.422C42.5797 29.1813 37.2557 29.4956 31.3739 32.8922C28.4904 34.5575 25.7462 36.8108 23.2449 39.4561L27.5792 41.9542C30.0815 39.3071 32.8272 37.0526 35.712 35.3865Z" fill="#1F3154"/>
<path d="M27.5792 41.9542L23.2449 39.4561C15.604 47.537 10.2503 59.3094 10.2808 69.4228C10.3011 76.0943 12.6538 80.7887 16.4465 82.9989L20.7846 85.4933C16.9817 83.283 14.6289 78.5887 14.6086 71.9274C14.5859 61.8079 19.9396 50.0355 27.5792 41.9542Z" fill="white"/>
<path d="M20.7814 85.4964L16.4434 83.002C12.6507 80.7917 10.2979 76.0973 10.2776 69.4259C10.2776 69.1116 10.2776 68.7871 10.2979 68.4728C13.6851 66.6985 14.788 61.7915 14.788 56.9552C14.788 54.7956 15.5813 53.5381 14.7499 51.8044C16.9605 47.2824 19.881 43.0139 23.2479 39.4551L27.5758 41.9495C19.9396 50.0404 14.5852 61.8118 14.6055 71.9305C14.6258 78.5918 16.9785 83.2861 20.7814 85.4964Z" fill="#F0F5F7"/>
<path d="M27.5787 42.6642C27.4566 42.6642 27.3346 42.633 27.2236 42.5692L22.8897 40.0715C22.7025 39.9633 22.5735 39.774 22.5416 39.559C22.5111 39.3441 22.579 39.1263 22.7288 38.9682C25.3625 36.1834 28.1514 33.9325 31.0195 32.2773C36.9414 28.858 42.5416 28.3358 46.7895 30.8086L51.0652 33.2716C51.0805 33.2807 51.0971 33.2904 51.1138 33.2994L51.1166 33.3015C51.455 33.4984 51.5728 33.9332 51.3759 34.2723C51.1804 34.6128 50.7477 34.7272 50.4065 34.5316L50.3552 34.5018C46.5718 32.3362 41.5 32.8667 36.0677 36.0017C33.3161 37.5897 30.6339 39.7566 28.0946 42.4423C27.9573 42.5879 27.7687 42.6642 27.5787 42.6642ZM24.3875 39.2955L27.4511 41.061C29.971 38.462 32.6283 36.3477 35.3576 34.7715C38.9676 32.6905 42.4764 31.6795 45.5968 31.7759C41.8578 29.8787 36.9622 30.4854 31.7296 33.5074C29.2055 34.9636 26.7396 36.9087 24.3875 39.2955Z" fill="#1F3154"/>
<path d="M20.7844 86.2034C20.6638 86.2034 20.5417 86.1729 20.4308 86.1091L16.0926 83.6148C11.9057 81.1746 9.591 76.1362 9.5702 69.4251C9.53969 59.4099 14.7044 47.4544 22.7288 38.9682C22.9535 38.7289 23.314 38.6783 23.5997 38.8413L27.9337 41.339C28.1209 41.4472 28.2499 41.6365 28.2818 41.8515C28.3123 42.0664 28.2444 42.2842 28.0946 42.4416C20.3129 50.6747 15.298 62.2481 15.3187 71.9263C15.3382 78.1076 17.406 82.7078 21.1408 84.8797C21.4792 85.0759 21.5957 85.51 21.3988 85.8491C21.267 86.0765 21.0285 86.2034 20.7844 86.2034ZM23.3792 40.3529C15.8097 48.5597 10.9612 59.9091 10.9904 69.4209C11.0084 75.3914 12.932 79.8876 16.4186 82.1482C14.7834 79.5097 13.9111 76.0328 13.8986 71.9298C13.8778 62.1635 18.7818 50.5603 26.4525 42.1247L23.3792 40.3529Z" fill="#1F3154"/>
<path d="M35.8174 75.4102C43.3709 71.0505 49.4715 60.4811 49.4469 51.8101C49.4223 43.1391 43.2819 39.6409 35.7284 44.0006C28.1798 48.3574 22.0792 58.9207 22.1038 67.5917C22.1284 76.2627 28.2689 79.767 35.8174 75.4102Z" fill="#E0FEF2"/>
<path d="M49.4499 51.8063C49.4681 60.4837 43.3691 71.0478 35.8203 75.4138C28.2719 79.7708 22.1271 76.2615 22.1 67.5933V67.4019H22.1271C28.5088 67.4019 33.6961 62.0423 33.6961 55.4341C33.6961 52.49 32.6749 49.8011 30.9704 47.7228C32.4563 46.2371 34.0611 44.9702 35.729 44.004C43.2779 39.638 49.4222 43.1381 49.4499 51.8063Z" fill="white"/>
<path d="M29.6881 77.9994C28.261 77.9994 26.9366 77.6645 25.7633 76.9891C22.9576 75.3748 21.4057 72.038 21.3933 67.5938C21.3697 58.7081 27.6397 47.8483 35.3728 43.3853C39.2686 41.1379 42.9687 40.7947 45.791 42.418C48.5938 44.0309 50.1443 47.3656 50.1568 51.8078C50.1818 60.6955 43.909 71.5595 36.1731 76.0252C33.9 77.3372 31.6921 77.9994 29.6881 77.9994ZM41.8634 42.8299C40.1062 42.8299 38.1383 43.429 36.0829 44.6155C28.7436 48.8517 22.7898 59.1582 22.8134 67.5896C22.8245 71.5061 24.124 74.4067 26.4706 75.7583C28.8365 77.1188 32.0305 76.7783 35.463 74.7951C42.8064 70.5568 48.7617 60.2462 48.7367 51.8119C48.7256 47.8975 47.4275 44.999 45.0823 43.6488C44.1309 43.1017 43.045 42.8299 41.8634 42.8299Z" fill="#1F3154"/>
<path d="M35.625 50.0654C37.2924 49.1027 38.6555 49.8694 38.6609 51.7904C38.6663 53.7064 37.3121 56.0519 35.6447 57.0147C33.9773 57.9773 32.6187 57.198 32.6133 55.282C32.6079 53.3609 33.9576 51.0281 35.625 50.0654Z" fill="#1F3154"/>
<path d="M35.648 58.1804C39.6136 55.8909 42.8833 57.4656 43.2928 61.6665C43.3383 62.1327 42.9998 62.7546 42.572 63.0016L28.7784 70.9654C28.3505 71.2124 28.0097 70.9827 28.0523 70.4656C28.4368 65.8063 31.6868 60.4674 35.648 58.1804Z" fill="#1F3154"/>
<path d="M81.0296 79.7874L78.995 78.6398C78.944 78.6098 78.9079 78.5437 78.9079 78.4416L78.8629 62.6016L80.8974 63.7491L80.9425 79.5891C80.9425 79.6942 80.9784 79.7573 81.0296 79.7874Z" fill="#1F3154"/>
<path d="M98.3866 52.8356C98.2034 52.7305 97.951 52.7455 97.6717 52.9047L81.9037 62.0098L79.8693 60.8622L95.6371 51.7572C95.9165 51.595 96.1688 51.5799 96.3522 51.6881L98.3866 52.8356Z" fill="#E0FEF2"/>
<path d="M98.3857 52.835C98.2024 52.7298 97.9501 52.7449 97.6707 52.9041L81.9028 62.0092L79.8691 60.8616L84.6845 58.0799C85.1471 58.2662 85.6759 58.3713 86.2406 58.3713C88.004 58.3713 89.4338 57.353 89.4338 56.1003C89.4338 55.863 89.3827 55.6347 89.2896 55.4214L95.6371 51.7566C95.9164 51.5943 96.1687 51.5793 96.352 51.6875L98.3857 52.835Z" fill="#1BF3A4"/>
<path d="M80.8978 63.7494L78.8635 62.601C78.8617 61.9621 79.3118 61.1824 79.8679 60.8613L81.9022 62.0097C81.3462 62.3307 80.896 63.1105 80.8978 63.7494Z" fill="#1BF3A4"/>
<path d="M97.6707 52.9057C98.2267 52.5847 98.6798 52.8429 98.6817 53.4818L98.7143 65.0095C98.7162 65.6504 98.266 66.4301 97.7099 66.7511L83.7618 74.8041L81.4994 79.4872C81.4348 79.6203 81.3454 79.7148 81.257 79.7658C81.0984 79.8574 80.9434 79.8085 80.9427 79.59L80.8978 63.7493C80.896 63.1104 81.3462 62.3306 81.9023 62.0096L97.6707 52.9057Z" fill="#E0FEF2"/>
<path d="M98.7131 65.0101C98.7162 65.65 98.2656 66.431 97.7099 66.7524L83.7623 74.8031L81.5002 79.4863C81.4342 79.6215 81.3441 79.7146 81.257 79.7657C81.0977 79.8588 80.9446 79.8078 80.9415 79.5915L80.9085 68.3476C81.5064 68.5248 82.1402 68.6179 82.7951 68.6179C86.4899 68.6179 89.4848 65.623 89.4848 61.925C89.4848 60.5732 89.0853 59.3146 88.3944 58.2632L97.6707 52.9071C98.2265 52.5857 98.6801 52.844 98.6831 53.4808L98.7131 65.0101Z" fill="#E0FEF2"/>
<path d="M81.0296 79.9353C81.0051 79.9353 80.9799 79.9293 80.9568 79.9162L78.9225 78.7689C78.8182 78.7076 78.7598 78.5888 78.7598 78.4416L78.715 62.602C78.7147 62.5494 78.7427 62.5005 78.7881 62.4739C78.8335 62.447 78.8893 62.4467 78.9358 62.4727L80.9704 63.6201C81.0166 63.6464 81.0453 63.6953 81.0456 63.7488L81.0904 79.589C81.0904 79.6442 81.1045 79.6595 81.1045 79.6598C81.1751 79.7006 81.1988 79.7905 81.1583 79.861C81.1311 79.9087 81.0811 79.9353 81.0296 79.9353ZM79.0116 62.8555L79.0558 78.4414C79.0558 78.4882 79.0674 78.5096 79.0714 78.5133L80.7941 79.4847L80.7498 63.8358L79.0116 62.8555Z" fill="#1F3154" stroke="#1F3154" stroke-width="0.25" stroke-miterlimit="10"/>
<path d="M81.9035 62.1579C81.8784 62.1579 81.8535 62.1515 81.8307 62.1388L79.7964 60.9912C79.7502 60.9651 79.7215 60.916 79.7213 60.8631C79.721 60.8099 79.7493 60.7608 79.7953 60.7342L95.5629 51.6292C95.8812 51.4442 96.1888 51.4199 96.4273 51.5607L98.4535 52.7032C98.4558 52.7046 98.4581 52.7058 98.4601 52.7072C98.5309 52.7477 98.5558 52.8379 98.5153 52.9087C98.4746 52.9798 98.3844 53.0044 98.3141 52.9645L98.3089 52.9616C98.1661 52.8824 97.9658 52.9078 97.7446 53.0333L81.9775 62.138C81.9547 62.1512 81.929 62.1579 81.9035 62.1579ZM80.1679 60.8608L81.9027 61.8393L97.5975 52.7766C97.6683 52.7361 97.7386 52.7038 97.8077 52.6789L96.2793 51.8171C96.1342 51.7313 95.9333 51.7567 95.7112 51.8854L80.1679 60.8608Z" fill="#1F3154" stroke="#1F3154" stroke-width="0.25" stroke-miterlimit="10"/>
<path d="M80.8978 63.8973C80.8727 63.8973 80.8475 63.891 80.825 63.8783L78.7907 62.73C78.7444 62.7037 78.7158 62.6549 78.7155 62.6017C78.7132 61.9041 79.187 61.0834 79.7938 60.7333C79.8392 60.707 79.8953 60.7067 79.9407 60.7325L81.9752 61.8807C82.0215 61.9067 82.0501 61.9559 82.0504 62.0088C82.0507 62.062 82.0223 62.1111 81.9764 62.1377C81.4705 62.43 81.0444 63.1677 81.0458 63.749C81.0458 63.8016 81.0181 63.8505 80.9727 63.8771C80.9496 63.8907 80.9235 63.8973 80.8978 63.8973ZM79.0141 62.5161L80.7674 63.5056C80.8464 62.9538 81.1834 62.369 81.6228 62.0218L79.8713 61.0334C79.4206 61.3343 79.0488 61.9775 79.0141 62.5161Z" fill="#1F3154" stroke="#1F3154" stroke-width="0.25" stroke-miterlimit="10"/>
<path d="M81.1123 79.9578C81.0568 79.9578 81.0039 79.9445 80.9571 79.9177C80.8967 79.8827 80.7952 79.7942 80.7946 79.5904L80.7498 63.7496C80.7478 63.0523 81.2216 62.2316 81.8284 61.8815L97.5967 52.7778C97.9144 52.5942 98.2208 52.5688 98.4596 52.7064C98.6972 52.8431 98.8287 53.1183 98.8296 53.4814L98.8623 65.0091C98.8646 65.7075 98.3908 66.5291 97.784 66.8792L83.8751 74.9096L81.6327 79.5517C81.5598 79.702 81.4526 79.8237 81.3309 79.894C81.2575 79.9365 81.1826 79.9578 81.1123 79.9578ZM98.1219 52.9154C98.0098 52.9154 97.8811 52.9553 97.7447 53.0339L81.9764 62.1377C81.4705 62.4299 81.0444 63.1677 81.0458 63.749L81.0906 79.5898C81.0906 79.6372 81.1016 79.6578 81.1054 79.6612C81.1083 79.663 81.1372 79.6644 81.1829 79.6378C81.2528 79.5974 81.3196 79.519 81.3661 79.4228L83.6285 74.7396C83.6415 74.713 83.662 74.6908 83.6878 74.676L97.636 66.6231C98.1508 66.3259 98.568 65.602 98.5662 65.01L98.5336 53.482C98.533 53.2293 98.4541 53.0449 98.3121 52.9631C98.2566 52.9313 98.1925 52.9154 98.1219 52.9154Z" fill="#1F3154"/>
<path d="M97.6707 52.9058H97.6736M81.1123 79.9578C81.0568 79.9578 81.0039 79.9445 80.9571 79.9177C80.8967 79.8827 80.7952 79.7942 80.7946 79.5904L80.7498 63.7496C80.7478 63.0523 81.2216 62.2316 81.8284 61.8815L97.5967 52.7778C97.9144 52.5942 98.2208 52.5688 98.4596 52.7064C98.6972 52.8431 98.8287 53.1183 98.8296 53.4814L98.8623 65.0091C98.8646 65.7075 98.3908 66.5291 97.784 66.8792L83.8751 74.9096L81.6327 79.5517C81.5598 79.702 81.4526 79.8237 81.3309 79.894C81.2575 79.9365 81.1826 79.9578 81.1123 79.9578ZM98.1219 52.9154C98.0098 52.9154 97.8811 52.9553 97.7447 53.0339L81.9764 62.1377C81.4705 62.4299 81.0444 63.1677 81.0458 63.749L81.0906 79.5898C81.0906 79.6372 81.1016 79.6578 81.1054 79.6612C81.1083 79.663 81.1372 79.6644 81.1829 79.6378C81.2528 79.5974 81.3196 79.519 81.3661 79.4228L83.6285 74.7396C83.6415 74.713 83.662 74.6908 83.6878 74.676L97.636 66.6231C98.1508 66.3259 98.568 65.602 98.5662 65.01L98.5336 53.482C98.533 53.2293 98.4541 53.0449 98.3121 52.9631C98.2566 52.9313 98.1925 52.9154 98.1219 52.9154Z" stroke="#1F3154" stroke-width="0.25" stroke-miterlimit="10"/>
<path d="M45.1011 51.3051L43.0665 50.1575C43.0154 50.1275 42.9794 50.0614 42.9794 49.9593L42.9343 34.1193L44.9689 35.2668L45.0139 51.1068C45.0139 51.2119 45.0499 51.275 45.1011 51.3051Z" fill="#1F3154"/>
<path d="M62.458 24.3533C62.2748 24.2482 62.0224 24.2632 61.7431 24.4224L45.9751 33.5275L43.9407 32.3799L59.7085 23.2749C59.9879 23.1127 60.2402 23.0976 60.4236 23.2058L62.458 24.3533Z" fill="#E0FEF2"/>
<path d="M62.4572 24.3527C62.2738 24.2475 62.0215 24.2626 61.7421 24.4218L45.9743 33.5269L43.9406 32.3793L48.7559 29.5976C49.2185 29.7839 49.7473 29.889 50.312 29.889C52.0754 29.889 53.5052 28.8707 53.5052 27.618C53.5052 27.3807 53.4541 27.1524 53.361 26.9391L59.7085 23.2743C59.9878 23.112 60.2401 23.097 60.4235 23.2052L62.4572 24.3527Z" fill="#1BF3A4"/>
<path d="M44.9693 35.2671L42.9349 34.1187C42.9331 33.4798 43.3833 32.7001 43.9394 32.379L45.9737 33.5274C45.4176 33.8484 44.9675 34.6282 44.9693 35.2671Z" fill="#1BF3A4"/>
<path d="M61.7421 24.4234C62.2981 24.1024 62.7513 24.3606 62.7531 24.9995L62.7858 36.5272C62.7876 37.1681 62.3374 37.9478 61.7813 38.2688L47.8332 46.3218L45.5708 51.0049C45.5062 51.138 45.4168 51.2325 45.3284 51.2835C45.1698 51.3751 45.0148 51.3262 45.0142 51.1077L44.9692 35.267C44.9674 34.6281 45.4176 33.8483 45.9737 33.5273L61.7421 24.4234Z" fill="#E0FEF2"/>
<path d="M62.7846 36.5278C62.7877 37.1677 62.3371 37.9487 61.7813 38.2701L47.8338 46.3208L45.5717 51.004C45.5057 51.1392 45.4156 51.2323 45.3285 51.2834C45.1692 51.3765 45.0161 51.3255 45.013 51.1092L44.98 39.8653C45.5778 40.0425 46.2116 40.1356 46.8666 40.1356C50.5614 40.1356 53.5563 37.1407 53.5563 33.4427C53.5563 32.0909 53.1567 30.8323 52.4659 29.7809L61.7422 24.4248C62.2979 24.1034 62.7516 24.3617 62.7545 24.9985L62.7846 36.5278Z" fill="#E0FEF2"/>
<path d="M45.1011 51.453C45.0765 51.453 45.0513 51.447 45.0282 51.434L42.9939 50.2866C42.8896 50.2253 42.8312 50.1065 42.8312 49.9593L42.7864 34.1197C42.7861 34.0671 42.8141 34.0182 42.8595 33.9916C42.9049 33.9647 42.9607 33.9644 43.0072 33.9905L45.0418 35.1378C45.0881 35.1641 45.1167 35.213 45.117 35.2665L45.1618 51.1067C45.1618 51.1619 45.1759 51.1772 45.1759 51.1775C45.2465 51.2183 45.2702 51.3082 45.2297 51.3787C45.2025 51.4264 45.1525 51.453 45.1011 51.453ZM43.083 34.3732L43.1272 49.9591C43.1272 50.0059 43.1388 50.0273 43.1428 50.031L44.8655 51.0024L44.8212 35.3535L43.083 34.3732Z" fill="#1F3154" stroke="#1F3154" stroke-width="0.25" stroke-miterlimit="10"/>
<path d="M45.975 33.6756C45.9499 33.6756 45.925 33.6692 45.9022 33.6565L43.8679 32.5089C43.8216 32.4828 43.793 32.4337 43.7927 32.3808C43.7924 32.3276 43.8208 32.2785 43.8667 32.2519L59.6344 23.1469C59.9527 22.9619 60.2603 22.9376 60.4988 23.0784L62.525 24.2209C62.5273 24.2223 62.5296 24.2235 62.5316 24.2249C62.6024 24.2654 62.6273 24.3556 62.5868 24.4264C62.5461 24.4975 62.4559 24.5221 62.3856 24.4822L62.3804 24.4793C62.2376 24.4001 62.0373 24.4256 61.8161 24.551L46.049 33.6557C46.0262 33.6689 46.0004 33.6756 45.975 33.6756ZM44.2394 32.3785L45.9741 33.357L61.669 24.2943C61.7398 24.2538 61.81 24.2215 61.8791 24.1966L60.3508 23.3348C60.2056 23.249 60.0047 23.2744 59.7827 23.4031L44.2394 32.3785Z" fill="#1F3154" stroke="#1F3154" stroke-width="0.25" stroke-miterlimit="10"/>
<path d="M44.9693 35.415C44.9441 35.415 44.919 35.4087 44.8964 35.3959L42.8622 34.2477C42.8159 34.2214 42.7873 34.1726 42.787 34.1194C42.7847 33.4218 43.2585 32.6011 43.8653 32.251C43.9107 32.2247 43.9667 32.2244 44.0121 32.2502L46.0467 33.3984C46.0929 33.4244 46.1216 33.4736 46.1219 33.5265C46.1221 33.5796 46.0938 33.6288 46.0478 33.6554C45.542 33.9477 45.1158 34.6854 45.1173 35.2667C45.1173 35.3193 45.0895 35.3682 45.0442 35.3948C45.021 35.4084 44.995 35.415 44.9693 35.415ZM43.0856 34.0338L44.8389 35.0233C44.9178 34.4715 45.2549 33.8867 45.6943 33.5395L43.9427 32.5511C43.4921 32.852 43.1203 33.4952 43.0856 34.0338Z" fill="#1F3154" stroke="#1F3154" stroke-width="0.25" stroke-miterlimit="10"/>
<path d="M45.1837 51.4755C45.1282 51.4755 45.0753 51.4622 45.0284 51.4354C44.968 51.4004 44.8666 51.3119 44.866 51.1081L44.8212 35.2673C44.8191 34.57 45.293 33.7493 45.8997 33.3992L61.668 24.2955C61.9857 24.1119 62.2921 24.0865 62.5309 24.2241C62.7685 24.3608 62.9001 24.636 62.9009 24.9991L62.9336 36.5268C62.9359 37.2252 62.4621 38.0468 61.8553 38.3969L47.9464 46.4273L45.704 51.0694C45.6312 51.2197 45.5239 51.3414 45.4022 51.4117C45.3288 51.4542 45.2539 51.4755 45.1837 51.4755ZM62.1933 24.4331C62.0811 24.4331 61.9525 24.473 61.816 24.5516L46.0477 33.6554C45.5419 33.9476 45.1157 34.6854 45.1172 35.2667L45.162 51.1075C45.162 51.1549 45.173 51.1755 45.1767 51.1789C45.1796 51.1807 45.2085 51.1821 45.2542 51.1555C45.3242 51.1151 45.391 51.0367 45.4375 50.9405L47.6999 46.2573C47.7129 46.2307 47.7334 46.2085 47.7591 46.1937L61.7073 38.1408C62.2222 37.8436 62.6393 37.1197 62.6376 36.5277L62.6049 24.9997C62.6043 24.747 62.5254 24.5626 62.3835 24.4808C62.328 24.449 62.2638 24.4331 62.1933 24.4331Z" fill="#1F3154"/>
<path d="M61.742 24.4235H61.7449M45.1837 51.4755C45.1282 51.4755 45.0753 51.4622 45.0284 51.4354C44.968 51.4004 44.8666 51.3119 44.866 51.1081L44.8212 35.2673C44.8191 34.57 45.293 33.7493 45.8997 33.3992L61.668 24.2955C61.9857 24.1119 62.2921 24.0865 62.5309 24.2241C62.7685 24.3608 62.9001 24.636 62.9009 24.9991L62.9336 36.5268C62.9359 37.2252 62.4621 38.0468 61.8553 38.3969L47.9464 46.4273L45.704 51.0694C45.6312 51.2197 45.5239 51.3414 45.4022 51.4117C45.3288 51.4542 45.2539 51.4755 45.1837 51.4755ZM62.1933 24.4331C62.0811 24.4331 61.9525 24.473 61.816 24.5516L46.0477 33.6554C45.5419 33.9476 45.1157 34.6854 45.1172 35.2667L45.162 51.1075C45.162 51.155 45.173 51.1755 45.1767 51.1789C45.1796 51.1807 45.2085 51.1821 45.2542 51.1555C45.3242 51.1151 45.391 51.0367 45.4375 50.9405L47.6999 46.2573C47.7129 46.2307 47.7334 46.2085 47.7591 46.1937L61.7073 38.1408C62.2222 37.8436 62.6393 37.1197 62.6376 36.5277L62.6049 24.9997C62.6043 24.747 62.5254 24.5626 62.3835 24.4808C62.328 24.449 62.2638 24.4331 62.1933 24.4331Z" stroke="#1F3154" stroke-width="0.25" stroke-miterlimit="10"/>
</g>
<defs>
<clipPath id="clip0_10673_27208">
<rect width="120" height="120" fill="white"/>
</clipPath>
</defs>
</svg>
