<svg width="120" height="120" viewBox="0 0 120 120" fill="none" xmlns="http://www.w3.org/2000/svg">
<g clip-path="url(#clip0_10673_27331)">
<path d="M55.1944 113.688C55.1999 113.105 54.4417 112.625 53.5008 112.616C52.56 112.607 51.7929 113.073 51.7874 113.656C51.782 114.239 52.5402 114.719 53.481 114.728C54.4218 114.737 55.1889 114.271 55.1944 113.688Z" fill="#1F3154"/>
<path d="M62.3382 109.474C62.3437 108.891 61.5854 108.411 60.6446 108.402C59.7038 108.393 58.9367 108.859 58.9312 109.442C58.9258 110.025 59.684 110.505 60.6248 110.514C61.5656 110.523 62.3327 110.057 62.3382 109.474Z" fill="#1F3154"/>
<path d="M69.4819 105.282C69.4874 104.699 68.7292 104.219 67.7884 104.21C66.8476 104.201 66.0805 104.667 66.075 105.25C66.0695 105.834 66.8277 106.314 67.7685 106.323C68.7094 106.331 69.4765 105.866 69.4819 105.282Z" fill="#1F3154"/>
<path d="M76.6257 101.076C76.6312 100.493 75.873 100.013 74.9322 100.004C73.9914 99.9954 73.2243 100.461 73.2188 101.044C73.2133 101.628 73.9715 102.108 74.9123 102.117C75.8532 102.125 76.6203 101.66 76.6257 101.076Z" fill="#1F3154"/>
<path d="M83.7695 96.8812C83.775 96.2979 83.0168 95.8179 82.076 95.8091C81.1352 95.8002 80.3681 96.2659 80.3626 96.8492C80.3571 97.4325 81.1153 97.9126 82.0561 97.9214C82.997 97.9302 83.7641 97.4645 83.7695 96.8812Z" fill="#1F3154"/>
<path d="M90.9133 92.6643C90.9188 92.081 90.1605 91.601 89.2197 91.5921C88.2789 91.5833 87.5118 92.049 87.5063 92.6323C87.5008 93.2156 88.2591 93.6956 89.1999 93.7045C90.1407 93.7133 90.9078 93.2476 90.9133 92.6643Z" fill="#1F3154"/>
<path d="M67.1904 114.326C67.1959 113.743 66.4376 113.263 65.4968 113.254C64.556 113.245 63.7889 113.711 63.7834 114.294C63.7779 114.877 64.5362 115.357 65.477 115.366C66.4178 115.375 67.1849 114.909 67.1904 114.326Z" fill="#1F3154"/>
<path d="M74.3342 110.135C74.3397 109.551 73.5814 109.071 72.6406 109.062C71.6998 109.054 70.9327 109.519 70.9272 110.103C70.9217 110.686 71.68 111.166 72.6208 111.175C73.5616 111.184 74.3287 110.718 74.3342 110.135Z" fill="#1F3154"/>
<path d="M81.4779 105.928C81.4834 105.345 80.7252 104.865 79.7844 104.856C78.8435 104.847 78.0764 105.313 78.071 105.896C78.0655 106.48 78.8237 106.96 79.7645 106.969C80.7053 106.977 81.4724 106.512 81.4779 105.928Z" fill="#1F3154"/>
<path d="M88.6217 101.733C88.6272 101.15 87.869 100.67 86.9281 100.661C85.9873 100.652 85.2202 101.118 85.2147 101.701C85.2093 102.285 85.9675 102.765 86.9083 102.774C87.8491 102.782 88.6162 102.317 88.6217 101.733Z" fill="#1F3154"/>
<path d="M47.0797 94.2155C47.0852 93.6322 46.327 93.1521 45.3862 93.1433C44.4454 93.1345 43.6782 93.6002 43.6728 94.1835C43.6673 94.7668 44.4255 95.2468 45.3663 95.2556C46.3071 95.2644 47.0743 94.7988 47.0797 94.2155Z" fill="#1F3154"/>
<path d="M54.2235 90.0239C54.229 89.4406 53.4708 88.9606 52.53 88.9518C51.5891 88.9429 50.822 89.4086 50.8166 89.9919C50.8111 90.5752 51.5693 91.0553 52.5101 91.0641C53.4509 91.0729 54.2181 90.6072 54.2235 90.0239Z" fill="#1F3154"/>
<path d="M61.3673 85.8179C61.3727 85.2346 60.6145 84.7545 59.6737 84.7457C58.7329 84.7369 57.9658 85.2026 57.9603 85.7859C57.9548 86.3692 58.7131 86.8492 59.6539 86.858C60.5947 86.8669 61.3618 86.4012 61.3673 85.8179Z" fill="#1F3154"/>
<path d="M68.5111 81.6228C68.5165 81.0395 67.7583 80.5595 66.8175 80.5507C65.8767 80.5418 65.1096 81.0075 65.1041 81.5908C65.0986 82.1741 65.8569 82.6541 66.7977 82.663C67.7385 82.6718 68.5056 82.2061 68.5111 81.6228Z" fill="#1F3154"/>
<path d="M44.9414 103.435C44.9468 102.852 44.1886 102.372 43.2478 102.363C42.307 102.354 41.5399 102.82 41.5344 103.403C41.5289 103.986 42.2872 104.466 43.228 104.475C44.1688 104.484 44.9359 104.018 44.9414 103.435Z" fill="#1F3154"/>
<path d="M52.0852 99.2208C52.0906 98.6375 51.3324 98.1575 50.3916 98.1487C49.4508 98.1398 48.6837 98.6055 48.6782 99.1888C48.6727 99.7721 49.431 100.252 50.3718 100.261C51.3126 100.27 52.0797 99.8041 52.0852 99.2208Z" fill="#1F3154"/>
<path d="M59.2289 95.0293C59.2344 94.446 58.4761 93.966 57.5353 93.9571C56.5945 93.9483 55.8274 94.414 55.8219 94.9973C55.8165 95.5806 56.5747 96.0606 57.5155 96.0695C58.4563 96.0783 59.2234 95.6126 59.2289 95.0293Z" fill="#1F3154"/>
<path d="M66.3727 90.8234C66.3782 90.2401 65.6199 89.76 64.6791 89.7512C63.7383 89.7424 62.9712 90.2081 62.9657 90.7914C62.9602 91.3747 63.7185 91.8547 64.6593 91.8635C65.6001 91.8724 66.3672 91.4067 66.3727 90.8234Z" fill="#1F3154"/>
<path d="M73.5165 86.6282C73.522 86.0449 72.7637 85.5648 71.8229 85.556C70.8821 85.5472 70.115 86.0129 70.1095 86.5962C70.104 87.1795 70.8623 87.6595 71.8031 87.6683C72.7439 87.6772 73.511 87.2115 73.5165 86.6282Z" fill="#1F3154"/>
<path d="M80.6602 82.4113C80.6657 81.828 79.9075 81.3479 78.9667 81.3391C78.0258 81.3303 77.2587 81.796 77.2533 82.3793C77.2478 82.9626 78.006 83.4426 78.9468 83.4514C79.8876 83.4603 80.6547 82.9946 80.6602 82.4113Z" fill="#1F3154"/>
<path d="M42.6498 112.5C42.6553 111.916 41.897 111.436 40.9562 111.427C40.0154 111.419 39.2483 111.884 39.2428 112.468C39.2373 113.051 39.9956 113.531 40.9364 113.54C41.8772 113.549 42.6443 113.083 42.6498 112.5Z" fill="#1F3154"/>
<path d="M49.7936 108.287C49.7991 107.704 49.0408 107.224 48.1 107.215C47.1592 107.206 46.3921 107.672 46.3866 108.255C46.3811 108.839 47.1394 109.319 48.0802 109.327C49.021 109.336 49.7881 108.871 49.7936 108.287Z" fill="#1F3154"/>
<path d="M56.9373 104.073C56.9428 103.49 56.1846 103.01 55.2438 103.001C54.3029 102.992 53.5358 103.458 53.5304 104.041C53.5249 104.624 54.2831 105.104 55.2239 105.113C56.1647 105.122 56.9318 104.656 56.9373 104.073Z" fill="#1F3154"/>
<path d="M64.0811 99.8815C64.0866 99.2982 63.3284 98.8182 62.3876 98.8093C61.4467 98.8005 60.6796 99.2662 60.6742 99.8495C60.6687 100.433 61.4269 100.913 62.3677 100.922C63.3085 100.93 64.0756 100.465 64.0811 99.8815Z" fill="#1F3154"/>
<path d="M71.2249 95.6755C71.2304 95.0922 70.4722 94.6122 69.5314 94.6034C68.5906 94.5945 67.8234 95.0602 67.818 95.6435C67.8125 96.2268 68.5707 96.7069 69.5115 96.7157C70.4523 96.7245 71.2195 96.2588 71.2249 95.6755Z" fill="#1F3154"/>
<path d="M78.3687 91.4803C78.3741 90.897 77.6159 90.417 76.6751 90.4082C75.7343 90.3994 74.9672 90.8651 74.9617 91.4484C74.9562 92.0317 75.7145 92.5117 76.6553 92.5205C77.5961 92.5293 78.3632 92.0636 78.3687 91.4803Z" fill="#1F3154"/>
<path d="M85.5125 87.2634C85.5179 86.6801 84.7597 86.2001 83.8189 86.1913C82.8781 86.1824 82.111 86.6481 82.1055 87.2314C82.1 87.8147 82.8583 88.2948 83.7991 88.3036C84.7399 88.3124 85.507 87.8467 85.5125 87.2634Z" fill="#1F3154"/>
<path d="M92.6563 83.046C92.6617 82.4627 91.9035 81.9827 90.9627 81.9739C90.0219 81.965 89.2548 82.4307 89.2493 83.014C89.2438 83.5973 90.0021 84.0774 90.9429 84.0862C91.8837 84.095 92.6508 83.6293 92.6563 83.046Z" fill="#1F3154"/>
<path d="M22.351 41.4508L22.5023 102.947C22.5063 104.411 23.0224 105.442 23.8554 105.926L32.8419 111.146C32.0089 110.661 31.4928 109.631 31.4886 108.167L31.3373 46.6706C31.3332 45.2664 31.8109 43.7204 32.5794 42.3213L23.5929 37.1016C22.8244 38.5006 22.347 40.0467 22.351 41.4508Z" fill="#1F3154"/>
<path d="M32.8414 111.715C32.7437 111.715 32.646 111.69 32.556 111.638L23.5698 106.419C22.5191 105.807 21.9381 104.575 21.9337 102.95L21.7826 41.453C21.7782 40.0179 22.2436 38.3762 23.0944 36.8277C23.1689 36.6944 23.2933 36.5956 23.441 36.5545C23.5898 36.5123 23.7476 36.5334 23.8786 36.61L32.8648 41.8295C33.1325 41.985 33.2269 42.3249 33.0781 42.596C32.3183 43.9767 31.9017 45.424 31.9062 46.6681L32.0572 108.166C32.0606 109.371 32.4405 110.255 33.1269 110.654C33.3991 110.812 33.4913 111.16 33.3335 111.432C33.228 111.614 33.0369 111.715 32.8414 111.715ZM23.8242 37.8941C23.2355 39.1148 22.9167 40.3589 22.9201 41.4485L23.0711 102.946C23.0744 104.15 23.4554 105.035 24.1419 105.436L31.0609 109.454C30.9687 109.061 30.9209 108.631 30.9198 108.169L30.7688 46.6714C30.7643 45.3896 31.1375 43.94 31.824 42.5404L23.8242 37.8941Z" fill="#1F3154"/>
<path d="M86.7926 9.26162C89.3551 7.78013 91.4401 8.96982 91.4484 11.9184L91.5997 73.4147C91.6081 76.3633 89.5367 79.9559 86.9742 81.4374L36.1504 110.82C33.582 112.305 31.497 111.116 31.4887 108.167L31.3374 46.6706C31.329 43.722 33.4004 40.1295 35.9688 38.6446L86.7926 9.26162Z" fill="#E0FEF2"/>
<path d="M91.5972 73.4144C91.6086 76.3603 89.5387 79.9546 86.9794 81.4332L36.1475 110.824C33.5769 112.303 31.4953 111.12 31.4842 108.163L31.4045 73.8807C32.4167 74.0399 33.452 74.1196 34.4983 74.1196C48.0905 74.1196 59.1008 61.2779 59.1008 45.4336C59.1008 38.9389 57.2469 32.956 54.1304 28.1447L86.7973 9.26332C89.3565 7.78468 91.4381 8.96759 91.4495 11.9136L91.5972 73.4144Z" fill="#1BF3A4"/>
<path d="M80.7722 3.51736C79.9285 3.0263 79.0956 3.29638 77.8061 4.04191L26.9824 33.4249C25.6371 34.2026 24.438 35.5629 23.593 37.1016L32.5795 42.3214C33.4245 40.7826 34.6236 39.4224 35.9689 38.6446L86.7926 9.26168C88.0821 8.51615 89.2506 8.44702 90.0946 8.93814L80.7722 3.51736Z" fill="white"/>
<path d="M90.0982 8.93727C89.2546 8.44378 88.0798 8.51971 86.7908 9.25989L35.9728 38.6465C34.6272 39.4247 33.4236 40.7817 32.58 42.3191L23.5938 37.1055C24.4371 35.5587 25.6407 34.2017 26.9866 33.4235L34.0848 29.3145C35.5063 29.9598 37.1553 30.3298 38.9181 30.3298C44.2819 30.3298 48.6222 26.923 48.6222 22.7191C48.6222 22.1497 48.5371 21.5898 48.3853 21.0584L77.8046 4.04634C79.0933 3.29666 79.7347 2.92067 80.5783 3.40466L90.0982 8.93727Z" fill="#F0F5F7"/>
<path d="M34.0611 112.031C33.5213 112.031 33.0181 111.903 32.5693 111.645C31.5108 111.037 30.9243 109.802 30.9199 108.169L30.7688 46.6713C30.7588 43.4945 32.9181 39.7523 35.6839 38.1528L86.5084 8.76956C87.9335 7.94426 89.3064 7.82763 90.3683 8.43966C91.4269 9.04836 92.0122 10.2835 92.0167 11.9175L92.1688 73.4131C92.1777 76.591 90.0206 80.3321 87.2581 81.9294L36.4348 111.313C35.6095 111.79 34.802 112.031 34.0611 112.031ZM88.8721 9.19164C88.3356 9.19164 87.7235 9.38049 87.0771 9.7537L36.2527 39.1369C33.8478 40.5276 31.8984 43.9066 31.9062 46.6679L32.0573 108.166C32.0606 109.375 32.4438 110.262 33.1358 110.659C33.8323 111.06 34.8009 110.943 35.8661 110.328L86.6894 80.9452C89.0909 79.5568 91.0392 76.1789 91.0314 73.4153L90.8792 11.9197C90.8759 10.709 90.4927 9.82367 89.8018 9.4249C89.5297 9.26829 89.2164 9.19164 88.8721 9.19164Z" fill="#1F3154"/>
<path d="M32.5793 42.8903C32.4793 42.8903 32.3816 42.8647 32.2938 42.8136L23.3077 37.5941C23.04 37.4386 22.9456 37.0987 23.0944 36.8288C24.0353 35.116 25.3149 33.7319 26.6978 32.9333L77.5222 3.55009C78.9551 2.72256 80.3302 2.60818 81.3944 3.22686L90.3805 8.44639C90.6526 8.60521 90.7448 8.95288 90.5871 9.22391C90.4282 9.49717 90.0795 9.58715 89.8095 9.43052L89.8062 9.4283C89.1087 9.0262 88.1401 9.14172 87.077 9.75375L36.2537 39.137C35.0663 39.8234 33.9078 41.0842 33.078 42.5959C33.0036 42.7292 32.8792 42.828 32.7315 42.8692C32.6815 42.8836 32.6304 42.8903 32.5793 42.8903ZM24.3707 36.8965L32.3727 41.544C33.2791 40.0633 34.441 38.8715 35.685 38.1528L86.5083 8.76962C86.9249 8.52858 87.3381 8.34752 87.7391 8.22756L80.8223 4.2099C80.1247 3.80446 79.155 3.91998 78.0909 4.53425L27.2665 33.9174C26.2068 34.5306 25.1716 35.6003 24.3707 36.8965Z" fill="#1F3154"/>
<path d="M61.3984 30.6158C63.6925 29.2907 65.5679 30.3459 65.5753 32.9902C65.5828 35.6274 63.7197 38.8559 61.4255 40.181C59.1315 41.5061 57.2623 40.4334 57.2548 37.7961C57.2473 35.1519 59.1044 31.9408 61.3984 30.6158Z" fill="#E0FEF2"/>
<path d="M65.5794 32.9885C65.5794 35.6267 63.7211 38.8538 61.4231 40.1812C59.1333 41.5086 57.2584 40.43 57.2584 37.8002C57.2584 37.6758 57.2584 37.543 57.275 37.4103C57.5323 37.4684 57.7893 37.4933 58.0631 37.4933C60.2698 37.4933 62.0536 35.6101 62.0536 33.2872C62.0536 32.3248 61.7465 31.4372 61.224 30.732C61.2819 30.6822 61.34 30.649 61.3981 30.6159C63.6962 29.2885 65.5711 30.3421 65.5794 32.9885Z" fill="white"/>
<path d="M61.4314 42.8791C67.3796 39.4434 72.284 41.8065 72.8981 48.1104C72.9664 48.8099 72.4587 49.7431 71.8171 50.1138L51.1274 62.0641C50.4855 62.4349 49.9744 62.0902 50.0383 61.3142C50.615 54.3225 55.4898 46.311 61.4314 42.8791Z" fill="#E0FEF2"/>
<path d="M72.8964 48.1122C72.9628 48.8091 72.4567 49.7465 71.8179 50.1115L51.1276 62.0661C50.4888 62.4312 49.9745 62.091 50.0407 61.3112C50.298 58.2665 51.3599 55.0228 52.9776 52.0528C53.7658 52.393 54.6202 52.5754 55.5245 52.5754C59.2993 52.5754 62.3605 49.3317 62.3605 45.3164C62.3605 44.3706 62.1946 43.4664 61.8792 42.6368C67.6285 39.5672 72.2991 41.9648 72.8964 48.1122Z" fill="white"/>
<path d="M59.5644 41.3207C59.0701 41.3207 58.608 41.203 58.1948 40.9653C57.2262 40.4077 56.6897 39.2825 56.6864 37.7974C56.6775 34.9327 58.6224 31.5615 61.1139 30.1242C62.4135 29.3722 63.6653 29.2689 64.6395 29.8287C65.6059 30.3841 66.1401 31.5071 66.1435 32.9888C66.1512 35.8091 64.163 39.2569 61.7093 40.6732C60.9651 41.1041 60.2353 41.3207 59.5644 41.3207ZM63.2655 30.6118C62.7934 30.6118 62.2536 30.7784 61.6826 31.1083C59.5477 32.3413 57.8171 35.3403 57.8238 37.794C57.826 38.857 58.1593 39.6324 58.7624 39.9789C59.3711 40.3288 60.2131 40.2255 61.1406 39.689C63.2432 38.4749 65.0127 35.4081 65.0061 32.9922C65.0038 31.9325 64.6717 31.1594 64.0719 30.814C63.8364 30.6784 63.5643 30.6118 63.2655 30.6118Z" fill="#1F3154"/>
<path d="M50.636 62.7819C50.4183 62.7819 50.2117 62.7253 50.0284 62.6087C49.6252 62.3532 49.4219 61.8644 49.4719 61.2679C50.0706 54.0024 55.0902 45.886 61.1472 42.3871C64.2863 40.5754 67.2964 40.2377 69.6257 41.434C71.794 42.5492 73.1569 44.9007 73.4646 48.0542C73.5545 48.9739 72.9436 50.1191 72.1028 50.6057L51.4113 62.5564C51.1514 62.7075 50.8859 62.7819 50.636 62.7819ZM61.716 43.3712C55.9533 46.7013 51.1759 54.4345 50.6049 61.3613C50.5894 61.5479 50.6293 61.6367 50.6438 61.6534C50.6449 61.6478 50.7193 61.6423 50.8426 61.5723L71.5329 49.6215C71.9828 49.3605 72.3782 48.6396 72.3316 48.1653C72.0639 45.4084 70.9176 43.3779 69.1059 42.4459C67.1298 41.4296 64.5062 41.7606 61.716 43.3712Z" fill="#1F3154"/>
<path d="M77.212 69.9063C78.076 69.4144 78.7754 69.8157 78.7782 70.795L78.799 77.9956C78.8018 78.9747 78.1069 80.1617 77.2428 80.6536L45.7688 98.5735C44.9046 99.0655 44.2052 98.6725 44.2023 97.6933L44.1816 90.4928C44.1788 89.5135 44.8737 88.3183 45.7379 87.8262L77.212 69.9063Z" fill="white"/>
<path d="M78.7931 77.9922C78.8048 78.9704 78.1108 80.1646 77.2464 80.6538L45.7738 98.5683C44.9094 99.0688 44.204 98.6706 44.204 97.6926L44.1926 92.6081C45.0229 92.9039 45.9215 93.0631 46.8657 93.0631C50.8581 93.0631 54.0996 90.2196 54.0996 86.7162C54.0996 85.5788 53.7586 84.521 53.1671 83.5997L77.2122 69.9051C78.0767 69.416 78.7704 69.8142 78.782 70.7922L78.7931 77.9922Z" fill="#F0F5F7"/>
<path d="M77.1686 54.8141C78.0326 54.3221 78.732 54.7235 78.7349 55.7027L78.7556 62.9031C78.7584 63.8825 78.0635 65.0694 77.1994 65.5613L45.7254 83.4812C44.8612 83.9733 44.1618 83.5802 44.1589 82.6009L44.1383 75.4004C44.1354 74.4212 44.8303 73.226 45.6945 72.7339L77.1686 54.8141Z" fill="white"/>
<path d="M78.7592 62.8985C78.7592 63.888 78.0653 65.071 77.2008 65.5601L45.7283 83.4859C44.8638 83.9751 44.1584 83.5768 44.1584 82.5988L44.1357 76.8661C45.0343 77.1846 46.0126 77.3551 47.0476 77.3551C51.3812 77.3551 54.896 74.2841 54.896 70.4964C54.896 69.5638 54.6797 68.6653 54.2931 67.8462L77.1667 54.8113C78.0311 54.3222 78.7365 54.7204 78.7365 55.6984L78.7592 62.8985Z" fill="#F0F5F7"/>
<path d="M45.0633 99.3529C44.8134 99.3529 44.5768 99.2929 44.3679 99.1718C43.9025 98.9019 43.6348 98.3632 43.6337 97.6945L43.6126 90.4945C43.6104 89.3115 44.4201 87.922 45.4565 87.3321L76.9313 69.4121C77.5244 69.0733 78.1376 69.0377 78.6074 69.3088C79.0751 69.5798 79.345 70.1207 79.3472 70.7928L79.3672 77.9939C79.3716 79.1724 78.5608 80.5575 77.5233 81.1474L46.0496 99.0674C45.7164 99.2574 45.3787 99.3529 45.0633 99.3529ZM77.9099 70.264C77.7977 70.264 77.65 70.3118 77.4933 70.4007L46.0185 88.3207C45.341 88.7062 44.7478 89.7203 44.75 90.4912L44.7711 97.6912C44.7723 97.9378 44.8356 98.1277 44.9389 98.1877C45.0222 98.2377 45.2121 98.2355 45.4876 98.0788L76.9613 80.1588C77.6511 79.7667 78.232 78.777 78.2298 77.9972L78.2098 70.7961C78.2087 70.5473 78.1431 70.354 78.0376 70.294C78.0043 70.274 77.961 70.264 77.9099 70.264Z" fill="#1F3154"/>
<path d="M45.0199 84.2609C44.77 84.2609 44.5334 84.2009 44.3246 84.0798C43.8592 83.8099 43.5915 83.2712 43.5904 82.6025L43.5693 75.4025C43.5671 74.2195 44.3768 72.8299 45.4132 72.2401L76.888 54.32C77.4811 53.9835 78.0909 53.9457 78.5641 54.2167C79.0317 54.4878 79.3017 55.0287 79.3039 55.7007L79.3239 62.9018C79.3283 64.0793 78.5186 65.4644 77.48 66.0553L46.0063 83.9754C45.6731 84.1653 45.3354 84.2609 45.0199 84.2609ZM77.8665 55.172C77.7544 55.172 77.6066 55.2198 77.4511 55.3086L45.9752 73.2287C45.2976 73.6141 44.7045 74.6283 44.7067 75.3991L44.7278 82.5992C44.7289 82.8457 44.7922 83.0357 44.8955 83.0957C44.98 83.1445 45.1688 83.1434 45.4443 82.9868L76.9179 65.0667C77.6077 64.6735 78.1887 63.6838 78.1864 62.9052L78.1664 55.7041C78.1653 55.4553 78.0998 55.2631 77.9943 55.202C77.9598 55.182 77.9165 55.172 77.8665 55.172Z" fill="#1F3154"/>
<path d="M51.1146 87.1977C51.2478 87.1208 51.3627 87.1099 51.4629 87.1585C51.5632 87.2113 51.6117 87.3112 51.6121 87.4642C51.6123 87.5153 51.5253 88.2384 51.3514 89.6379C52.2335 88.3023 52.6985 87.6079 52.7428 87.5567C52.7982 87.4736 52.8758 87.4033 52.9721 87.3477C53.1497 87.2452 53.2943 87.2554 53.4058 87.3827C53.4505 87.4591 53.4731 87.5397 53.4733 87.6291C53.4739 87.8459 53.3966 88.0567 53.2415 88.2612L51.5858 89.9582L53.2457 89.7452C53.4014 89.7575 53.4797 89.87 53.4803 90.0868C53.4805 90.1761 53.4585 90.2826 53.4144 90.4102C53.304 90.6657 53.1562 90.8447 52.9674 90.9537C52.8897 90.9985 52.8194 91.0221 52.7526 91.0223C52.7082 91.0224 52.2407 90.8664 51.354 90.552C51.5353 91.7422 51.626 92.367 51.6261 92.4181C51.6266 92.5669 51.5789 92.7264 51.4792 92.8905C51.3796 93.0587 51.265 93.176 51.1318 93.2529C50.9986 93.3298 50.8837 93.345 50.7835 93.2921C50.6832 93.2435 50.6311 93.1416 50.6306 92.9928C50.6305 92.9418 50.7174 92.2143 50.8914 90.8191C50.0093 92.1547 49.5479 92.847 49.5036 92.8982C49.4371 92.9749 49.3631 93.0346 49.2892 93.0773C49.1004 93.1863 48.9484 93.1803 48.8405 93.051C48.7959 92.9873 48.7734 92.8981 48.773 92.7833C48.7724 92.5706 48.8498 92.3727 49.0012 92.1958L50.6569 90.4945L48.997 90.7118C48.845 90.6973 48.7668 90.5807 48.7662 90.368C48.7659 90.2532 48.7879 90.1383 48.832 90.0234C48.9387 89.7701 49.0828 89.5932 49.2604 89.4907C49.3381 89.4458 49.416 89.4264 49.4938 89.4326C49.5382 89.4325 50.002 89.5906 50.8888 89.9049C50.7075 88.7106 50.6168 88.09 50.6166 88.039C50.6162 87.8859 50.6676 87.7284 50.7673 87.5601C50.8669 87.3962 50.9814 87.2746 51.1146 87.1977Z" fill="black"/>
<path d="M58.0235 83.2088C58.1568 83.1318 58.2754 83.1188 58.3755 83.1674C58.4721 83.2224 58.5243 83.3201 58.5247 83.4731C58.5249 83.5242 58.4379 84.2473 58.264 85.6468C59.1461 84.3112 59.6074 83.6189 59.6517 83.5678C59.7071 83.4847 59.7847 83.4143 59.8847 83.3566C60.0623 83.2541 60.2069 83.2643 60.3185 83.3916C60.3631 83.468 60.3819 83.5508 60.3822 83.6401C60.3828 83.857 60.3092 84.0656 60.1541 84.2701L58.4984 85.9671L60.1583 85.7541C60.314 85.7664 60.3886 85.881 60.3892 86.0979C60.3894 86.1872 60.3711 86.2915 60.327 86.4191C60.2166 86.6746 60.0652 86.8557 59.88 86.9626C59.8024 87.0074 59.7283 87.0331 59.6616 87.0334C59.6171 87.0334 59.1533 86.8753 58.2666 86.561C58.4479 87.7511 58.5386 88.3759 58.5388 88.4269C58.5392 88.5757 58.4877 88.7375 58.3918 88.8994C58.2922 89.0676 58.1739 89.187 58.0407 89.2639C57.9112 89.3387 57.7926 89.3561 57.6924 89.3032C57.5959 89.2524 57.5437 89.1505 57.5432 89.0017C57.5431 88.9507 57.63 88.2232 57.804 86.828C56.9219 88.1636 56.4568 88.858 56.4162 88.9071C56.3497 88.9838 56.2758 89.0435 56.1981 89.0884C56.0093 89.1973 55.861 89.1892 55.7495 89.062C55.7048 88.9983 55.6823 88.9091 55.682 88.7943C55.6814 88.5816 55.7587 88.3837 55.9138 88.2047L57.5696 86.5034L55.9096 86.7207C55.7539 86.7083 55.6758 86.5917 55.6752 86.379C55.6748 86.2642 55.6967 86.1493 55.7409 86.0344C55.8513 85.779 55.9954 85.6021 56.173 85.4996C56.2507 85.4547 56.3286 85.4353 56.4064 85.4415C56.4471 85.4435 56.9146 85.5995 57.8015 85.9138C57.6201 84.7195 57.5294 84.0989 57.5292 84.0479C57.5288 83.8948 57.5802 83.7373 57.6762 83.5712C57.7757 83.4072 57.894 83.2835 58.0235 83.2088Z" fill="black"/>
<path d="M64.9362 79.2177C65.0694 79.1408 65.1843 79.1299 65.2845 79.1785C65.3848 79.2314 65.4369 79.329 65.4374 79.4821C65.4375 79.5331 65.3506 80.2563 65.1766 81.6558C66.0587 80.3202 66.5201 79.6279 66.5644 79.5768C66.6198 79.4937 66.6974 79.4233 66.7974 79.3656C66.9749 79.2631 67.1196 79.2733 67.2274 79.4027C67.2721 79.4791 67.2946 79.5598 67.2949 79.6491C67.2955 79.866 67.2182 80.0767 67.0668 80.2791L65.4111 81.9761L67.071 81.7631C67.223 81.7776 67.3012 81.89 67.3018 82.1068C67.3021 82.1962 67.2801 82.3026 67.236 82.4302C67.1292 82.6836 66.9778 82.8647 66.789 82.9737C66.715 83.0164 66.641 83.0421 66.5742 83.0423C66.5298 83.0424 66.066 82.8843 65.1792 82.57C65.3605 83.7601 65.4513 84.3849 65.4514 84.4359C65.4518 84.5847 65.4004 84.7465 65.3007 84.9105C65.2012 85.0787 65.0866 85.196 64.9534 85.2729C64.8202 85.3498 64.7053 85.365 64.6051 85.3121C64.5048 85.2636 64.4563 85.1595 64.4559 85.0107C64.4558 84.9597 64.5427 84.2322 64.7166 82.8371C63.8346 84.1726 63.3695 84.867 63.3252 84.9182C63.2586 84.9949 63.1884 85.0525 63.1107 85.0973C62.922 85.2063 62.7737 85.1982 62.6621 85.071C62.6175 85.0073 62.595 84.918 62.5947 84.8033C62.5941 84.5906 62.6714 84.3927 62.8265 84.2137L64.4822 82.5124L62.8223 82.7297C62.6666 82.7173 62.5884 82.6006 62.5878 82.388C62.5875 82.2732 62.6094 82.1583 62.6535 82.0434C62.764 81.788 62.9081 81.6111 63.0857 81.5085C63.1597 81.4658 63.2375 81.4464 63.3154 81.4526C63.3598 81.4525 63.8273 81.6085 64.714 81.9229C64.5328 80.7285 64.442 80.1079 64.4419 80.0569C64.4414 79.9038 64.4892 79.7485 64.5888 79.5802C64.6884 79.4162 64.803 79.2946 64.9362 79.2177Z" fill="black"/>
<path d="M71.8488 75.2268C71.9821 75.1499 72.0969 75.1389 72.1971 75.1876C72.2974 75.2404 72.3459 75.3402 72.3463 75.4933C72.3464 75.5443 72.2595 76.2675 72.0892 77.6648C72.9714 76.3292 73.4327 75.637 73.477 75.5858C73.5324 75.5027 73.61 75.4323 73.71 75.3746C73.8839 75.2742 74.0285 75.2844 74.1401 75.4117C74.1847 75.4881 74.2072 75.5689 74.2074 75.6582C74.208 75.875 74.1308 76.0857 73.9757 76.2903L72.32 77.9873L73.9799 77.7743C74.1356 77.7866 74.2138 77.8991 74.2144 78.1159C74.2146 78.2053 74.1927 78.3116 74.1486 78.4393C74.0381 78.6947 73.8903 78.8738 73.7016 78.9827C73.6239 79.0276 73.5536 79.0511 73.4869 79.0514C73.4424 79.0514 72.9786 78.8933 72.0918 78.579C72.2694 79.7712 72.3602 80.3961 72.3604 80.4471C72.3608 80.5959 72.313 80.7555 72.2134 80.9195C72.1138 81.0877 71.9992 81.205 71.866 81.282C71.7328 81.3588 71.6179 81.3741 71.5177 81.3212C71.4174 81.2726 71.369 81.1685 71.3685 81.0197C71.3684 80.9687 71.4553 80.2413 71.6256 78.8482C70.7435 80.1837 70.2821 80.876 70.2378 80.9272C70.1713 81.0039 70.1011 81.0615 70.0234 81.1064C69.8346 81.2153 69.6863 81.2073 69.5747 81.08C69.5301 81.0163 69.5075 80.9271 69.5072 80.8124C69.5066 80.5997 69.584 80.4017 69.7391 80.2227L71.3949 78.5214L69.7349 78.7387C69.5792 78.7263 69.501 78.6097 69.5004 78.3971C69.5 78.2823 69.522 78.1673 69.5662 78.0524C69.6766 77.797 69.8207 77.6201 69.9946 77.5197C70.0723 77.4749 70.1502 77.4554 70.228 77.4616C70.2724 77.4615 70.7362 77.6197 71.623 77.934C71.4454 76.7375 71.3547 76.1169 71.3545 76.0659C71.3541 75.9128 71.4018 75.7575 71.5015 75.5892C71.601 75.4252 71.7156 75.3037 71.8488 75.2268Z" fill="black"/>
<path d="M58.8994 69.2553C58.9534 69.2241 59 69.2191 59.038 69.2408C59.0761 69.2635 59.0952 69.3049 59.0954 69.367L59.1008 71.2948C59.1017 71.5847 59.0436 71.8638 58.9246 72.1322C58.8066 72.4012 58.6544 72.6386 58.4678 72.8435C58.2803 73.05 58.087 73.2107 57.886 73.3268C57.6849 73.4429 57.4903 73.5061 57.3032 73.5159C57.1161 73.5268 56.963 73.4656 56.8429 73.3341C56.7238 73.2031 56.6634 72.9924 56.6626 72.7025L56.6571 70.7748C56.6569 70.7126 56.6757 70.6494 56.7116 70.5839C56.7485 70.519 56.794 70.4709 56.848 70.4397C56.9021 70.4085 56.9477 70.404 56.9858 70.4257C57.0248 70.4479 57.0439 70.4893 57.044 70.5514L57.0495 72.4944C57.0501 72.6895 57.0895 72.8327 57.1676 72.9251C57.2457 73.0164 57.3485 73.0597 57.4767 73.0544C57.604 73.0486 57.7406 73.0046 57.8848 72.9214C58.0289 72.8382 58.1645 72.725 58.2923 72.5835C58.4192 72.4415 58.5213 72.2799 58.5997 72.0983C58.677 71.9161 58.7154 71.728 58.7149 71.5329L58.7094 69.5899C58.7092 69.5278 58.7271 69.465 58.764 69.399C58.8008 69.3341 58.8463 69.286 58.8994 69.2553Z" fill="black"/>
<path d="M60.8321 68.1144C61.1441 67.9342 61.4259 67.8261 61.6785 67.7872C61.7573 67.7745 61.7974 67.8169 61.7976 67.9139C61.7978 67.9662 61.7827 68.0229 61.7516 68.0824C61.7204 68.1429 61.6797 68.1883 61.6284 68.2178C61.6114 68.2277 61.5886 68.2343 61.5601 68.2376C61.3389 68.277 61.1111 68.3648 60.876 68.5006C60.6521 68.6298 60.4702 68.784 60.3311 68.9614C60.191 69.1406 60.1212 69.3173 60.1217 69.4928C60.122 69.6104 60.1555 69.6861 60.2221 69.7208C60.2886 69.7566 60.3723 69.765 60.4729 69.7473C60.5736 69.7307 60.7102 69.6943 60.8839 69.6399C61.107 69.5733 61.2883 69.5298 61.426 69.5125C61.5637 69.4952 61.6806 69.5238 61.7786 69.5971C61.8767 69.6714 61.9265 69.8184 61.9271 70.0396C61.9277 70.2216 61.8826 70.4114 61.7929 70.6083C61.7023 70.8058 61.5755 70.9925 61.4107 71.1696C61.2469 71.3449 61.0573 71.4958 60.842 71.6201C60.4826 71.8276 60.1457 71.9436 59.8304 71.9695C59.7962 71.9729 59.7677 71.962 59.7458 71.9376C59.7229 71.9126 59.7114 71.8799 59.7113 71.8374C59.7112 71.7818 59.7271 71.7246 59.7593 71.6657C59.7923 71.6051 59.834 71.5614 59.8852 71.5318C59.9127 71.5159 59.9402 71.5066 59.9659 71.5049C60.2261 71.4878 60.5051 71.3933 60.8029 71.2214C61.2989 70.935 61.5459 70.6058 61.5449 70.2309C61.5446 70.1339 61.5121 70.0708 61.4484 70.0421C61.3847 70.0145 61.3058 70.0087 61.2118 70.0247C61.1188 70.0414 60.9849 70.0739 60.8122 70.1212C60.5834 70.1845 60.3973 70.2265 60.2558 70.2448C60.1134 70.2627 59.9917 70.238 59.889 70.1707C59.7871 70.1018 59.7354 69.9624 59.7348 69.751C59.7343 69.5647 59.7765 69.3722 59.8614 69.1715C59.9454 68.9712 60.0702 68.7791 60.236 68.5939C60.4017 68.4087 60.5997 68.2485 60.8321 68.1144Z" fill="black"/>
<path d="M64.4095 66.098C64.4607 66.0685 64.5035 66.0646 64.5387 66.0846C64.5748 66.1052 64.592 66.1444 64.5922 66.2032C64.5924 66.2621 64.5754 66.3199 64.5395 66.3799C64.5045 66.4394 64.4619 66.4837 64.4107 66.5132L62.9028 67.3838L62.9058 68.4627L64.2611 67.6803C64.3113 67.6512 64.355 67.6468 64.3902 67.6668C64.4264 67.6863 64.4436 67.7266 64.4438 67.7844C64.4439 67.8432 64.427 67.9021 64.391 67.9621C64.3561 68.0216 64.3125 68.0664 64.2622 68.0954L62.907 68.8779L62.9101 69.9611L64.418 69.0905C64.4692 69.0609 64.512 69.057 64.5471 69.0771C64.5833 69.0966 64.6005 69.1369 64.6007 69.1957C64.6008 69.2535 64.5839 69.3124 64.548 69.3724C64.513 69.4319 64.4704 69.4761 64.4192 69.5057L62.7159 70.4891C62.6618 70.5203 62.6163 70.5248 62.5792 70.5036C62.543 70.4831 62.5239 70.4417 62.5237 70.3796L62.5153 67.4165C62.5151 67.3555 62.534 67.2911 62.5699 67.2267C62.6067 67.1607 62.6522 67.1126 62.7062 67.0814L64.4095 66.098Z" fill="black"/>
<path d="M67.0105 66.4738C67.2146 66.4182 67.3544 66.4838 67.4299 66.6694C67.5055 66.8561 67.5432 67.0603 67.5438 67.2815L67.5444 67.506C67.5446 67.567 67.5267 67.6297 67.4899 67.6936C67.453 67.7574 67.4084 67.8039 67.3544 67.8351C67.2947 67.8696 67.2472 67.8762 67.212 67.8562C67.1758 67.8367 67.1586 67.7931 67.1584 67.7288L67.158 67.5817C67.1575 67.4193 67.1438 67.2766 67.1188 67.1524C67.0928 67.0288 67.0308 66.9413 66.9347 66.8865C66.8377 66.8334 66.6924 66.8627 66.497 66.9755L65.617 67.4836L65.6202 68.6169C65.6203 68.678 65.6015 68.7412 65.5637 68.8056C65.5259 68.87 65.4795 68.9176 65.4254 68.9488C65.3723 68.9795 65.3267 68.985 65.2896 68.9639C65.2525 68.9427 65.2343 68.9008 65.2342 68.8398L65.2257 65.8517C65.2255 65.7907 65.2434 65.7269 65.2803 65.6619C65.3171 65.5959 65.3626 65.5478 65.4157 65.5172L66.4058 64.9455C66.7908 64.7232 67.0803 64.6477 67.2734 64.7186C67.4664 64.7894 67.5629 64.9739 67.5637 65.2703C67.5643 65.4653 67.5174 65.6703 67.423 65.8864C67.3286 66.1024 67.1914 66.2984 67.0105 66.4738ZM66.3849 66.62C66.6286 66.4793 66.8219 66.312 66.9639 66.1198C67.1068 65.926 67.1784 65.7285 67.1778 65.5269C67.1773 65.3319 67.1152 65.217 66.9916 65.1847C66.868 65.1513 66.6574 65.2205 66.3605 65.3919L65.6122 65.8239L65.6158 67.0641L66.3849 66.62Z" fill="black"/>
</g>
<defs>
<clipPath id="clip0_10673_27331">
<rect width="120" height="120" fill="white"/>
</clipPath>
</defs>
</svg>
