<svg width="120" height="120" viewBox="0 0 120 120" fill="none" xmlns="http://www.w3.org/2000/svg">
<path d="M52.9888 113.452C52.9943 112.869 52.2361 112.389 51.2953 112.38C50.3545 112.371 49.5874 112.837 49.5819 113.42C49.5764 114.003 50.3346 114.483 51.2754 114.492C52.2162 114.501 52.9834 114.035 52.9888 113.452Z" fill="#1F3154"/>
<path d="M60.1326 109.238C60.1381 108.655 59.3799 108.175 58.4391 108.166C57.4983 108.157 56.7312 108.623 56.7257 109.206C56.7202 109.789 57.4784 110.269 58.4192 110.278C59.3601 110.287 60.1272 109.821 60.1326 109.238Z" fill="#1F3154"/>
<path d="M67.2764 105.046C67.2819 104.463 66.5236 103.983 65.5828 103.974C64.642 103.965 63.8749 104.431 63.8694 105.014C63.8639 105.598 64.6222 106.078 65.563 106.087C66.5038 106.095 67.2709 105.63 67.2764 105.046Z" fill="#1F3154"/>
<path d="M74.4202 100.84C74.4257 100.257 73.6674 99.7771 72.7266 99.7683C71.7858 99.7595 71.0187 100.225 71.0132 100.808C71.0077 101.392 71.766 101.872 72.7068 101.881C73.6476 101.889 74.4147 101.424 74.4202 100.84Z" fill="#1F3154"/>
<path d="M81.564 96.6453C81.5695 96.062 80.8112 95.5819 79.8704 95.5731C78.9296 95.5643 78.1625 96.03 78.157 96.6133C78.1515 97.1966 78.9098 97.6766 79.8506 97.6854C80.7914 97.6943 81.5585 97.2286 81.564 96.6453Z" fill="#1F3154"/>
<path d="M88.7077 92.4283C88.7132 91.845 87.955 91.365 87.0141 91.3562C86.0733 91.3474 85.3062 91.8131 85.3007 92.3964C85.2953 92.9797 86.0535 93.4597 86.9943 93.4685C87.9351 93.4773 88.7022 93.0116 88.7077 92.4283Z" fill="#1F3154"/>
<path d="M64.9848 114.09C64.9903 113.507 64.2321 113.027 63.2912 113.018C62.3504 113.009 61.5833 113.475 61.5778 114.058C61.5724 114.642 62.3306 115.122 63.2714 115.13C64.2122 115.139 64.9793 114.674 64.9848 114.09Z" fill="#1F3154"/>
<path d="M72.1286 109.899C72.1341 109.315 71.3759 108.835 70.435 108.827C69.4942 108.818 68.7271 109.283 68.7216 109.867C68.7162 110.45 69.4744 110.93 70.4152 110.939C71.356 110.948 72.1231 110.482 72.1286 109.899Z" fill="#1F3154"/>
<path d="M79.2724 105.693C79.2778 105.109 78.5196 104.629 77.5788 104.62C76.638 104.612 75.8709 105.077 75.8654 105.661C75.8599 106.244 76.6181 106.724 77.559 106.733C78.4998 106.742 79.2669 106.276 79.2724 105.693Z" fill="#1F3154"/>
<path d="M86.4162 101.498C86.4216 100.914 85.6634 100.434 84.7226 100.425C83.7818 100.417 83.0147 100.882 83.0092 101.466C83.0037 102.049 83.7619 102.529 84.7028 102.538C85.6436 102.547 86.4107 102.081 86.4162 101.498Z" fill="#1F3154"/>
<path d="M44.8742 93.9795C44.8796 93.3962 44.1214 92.9162 43.1806 92.9073C42.2398 92.8985 41.4727 93.3642 41.4672 93.9475C41.4617 94.5308 42.22 95.0108 43.1608 95.0197C44.1016 95.0285 44.8687 94.5628 44.8742 93.9795Z" fill="#1F3154"/>
<path d="M52.018 89.788C52.0234 89.2047 51.2652 88.7246 50.3244 88.7158C49.3836 88.707 48.6165 89.1727 48.611 89.756C48.6055 90.3393 49.3638 90.8193 50.3046 90.8281C51.2454 90.837 52.0125 90.3713 52.018 89.788Z" fill="#1F3154"/>
<path d="M59.1617 85.5819C59.1672 84.9986 58.4089 84.5186 57.4681 84.5098C56.5273 84.5009 55.7602 84.9666 55.7547 85.5499C55.7493 86.1332 56.5075 86.6132 57.4483 86.6221C58.3891 86.6309 59.1562 86.1652 59.1617 85.5819Z" fill="#1F3154"/>
<path d="M66.3055 81.3868C66.311 80.8035 65.5527 80.3235 64.6119 80.3147C63.6711 80.3059 62.904 80.7716 62.8985 81.3549C62.8931 81.9382 63.6513 82.4182 64.5921 82.427C65.5329 82.4358 66.3 81.9701 66.3055 81.3868Z" fill="#1F3154"/>
<path d="M42.7358 103.199C42.7413 102.616 41.983 102.136 41.0422 102.127C40.1014 102.118 39.3343 102.584 39.3288 103.167C39.3233 103.75 40.0816 104.23 41.0224 104.239C41.9632 104.248 42.7303 103.782 42.7358 103.199Z" fill="#1F3154"/>
<path d="M49.8796 98.9849C49.8851 98.4016 49.1268 97.9215 48.186 97.9127C47.2452 97.9039 46.4781 98.3696 46.4726 98.9529C46.4671 99.5362 47.2254 100.016 48.1662 100.025C49.107 100.034 49.8741 99.5682 49.8796 98.9849Z" fill="#1F3154"/>
<path d="M57.0233 94.7933C57.0288 94.21 56.2706 93.73 55.3298 93.7212C54.389 93.7123 53.6218 94.178 53.6164 94.7613C53.6109 95.3446 54.3691 95.8247 55.3099 95.8335C56.2507 95.8423 57.0179 95.3766 57.0233 94.7933Z" fill="#1F3154"/>
<path d="M64.1671 90.5874C64.1726 90.0041 63.4144 89.5241 62.4736 89.5152C61.5328 89.5064 60.7656 89.9721 60.7602 90.5554C60.7547 91.1387 61.5129 91.6187 62.4537 91.6276C63.3945 91.6364 64.1617 91.1707 64.1671 90.5874Z" fill="#1F3154"/>
<path d="M71.3109 86.3922C71.3164 85.8089 70.5582 85.3289 69.6174 85.3201C68.6765 85.3112 67.9094 85.7769 67.904 86.3602C67.8985 86.9435 68.6567 87.4235 69.5975 87.4324C70.5383 87.4412 71.3054 86.9755 71.3109 86.3922Z" fill="#1F3154"/>
<path d="M78.4547 82.1753C78.4601 81.592 77.7019 81.112 76.7611 81.1031C75.8203 81.0943 75.0532 81.56 75.0477 82.1433C75.0422 82.7266 75.8005 83.2066 76.7413 83.2155C77.6821 83.2243 78.4492 82.7586 78.4547 82.1753Z" fill="#1F3154"/>
<path d="M40.4442 112.264C40.4497 111.68 39.6915 111.2 38.7507 111.192C37.8099 111.183 37.0427 111.648 37.0373 112.232C37.0318 112.815 37.79 113.295 38.7308 113.304C39.6716 113.313 40.4388 112.847 40.4442 112.264Z" fill="#1F3154"/>
<path d="M47.588 108.051C47.5935 107.468 46.8353 106.988 45.8945 106.979C44.9537 106.97 44.1865 107.436 44.1811 108.019C44.1756 108.603 44.9338 109.083 45.8746 109.091C46.8154 109.1 47.5826 108.635 47.588 108.051Z" fill="#1F3154"/>
<path d="M54.7318 103.837C54.7372 103.254 53.979 102.774 53.0382 102.765C52.0974 102.756 51.3303 103.222 51.3248 103.805C51.3193 104.388 52.0776 104.868 53.0184 104.877C53.9592 104.886 54.7263 104.42 54.7318 103.837Z" fill="#1F3154"/>
<path d="M61.8756 99.6455C61.881 99.0622 61.1228 98.5822 60.182 98.5734C59.2412 98.5645 58.4741 99.0302 58.4686 99.6135C58.4631 100.197 59.2213 100.677 60.1622 100.686C61.103 100.695 61.8701 100.229 61.8756 99.6455Z" fill="#1F3154"/>
<path d="M69.0194 95.4396C69.0248 94.8563 68.2666 94.3762 67.3258 94.3674C66.385 94.3586 65.6179 94.8243 65.6124 95.4076C65.6069 95.9909 66.3652 96.4709 67.306 96.4797C68.2468 96.4886 69.0139 96.0229 69.0194 95.4396Z" fill="#1F3154"/>
<path d="M76.1631 91.2444C76.1686 90.6611 75.4103 90.1811 74.4695 90.1722C73.5287 90.1634 72.7616 90.6291 72.7561 91.2124C72.7507 91.7957 73.5089 92.2757 74.4497 92.2845C75.3905 92.2934 76.1576 91.8277 76.1631 91.2444Z" fill="#1F3154"/>
<path d="M83.3069 87.0275C83.3124 86.4442 82.5541 85.9641 81.6133 85.9553C80.6725 85.9465 79.9054 86.4122 79.8999 86.9955C79.8945 87.5788 80.6527 88.0588 81.5935 88.0676C82.5343 88.0765 83.3014 87.6108 83.3069 87.0275Z" fill="#1F3154"/>
<path d="M90.4507 82.81C90.4562 82.2267 89.6979 81.7467 88.7571 81.7379C87.8163 81.7291 87.0492 82.1948 87.0437 82.7781C87.0383 83.3614 87.7965 83.8414 88.7373 83.8502C89.6781 83.8591 90.4452 83.3934 90.4507 82.81Z" fill="#1F3154"/>
<path d="M92.2281 41.6886C89.0666 39.8486 84.6945 40.1067 79.8625 42.9003L67.9006 49.8116L60.7928 45.6716L72.7547 38.7603C77.5867 35.9778 81.9588 35.7198 85.1203 37.5486L92.2281 41.6886Z" fill="white"/>
<path d="M65.5126 33.9472C64.4812 33.3525 63.0574 33.4423 61.499 34.3398L61.2636 34.4745C58.203 36.2472 55.6694 40.5106 55.6357 44.0448C55.5799 53.8171 52.4071 61.6595 47.0819 66.3493L39.9741 62.2093C45.2993 57.5195 48.4721 49.6771 48.5282 39.9048C48.5506 36.3706 51.0955 32.1072 54.1448 30.3457L54.3914 30.2111C55.9496 29.3023 57.3734 29.2125 58.3938 29.8184L65.5126 33.9472Z" fill="white"/>
<path d="M67.9009 50.4004C67.7986 50.4004 67.6962 50.3739 67.6041 50.3199L60.4954 46.1805C60.3148 46.0758 60.2032 45.8814 60.2032 45.6709C60.2032 45.4615 60.3159 45.267 60.4977 45.1623L72.4603 38.2503C77.3244 35.449 81.924 35.021 85.4145 37.0389L92.5255 41.1806C92.8062 41.3439 92.9017 41.704 92.7372 41.9859C92.5727 42.2666 92.2114 42.3598 91.9319 42.1987C88.8222 40.3891 84.6414 40.8182 80.1569 43.4102L68.1955 50.321C68.1046 50.3739 68.0022 50.4004 67.9009 50.4004ZM61.9657 45.6743L67.9021 49.1303L79.5678 42.3909C82.551 40.6663 85.4145 39.8322 88.026 39.9231L84.8231 38.0571C81.7157 36.26 77.5338 36.6892 73.0481 39.2708L61.9657 45.6743Z" fill="#1F3154"/>
<path d="M47.1849 101.81L40.0736 97.6743L39.9732 62.2142L47.0844 66.35L47.1849 101.81Z" fill="white"/>
<path d="M47.1845 102.399C47.0822 102.399 46.9798 102.373 46.8889 102.32L39.7779 98.1838C39.5961 98.0779 39.4856 97.8846 39.4845 97.6752L39.3844 62.2156C39.3832 62.0051 39.496 61.8095 39.6789 61.7048C39.863 61.599 40.0896 61.6001 40.2691 61.7048L47.3801 65.8407C47.5619 65.9466 47.6723 66.1399 47.6735 66.3492L47.7736 101.809C47.7747 102.019 47.662 102.215 47.4791 102.32C47.3882 102.373 47.2858 102.399 47.1845 102.399ZM40.6614 97.3347L46.5921 100.784L46.4966 66.6898L40.5659 63.2407L40.6614 97.3347Z" fill="#1F3154"/>
<path d="M47.0822 66.9383C46.9798 66.9383 46.8774 66.9118 46.7853 66.8578L39.6778 62.7172C39.5144 62.6229 39.4063 62.4538 39.3879 62.2663C39.3694 62.0776 39.4431 61.8924 39.5857 61.7669C44.9181 57.0696 47.8852 49.3051 47.9393 39.9012C47.9623 36.2197 50.6141 31.7041 53.8503 29.8358L54.108 29.6943C55.8073 28.7037 57.4375 28.5668 58.695 29.3123L65.806 33.4367L65.8083 33.4379C66.089 33.6013 66.1856 33.9614 66.0223 34.2421C65.86 34.5251 65.5011 34.6206 65.2181 34.4572C64.3334 33.9487 63.1185 34.0868 61.792 34.8507L61.5573 34.9853C58.6489 36.6696 56.256 40.7364 56.2249 44.0509C56.1685 53.7931 53.06 61.8705 47.471 66.791C47.3617 66.8888 47.2225 66.9383 47.0822 66.9383ZM40.9628 62.1029L47.0074 65.6245C52.1419 60.903 54.9939 53.2593 55.0468 44.0418C55.0825 40.2924 57.6837 35.8677 60.9683 33.9648L61.2053 33.8291C61.7863 33.4943 62.3592 33.2584 62.9126 33.1204L58.0979 30.3282C57.2316 29.8151 55.9914 29.9577 54.6879 30.7193L54.4279 30.862C51.5253 32.5382 49.138 36.5994 49.1173 39.9081C49.0633 49.2982 46.1733 57.1409 40.9628 62.1029Z" fill="#1F3154"/>
<path d="M43.6825 59.9721C45.5506 58.8927 47.0657 59.7651 47.0718 61.9052L47.0844 66.3501L47.1848 101.81L47.1905 103.81C47.1966 105.959 45.6913 108.576 43.8232 109.656L33.8166 115.437C31.9484 116.517 30.426 115.649 30.4199 113.5L30.3012 71.5953C30.2951 69.4552 31.8076 66.8334 33.6759 65.7539L43.6825 59.9721Z" fill="#E0FEF2"/>
<path d="M47.1941 103.811C47.1941 105.954 45.6918 108.58 43.8196 109.657L33.8193 115.435C31.9472 116.512 30.4227 115.648 30.4227 113.505L30.3553 89.4054C35.1873 87.4757 38.7411 80.8897 38.7411 73.081C38.7411 69.6926 38.0683 66.5287 36.9135 63.8809L43.685 59.9765C45.5459 58.8882 47.0707 59.7633 47.0707 61.9063L47.0819 66.3492L47.1829 101.814L47.1941 103.811Z" fill="white"/>
<path d="M32.2975 116.493C31.8742 116.493 31.4761 116.391 31.1206 116.186C30.2922 115.71 29.8344 114.756 29.8309 113.501L29.7124 71.5965C29.7055 69.2277 31.3173 66.4366 33.3813 65.2436L43.388 59.4625C44.4821 58.8309 45.5405 58.7435 46.3735 59.2232C47.2006 59.6984 47.6574 60.6509 47.6608 61.9038L47.7793 103.809C47.7874 106.183 46.179 108.975 44.1174 110.165L34.1106 115.947C33.4837 116.31 32.867 116.493 32.2975 116.493ZM43.9771 60.4818L33.9703 66.2629C32.2964 67.2316 30.8859 69.6729 30.8905 71.5942L31.009 113.499C31.0113 114.316 31.2598 114.907 31.7085 115.166C32.156 115.421 32.8152 115.335 33.5216 114.928L43.5284 109.145C45.2 108.179 46.607 105.738 46.6013 103.813L46.4827 61.9061C46.4804 61.0916 46.2331 60.5014 45.7856 60.2437C45.3346 59.986 44.6915 60.0688 43.9771 60.4818Z" fill="#1F3154"/>
<path d="M23.1915 67.46L23.3037 109.365C23.3149 110.431 23.6847 111.183 24.3013 111.542L31.4091 115.671C30.8037 115.323 30.4227 114.571 30.4227 113.505L30.2993 71.6C30.2993 70.5745 30.6523 69.4415 31.2178 68.4176L24.1054 64.2747C23.538 65.2989 23.186 66.4323 23.1915 67.46Z" fill="#1F3154"/>
<path d="M31.4094 116.26C31.3093 116.26 31.208 116.235 31.1148 116.182L24.0061 112.051C23.1858 111.574 22.728 110.623 22.7142 109.372L22.6025 67.4606C22.5968 66.3815 22.9477 65.1493 23.5896 63.9897C23.6667 63.8504 23.7956 63.7492 23.9486 63.7066C24.1028 63.6675 24.265 63.6871 24.4019 63.7665L31.5141 67.9093C31.7902 68.0703 31.888 68.4224 31.7326 68.702C31.1885 69.6902 30.8882 70.7187 30.8882 71.6L31.0113 113.503C31.0113 114.301 31.2609 114.902 31.6981 115.158L31.7027 115.16L31.705 115.161C31.9857 115.325 32.0824 115.685 31.919 115.965C31.8097 116.154 31.6118 116.26 31.4094 116.26ZM24.349 65.0987C23.9762 65.9144 23.776 66.7347 23.7806 67.456V67.4583L23.8922 109.364C23.9014 110.179 24.1522 110.773 24.5986 111.033L29.8712 114.096C29.8459 113.907 29.8332 113.71 29.8332 113.506L29.7101 71.6023C29.7101 70.6808 29.9667 69.6499 30.4395 68.6467L24.349 65.0987Z" fill="#1F3154"/>
<path d="M33.6737 65.7546L43.685 59.9765C44.6268 59.4268 45.4676 59.3819 46.084 59.7409L38.9765 55.6009C38.3598 55.2418 37.5078 55.2979 36.5662 55.8365L26.5659 61.6146C25.5918 62.181 24.7209 63.1633 24.1053 64.2746L31.2178 68.4175C31.8339 67.3018 32.7032 66.3163 33.6737 65.7546Z" fill="white"/>
<path d="M31.2172 69.0068C31.1137 69.0068 31.0113 68.9792 30.9204 68.9263L23.8083 64.7835C23.5322 64.6224 23.4344 64.2703 23.5897 63.9896C24.288 62.7276 25.2406 61.7037 26.2702 61.1054L36.2712 55.3266C37.3791 54.6916 38.4433 54.6087 39.2728 55.0919L46.3746 59.229C46.3769 59.2302 46.3781 59.2313 46.3804 59.2325C46.6611 59.3958 46.7566 59.7571 46.5921 60.0378C46.4276 60.3185 46.0663 60.414 45.7867 60.2495L45.7844 60.2483C45.3312 59.986 44.6915 60.0712 43.9817 60.4853L33.968 66.2641C33.1385 66.745 32.324 67.6332 31.7327 68.7031C31.6556 68.8411 31.5267 68.9435 31.3737 68.9861C31.3219 68.9999 31.2702 69.0068 31.2172 69.0068ZM24.9185 64.0667L31.0102 67.6159C31.6705 66.5851 32.4966 65.7545 33.3778 65.2448L43.3903 59.4672C43.5802 59.3556 43.77 59.2612 43.9575 59.1841L38.6792 56.1089C38.2328 55.8501 37.5851 55.9306 36.858 56.3482L26.8605 62.1247C26.1587 62.5331 25.4695 63.2257 24.9185 64.0667Z" fill="#1F3154"/>
<path d="M61.4976 34.3435C64.4682 32.6271 66.9452 33.8589 67.1408 37.1674L67.9009 49.8125L79.8614 42.9018C89.4601 37.3557 97.2659 41.8075 97.2971 52.8373C97.3284 63.8753 89.5733 77.3182 79.9746 82.8643L47.1849 101.81L47.0844 66.3501C52.4124 61.6556 55.5808 53.8146 55.639 44.044C55.6648 40.5086 58.2052 36.2459 61.2615 34.4799L61.4976 34.3435Z" fill="#E0FEF2"/>
<path d="M97.2955 52.8409C97.3292 63.8698 89.5711 77.3221 79.9748 82.8645L47.1829 101.814L47.0819 66.3493C48.4833 65.1264 49.7275 63.6791 50.804 62.041C54.268 65.9791 59.0775 68.4137 64.4027 68.4137C74.9635 68.4137 83.5173 58.8322 83.5173 47.018C83.5173 45.0995 83.2931 43.237 82.867 41.4756C91.0285 38.379 97.2618 42.9902 97.2955 52.8409Z" fill="#1BF3A4"/>
<path d="M47.1845 102.399C47.0833 102.399 46.982 102.373 46.8911 102.321C46.7082 102.216 46.5966 102.022 46.5955 101.811L46.4954 66.3516C46.4954 66.1824 46.5679 66.0202 46.6944 65.9086C52.0268 61.2101 54.9939 53.4445 55.0502 44.0406C55.0767 40.2947 57.6756 35.8711 60.9671 33.9706L61.2018 33.8337C62.8607 32.8753 64.4633 32.7177 65.7116 33.3907C66.9081 34.0338 67.6237 35.3638 67.7284 37.1332L68.4313 48.8254L79.5666 42.392C84.4112 39.5918 89.0004 39.1546 92.4887 41.1587C95.9539 43.1513 97.8705 47.2987 97.8866 52.8359C97.9177 64.0426 90.0152 77.7423 80.2696 83.3738L47.479 102.32C47.3881 102.373 47.2857 102.399 47.1845 102.399ZM47.6746 66.6139L47.7712 100.791L79.6805 82.3545C89.1005 76.9105 96.7385 63.6698 96.7085 52.8382C96.6936 47.7393 94.9863 43.9543 91.9008 42.1803C88.7922 40.3913 84.6218 40.8296 80.1557 43.4113L68.1955 50.3221C68.0206 50.4245 67.802 50.4291 67.6225 50.3313C67.4419 50.2347 67.3257 50.0518 67.313 49.8481L66.5526 37.2034C66.4732 35.8562 65.9762 34.8702 65.1536 34.4273C64.277 33.9568 63.0839 34.1063 61.792 34.853L61.5573 34.9899C58.642 36.6742 56.2525 40.7376 56.2283 44.0486C56.1708 53.6746 53.1347 61.6749 47.6746 66.6139Z" fill="#1F3154"/>
<path d="M31.3853 26.1581C31.6732 25.9917 31.9622 26.0156 32.0727 26.3336L33.9549 31.8619C34.0534 32.1464 34.3309 32.215 34.6427 32.0349L40.6781 28.5471C41.3721 28.146 41.6673 29.0039 41.1032 29.8015L36.2297 36.7053C35.9769 37.0625 35.8726 37.4955 35.9711 37.78L37.8573 43.306C38.0222 43.7921 37.6218 44.5295 37.1729 44.7889C37.0323 44.8701 36.887 44.9045 36.7526 44.8697L31.8599 43.6098C31.733 43.5776 31.5837 43.6111 31.435 43.6971C31.2863 43.783 31.1384 43.9212 31.0139 44.0987L26.1403 51.0025C26.0067 51.1921 25.8616 51.3256 25.7209 51.4069C25.272 51.6663 24.8687 51.3935 25.0304 50.7186L26.8752 43.0364C26.9717 42.6393 26.8656 42.3279 26.6113 42.2636L21.7187 41.0038C21.152 40.8597 21.4414 39.6638 22.1354 39.2628L28.1745 35.7728C28.4827 35.5947 28.7588 35.2061 28.8553 34.8089L30.7041 27.1244C30.8103 26.6813 31.0972 26.3246 31.3853 26.1581Z" fill="#E0FEF2"/>
<path d="M36.2279 36.7026C35.9777 37.0632 35.8739 37.4972 35.9714 37.7783L37.8585 43.3038C38.0231 43.7928 37.6203 44.5324 37.1745 44.7891C37.0341 44.8685 36.8874 44.9052 36.7529 44.8685L31.8618 43.6094C31.7336 43.5789 31.5809 43.6094 31.4342 43.695C31.2878 43.7806 31.1414 43.9211 31.0129 44.0984L26.1399 51.0053C26.0058 51.1947 25.8591 51.3231 25.7186 51.4087C25.2729 51.6653 24.8697 51.3964 25.0287 50.718L26.8728 43.0349C26.9706 42.6376 26.8669 42.3259 26.6102 42.2647L21.719 41.0056C21.151 40.8589 21.4441 39.6609 22.1344 39.2636L23.1478 38.6768C24.1309 39.7892 25.6026 40.4922 27.2393 40.4922C30.2192 40.4922 32.6373 38.1573 32.6373 35.2784C32.6373 33.3042 31.5076 31.5927 29.8405 30.7065L30.7016 27.1247C30.8116 26.6785 31.0985 26.324 31.3856 26.159C31.6725 25.9939 31.9596 26.0184 32.0756 26.3362L33.9564 31.8617C34.0539 32.1489 34.3288 32.2162 34.6401 32.0328L40.6795 28.5489C41.3698 28.1454 41.6688 29.0012 41.1008 29.8019L36.2279 36.7026Z" fill="#1BF3A4"/>
<path d="M25.397 52.0939C25.1865 52.0939 24.9863 52.0295 24.816 51.9029C24.6435 51.7741 24.265 51.3887 24.4571 50.5822L26.3024 42.8982C26.3128 42.858 26.3174 42.8235 26.3197 42.7958L21.5717 41.5741C21.1771 41.4739 20.9044 41.1507 20.8423 40.71C20.7445 40.006 21.1921 39.1282 21.8409 38.7531L27.8797 35.2626C28.0281 35.1763 28.2191 34.9324 28.2835 34.6701L30.1312 26.9862C30.2658 26.427 30.6328 25.9139 31.0895 25.6482C31.0895 25.649 31.0903 25.6482 31.0895 25.6482C31.4174 25.463 31.7591 25.4169 32.0536 25.5274C32.3228 25.6275 32.5276 25.846 32.63 26.1406L34.442 31.4638L40.3841 28.0377C40.9697 27.6995 41.4472 27.8824 41.7025 28.1619C42.1282 28.6267 42.0788 29.4412 41.584 30.1419L36.7107 37.0447C36.537 37.2909 36.5094 37.5302 36.5278 37.5888L38.4157 43.1157C38.6803 43.9003 38.1338 44.915 37.4677 45.2981C37.1847 45.4649 36.8878 45.5144 36.606 45.4408L31.7131 44.1798C31.6521 44.2512 31.567 44.3352 31.4956 44.4364L26.6211 51.3415C26.4451 51.5923 26.2426 51.7856 26.0183 51.9167C25.8123 52.0341 25.5995 52.0939 25.397 52.0939ZM22.0077 40.4696L26.7592 41.6925C27.3402 41.841 27.6243 42.4507 27.4472 43.1755L25.6444 50.6823C25.649 50.6765 25.6536 50.6696 25.6582 50.6639L30.5327 43.7588C30.7018 43.5172 30.9112 43.3193 31.139 43.187C31.4301 43.0225 31.728 42.9696 31.9995 43.0374L36.8994 44.2995C37.1318 44.1315 37.3584 43.6668 37.2997 43.4942L35.413 37.9696C35.2519 37.5002 35.3808 36.8848 35.7489 36.3647L40.6223 29.462C40.6959 29.3561 40.7419 29.2606 40.7707 29.1801L34.9367 32.544C34.6134 32.7316 34.2683 32.773 33.9749 32.6625C33.7034 32.5613 33.4986 32.345 33.3985 32.0539L31.5877 26.7353C31.4623 26.8447 31.3311 27.0322 31.2771 27.2611L29.4283 34.9474C29.2925 35.5019 28.9163 36.0254 28.4676 36.2831L22.43 39.7724C22.1746 39.9208 22.0273 40.2798 22.0077 40.4696ZM31.6636 26.6387C31.6889 26.6456 31.7108 26.6491 31.7326 26.6445L31.3852 26.1578L31.6636 26.6387Z" fill="#1F3154"/>
<path d="M54.2342 4.08585C54.5221 3.91946 54.8111 3.94333 54.9215 4.26128L56.8038 9.78963C56.9023 10.0741 57.1798 10.1428 57.4916 9.96259L63.5269 6.47478C64.2209 6.07372 64.5162 6.93167 63.9521 7.72926L59.0786 14.633C58.8257 14.9902 58.7215 15.4233 58.8199 15.7077L60.7062 21.2337C60.8711 21.7199 60.4707 22.4572 60.0218 22.7166C59.8811 22.7979 59.7359 22.8322 59.6015 22.7974L54.7088 21.5375C54.5818 21.5054 54.4325 21.5388 54.2839 21.6248C54.1351 21.7107 53.9872 21.849 53.8627 22.0265L48.9892 28.9302C48.8556 29.1199 48.7104 29.2534 48.5698 29.3347C48.1209 29.5941 47.7176 29.3212 47.8793 28.6463L49.7241 20.9642C49.8206 20.567 49.7144 20.2556 49.4602 20.1914L44.5676 18.9315C44.0008 18.7874 44.2902 17.5916 44.9843 17.1905L51.0234 13.7005C51.3316 13.5224 51.6076 13.1338 51.7042 12.7367L53.553 5.05216C53.6592 4.60902 53.9461 4.25232 54.2342 4.08585Z" fill="#E0FEF2"/>
<path d="M59.0767 14.6304C58.8265 14.9911 58.7228 15.425 58.8202 15.7062L60.7073 21.2316C60.8719 21.7206 60.4691 22.4602 60.0234 22.7169C59.8829 22.7964 59.7362 22.8331 59.6018 22.7964L54.7106 21.5373C54.5824 21.5067 54.4297 21.5373 54.283 21.6228C54.1366 21.7084 53.9902 21.849 53.8617 22.0263L48.9888 28.9331C48.8546 29.1226 48.7079 29.2509 48.5674 29.3365C48.1217 29.5932 47.7186 29.3242 47.8775 28.6458L49.7217 20.9627C49.8195 20.5654 49.7157 20.2537 49.459 20.1926L44.5678 18.9334C43.9998 18.7867 44.2929 17.5888 44.9832 17.1915L45.9966 16.6047C46.9797 17.7171 48.4515 18.42 50.0881 18.42C53.068 18.42 55.4861 16.0851 55.4861 13.2062C55.4861 11.232 54.3564 9.5206 52.6893 8.63431L53.5504 5.05254C53.6605 4.60637 53.9473 4.25183 54.2344 4.08679C54.5213 3.92176 54.8084 3.94623 54.9244 4.26403L56.8052 9.78954C56.9027 10.0768 57.1776 10.1441 57.4889 9.96065L63.5283 6.47669C64.2186 6.07327 64.5176 6.92901 63.9496 7.72971L59.0767 14.6304Z" fill="#1BF3A4"/>
<path d="M48.2464 30.0222C48.0359 30.0222 47.8357 29.9578 47.6654 29.8312C47.4928 29.7024 47.1132 29.3158 47.3065 28.5082L49.1507 20.8265C49.161 20.7863 49.1656 20.7518 49.1679 20.7241L44.4199 19.5024C44.0253 19.4023 43.7527 19.079 43.6917 18.6372C43.5939 17.932 44.0414 17.0542 44.6891 16.6814L50.7291 13.1909C50.8775 13.1046 51.0685 12.8596 51.1329 12.5973L52.9805 4.91446C53.1151 4.35418 53.4822 3.83992 53.94 3.57648C54.2645 3.38895 54.605 3.34293 54.9007 3.45452C55.1699 3.55462 55.3747 3.77204 55.4782 4.06773L57.2902 9.39322L63.2323 5.96485C63.8145 5.62776 64.2954 5.80722 64.5519 6.09023C64.9764 6.55503 64.9281 7.36954 64.4334 8.06903L59.5589 14.973C59.3748 15.2341 59.361 15.4654 59.3771 15.5149L61.2639 21.044C61.5297 21.8251 60.9832 22.8399 60.3171 23.2264C60.0352 23.3909 59.7372 23.4415 59.4554 23.3679L54.5613 22.1082C54.5015 22.1795 54.4163 22.2635 54.345 22.3647L49.4705 29.2698C49.2944 29.5217 49.0897 29.715 48.863 29.845C48.6594 29.9624 48.4477 30.0222 48.2464 30.0222ZM44.8571 18.3979L49.6074 19.6209C50.0814 19.7416 50.5013 20.2571 50.2965 21.1038L48.4937 28.6117C48.4983 28.6048 48.5029 28.5979 48.5075 28.5922L53.3821 21.6871C53.5512 21.4455 53.7606 21.2476 53.9884 21.1153C54.2725 20.9497 54.582 20.8944 54.8535 20.9669L59.7487 22.2267C59.9972 22.0506 60.202 21.5801 60.148 21.4236L58.2623 15.8979C58.1013 15.4309 58.229 14.8154 58.5971 14.2942L63.4716 7.39026C63.5464 7.28442 63.5924 7.18778 63.62 7.1061L57.786 10.4724C57.4628 10.6599 57.1234 10.7013 56.8254 10.5908C56.5539 10.4908 56.3491 10.2745 56.2467 9.98342L54.4359 4.66365C54.3116 4.77296 54.1816 4.96048 54.1264 5.18942L52.2776 12.8745C52.143 13.4279 51.7668 13.9514 51.3181 14.2102L45.2782 17.7007C45.0216 17.8491 44.8755 18.2081 44.8571 18.3979Z" fill="#1F3154"/>
<path d="M79.8656 8.89626C80.1535 8.7299 80.4426 8.75374 80.553 9.0717L82.4352 14.6001C82.5337 14.8845 82.8113 14.9532 83.123 14.773L89.1584 11.2852C89.8524 10.8841 90.1476 11.7421 89.5836 12.5397L84.71 19.4434C84.4572 19.8006 84.3529 20.2337 84.4514 20.5181L86.3376 26.0441C86.5026 26.5303 86.1021 27.2676 85.6533 27.527C85.5126 27.6083 85.3674 27.6426 85.2329 27.6078L80.3403 26.3479C80.2133 26.3158 80.064 26.3493 79.9153 26.4352C79.7666 26.5211 79.6187 26.6594 79.4942 26.8369L74.6206 33.7406C74.4871 33.9303 74.3419 34.0638 74.2012 34.1451C73.7524 34.4045 73.3491 34.1317 73.5107 33.4568L75.3555 25.7746C75.4521 25.3774 75.3459 25.066 75.0917 25.0018L70.199 23.7419C69.6323 23.5978 69.9217 22.402 70.6157 22.0009L76.6549 18.5109C76.9631 18.3328 77.2391 17.9442 77.3357 17.5471L79.1845 9.8626C79.2906 9.41946 79.5775 9.06276 79.8656 8.89626Z" fill="#E0FEF2"/>
<path d="M84.7082 19.4407C84.4581 19.8014 84.3543 20.2353 84.4518 20.5165L86.3389 26.0419C86.5035 26.531 86.1007 27.2705 85.6549 27.5272C85.5144 27.6067 85.3678 27.6434 85.2333 27.6067L80.3421 26.3476C80.2139 26.317 80.0613 26.3476 79.9146 26.4331C79.7682 26.5187 79.6218 26.6593 79.4933 26.8366L74.6203 33.7434C74.4861 33.9329 74.3394 34.0612 74.199 34.1468C73.7532 34.4035 73.3501 34.1346 73.509 33.4561L75.3532 25.773C75.451 25.3757 75.3472 25.064 75.0905 25.0029L70.1994 23.7437C69.6313 23.5971 69.9244 22.3991 70.6147 22.0018L71.6282 21.415C72.6113 22.5274 74.083 23.2303 75.7196 23.2303C78.6995 23.2303 81.1177 20.8954 81.1177 18.0166C81.1177 16.0423 79.9879 14.3309 78.3209 13.4446L79.182 9.86284C79.292 9.41667 79.5788 9.06215 79.866 8.89709C80.1528 8.73206 80.4399 8.75654 80.5559 9.07435L82.4368 14.5998C82.5343 14.8871 82.8092 14.9544 83.1205 14.771L89.1599 11.287C89.8501 10.8836 90.1492 11.7393 89.5812 12.54L84.7082 19.4407Z" fill="#1BF3A4"/>
<path d="M73.8776 34.8323C73.6671 34.8323 73.4681 34.769 73.2978 34.6413C73.1252 34.5136 72.7456 34.1271 72.9377 33.3194L74.7831 25.6367C74.7934 25.5964 74.798 25.563 74.8003 25.5354L70.0523 24.3125C69.6577 24.2124 69.3839 23.8879 69.323 23.4473C69.2252 22.7421 69.6738 21.8643 70.3216 21.4904L76.3604 18.001C76.5065 17.9159 76.6974 17.6789 76.763 17.4074L78.6118 9.72455C78.7464 9.16429 79.1134 8.65118 79.5701 8.38657C79.8946 8.19904 80.2374 8.15764 80.5319 8.26463C80.8011 8.3647 81.0071 8.5833 81.1095 8.87896L82.9215 14.2033L88.8636 10.7761C89.4446 10.4402 89.9266 10.6196 90.1832 10.9003C90.6089 11.3663 90.5594 12.1797 90.0647 12.8803L85.1913 19.7831C85.0072 20.0431 84.9923 20.2743 85.0084 20.3249L86.8952 25.8541C87.1609 26.6375 86.6144 27.6523 85.9483 28.0365C85.5859 28.247 85.2765 28.2298 85.082 28.1769L80.1925 26.9183C80.1327 26.9896 80.0476 27.0736 79.9762 27.1748L75.1017 34.0799C74.9257 34.3319 74.7209 34.5251 74.4954 34.6551C74.2918 34.7736 74.0801 34.8323 73.8776 34.8323ZM70.4884 23.208L75.2386 24.431C75.8208 24.5782 76.1049 25.1891 75.9278 25.9139L74.125 33.4218C74.1296 33.4149 74.1342 33.408 74.1388 33.4023L79.0133 26.4972C79.1824 26.2556 79.3918 26.0577 79.6196 25.9254C79.9049 25.7597 80.2132 25.7045 80.4848 25.777L85.38 27.0368C85.6124 26.8699 85.8379 26.4051 85.7792 26.2337L83.8936 20.7081C83.7314 20.241 83.8602 19.6243 84.2295 19.1032L89.1029 12.2004C89.1765 12.0945 89.2237 11.999 89.2513 11.9174L83.4173 15.2825C83.094 15.4688 82.7546 15.5114 82.4567 15.401C82.1852 15.3009 81.9804 15.0846 81.878 14.7935L80.0671 9.47491C79.9429 9.58419 79.8129 9.77057 79.7577 9.99952L77.9089 17.6846C77.7743 18.2369 77.3981 18.7615 76.9494 19.0203L70.9106 22.5108C70.654 22.6592 70.5068 23.0182 70.4884 23.208Z" fill="#1F3154"/>
<path d="M38.3942 97.5726C40.4347 96.3944 42.0938 97.3375 42.1004 99.6822C42.1071 102.024 40.4588 104.879 38.4182 106.057C36.3799 107.234 34.7208 106.289 34.7142 103.947C34.7075 101.602 36.3558 98.7494 38.3942 97.5726Z" fill="white"/>
<path d="M36.7613 107.155C36.3069 107.155 35.8823 107.047 35.5038 106.828C34.618 106.319 34.129 105.296 34.1256 103.948C34.1175 101.379 35.8639 98.3541 38.0993 97.0633C39.2808 96.3811 40.4221 96.2879 41.3114 96.7998C42.1961 97.3095 42.6862 98.3322 42.6896 99.6794C42.6977 102.251 40.9501 105.276 38.7125 106.567C38.036 106.958 37.3722 107.155 36.7613 107.155ZM38.6883 98.0826C36.8476 99.1468 35.2979 101.831 35.3036 103.944C35.3059 104.855 35.5855 105.517 36.0917 105.808C36.6014 106.102 37.3239 106.009 38.1234 105.548C39.9665 104.484 41.5173 101.799 41.5116 99.684C41.5093 98.7729 41.2297 98.1125 40.7235 97.8214C40.2127 97.5281 39.4902 97.6189 38.6883 98.0826Z" fill="black"/>
</svg>
