<svg width="120" height="120" viewBox="0 0 120 120" fill="none" xmlns="http://www.w3.org/2000/svg">
<g clip-path="url(#clip0_10673_26763)">
<path d="M55.1945 113.688C55.1999 113.105 54.4417 112.625 53.5009 112.616C52.5601 112.607 51.793 113.073 51.7875 113.656C51.782 114.239 52.5403 114.719 53.4811 114.728C54.4219 114.737 55.189 114.271 55.1945 113.688Z" fill="#1F3154"/>
<path d="M62.3383 109.474C62.3437 108.891 61.5855 108.411 60.6447 108.402C59.7039 108.393 58.9368 108.859 58.9313 109.442C58.9258 110.025 59.6841 110.505 60.6249 110.514C61.5657 110.523 62.3328 110.057 62.3383 109.474Z" fill="#1F3154"/>
<path d="M69.482 105.282C69.4875 104.699 68.7292 104.219 67.7884 104.21C66.8476 104.201 66.0805 104.667 66.075 105.25C66.0696 105.834 66.8278 106.314 67.7686 106.323C68.7094 106.331 69.4765 105.866 69.482 105.282Z" fill="#1F3154"/>
<path d="M76.6258 101.076C76.6313 100.493 75.873 100.013 74.9322 100.004C73.9914 99.9954 73.2243 100.461 73.2188 101.044C73.2134 101.628 73.9716 102.108 74.9124 102.117C75.8532 102.125 76.6203 101.66 76.6258 101.076Z" fill="#1F3154"/>
<path d="M83.7696 96.8812C83.7751 96.2979 83.0168 95.8179 82.076 95.8091C81.1352 95.8002 80.3681 96.2659 80.3626 96.8492C80.3572 97.4325 81.1154 97.9126 82.0562 97.9214C82.997 97.9302 83.7641 97.4645 83.7696 96.8812Z" fill="#1F3154"/>
<path d="M90.9133 92.6643C90.9188 92.081 90.1606 91.601 89.2198 91.5921C88.279 91.5833 87.5119 92.049 87.5064 92.6323C87.5009 93.2156 88.2591 93.6956 89.1999 93.7045C90.1408 93.7133 90.9079 93.2476 90.9133 92.6643Z" fill="#1F3154"/>
<path d="M67.1904 114.326C67.1959 113.743 66.4376 113.263 65.4968 113.254C64.556 113.245 63.7889 113.711 63.7834 114.294C63.7779 114.877 64.5362 115.357 65.477 115.366C66.4178 115.375 67.1849 114.909 67.1904 114.326Z" fill="#1F3154"/>
<path d="M74.3342 110.135C74.3397 109.551 73.5814 109.071 72.6406 109.062C71.6998 109.054 70.9327 109.519 70.9272 110.103C70.9217 110.686 71.68 111.166 72.6208 111.175C73.5616 111.184 74.3287 110.718 74.3342 110.135Z" fill="#1F3154"/>
<path d="M81.4779 105.928C81.4834 105.345 80.7252 104.865 79.7844 104.856C78.8435 104.847 78.0764 105.313 78.071 105.896C78.0655 106.48 78.8237 106.96 79.7645 106.969C80.7053 106.977 81.4724 106.512 81.4779 105.928Z" fill="#1F3154"/>
<path d="M88.6217 101.733C88.6272 101.15 87.869 100.67 86.9281 100.661C85.9873 100.652 85.2202 101.118 85.2147 101.701C85.2093 102.285 85.9675 102.765 86.9083 102.774C87.8491 102.782 88.6162 102.317 88.6217 101.733Z" fill="#1F3154"/>
<path d="M47.0797 94.2155C47.0852 93.6322 46.327 93.1521 45.3862 93.1433C44.4454 93.1345 43.6782 93.6002 43.6728 94.1835C43.6673 94.7668 44.4255 95.2468 45.3663 95.2556C46.3071 95.2644 47.0743 94.7988 47.0797 94.2155Z" fill="#1F3154"/>
<path d="M54.2235 90.0239C54.229 89.4406 53.4708 88.9606 52.53 88.9518C51.5891 88.9429 50.822 89.4086 50.8166 89.9919C50.8111 90.5752 51.5693 91.0553 52.5101 91.0641C53.4509 91.0729 54.2181 90.6072 54.2235 90.0239Z" fill="#1F3154"/>
<path d="M61.3673 85.8179C61.3728 85.2346 60.6146 84.7545 59.6738 84.7457C58.7329 84.7369 57.9658 85.2026 57.9604 85.7859C57.9549 86.3692 58.7131 86.8492 59.6539 86.858C60.5947 86.8669 61.3618 86.4012 61.3673 85.8179Z" fill="#1F3154"/>
<path d="M68.5111 81.6228C68.5165 81.0395 67.7583 80.5595 66.8175 80.5507C65.8767 80.5418 65.1096 81.0075 65.1041 81.5908C65.0986 82.1741 65.8569 82.6541 66.7977 82.663C67.7385 82.6718 68.5056 82.2061 68.5111 81.6228Z" fill="#1F3154"/>
<path d="M44.9413 103.435C44.9468 102.852 44.1885 102.372 43.2477 102.363C42.3069 102.354 41.5398 102.82 41.5343 103.403C41.5289 103.986 42.2871 104.466 43.2279 104.475C44.1687 104.484 44.9358 104.018 44.9413 103.435Z" fill="#1F3154"/>
<path d="M52.0851 99.2208C52.0906 98.6375 51.3323 98.1575 50.3915 98.1487C49.4507 98.1398 48.6836 98.6055 48.6781 99.1888C48.6727 99.7721 49.4309 100.252 50.3717 100.261C51.3125 100.27 52.0796 99.8041 52.0851 99.2208Z" fill="#1F3154"/>
<path d="M59.2289 95.0293C59.2344 94.446 58.4761 93.966 57.5353 93.9571C56.5945 93.9483 55.8274 94.414 55.8219 94.9973C55.8165 95.5806 56.5747 96.0606 57.5155 96.0695C58.4563 96.0783 59.2234 95.6126 59.2289 95.0293Z" fill="#1F3154"/>
<path d="M66.3726 90.8234C66.3781 90.2401 65.6199 89.76 64.6791 89.7512C63.7383 89.7424 62.9711 90.2081 62.9657 90.7914C62.9602 91.3747 63.7184 91.8547 64.6592 91.8635C65.6 91.8724 66.3672 91.4067 66.3726 90.8234Z" fill="#1F3154"/>
<path d="M73.5164 86.6282C73.5219 86.0449 72.7637 85.5648 71.8229 85.556C70.882 85.5472 70.1149 86.0129 70.1095 86.5962C70.104 87.1795 70.8622 87.6595 71.803 87.6683C72.7438 87.6772 73.511 87.2115 73.5164 86.6282Z" fill="#1F3154"/>
<path d="M80.6602 82.4113C80.6656 81.828 79.9074 81.3479 78.9666 81.3391C78.0258 81.3303 77.2587 81.796 77.2532 82.3793C77.2477 82.9626 78.006 83.4426 78.9468 83.4514C79.8876 83.4603 80.6547 82.9946 80.6602 82.4113Z" fill="#1F3154"/>
<path d="M42.6498 112.5C42.6553 111.916 41.897 111.436 40.9562 111.427C40.0154 111.419 39.2483 111.884 39.2428 112.468C39.2373 113.051 39.9956 113.531 40.9364 113.54C41.8772 113.549 42.6443 113.083 42.6498 112.5Z" fill="#1F3154"/>
<path d="M49.7936 108.287C49.7991 107.704 49.0408 107.224 48.1 107.215C47.1592 107.206 46.3921 107.672 46.3866 108.255C46.3811 108.839 47.1394 109.319 48.0802 109.327C49.021 109.336 49.7881 108.871 49.7936 108.287Z" fill="#1F3154"/>
<path d="M56.9374 104.073C56.9429 103.49 56.1846 103.01 55.2438 103.001C54.303 102.992 53.5359 103.458 53.5304 104.041C53.5249 104.624 54.2832 105.104 55.224 105.113C56.1648 105.122 56.9319 104.656 56.9374 104.073Z" fill="#1F3154"/>
<path d="M64.0811 99.8815C64.0866 99.2982 63.3284 98.8182 62.3876 98.8093C61.4467 98.8005 60.6796 99.2662 60.6742 99.8495C60.6687 100.433 61.4269 100.913 62.3677 100.922C63.3085 100.93 64.0756 100.465 64.0811 99.8815Z" fill="#1F3154"/>
<path d="M71.2249 95.6755C71.2304 95.0922 70.4722 94.6122 69.5314 94.6034C68.5906 94.5945 67.8234 95.0602 67.818 95.6435C67.8125 96.2268 68.5707 96.7069 69.5115 96.7157C70.4523 96.7245 71.2195 96.2588 71.2249 95.6755Z" fill="#1F3154"/>
<path d="M78.3687 91.4803C78.3741 90.897 77.6159 90.417 76.6751 90.4082C75.7343 90.3994 74.9672 90.8651 74.9617 91.4484C74.9562 92.0317 75.7145 92.5117 76.6553 92.5205C77.5961 92.5293 78.3632 92.0636 78.3687 91.4803Z" fill="#1F3154"/>
<path d="M85.5125 87.2634C85.5179 86.6801 84.7597 86.2001 83.8189 86.1913C82.8781 86.1824 82.111 86.6481 82.1055 87.2314C82.1 87.8147 82.8583 88.2948 83.7991 88.3036C84.7399 88.3124 85.507 87.8467 85.5125 87.2634Z" fill="#1F3154"/>
<path d="M92.6563 83.046C92.6617 82.4627 91.9035 81.9827 90.9627 81.9739C90.0219 81.965 89.2548 82.4307 89.2493 83.014C89.2438 83.5973 90.0021 84.0774 90.9429 84.0862C91.8837 84.095 92.6508 83.6293 92.6563 83.046Z" fill="#1F3154"/>
<path d="M83.9148 75.9954C85.8443 77.1094 85.8546 78.9177 83.9375 80.0317L58.8234 94.6264C56.9064 95.7405 53.7846 95.7405 51.855 94.6265L26.5766 80.032C24.6469 78.9178 24.6368 77.1097 26.5539 75.9956L51.668 61.4009C53.585 60.2868 56.7067 60.2867 58.6364 61.4009L83.9148 75.9954Z" fill="white"/>
<path d="M83.9324 80.0372L58.8287 94.6289C56.9114 95.7436 53.7901 95.7436 51.8505 94.6289L26.5798 80.0372C24.6513 78.9225 24.6399 77.1054 26.5575 75.9907L35.5866 70.7515C38.9531 74.7534 44.6829 77.3841 51.1927 77.3841C59.4084 77.3841 66.3866 73.1816 68.9282 67.3405L83.91 75.9907C85.8496 77.1054 85.8496 78.9225 83.9324 80.0372Z" fill="#F0F5F7"/>
<path d="M83.9324 80.0371L58.8287 94.6289C57.8539 95.1957 56.568 95.471 55.284 95.4614L55.2505 105.193C56.5334 105.203 57.8199 104.927 58.7952 104.36L83.91 89.7687C84.8574 89.2113 85.3369 88.4868 85.3369 87.7622L85.3704 78.0306C85.3704 78.7552 84.8909 79.4798 83.9324 80.0371Z" fill="#E0FEF2"/>
<path d="M85.3704 78.0306L85.3369 87.7622C85.3369 88.4868 84.8574 89.2113 83.91 89.7687L58.7952 104.36C57.8253 104.929 56.5323 105.208 55.2505 105.196L55.284 95.4649C56.5658 95.4761 57.8588 95.1974 58.8287 94.6289L61.6379 92.9902C63.0647 93.4362 64.6252 93.6814 66.275 93.6814C72.8186 93.6814 78.1135 89.8133 78.1135 85.0534C78.1135 84.5294 78.0466 84.0167 77.9238 83.5262L83.9324 80.0371C84.8909 79.4798 85.3704 78.7552 85.3704 78.0306Z" fill="#1BF3A4"/>
<path d="M55.3434 95.9928C53.9954 95.9928 52.6464 95.6888 51.5932 95.0803L26.3145 80.486C25.209 79.8478 24.6 78.9676 24.599 78.0075C24.5969 77.053 25.1978 76.1774 26.2909 75.5428L51.4048 60.9479C53.499 59.7309 56.7918 59.7299 58.8982 60.9469L84.1769 75.5412C85.2824 76.1794 85.8914 77.0597 85.8924 78.0198C85.8944 78.9742 85.2936 79.8499 84.2005 80.4845L59.0866 95.0793C58.0395 95.6883 56.6925 95.9928 55.3434 95.9928ZM55.1469 61.0958C53.9729 61.0958 52.8009 61.3481 51.9309 61.8538L26.817 76.4486C26.0617 76.8877 25.6461 77.4409 25.6471 78.0059C25.6471 78.5766 26.0709 79.1349 26.8385 79.5781L52.1172 94.1725C53.8695 95.1842 56.8204 95.1853 58.5605 94.1735L83.6744 79.5786C84.4297 79.1395 84.8453 78.5863 84.8443 78.0213C84.8443 77.4507 84.4205 76.8923 83.6529 76.4491L58.3742 61.8548C57.498 61.3486 56.322 61.0958 55.1469 61.0958Z" fill="#1F3154"/>
<path d="M51.8506 94.6289L26.5798 80.0372C25.6099 79.4686 25.1195 78.733 25.1195 77.9972L25.0972 87.7287C25.0972 88.4645 25.5764 89.2113 26.5464 89.7687L51.8283 104.36C52.7759 104.908 54.0115 105.183 55.2505 105.193L55.284 95.4614C54.043 95.4521 52.8039 95.1768 51.8506 94.6289Z" fill="#1F3154"/>
<path d="M55.2502 105.717H55.2462C53.8623 105.706 52.5553 105.385 51.5665 104.814L26.2847 90.2225C25.1977 89.5982 24.5734 88.6887 24.5734 87.7286L24.5959 77.9998V77.9962C24.5969 77.707 24.8313 77.4731 25.1199 77.4731C25.4086 77.4736 25.644 77.7081 25.644 77.9972C25.644 78.5668 26.0708 79.1308 26.8446 79.5852L52.112 94.1745C52.9524 94.6571 54.0793 94.9283 55.2881 94.9375C55.5768 94.9396 55.8091 95.175 55.8081 95.4636L55.7743 105.195C55.7743 105.334 55.718 105.468 55.6187 105.566C55.5205 105.663 55.3884 105.717 55.2502 105.717ZM25.6389 80.0131L25.6215 87.7297C25.6215 88.3034 26.0534 88.8811 26.8078 89.3141L52.0906 103.906C52.8019 104.318 53.7241 104.575 54.7283 104.648L54.7579 95.9667C53.5675 95.8899 52.458 95.5818 51.59 95.0834L26.3175 80.4911C26.0647 80.3432 25.8385 80.183 25.6389 80.0131Z" fill="#1F3154"/>
<path d="M55.3168 105.717H55.2462C54.9575 105.715 54.7252 105.48 54.7262 105.191L54.76 95.4596C54.76 95.3204 54.8163 95.1873 54.9156 95.0891C55.0138 94.9918 55.1458 94.9376 55.284 94.9376C55.2973 94.9345 55.326 94.9376 55.3485 94.9376C56.5788 94.9381 57.7191 94.6679 58.5655 94.176L83.6692 79.5843C84.4235 79.1452 84.8422 78.5971 84.8463 78.0397V78.0285C84.8473 77.7398 85.0817 77.5065 85.3703 77.5065C85.659 77.507 85.8944 77.7414 85.8944 78.0305V78.0326V78.0438L85.8606 87.7645C85.8606 88.7082 85.2618 89.5813 84.1758 90.2205L59.0579 104.813C58.0538 105.397 56.7272 105.717 55.3168 105.717ZM55.806 95.9744L55.7764 104.657C56.8275 104.598 57.7907 104.338 58.5318 103.907L83.6467 89.3157C84.398 88.874 84.8125 88.3218 84.8125 87.7624L84.8391 80.0428C84.6487 80.202 84.4338 80.3519 84.1953 80.4901L59.0916 95.0819C58.1971 95.6024 57.0456 95.913 55.806 95.9744Z" fill="#1F3154"/>
<path d="M55.2136 13.563L61.3982 17.1337L55.2538 20.7044L49.0692 17.1337L55.2136 13.563Z" fill="white"/>
<path d="M55.2543 21.2285C55.1643 21.2285 55.0731 21.205 54.9923 21.1584L48.807 17.5877C48.6452 17.4941 48.5449 17.3216 48.5449 17.1343C48.5449 16.9475 48.6442 16.7745 48.8059 16.6809L54.9503 13.1102C55.111 13.0155 55.3127 13.0155 55.4754 13.1092L61.6607 16.6798C61.8224 16.7735 61.9228 16.946 61.9228 17.1333C61.9228 17.3201 61.8235 17.4931 61.6617 17.5867L55.5174 21.1574C55.4365 21.205 55.3454 21.2285 55.2543 21.2285ZM50.1151 17.1322L55.2533 20.099L60.3526 17.1353L55.2144 14.1686L50.1151 17.1322Z" fill="#1F3154"/>
<path d="M55.3085 91.3751C55.2184 91.3751 55.1284 91.3521 55.0475 91.3055C54.8848 91.2118 54.7845 91.0388 54.7845 90.8515L54.7302 20.7049C54.7302 20.5181 54.8295 20.3451 54.9912 20.2515L61.1356 16.6808C61.2748 16.5989 61.4447 16.5866 61.5962 16.6481C61.7467 16.7095 61.8603 16.8369 61.9033 16.993L78.7489 77.3816C78.8134 77.6114 78.7141 77.8555 78.5073 77.9753L55.5716 91.3039C55.4907 91.3515 55.3996 91.3751 55.3085 91.3751ZM55.7783 21.0058L55.8316 89.9406L77.6302 77.2726L61.0762 17.9275L55.7783 21.0058Z" fill="#1F3154"/>
<path d="M55.3085 91.3751C55.2185 91.3751 55.1274 91.3516 55.0465 91.305L31.9613 77.9763C31.7545 77.8565 31.6542 77.6119 31.7187 77.3816L48.5644 16.993C48.6073 16.8369 48.721 16.71 48.8704 16.6486C49.0229 16.5882 49.1908 16.5995 49.331 16.6798L55.5163 20.2505C55.678 20.3441 55.7784 20.5171 55.7784 20.7039L55.8326 90.8505C55.8326 91.0378 55.7333 91.2113 55.5706 91.305C55.4897 91.3516 55.3986 91.3751 55.3085 91.3751ZM32.8375 77.2716L54.7835 89.9432L54.7302 21.0074L49.3924 17.9255L32.8375 77.2716Z" fill="#1F3154"/>
<path d="M64.9193 18.1542C64.9193 23.5062 60.5857 27.8396 55.2339 27.8396C49.8912 27.8396 45.5483 23.5062 45.5483 18.1542C45.5483 12.8114 49.8912 8.46875 55.2339 8.46875C60.5857 8.46875 64.9193 12.8114 64.9193 18.1542Z" fill="#E0FEF2"/>
<path d="M64.9177 18.1542C64.9177 23.5062 60.5843 27.8396 55.2323 27.8396C49.8896 27.8396 45.5468 23.5062 45.5468 18.1542V17.9505C46.7876 19.1635 48.4173 19.9042 50.195 19.9042C54.0935 19.9042 57.2508 16.3578 57.2508 11.9689C57.2508 10.7466 57.0101 9.58918 56.5564 8.5614C61.2788 9.20956 64.9177 13.2652 64.9177 18.1542Z" fill="#1BF3A4"/>
<path d="M55.2339 28.3637C49.6043 28.3637 45.0239 23.7838 45.0239 18.1543C45.0239 12.5247 49.6043 7.94482 55.2339 7.94482C60.8634 7.94482 65.4438 12.5247 65.4438 18.1543C65.4438 23.7838 60.8634 28.3637 55.2339 28.3637ZM55.2339 8.99294C50.1816 8.99294 46.072 13.1025 46.072 18.1543C46.072 23.206 50.1816 27.3156 55.2339 27.3156C60.2861 27.3156 64.3957 23.206 64.3957 18.1543C64.3957 13.1025 60.2861 8.99294 55.2339 8.99294Z" fill="#1F3154"/>
<path d="M70.1757 22.6287C70.0866 22.6287 69.9965 22.6062 69.9137 22.5586C69.6629 22.4137 69.5769 22.0934 69.7222 21.8426C71.5667 18.6471 72.2883 15.0923 71.6035 12.5646C71.2678 11.3266 70.6045 10.3962 69.6885 9.87368C69.4367 9.73038 69.3487 9.41001 69.492 9.15872C69.6363 8.90693 69.9556 8.82095 70.2064 8.96271C71.3712 9.62648 72.2044 10.777 72.6148 12.2903C73.3702 15.0774 72.6087 18.9388 70.6291 22.3667C70.5329 22.535 70.3558 22.6287 70.1757 22.6287Z" fill="#1F3154"/>
<path d="M73.4121 22.7965C73.3231 22.7965 73.233 22.774 73.1501 22.7264C72.8993 22.5816 72.8133 22.2607 72.9587 22.0104C75.4316 17.7299 76.3978 12.9674 75.4807 9.58196C75.0304 7.92176 74.1429 6.67404 72.9147 5.97445C72.6629 5.83115 72.5748 5.5113 72.7181 5.25949C72.8615 5.0077 73.1798 4.9202 73.4326 5.06348C74.9096 5.90485 75.9679 7.37211 76.492 9.30765C77.4797 12.953 76.4736 18.0212 73.8656 22.5345C73.7683 22.7029 73.5923 22.7965 73.4121 22.7965Z" fill="#1F3154"/>
<path d="M40.5193 34.5526C40.4312 34.5526 40.3422 34.5306 40.2603 34.484C39.0945 33.8197 38.2613 32.6687 37.8519 31.1559C37.0965 28.3698 37.857 24.509 39.8376 21.0796C39.9819 20.8283 40.3043 20.7444 40.553 20.8877C40.8038 21.0325 40.8898 21.3529 40.7444 21.6036C38.899 24.8002 38.1784 28.355 38.8631 30.8816C39.1989 32.1196 39.8611 33.05 40.7782 33.5731C41.03 33.7164 41.118 34.0367 40.9747 34.288C40.8775 34.4574 40.7004 34.5526 40.5193 34.5526Z" fill="#1F3154"/>
<path d="M37.294 38.4518C37.206 38.4518 37.1169 38.4298 37.0351 38.3832C35.5581 37.5418 34.4997 36.0746 33.9757 34.139C32.989 30.4947 33.9941 25.4271 36.6001 20.9127C36.7444 20.6619 37.0658 20.577 37.3155 20.7208C37.5663 20.8656 37.6523 21.186 37.5069 21.4367C35.0361 25.7183 34.0708 30.4803 34.9869 33.8647C35.4373 35.5249 36.3247 36.7726 37.553 37.4722C37.8048 37.6155 37.8928 37.9354 37.7495 38.1872C37.6523 38.3566 37.4762 38.4518 37.294 38.4518Z" fill="#1F3154"/>
<path d="M55.3086 49.7012C55.2267 49.7012 55.1448 49.6822 55.0681 49.6428C54.8112 49.5098 54.7098 49.1935 54.8429 48.9366L64.6066 30.0628C64.7396 29.8053 65.058 29.7071 65.3128 29.8376C65.5697 29.9707 65.6711 30.2869 65.538 30.5444L55.7743 49.4176C55.6812 49.5978 55.498 49.7012 55.3086 49.7012Z" fill="#1F3154"/>
<path d="M68.8267 44.2851C68.7161 44.2851 68.6046 44.2503 68.5094 44.1781L54.9463 33.8709C54.716 33.6959 54.6709 33.3673 54.846 33.1365C55.022 32.9057 55.3506 32.8617 55.5809 33.0367L69.144 43.3439C69.3743 43.5189 69.4193 43.8475 69.2443 44.0783C69.1409 44.2139 68.9843 44.2851 68.8267 44.2851Z" fill="#1F3154"/>
<path d="M55.3085 67.1589C55.2174 67.1589 55.1253 67.1354 55.0424 67.0862C54.7927 66.9388 54.7098 66.6174 54.8572 66.3682L68.3752 43.4944C68.5236 43.2451 68.8471 43.1632 69.0927 43.3096C69.3425 43.457 69.4254 43.7784 69.278 44.0276L55.7599 66.9015C55.6617 67.0668 55.4877 67.1589 55.3085 67.1589Z" fill="#1F3154"/>
<path d="M73.3364 60.4551C73.2443 60.4551 73.1522 60.4311 73.0682 60.3809L55.0404 49.6269C54.7917 49.479 54.7098 49.1571 54.8582 48.9084C55.0066 48.6586 55.3301 48.5788 55.5767 48.7272L73.6046 59.4812C73.8533 59.6291 73.9352 59.951 73.7867 60.1997C73.6885 60.364 73.5145 60.4551 73.3364 60.4551Z" fill="#1F3154"/>
<path d="M55.3084 91.3751C55.2184 91.3751 55.1273 91.3521 55.0444 91.3039C54.7946 91.1581 54.7097 90.8372 54.856 90.587L72.8767 59.667C73.0221 59.4162 73.3434 59.3328 73.5932 59.4781C73.8429 59.624 73.9279 59.9448 73.7815 60.1951L55.7609 91.1151C55.6636 91.2819 55.4886 91.3751 55.3084 91.3751Z" fill="#1F3154"/>
<path d="M78.2444 78.0464C78.1687 78.0464 78.0919 78.03 78.0192 77.9957L55.0835 67.1082C54.8225 66.9843 54.7109 66.6717 54.8347 66.4101C54.9596 66.1486 55.2738 66.0386 55.5338 66.1614L78.4696 77.0489C78.7306 77.1728 78.8422 77.4855 78.7183 77.747C78.6282 77.9358 78.4399 78.0464 78.2444 78.0464Z" fill="#1F3154"/>
<path d="M55.2339 49.7012C55.0446 49.7012 54.8614 49.5978 54.7682 49.4177L44.9564 30.4497C44.8234 30.1928 44.9247 29.8765 45.1816 29.7434C45.4354 29.6124 45.7548 29.7107 45.8879 29.9686L55.6996 48.9366C55.8327 49.1935 55.7314 49.5098 55.4745 49.6428C55.3977 49.6822 55.3158 49.7012 55.2339 49.7012Z" fill="#1F3154"/>
<path d="M41.6432 44.2851C41.4846 44.2851 41.3279 44.2134 41.2256 44.0773C41.0506 43.8465 41.0966 43.5179 41.3269 43.3429L54.9474 33.0357C55.1766 32.8622 55.5072 32.9062 55.6812 33.1376C55.8563 33.3684 55.8102 33.6969 55.5799 33.8719L41.9595 44.1791C41.8653 44.2503 41.7537 44.2851 41.6432 44.2851Z" fill="#1F3154"/>
<path d="M55.2339 67.1589C55.0558 67.1589 54.8818 67.0673 54.7835 66.9025L41.1928 44.0287C41.0444 43.78 41.1262 43.4586 41.375 43.3107C41.6237 43.1617 41.9451 43.2447 42.0935 43.4934L55.6842 66.3672C55.8327 66.6159 55.7508 66.9373 55.5021 67.0852C55.4181 67.1354 55.325 67.1589 55.2339 67.1589Z" fill="#1F3154"/>
<path d="M37.1355 60.427C36.9573 60.427 36.7833 60.336 36.6851 60.1717C36.5367 59.9229 36.6186 59.601 36.8673 59.4531L54.8951 48.6992C55.1408 48.5518 55.4642 48.6306 55.6136 48.8803C55.7621 49.1291 55.6802 49.451 55.4315 49.5989L37.4036 60.3528C37.3197 60.403 37.2276 60.427 37.1355 60.427Z" fill="#1F3154"/>
<path d="M55.2339 91.3751C55.0538 91.3751 54.8788 91.2825 54.7815 91.1156L36.6902 60.1675C36.5439 59.9177 36.6278 59.5964 36.8786 59.4505C37.1263 59.3036 37.4487 59.3881 37.5951 59.6383L55.6863 90.5865C55.8327 90.8362 55.7488 91.1576 55.498 91.3035C55.4151 91.3521 55.324 91.3751 55.2339 91.3751Z" fill="#1F3154"/>
<path d="M32.2234 78.0464C32.0279 78.0464 31.8396 77.9359 31.7495 77.7465C31.6257 77.485 31.7372 77.1723 31.9993 77.0485L55.0097 66.1609C55.2687 66.0376 55.5829 66.1471 55.7078 66.4107C55.8316 66.6722 55.7201 66.9849 55.4581 67.1087L32.4476 77.9963C32.3749 78.0306 32.2992 78.0464 32.2234 78.0464Z" fill="#1F3154"/>
</g>
<defs>
<clipPath id="clip0_10673_26763">
<rect width="120" height="120" fill="white"/>
</clipPath>
</defs>
</svg>
