<svg width="120" height="120" viewBox="0 0 120 120" fill="none" xmlns="http://www.w3.org/2000/svg">
<path d="M35.7768 108.781C35.7818 108.253 35.0956 107.819 34.2443 107.811C33.393 107.803 32.6989 108.224 32.6939 108.752C32.689 109.28 33.3751 109.714 34.2264 109.722C35.0777 109.73 35.7718 109.309 35.7768 108.781Z" fill="#1F3154"/>
<path d="M42.241 104.969C42.246 104.441 41.5599 104.007 40.7086 103.999C39.8572 103.991 39.1631 104.412 39.1581 104.94C39.1532 105.468 39.8393 105.902 40.6906 105.91C41.5419 105.918 42.2361 105.497 42.241 104.969Z" fill="#1F3154"/>
<path d="M48.7053 101.157C48.7102 100.629 48.0241 100.195 47.1728 100.187C46.3215 100.179 45.6273 100.6 45.6224 101.128C45.6174 101.656 46.3035 102.09 47.1548 102.098C48.0062 102.106 48.7003 101.685 48.7053 101.157Z" fill="#1F3154"/>
<path d="M55.1696 97.3438C55.1746 96.8159 54.4885 96.3816 53.6372 96.3736C52.7858 96.3656 52.0917 96.787 52.0867 97.3148C52.0818 97.8426 52.7679 98.277 53.6192 98.285C54.4705 98.293 55.1647 97.8716 55.1696 97.3438Z" fill="#1F3154"/>
<path d="M61.6339 93.551C61.6388 93.0232 60.9527 92.5889 60.1014 92.5809C59.2501 92.5729 58.5559 92.9943 58.551 93.5221C58.546 94.0499 59.2321 94.4843 60.0834 94.4923C60.9348 94.5002 61.6289 94.0788 61.6339 93.551Z" fill="#1F3154"/>
<path d="M68.0981 89.745C68.103 89.2172 67.4169 88.7828 66.5656 88.7748C65.7143 88.7668 65.0202 89.1882 65.0152 89.7161C65.0102 90.2439 65.6964 90.6782 66.5477 90.6862C67.399 90.6942 68.0931 90.2728 68.0981 89.745Z" fill="#1F3154"/>
<path d="M74.5623 85.949C74.5673 85.4212 73.8812 84.9868 73.0298 84.9788C72.1785 84.9708 71.4844 85.3922 71.4794 85.92C71.4745 86.4479 72.1606 86.8822 73.0119 86.8902C73.8632 86.8982 74.5574 86.4768 74.5623 85.949Z" fill="#1F3154"/>
<path d="M81.0266 82.1332C81.0315 81.6054 80.3454 81.171 79.4941 81.163C78.6428 81.155 77.9486 81.5764 77.9437 82.1042C77.9387 82.6321 78.6248 83.0664 79.4761 83.0744C80.3275 83.0824 81.0216 82.661 81.0266 82.1332Z" fill="#1F3154"/>
<path d="M87.4908 78.3169C87.4957 77.7891 86.8096 77.3547 85.9583 77.3467C85.107 77.3387 84.4129 77.7601 84.4079 78.288C84.4029 78.8158 85.0891 79.2501 85.9404 79.2581C86.7917 79.2661 87.4858 78.8447 87.4908 78.3169Z" fill="#1F3154"/>
<path d="M40.1675 113.172C40.1725 112.644 39.4864 112.209 38.6351 112.201C37.7838 112.193 37.0896 112.615 37.0847 113.143C37.0797 113.671 37.7658 114.105 38.6171 114.113C39.4684 114.121 40.1626 113.699 40.1675 113.172Z" fill="#1F3154"/>
<path d="M46.6318 109.36C46.6367 108.832 45.9506 108.397 45.0993 108.389C44.248 108.381 43.5538 108.803 43.5489 109.331C43.5439 109.858 44.23 110.293 45.0814 110.301C45.9327 110.309 46.6268 109.887 46.6318 109.36Z" fill="#1F3154"/>
<path d="M53.096 105.548C53.101 105.02 52.4149 104.586 51.5635 104.578C50.7122 104.57 50.0181 104.991 50.0131 105.519C50.0082 106.047 50.6943 106.481 51.5456 106.489C52.3969 106.497 53.0911 106.076 53.096 105.548Z" fill="#1F3154"/>
<path d="M59.5604 101.735C59.5653 101.207 58.8792 100.772 58.0279 100.764C57.1766 100.756 56.4824 101.178 56.4775 101.706C56.4725 102.233 57.1586 102.668 58.01 102.676C58.8613 102.684 59.5554 102.262 59.5604 101.735Z" fill="#1F3154"/>
<path d="M66.0246 97.9418C66.0296 97.414 65.3435 96.9796 64.4921 96.9716C63.6408 96.9636 62.9467 97.385 62.9417 97.9128C62.9368 98.4406 63.6229 98.875 64.4742 98.883C65.3255 98.891 66.0197 98.4696 66.0246 97.9418Z" fill="#1F3154"/>
<path d="M72.4888 94.1357C72.4938 93.6079 71.8077 93.1736 70.9564 93.1656C70.105 93.1576 69.4109 93.579 69.4059 94.1068C69.401 94.6346 70.0871 95.069 70.9384 95.077C71.7897 95.085 72.4839 94.6636 72.4888 94.1357Z" fill="#1F3154"/>
<path d="M78.9531 90.3397C78.958 89.8119 78.2719 89.3775 77.4206 89.3696C76.5693 89.3616 75.8751 89.783 75.8702 90.3108C75.8652 90.8386 76.5513 91.273 77.4027 91.281C78.254 91.2889 78.9481 90.8675 78.9531 90.3397Z" fill="#1F3154"/>
<path d="M85.4173 86.5239C85.4223 85.9961 84.7361 85.5618 83.8848 85.5538C83.0335 85.5458 82.3394 85.9672 82.3344 86.495C82.3295 87.0228 83.0156 87.4572 83.8669 87.4652C84.7182 87.4731 85.4124 87.0517 85.4173 86.5239Z" fill="#1F3154"/>
<path d="M91.8815 82.7076C91.8865 82.1798 91.2004 81.7455 90.3491 81.7375C89.4977 81.7295 88.8036 82.1509 88.7986 82.6787C88.7937 83.2065 89.4798 83.6409 90.3311 83.6489C91.1824 83.6569 91.8766 83.2355 91.8815 82.7076Z" fill="#1F3154"/>
<path d="M51.5383 114.266C51.5432 113.738 50.8571 113.304 50.0058 113.296C49.1545 113.288 48.4603 113.709 48.4554 114.237C48.4504 114.765 49.1365 115.199 49.9879 115.207C50.8392 115.215 51.5333 114.794 51.5383 114.266Z" fill="#1F3154"/>
<path d="M58.0025 110.454C58.0075 109.927 57.3214 109.492 56.47 109.484C55.6187 109.476 54.9246 109.898 54.9196 110.425C54.9147 110.953 55.6008 111.388 56.4521 111.396C57.3034 111.404 57.9975 110.982 58.0025 110.454Z" fill="#1F3154"/>
<path d="M64.4667 106.641C64.4717 106.113 63.7856 105.679 62.9343 105.671C62.0829 105.663 61.3888 106.084 61.3839 106.612C61.3789 107.14 62.065 107.574 62.9163 107.582C63.7676 107.59 64.4618 107.169 64.4667 106.641Z" fill="#1F3154"/>
<path d="M70.9311 102.848C70.9361 102.32 70.2499 101.886 69.3986 101.878C68.5473 101.87 67.8532 102.292 67.8482 102.819C67.8433 103.347 68.5294 103.782 69.3807 103.789C70.232 103.797 70.9261 103.376 70.9311 102.848Z" fill="#1F3154"/>
<path d="M77.3953 99.0422C77.4003 98.5144 76.7142 98.0801 75.8629 98.0721C75.0115 98.0641 74.3174 98.4855 74.3124 99.0133C74.3075 99.5411 74.9936 99.9755 75.8449 99.9835C76.6962 99.9915 77.3904 99.5701 77.3953 99.0422Z" fill="#1F3154"/>
<path d="M83.8596 95.2462C83.8645 94.7184 83.1784 94.284 82.3271 94.2761C81.4758 94.2681 80.7816 94.6895 80.7767 95.2173C80.7717 95.7451 81.4578 96.1795 82.3091 96.1874C83.1605 96.1954 83.8546 95.774 83.8596 95.2462Z" fill="#1F3154"/>
<path d="M63.0032 115.455C63.0082 114.927 62.3221 114.493 61.4708 114.485C60.6195 114.477 59.9253 114.898 59.9203 115.426C59.9154 115.954 60.6015 116.388 61.4528 116.396C62.3041 116.404 62.9983 115.983 63.0032 115.455Z" fill="#1F3154"/>
<path d="M69.4675 111.642C69.4724 111.114 68.7863 110.679 67.935 110.671C67.0837 110.663 66.3895 111.085 66.3846 111.613C66.3796 112.14 67.0657 112.575 67.9171 112.583C68.7684 112.591 69.4625 112.169 69.4675 111.642Z" fill="#1F3154"/>
<path d="M75.9317 107.849C75.9367 107.321 75.2505 106.887 74.3992 106.879C73.5479 106.871 72.8538 107.292 72.8488 107.82C72.8439 108.348 73.53 108.782 74.3813 108.79C75.2326 108.798 75.9267 108.377 75.9317 107.849Z" fill="#1F3154"/>
<path d="M82.3961 104.043C82.401 103.515 81.7149 103.081 80.8636 103.073C80.0123 103.065 79.3181 103.486 79.3132 104.014C79.3082 104.542 79.9943 104.976 80.8456 104.984C81.697 104.992 82.3911 104.571 82.3961 104.043Z" fill="#1F3154"/>
<path d="M88.8603 100.247C88.8652 99.719 88.1791 99.2847 87.3278 99.2767C86.4765 99.2687 85.7824 99.6901 85.7774 100.218C85.7724 100.746 86.4586 101.18 87.3099 101.188C88.1612 101.196 88.8553 100.775 88.8603 100.247Z" fill="#1F3154"/>
<path d="M26.4991 99.5032C26.504 98.9754 25.8179 98.541 24.9666 98.533C24.1153 98.525 23.4212 98.9464 23.4162 99.4742C23.4112 100.002 24.0974 100.436 24.9487 100.444C25.8 100.452 26.4941 100.031 26.4991 99.5032Z" fill="#1F3154"/>
<path d="M32.9633 95.6912C32.9683 95.1633 32.2822 94.729 31.4308 94.721C30.5795 94.713 29.8854 95.1344 29.8804 95.6622C29.8755 96.19 30.5616 96.6244 31.4129 96.6324C32.2642 96.6404 32.9584 96.219 32.9633 95.6912Z" fill="#1F3154"/>
<path d="M39.4276 91.8794C39.4325 91.3516 38.7464 90.9172 37.8951 90.9092C37.0438 90.9012 36.3496 91.3226 36.3447 91.8505C36.3397 92.3783 37.0258 92.8126 37.8771 92.8206C38.7285 92.8286 39.4226 92.4072 39.4276 91.8794Z" fill="#1F3154"/>
<path d="M45.8919 88.066C45.8969 87.5382 45.2108 87.1039 44.3594 87.0959C43.5081 87.0879 42.814 87.5093 42.809 88.0371C42.8041 88.5649 43.4902 88.9993 44.3415 89.0073C45.1928 89.0153 45.887 88.5939 45.8919 88.066Z" fill="#1F3154"/>
<path d="M52.3561 84.2733C52.3611 83.7455 51.675 83.3111 50.8237 83.3032C49.9724 83.2952 49.2782 83.7166 49.2733 84.2444C49.2683 84.7722 49.9544 85.2066 50.8057 85.2145C51.657 85.2225 52.3512 84.8011 52.3561 84.2733Z" fill="#1F3154"/>
<path d="M58.8204 80.4673C58.8253 79.9395 58.1392 79.5051 57.2879 79.4971C56.4366 79.4891 55.7424 79.9105 55.7375 80.4383C55.7325 80.9662 56.4186 81.4005 57.27 81.4085C58.1213 81.4165 58.8154 80.9951 58.8204 80.4673Z" fill="#1F3154"/>
<path d="M65.2846 76.6713C65.2896 76.1435 64.6035 75.7091 63.7521 75.7011C62.9008 75.6931 62.2067 76.1145 62.2017 76.6423C62.1968 77.1701 62.8829 77.6045 63.7342 77.6125C64.5855 77.6205 65.2797 77.1991 65.2846 76.6713Z" fill="#1F3154"/>
<path d="M71.7489 72.8555C71.7538 72.3277 71.0677 71.8933 70.2164 71.8853C69.3651 71.8773 68.6709 72.2987 68.666 72.8265C68.661 73.3543 69.3471 73.7887 70.1984 73.7967C71.0498 73.8047 71.7439 73.3833 71.7489 72.8555Z" fill="#1F3154"/>
<path d="M78.2131 69.0392C78.218 68.5114 77.5319 68.077 76.6806 68.069C75.8293 68.061 75.1351 68.4824 75.1302 69.0102C75.1252 69.5381 75.8113 69.9724 76.6627 69.9804C77.514 69.9884 78.2081 69.567 78.2131 69.0392Z" fill="#1F3154"/>
<path d="M30.8897 103.894C30.8947 103.366 30.2086 102.932 29.3572 102.924C28.5059 102.916 27.8118 103.337 27.8068 103.865C27.8019 104.393 28.488 104.827 29.3393 104.835C30.1906 104.843 30.8848 104.422 30.8897 103.894Z" fill="#1F3154"/>
<path d="M37.354 100.082C37.3589 99.5539 36.6728 99.1195 35.8215 99.1115C34.9702 99.1035 34.276 99.5249 34.2711 100.053C34.2661 100.581 34.9522 101.015 35.8035 101.023C36.6548 101.031 37.349 100.609 37.354 100.082Z" fill="#1F3154"/>
<path d="M43.8182 96.27C43.8231 95.7422 43.137 95.3078 42.2857 95.2999C41.4344 95.2919 40.7402 95.7133 40.7353 96.2411C40.7303 96.7689 41.4165 97.2033 42.2678 97.2112C43.1191 97.2192 43.8132 96.7978 43.8182 96.27Z" fill="#1F3154"/>
<path d="M50.2825 92.4567C50.2875 91.9289 49.6014 91.4945 48.7501 91.4865C47.8987 91.4785 47.2046 91.8999 47.1996 92.4277C47.1947 92.9555 47.8808 93.3899 48.7321 93.3979C49.5834 93.4059 50.2776 92.9845 50.2825 92.4567Z" fill="#1F3154"/>
<path d="M56.7468 88.6639C56.7517 88.1361 56.0656 87.7018 55.2143 87.6938C54.363 87.6858 53.6688 88.1072 53.6639 88.635C53.6589 89.1628 54.345 89.5972 55.1964 89.6052C56.0477 89.6132 56.7418 89.1918 56.7468 88.6639Z" fill="#1F3154"/>
<path d="M63.211 84.8579C63.216 84.3301 62.5298 83.8957 61.6785 83.8877C60.8272 83.8798 60.1331 84.3012 60.1281 84.829C60.1232 85.3568 60.8093 85.7911 61.6606 85.7991C62.5119 85.8071 63.2061 85.3857 63.211 84.8579Z" fill="#1F3154"/>
<path d="M69.6752 81.0619C69.6802 80.5341 68.9941 80.0997 68.1428 80.0917C67.2914 80.0837 66.5973 80.5051 66.5923 81.033C66.5874 81.5608 67.2735 81.9951 68.1248 82.0031C68.9761 82.0111 69.6703 81.5897 69.6752 81.0619Z" fill="#1F3154"/>
<path d="M76.1395 77.2461C76.1444 76.7183 75.4583 76.2839 74.607 76.2759C73.7557 76.2679 73.0615 76.6893 73.0566 77.2172C73.0516 77.745 73.7377 78.1793 74.5891 78.1873C75.4404 78.1953 76.1345 77.7739 76.1395 77.2461Z" fill="#1F3154"/>
<path d="M82.6037 73.4298C82.6087 72.902 81.9226 72.4676 81.0712 72.4596C80.2199 72.4517 79.5258 72.8731 79.5208 73.4009C79.5159 73.9287 80.202 74.363 81.0533 74.371C81.9046 74.379 82.5988 73.9576 82.6037 73.4298Z" fill="#1F3154"/>
<path d="M56.3068 33.2923C71.2409 24.8665 83.3848 31.6202 83.4334 48.3806C83.482 65.1501 71.417 85.5626 56.4829 93.9884C41.5571 102.41 29.4214 95.6512 29.3727 78.8817C29.3241 62.1213 41.381 41.7134 56.3068 33.2923Z" fill="#E0FEF2"/>
<path d="M83.4349 48.3836C83.4858 65.1485 71.4223 85.5616 56.489 93.9874C41.5557 102.413 29.4159 95.6503 29.3781 78.8855C29.3654 74.9517 30.0257 70.8195 31.2193 66.6872C33.2003 67.3945 35.3209 67.7668 37.5304 67.7668C48.4889 67.7668 57.3654 58.5343 57.3654 47.1427C57.3654 42.601 55.9557 38.4067 53.5559 35.0065C54.4574 34.386 55.3844 33.8153 56.3113 33.2941C71.2446 24.8682 83.3841 31.6188 83.4349 48.3836Z" fill="#1BF3A4"/>
<path d="M44.3584 98.0026C41.6464 98.0026 39.1455 97.3672 36.9476 96.0876C31.8424 93.1164 29.0184 87.0063 28.9948 78.8827C28.9468 62.0301 41.1169 41.4307 56.1213 32.9635C63.5829 28.754 70.5939 28.1231 75.8614 31.1901C80.9644 34.1601 83.7877 40.2647 83.8113 48.3794C83.8599 65.238 71.684 85.8454 56.6685 94.3175C52.3281 96.7661 48.1389 98.0022 44.3584 98.0026ZM68.4433 30.0299C64.7888 30.0299 60.7228 31.2347 56.493 33.6214C41.6995 41.9677 29.7028 62.2709 29.75 78.8805C29.7729 86.7249 32.4634 92.6038 37.3274 95.4349C42.3493 98.3577 49.0874 97.7275 56.2968 93.6596C71.1006 85.3078 83.104 64.9961 83.056 48.3816C83.0332 40.5461 80.3434 34.6724 75.4816 31.8428C73.4002 30.6314 71.0246 30.0299 68.4433 30.0299Z" fill="#1F3154"/>
<path d="M45.4913 90.276C39.6289 90.276 36.1146 85.4755 36.0915 77.4349C36.0521 63.8437 46.2591 46.5839 58.3815 39.7447C61.5628 37.9497 64.6509 37.0009 67.3131 37.0009C73.1762 37.0009 76.6911 41.7963 76.7142 49.8285C76.7536 63.4244 66.5399 80.6923 54.41 87.5359C51.2335 89.3285 48.1494 90.276 45.4913 90.276Z" fill="white"/>
<path d="M76.7112 49.8274C76.753 63.426 66.5389 80.693 54.4116 87.5337C51.2318 89.3266 48.1496 90.2782 45.4917 90.2782C39.6264 90.2782 36.1127 85.4787 36.0919 77.4383C36.0848 75.3212 36.3284 73.1146 36.7877 70.8665C37.706 71.0389 38.6524 71.1286 39.6194 71.1286C48.8872 71.1286 56.4085 62.957 56.4085 52.8823C56.4085 49.2275 55.4204 45.821 53.7088 42.9661C55.2186 41.7317 56.7841 40.6491 58.3844 39.7458C61.5642 37.9528 64.6534 37.0012 67.3113 37.0012C73.1766 37.0012 76.6903 41.7938 76.7112 49.8274Z" fill="white"/>
<path d="M45.4912 90.6534C39.3933 90.6534 35.7381 85.7123 35.7137 77.4361C35.6746 63.7246 45.9699 46.3133 58.196 39.4158C61.4338 37.589 64.5867 36.6232 67.3134 36.6232C73.4128 36.6232 77.068 41.5591 77.0916 49.8273C77.1314 63.5432 66.8303 80.9623 54.5961 87.8648C51.3627 89.6891 48.2149 90.6534 45.4912 90.6534ZM67.3134 37.3784C64.7165 37.3784 61.6919 38.3103 58.5677 40.0737C46.5503 46.8531 36.4299 63.9621 36.469 77.4339C36.4918 85.2385 39.8646 89.8982 45.4912 89.8982C48.0851 89.8982 51.1046 88.9674 54.2244 87.207C66.2499 80.4224 76.3762 63.3053 76.3364 49.8295C76.3143 42.033 72.9408 37.3784 67.3134 37.3784Z" fill="#1F3154"/>
<path d="M56.3048 33.2902C63.8254 29.0491 70.639 28.6623 75.5588 31.4528L68.8694 27.6438C63.9641 24.8532 57.1502 25.2538 49.6299 29.4948C44.8202 32.2054 40.3176 36.1724 36.4128 40.8513L43.0881 44.6525C46.9928 39.9736 51.4954 36.0051 56.3048 33.2902Z" fill="white"/>
<path d="M75.5572 31.4549C70.6416 28.6611 63.8287 29.0493 56.3015 33.2894C51.4934 36.0071 46.9925 39.9731 43.0907 44.6547L36.4161 40.8485C38.7586 38.0472 41.3164 35.497 44.0277 33.3199C44.957 34.0354 46.1553 34.4693 47.461 34.4693C50.4027 34.4693 52.7914 32.2694 52.7914 29.5518C52.7914 29.0265 52.6993 28.5165 52.5303 28.0369C58.8977 25.2051 64.6044 25.2203 68.8673 27.6411L75.5572 31.4549Z" fill="#F0F5F7"/>
<path d="M43.0883 45.03C43.0241 45.03 42.96 45.0137 42.9017 44.9806L36.2263 41.1797C36.1289 41.1244 36.0611 41.0288 36.0412 40.9186C36.0212 40.8087 36.0515 40.6955 36.123 40.6096C40.1802 35.7477 44.7868 31.7909 49.4451 29.166C56.8477 24.9897 63.813 24.3325 69.0561 27.3155L75.7456 31.1245C75.927 31.2277 75.9904 31.4582 75.8872 31.6393C75.7839 31.8204 75.5538 31.8823 75.3724 31.7813C70.3498 28.9325 63.6434 29.5849 56.4908 33.6192C51.9099 36.2046 47.3763 40.1036 43.3781 44.8943C43.3044 44.9828 43.1974 45.03 43.0883 45.03ZM36.9933 40.7475L43.0013 44.1685C47.0076 39.4188 51.5382 35.5475 56.1191 32.9613C61.6535 29.8404 66.9505 28.6917 71.4738 29.5609L68.6829 27.9719C63.6802 25.1258 56.9797 25.7836 49.8161 29.8239C45.3466 32.3418 40.9207 36.1139 36.9933 40.7475Z" fill="#1F3154"/>
<path d="M36.4129 40.8513C28.1985 50.6948 22.6616 63.7245 22.6999 75.0827C22.7141 83.4129 25.725 89.2703 30.574 92.0332L37.263 95.8285C32.4002 93.0794 29.4031 87.2082 29.3748 78.8781C29.3365 67.5198 34.8734 54.4963 43.0881 44.6524L36.4129 40.8513Z" fill="#1F3154"/>
<path d="M37.2633 96.206C37.1999 96.206 37.1364 96.1901 37.0774 96.1569C37.0656 96.1503 37.0531 96.1433 37.0413 96.1367L30.3873 92.3616C25.2002 89.4059 22.3363 83.27 22.3223 75.0834C22.2855 64.0643 27.5736 50.8546 36.1231 40.6096C36.2403 40.4687 36.4439 40.4344 36.5995 40.5233L43.2749 44.3242C43.3723 44.3795 43.4401 44.475 43.4601 44.5852C43.48 44.6951 43.4497 44.8083 43.3782 44.8943C34.9371 55.0099 29.7154 68.0311 29.7523 78.8769C29.7795 86.7884 32.501 92.6832 37.4167 95.481L37.4469 95.4987C37.4477 95.4987 37.4484 95.4994 37.4492 95.4998C37.6299 95.6027 37.6948 95.8332 37.5922 96.0146C37.5222 96.137 37.3946 96.206 37.2633 96.206ZM36.5014 41.3364C28.1791 51.4159 23.0414 64.3183 23.0776 75.0815C23.0908 82.9861 25.8197 88.8896 30.7605 91.7048L33.5572 93.2916C30.6107 89.9458 29.0184 84.987 28.997 78.8795C28.9601 67.9883 34.1303 54.9539 42.5109 44.7578L36.5014 41.3364Z" fill="#1F3154"/>
<path d="M61.3629 60.236C64.2033 60.6358 64.3 63.5676 63.8796 65.973C63.7006 66.9648 63.3108 68.0326 62.7049 69.1345C62.0452 70.3622 61.3601 71.2633 60.6056 71.9244C60.0568 72.4062 58.4047 73.5082 58.1449 73.7072C58.1451 73.8044 58.1504 75.6507 58.1412 75.8238C58.1088 76.5248 57.659 77.28 57.1 77.5999C56.5164 77.9227 56.054 77.6614 56.0373 77.0053C56.0264 76.6256 56.0217 75.0074 56.0215 74.9222L54.8397 75.5985C54.8399 75.6727 54.8439 77.084 54.8451 77.5085C54.8474 78.3127 54.4126 79.1376 53.785 79.4968C53.1622 79.8532 52.7142 79.5445 52.6973 78.7375L52.6918 76.8275C52.5504 76.9084 49.8622 78.4466 49.6807 78.5113C49.1409 78.7027 48.7666 78.3799 48.8139 77.7263C48.8415 77.0784 49.2914 76.3623 49.8651 76.006L50.7968 75.4729L50.747 58.0484L49.8839 58.5422C49.2168 58.9015 48.7594 58.671 48.7427 57.9925C48.7407 57.3 49.21 56.5168 49.8672 56.1408C50.5046 55.7649 51.1225 55.4113 51.7993 55.024L52.6281 54.5498C52.6276 54.3543 52.6237 52.9972 52.6369 52.5197C52.6453 52.0115 52.8599 51.4635 53.1928 51.0605C53.3444 50.8702 53.5135 50.7218 53.6852 50.6235C53.8568 50.5253 54.031 50.4774 54.1932 50.4881C54.5763 50.5094 54.7687 50.7741 54.7701 51.2712L54.776 53.3208L55.948 52.6501C55.9659 52.0469 55.9525 50.8127 55.9618 50.6172C55.9597 49.8856 56.4191 49.0578 57.0076 48.721C57.6107 48.3759 58.0536 48.6595 58.0753 49.3911C58.0762 49.6982 58.0949 51.3349 58.0959 51.4211C60.4901 50.437 62.0241 50.969 62.6587 52.9777C63.3278 55.1065 62.8975 57.5343 61.3629 60.236ZM59.9174 70.0246C61.2302 68.7364 61.9227 67.0424 61.9075 65.1548C61.8772 63.1303 60.5684 62.38 58.7835 63.4014C58.4774 63.5743 58.0612 63.8115 57.591 64.0806C55.7104 65.1567 53.1046 66.6614 52.9674 66.7406L52.9888 74.2074C53.2166 74.0771 57.5446 71.6006 59.1186 70.6887C59.3884 70.5343 59.6577 70.2739 59.9174 70.0246ZM52.9539 56.8247L52.9603 64.2609L52.9947 64.2413L53.0977 64.2047C53.3017 64.088 57.1778 61.8701 58.0114 61.3707C58.6734 60.9751 59.3001 60.2976 59.8721 59.3438C60.5468 58.2137 60.8236 57.1156 60.7853 55.7558C60.7359 53.9492 59.5744 53.165 58.0785 53.9203C57.2692 54.3331 55.4547 55.3713 54.2141 56.0812C53.6256 56.418 53.1646 56.6817 53.0077 56.766L52.9539 56.8247Z" fill="#1F3154"/>
<path d="M88.7906 70.4234C88.5818 70.3051 88.2963 70.319 87.9551 70.5139L80.5412 74.7875L77.2278 72.8664L84.6416 68.5859C84.9829 68.391 85.2752 68.3771 85.4839 68.5024L88.7906 70.4234Z" fill="white"/>
<path d="M80.5412 75.165C80.4756 75.165 80.4107 75.148 80.3517 75.1141L77.0379 73.1932C76.9214 73.1257 76.8499 73.001 76.8499 72.8661C76.8499 72.7315 76.9221 72.6068 77.0387 72.5393L84.4531 68.2587C85.0593 67.9128 85.4805 68.0607 85.6789 68.1787L88.9801 70.097C89.16 70.2014 89.2212 70.4311 89.118 70.6114C89.014 70.7918 88.7846 70.8537 88.6039 70.7519C88.5088 70.6966 88.3384 70.7291 88.1422 70.8419L80.73 75.1145C80.6717 75.148 80.6061 75.165 80.5412 75.165ZM77.9812 72.8672L80.5419 74.3511L87.6982 70.2257L85.2946 68.8288C85.1965 68.7698 85.0247 68.8019 84.8292 68.9136L77.9812 72.8672Z" fill="#1F3154"/>
<path d="M75.5153 100.791L72.2015 98.8699C72.1458 98.8351 72.0904 98.7863 72.0414 98.7307L60.3257 84.7128L63.6391 86.6408L75.3552 100.659C75.4038 100.714 75.4596 100.756 75.5153 100.791Z" fill="#1F3154"/>
<path d="M75.5156 101.169C75.4507 101.169 75.3858 101.152 75.3261 101.118L72.0116 99.1965C71.9165 99.1371 71.8331 99.0648 71.7586 98.9815L60.0355 84.955C59.9183 84.8142 59.9183 84.6095 60.037 84.4694C60.155 84.3285 60.3571 84.2938 60.5149 84.3864L63.8287 86.3143C63.867 86.3365 63.9009 86.3648 63.929 86.3984L75.6447 100.416C75.6558 100.429 75.6801 100.449 75.7155 100.471C75.8903 100.58 75.9456 100.809 75.8394 100.986C75.7686 101.103 75.6432 101.169 75.5156 101.169ZM61.9937 86.1203L72.331 98.4884C72.3612 98.5224 72.3907 98.543 72.4018 98.5496L73.7566 99.3351L63.392 86.9339L61.9937 86.1203Z" fill="#1F3154"/>
<path d="M64.6217 83.9816L61.3085 82.0565L68.7147 77.7812L72.0279 79.7064L64.6217 83.9816Z" fill="white"/>
<path d="M64.6215 84.3595C64.5559 84.3595 64.4903 84.3425 64.432 84.3082L61.119 82.3829C61.0025 82.3154 60.9309 82.1907 60.9309 82.0558C60.9309 81.9212 61.0032 81.7969 61.1197 81.7294L68.526 77.4543C68.6433 77.3872 68.7886 77.3872 68.9044 77.455L72.2174 79.38C72.3339 79.4475 72.4055 79.5721 72.4055 79.7067C72.4055 79.8417 72.3332 79.966 72.2167 80.0335L64.8103 84.3089C64.7521 84.3425 64.6864 84.3595 64.6215 84.3595ZM62.0623 82.0576L64.6223 83.5456L71.2741 79.7053L68.7141 78.2176L62.0623 82.0576Z" fill="#1F3154"/>
<path d="M63.6372 86.6396L60.3239 84.7145C59.8113 84.1124 60.3705 82.598 61.3085 82.0565L64.6217 83.9816C63.6838 84.5231 63.1245 86.0375 63.6372 86.6396Z" fill="white"/>
<path d="M63.6369 87.0172C63.572 87.0172 63.5063 87.0006 63.4473 86.9659L60.1343 85.041C60.0975 85.0196 60.0643 84.9919 60.0362 84.9595C59.7869 84.6659 59.697 84.2264 59.7847 83.7211C59.9249 82.9099 60.4611 82.1093 61.1197 81.7294C61.2377 81.6623 61.383 81.6623 61.498 81.7302L64.811 83.6555C64.9276 83.723 64.9991 83.8476 64.9991 83.9822C64.9991 84.1172 64.9268 84.2415 64.8103 84.309C64.3501 84.5748 63.9429 85.1918 63.8419 85.7759C63.794 86.0514 63.8242 86.2771 63.9245 86.3947C64.044 86.5348 64.0447 86.7406 63.9267 86.8818C63.853 86.9704 63.7453 87.0172 63.6369 87.0172ZM60.5813 84.4273L63.0697 85.8733C63.0749 85.7999 63.0845 85.7243 63.0977 85.6472C63.201 85.0461 63.5226 84.4509 63.9496 84.0283L61.3232 82.502C60.9375 82.8066 60.6167 83.3406 60.5289 83.8498C60.4861 84.0958 60.5053 84.302 60.5813 84.4273Z" fill="#1F3154"/>
<path d="M72.0279 79.7063L68.7146 77.7812L68.6592 58.2208L71.9724 60.1459L72.0279 79.7063Z" fill="#1F3154"/>
<path d="M72.0278 80.0839C71.9622 80.0839 71.8965 80.067 71.8383 80.0327L68.5252 78.1077C68.4095 78.0406 68.3379 77.9167 68.3372 77.7825L68.2819 58.222C68.2811 58.0866 68.3534 57.9616 68.4707 57.8937C68.5887 57.8266 68.734 57.8266 68.849 57.8945L72.162 59.8195C72.2778 59.8866 72.3494 60.0105 72.3501 60.1447L72.4054 79.7052C72.4062 79.8405 72.3339 79.9656 72.2166 80.0334C72.1583 80.067 72.0927 80.0839 72.0278 80.0839ZM69.0917 77.5638L71.648 79.0492L71.5956 60.3634L69.0393 58.878L69.0917 77.5638Z" fill="#1F3154"/>
<path d="M80.1445 54.4636C79.9287 54.3452 79.6364 54.3592 79.309 54.5471L73.1553 58.0968L69.8418 56.1758L75.9956 52.626C76.3226 52.4312 76.6152 52.4172 76.8311 52.5425L80.1445 54.4636Z" fill="#1F3154"/>
<path d="M73.1555 58.4746C73.0898 58.4746 73.0249 58.4576 72.9659 58.4237L69.6522 56.5024C69.5357 56.4349 69.4641 56.3099 69.4641 56.1753C69.4641 56.0403 69.5364 55.9161 69.6529 55.8486L75.8069 52.2988C76.2369 52.0425 76.6698 52.0123 77.0209 52.2158L80.3339 54.1368C80.5124 54.2407 80.5751 54.469 80.4733 54.649C80.3715 54.8304 80.1444 54.8942 79.9622 54.7943C79.8575 54.7367 79.6878 54.7659 79.4968 54.8747L73.3443 58.424C73.286 58.4576 73.2204 58.4746 73.1555 58.4746ZM70.5962 56.1764L73.1562 57.6607L79.0454 54.2629L76.6418 52.8693C76.5393 52.8099 76.3748 52.8398 76.189 52.9504L70.5962 56.1764Z" fill="#1F3154"/>
<path d="M79.3069 54.5478C79.9599 54.1709 80.4868 54.4798 80.4889 55.2298L80.5444 74.7902L87.9579 70.5107C88.8881 69.9737 89.4618 70.8341 88.9543 72.0251L77.3377 99.5149C77.106 100.063 76.7276 100.489 76.349 100.707C75.97 100.926 75.5904 100.938 75.3568 100.658L63.6372 86.6396C63.1245 86.0375 63.6838 84.523 64.6217 83.9816L72.028 79.7063L71.9725 60.1459C71.9704 59.3959 72.5011 58.4765 73.1541 58.0996L79.3069 54.5478Z" fill="#E0FEF2"/>
<path d="M88.9526 72.023L77.335 99.5175C77.1051 100.062 76.7291 100.491 76.3457 100.706C75.9701 100.928 75.5867 100.936 75.3565 100.66L63.6392 86.6366C63.2251 86.1536 63.5089 85.0725 64.1297 84.3902C65.6099 85.6859 67.4888 86.4603 69.5209 86.4603C74.3136 86.4603 78.1939 82.1667 78.1939 76.8763C78.1939 72.5367 75.5867 68.8718 71.9978 67.691L71.9749 60.1465C71.9671 59.3952 72.504 58.4751 73.1559 58.0994L79.3056 54.5495C79.9575 54.1738 80.4866 54.4805 80.4866 55.2319L80.548 74.7908L87.9558 70.5126C88.8912 69.9759 89.4588 70.8346 88.9526 72.023Z" fill="#1BF3A4"/>
<path d="M75.815 101.248C75.5215 101.248 75.2589 101.131 75.0671 100.9L63.347 86.8818C63.0999 86.5912 63.0107 86.152 63.0977 85.6471C63.2378 84.8358 63.774 84.0349 64.4326 83.6547L71.6494 79.4887L71.5948 60.1469C71.5919 59.2607 72.1945 58.2175 72.9652 57.7724L79.1177 54.2208C79.5477 53.9719 79.9887 53.9416 80.3287 54.1382C80.6687 54.334 80.8649 54.7315 80.8664 55.2286L80.9195 74.1372L87.7689 70.1836C88.2756 69.8919 88.7868 69.9015 89.1363 70.2105C89.5781 70.6018 89.643 71.3722 89.3015 72.1731L77.6854 99.6621C77.4332 100.259 77.015 100.759 76.5378 101.034C76.2907 101.177 76.0436 101.248 75.815 101.248ZM79.4953 54.875L73.3428 58.4266C72.8029 58.7382 72.3486 59.5251 72.3501 60.1447L72.4054 79.7052C72.4061 79.8405 72.3338 79.9655 72.2166 80.0334L64.8102 84.3089C64.35 84.5748 63.9429 85.1917 63.8419 85.7758C63.7939 86.0513 63.8242 86.277 63.9245 86.3946L75.6468 100.416C75.7766 100.574 76.0488 100.444 76.1602 100.38C76.4928 100.188 76.8026 99.81 76.9892 99.3678L88.6061 71.8781C88.8627 71.277 88.7639 70.8898 88.6355 70.7759C88.4969 70.6553 88.2483 70.7788 88.1466 70.8378L80.7329 75.1174C80.6164 75.1845 80.4725 75.1848 80.356 75.1177C80.2387 75.0502 80.1672 74.926 80.1665 74.7914L80.1111 55.2309C80.1104 55.0133 80.0507 54.8495 79.9518 54.7927C79.8523 54.7352 79.6811 54.7669 79.4953 54.875Z" fill="#1F3154"/>
<path d="M71.9724 60.1459L68.6592 58.2208C68.6571 57.4708 69.1878 56.5514 69.8408 56.1744L73.154 58.0996C72.501 58.4765 71.9703 59.3959 71.9724 60.1459Z" fill="white"/>
<path d="M71.9725 60.5235C71.9069 60.5235 71.8412 60.5065 71.783 60.4722L68.4699 58.5472C68.3542 58.4801 68.2826 58.3562 68.2819 58.222C68.2789 57.3351 68.8815 56.2922 69.6522 55.8475C69.7702 55.7804 69.9155 55.7804 70.0306 55.8482L73.3436 57.7732C73.4601 57.8407 73.5316 57.9653 73.5316 58.0999C73.5316 58.2349 73.4594 58.3592 73.3428 58.4267C72.803 58.7382 72.3486 59.5252 72.3501 60.1447C72.3508 60.2801 72.2786 60.4051 72.1613 60.4729C72.103 60.5065 72.0374 60.5235 71.9725 60.5235ZM69.0526 58.0125L71.6789 59.5385C71.8154 59.0277 72.1082 58.5207 72.4836 58.1468L69.8558 56.6201C69.4523 56.9387 69.1249 57.5051 69.0526 58.0125Z" fill="#1F3154"/>
<path d="M64.5687 13.2455C64.4137 13.2449 64.2878 13.1195 64.2883 12.9645L64.3141 1.87448C64.3146 1.71948 64.44 1.5946 64.5945 1.5946C64.7495 1.59515 64.8754 1.72058 64.8749 1.87557L64.8491 12.9656C64.8486 13.1206 64.7232 13.2455 64.5687 13.2455Z" fill="#1F3154"/>
<path d="M75.68 13.7874C74.0426 12.8312 71.7725 12.9666 69.2744 14.4136L38.7641 32.0828L34.0042 29.307L64.5147 11.638C67.0127 10.1909 69.2829 10.0555 70.9201 11.0118L75.68 13.7874Z" fill="white"/>
<path d="M38.7642 32.3634C38.7155 32.3634 38.6667 32.3508 38.6229 32.3251L33.863 29.5489C33.7765 29.4985 33.7239 29.4065 33.7239 29.3063C33.7239 29.2066 33.7776 29.114 33.8635 29.0642L64.3738 11.3954C66.8866 9.94023 69.2619 9.71842 71.0616 10.77L75.8138 13.5412C75.8166 13.5423 75.8193 13.544 75.8215 13.5456C75.9551 13.6239 76.0006 13.7954 75.9223 13.929C75.8439 14.0626 75.6714 14.1086 75.5389 14.0298L75.5301 14.0248C73.9117 13.0839 71.7407 13.309 69.4152 14.6563L38.905 32.3256C38.8611 32.3508 38.8129 32.3634 38.7642 32.3634ZM34.5624 29.3079L38.7648 31.7588L69.1337 14.1711C70.7122 13.2564 72.2336 12.8276 73.599 12.8988L70.779 11.2541C69.1606 10.3088 66.9841 10.5312 64.6553 11.8807L34.5624 29.3079Z" fill="#1F3154"/>
<path d="M32.4116 53.4568L27.6531 50.684C26.0369 49.7422 25.035 47.7394 25.0269 44.8926C25.0107 39.1622 29.028 32.185 34.0015 29.3058L38.7599 32.0786C33.7865 34.9579 29.7692 41.9351 29.7854 47.6655C29.7934 50.5122 30.7954 52.515 32.4116 53.4568Z" fill="#1F3154"/>
<path d="M32.4116 53.7373C32.3634 53.7373 32.3146 53.7252 32.2703 53.6989C32.2686 53.6984 32.2675 53.6973 32.2659 53.6962L27.512 50.926C25.7364 49.8914 24.7544 47.7489 24.7468 44.8933C24.7303 39.0835 28.8188 31.9822 33.8607 29.0631C33.9484 29.0127 34.0552 29.0121 34.1428 29.0636L38.9011 31.8365C38.9871 31.8864 39.0402 31.9789 39.0402 32.0792C39.0402 32.1788 38.9865 32.2714 38.9005 32.3212C34.013 35.1506 30.05 42.0338 30.0658 47.6651C30.0735 50.3121 30.9558 52.2821 32.5501 53.2131L32.5529 53.2148C32.6865 53.2925 32.732 53.4645 32.6536 53.5981C32.6016 53.6874 32.508 53.7373 32.4116 53.7373ZM34.002 29.6305C29.1792 32.5091 25.2917 39.3146 25.3076 44.8922C25.3147 47.5402 26.1981 49.5113 27.7946 50.4418L30.6157 52.0854C29.895 50.955 29.5099 49.4494 29.505 47.6662C29.4886 42.0141 33.358 35.1396 38.2104 32.083L34.002 29.6305Z" fill="#1F3154"/>
<path d="M69.2723 14.4144C74.2457 11.5352 78.2892 13.8458 78.3054 19.5762C78.3216 25.3066 74.3043 32.2838 69.331 35.1629L38.8187 52.8272C33.8452 55.7064 29.8016 53.3958 29.7854 47.6655C29.7692 41.9351 33.7865 34.9579 38.76 32.0786L69.2723 14.4144Z" fill="#E0FEF2"/>
<path d="M78.3045 19.5744C78.3214 25.3061 74.3059 32.2828 69.3313 35.1654L38.8168 52.8258C33.8478 55.7085 29.8043 53.3979 29.7876 47.6662C29.7763 44.5424 30.9652 41.0485 32.8664 38.048C34.8292 40.1063 37.5774 41.3794 40.6114 41.3794C46.5899 41.3794 51.4354 36.4385 51.4354 30.3367C51.4354 28.5645 51.026 26.8876 50.2969 25.4014L69.2697 14.4148C74.2443 11.5378 78.2878 13.8484 78.3045 19.5744Z" fill="white"/>
<path d="M34.7776 54.3501C33.8734 54.3501 33.0354 54.1387 32.2944 53.7126C30.504 52.6841 29.5133 50.5366 29.5051 47.6662C29.4886 41.8564 33.5771 34.7551 38.619 31.836L69.1315 14.1716C71.6317 12.7252 73.9999 12.4951 75.7968 13.5286C77.5872 14.5577 78.5774 16.7052 78.5856 19.5756C78.602 25.3854 74.5136 32.4866 69.4716 35.4058L38.9592 53.0696C37.4897 53.9202 36.0663 54.3501 34.7776 54.3501ZM69.413 14.6568L38.9005 32.3212C34.013 35.1506 30.05 42.0338 30.0659 47.6651C30.0735 50.3263 30.9641 52.3018 32.5737 53.2268C34.1905 54.154 36.3582 53.9279 38.6776 52.5844L69.1901 34.9205C74.0776 32.0912 78.0407 25.2079 78.0248 19.5767C78.0177 16.9155 77.1271 14.94 75.5175 14.015C73.9013 13.0866 71.7325 13.3139 69.413 14.6568Z" fill="#1F3154"/>
<path d="M69.2867 18.5526C72.2717 16.8245 74.7044 18.2146 74.7141 21.6541C74.7238 25.0935 72.307 29.2973 69.3219 31.0254L38.8096 48.6896C35.8244 50.4178 33.3863 49.0247 33.3766 45.5852C33.3669 42.1457 35.7892 37.9451 38.7743 36.2169L69.2867 18.5526Z" fill="#E0FEF2"/>
<path d="M74.7152 21.6551C74.7265 25.093 72.3093 29.2992 69.32 31.0265L38.8111 48.687C35.8219 50.4199 33.388 49.0234 33.3767 45.5856C33.3711 43.3535 34.3919 40.7961 35.9229 38.8052C37.6782 39.6913 39.7364 40.2016 41.9462 40.2016C48.3115 40.2016 53.4712 35.9562 53.4712 30.7237C53.4712 29.7703 53.3029 28.8561 52.9832 27.9868L69.2865 18.5537C72.2701 16.8264 74.704 18.2172 74.7152 21.6551Z" fill="#1BF3A4"/>
<path d="M36.3856 49.715C35.8215 49.715 35.2974 49.5825 34.8324 49.3152C33.7178 48.6744 33.1012 47.3501 33.0962 45.5855C33.0864 42.059 35.5707 37.7476 38.6344 35.9742L69.1458 18.3098C70.6826 17.4209 72.1443 17.2846 73.2616 17.9253C74.374 18.565 74.9895 19.8888 74.9945 21.6534C75.0043 25.1832 72.5228 29.4962 69.4629 31.268L38.9504 48.9324C38.0522 49.4521 37.1792 49.715 36.3856 49.715ZM69.4273 18.7951L38.9154 36.4595C36.0061 38.143 33.6472 42.2364 33.657 45.5844C33.6614 47.1398 34.1779 48.2921 35.1117 48.8289C36.0493 49.3672 37.3134 49.2314 38.6689 48.4471L69.1814 30.7827C72.0874 29.1008 74.4435 25.0058 74.4336 21.6545C74.4293 20.0991 73.9133 18.9473 72.9817 18.4117C72.0457 17.8739 70.7839 18.0108 69.4273 18.7951Z" fill="#1F3154"/>
<path d="M38.9183 40.0013C39.0305 39.9365 39.1274 39.9272 39.2118 39.9682C39.2963 40.0092 39.3371 40.0968 39.3375 40.2259C39.3376 40.2689 39.2644 40.8783 39.1209 42.0558C39.8643 40.9268 40.2531 40.3433 40.2904 40.3003C40.3371 40.2338 40.4026 40.1745 40.4867 40.1259C40.6333 40.0413 40.7551 40.0499 40.8492 40.1571C40.8868 40.2215 40.9058 40.2895 40.906 40.3648C40.9065 40.5475 40.8414 40.7216 40.7107 40.8939L39.3153 42.3277L40.7142 42.1482C40.8454 42.1586 40.9114 42.2533 40.9119 42.436C40.9121 42.5113 40.8935 42.601 40.8564 42.7086C40.7633 42.9239 40.6388 43.0747 40.4798 43.1665C40.4142 43.2044 40.355 43.2242 40.2987 43.2244C40.2612 43.2245 39.8704 43.0912 39.1231 42.8263C39.2727 43.8311 39.3492 44.3541 39.3493 44.3971C39.3497 44.5261 39.3095 44.6606 39.2255 44.7988C39.1416 44.9406 39.045 45.0394 38.9327 45.1042C38.8205 45.169 38.7237 45.1818 38.6392 45.1373C38.5548 45.0963 38.5139 45.0086 38.5135 44.8796C38.5134 44.8366 38.5866 44.2272 38.7302 43.0532C37.9868 44.1787 37.598 44.7621 37.5606 44.8052C37.5045 44.8699 37.4454 44.9184 37.3799 44.9562C37.2208 45.0481 37.0958 45.0413 37.0018 44.934C36.9642 44.8804 36.9453 44.8052 36.945 44.7084C36.9445 44.5256 37.0096 44.3624 37.1403 44.2115L38.5357 42.7778L37.1368 42.9573C37.0056 42.9469 36.9397 42.8521 36.9392 42.6694C36.9389 42.5762 36.9574 42.4794 36.9946 42.3826C37.0877 42.1673 37.206 42.02 37.3556 41.9336C37.4212 41.8958 37.4867 41.8795 37.5523 41.8811C37.5898 41.881 37.9806 42.0143 38.728 42.2827C38.5783 41.2744 38.5018 40.7514 38.5017 40.7084C38.5013 40.5794 38.5416 40.4449 38.6255 40.3067C38.7094 40.1685 38.806 40.0661 38.9183 40.0013Z" fill="#1F3154"/>
<path d="M44.7438 36.6379C44.8561 36.5731 44.9529 36.5638 45.0374 36.6048C45.1219 36.6457 45.1627 36.7334 45.1631 36.8624C45.1632 36.9054 45.0899 37.5149 44.9434 38.6943C45.6867 37.5652 46.0786 36.9799 46.116 36.9368C46.1626 36.8704 46.2281 36.8111 46.3092 36.7643C46.4588 36.6779 46.5807 36.6865 46.6747 36.7937C46.7124 36.8581 46.7314 36.9261 46.7316 37.0014C46.7321 37.1841 46.6669 37.3582 46.5363 37.5305L45.1409 38.9643L46.5398 38.7848C46.671 38.7952 46.7369 38.8899 46.7375 39.0726C46.7377 39.1479 46.7191 39.2376 46.682 39.3452C46.5889 39.5605 46.4644 39.7113 46.3053 39.8032C46.2398 39.841 46.1805 39.8608 46.1243 39.861C46.0868 39.8611 45.6928 39.7296 44.9456 39.4647C45.0983 40.4677 45.1748 40.9907 45.1749 41.0337C45.1753 41.1627 45.1351 41.2971 45.0511 41.4354C44.9671 41.5772 44.8706 41.676 44.7583 41.7408C44.6461 41.8056 44.5492 41.8184 44.4648 41.7739C44.3804 41.7329 44.3363 41.647 44.336 41.518C44.3358 41.475 44.4091 40.8656 44.5557 39.6898C43.8123 40.8153 43.4235 41.3987 43.3862 41.4418C43.3301 41.5065 43.2678 41.5568 43.2055 41.5928C43.0464 41.6847 42.9183 41.6797 42.8274 41.5706C42.7898 41.517 42.7708 41.4418 42.7706 41.345C42.77 41.1622 42.8352 40.999 42.9628 40.85L44.3581 39.4162L42.9592 39.5957C42.8312 39.5835 42.7653 39.4887 42.7648 39.306C42.7645 39.2128 42.783 39.116 42.8201 39.0192C42.9101 38.8057 43.0315 38.6566 43.1812 38.5702C43.2467 38.5324 43.3123 38.5161 43.3779 38.5177C43.4153 38.5176 43.8062 38.6509 44.5536 38.9193C44.4007 37.9128 44.3242 37.3898 44.3241 37.3468C44.3238 37.2178 44.3672 37.0815 44.4511 36.9433C44.535 36.8051 44.6316 36.7027 44.7438 36.6379Z" fill="#1F3154"/>
<path d="M50.5694 33.2744C50.6785 33.2114 50.7785 33.2004 50.8629 33.2414C50.9474 33.2823 50.9882 33.37 50.9886 33.499C50.9887 33.542 50.9155 34.1514 50.7689 35.3308C51.5122 34.2017 51.9042 33.6165 51.9415 33.5734C51.985 33.5088 52.0505 33.4494 52.1347 33.4008C52.2844 33.3144 52.4062 33.323 52.5003 33.4303C52.5379 33.4947 52.5569 33.5627 52.5571 33.6379C52.5576 33.8207 52.4925 33.9947 52.3618 34.1671L50.9664 35.6008L52.3653 35.4213C52.4965 35.4317 52.5625 35.5265 52.563 35.7092C52.5632 35.7845 52.5446 35.8742 52.5075 35.9817C52.4144 36.197 52.2868 36.3497 52.1308 36.4397C52.0653 36.4775 52.0029 36.4992 51.9498 36.4976C51.9123 36.4976 51.5184 36.3662 50.7711 36.1013C50.9238 37.1043 51.0003 37.6272 51.0004 37.6702C51.0008 37.7992 50.9606 37.9337 50.8766 38.072C50.7927 38.2137 50.693 38.3144 50.5838 38.3774C50.4716 38.4422 50.3716 38.4568 50.2872 38.4122C50.2058 38.3695 50.1618 38.2836 50.1615 38.1546C50.1613 38.1116 50.2346 37.5022 50.3813 36.3263C49.6378 37.4519 49.2459 38.0371 49.2117 38.0784C49.1556 38.1431 49.0933 38.1934 49.0278 38.2312C48.8719 38.3212 48.7438 38.3162 48.6498 38.209C48.6122 38.1553 48.5932 38.0801 48.5929 37.9834C48.5924 37.8006 48.6575 37.6374 48.7883 37.4865L50.1836 36.0528L48.7847 36.2323C48.6535 36.2219 48.5877 36.1271 48.5872 35.9444C48.5869 35.8512 48.6054 35.7544 48.6425 35.6575C48.7356 35.4423 48.8571 35.2932 49.0067 35.2068C49.0722 35.169 49.1378 35.1526 49.2034 35.1543C49.2377 35.156 49.6317 35.2874 50.3791 35.5559C50.2262 34.5494 50.1498 34.0264 50.1496 33.9834C50.1493 33.8544 50.1926 33.7181 50.2735 33.5817C50.3574 33.4435 50.4571 33.3393 50.5694 33.2744Z" fill="#1F3154"/>
<path d="M56.3918 29.9129C56.504 29.8481 56.6009 29.8388 56.6853 29.8798C56.7698 29.9208 56.8138 30.0067 56.8142 30.1357C56.8143 30.1787 56.741 30.7881 56.5945 31.9675C57.3378 30.8384 57.7266 30.255 57.7639 30.2119C57.8106 30.1454 57.8761 30.0861 57.9603 30.0375C58.1099 29.9511 58.2318 29.9597 58.3227 30.0687C58.3603 30.1332 58.3793 30.2012 58.3795 30.2764C58.3801 30.4592 58.3149 30.6332 58.1873 30.8037L56.792 32.2375L58.1909 32.058C58.319 32.0702 58.3849 32.1649 58.3854 32.3477C58.3856 32.4229 58.3671 32.5126 58.3299 32.6202C58.2399 32.8337 58.1123 32.9863 57.9533 33.0781C57.8909 33.1142 57.8285 33.1358 57.7722 33.136C57.7348 33.1361 57.3439 33.0028 56.5966 32.7379C56.7494 33.7409 56.8259 34.2639 56.826 34.3069C56.8263 34.4359 56.783 34.5722 56.699 34.7104C56.6151 34.8522 56.5185 34.951 56.4063 35.0158C56.294 35.0806 56.1972 35.0935 56.1127 35.0489C56.0283 35.0079 55.9874 34.9203 55.987 34.7912C55.9869 34.7482 56.0602 34.1388 56.2068 32.963C55.4634 34.0885 55.0715 34.6738 55.0341 34.7169C54.978 34.7815 54.9189 34.8301 54.8534 34.8679C54.6943 34.9597 54.5693 34.9529 54.4753 34.8457C54.4377 34.792 54.4188 34.7168 54.4185 34.62C54.418 34.4373 54.4831 34.274 54.6138 34.1232L56.0092 32.6894L54.6103 32.8689C54.4791 32.8585 54.4132 32.7638 54.4127 32.581C54.4125 32.4878 54.4309 32.391 54.4681 32.2942C54.5612 32.0789 54.6826 31.9298 54.8323 31.8434C54.8947 31.8074 54.9602 31.7911 55.0258 31.7927C55.0633 31.7926 55.4573 31.9241 56.2046 32.1925C56.0518 31.186 55.9753 30.663 55.9752 30.62C55.9748 30.491 56.0151 30.3565 56.099 30.2183C56.183 30.0801 56.2795 29.9777 56.3918 29.9129Z" fill="#1F3154"/>
<path d="M62.2174 26.5495C62.3296 26.4847 62.4264 26.4754 62.5109 26.5164C62.5954 26.5574 62.6394 26.6433 62.6397 26.7723C62.6398 26.8153 62.5666 27.4247 62.4199 28.6041C63.1633 27.475 63.5522 26.8916 63.5895 26.8485C63.6362 26.782 63.7016 26.7227 63.7858 26.6741C63.9355 26.5877 64.0542 26.5981 64.1483 26.7053C64.1859 26.7698 64.2049 26.8378 64.2051 26.913C64.2056 27.0958 64.1404 27.2698 64.0098 27.4422L62.6176 28.8741L64.0133 28.6964C64.1445 28.7068 64.2105 28.8015 64.211 28.9843C64.2112 29.0595 64.1926 29.1492 64.1555 29.2568C64.0624 29.4721 63.9379 29.6229 63.7788 29.7148C63.7133 29.7526 63.654 29.7724 63.5978 29.7726C63.5603 29.7727 63.1695 29.6394 62.4221 29.3746C62.5749 30.3775 62.6514 30.9005 62.6515 30.9435C62.6519 31.0725 62.6086 31.2088 62.5246 31.347C62.4407 31.4888 62.3441 31.5876 62.2318 31.6524C62.1196 31.7172 62.0227 31.7301 61.9383 31.6855C61.8539 31.6445 61.813 31.5569 61.8126 31.4278C61.8125 31.3848 61.8857 30.7754 62.0292 29.6014C61.2858 30.7269 60.897 31.3104 60.8597 31.3534C60.8036 31.4181 60.7444 31.4667 60.679 31.5045C60.5199 31.5963 60.3949 31.5895 60.3009 31.4823C60.2633 31.4286 60.2443 31.3534 60.2441 31.2566C60.2435 31.0739 60.3087 30.9106 60.4394 30.7598L61.8348 29.326L60.4359 29.5055C60.3047 29.4951 60.2388 29.4004 60.2383 29.2176C60.238 29.1244 60.2565 29.0276 60.2937 28.9308C60.3868 28.7155 60.5082 28.5664 60.6547 28.4818C60.7202 28.444 60.7858 28.4277 60.8514 28.4293C60.8889 28.4292 61.2797 28.5625 62.0271 28.8309C61.8774 27.8226 61.8009 27.2996 61.8008 27.2566C61.8004 27.1276 61.8407 26.9931 61.9246 26.8549C62.0085 26.7167 62.1051 26.6143 62.2174 26.5495Z" fill="#1F3154"/>
<path d="M68.9784 23.5303C69.7375 23.0923 70.355 23.444 70.3575 24.3161C70.36 25.1878 69.7465 26.2498 68.9874 26.6878C68.228 27.126 67.6105 26.7743 67.608 25.9026C67.6056 25.0305 68.219 23.9685 68.9784 23.5303Z" fill="#E0FEF2"/>
<path d="M68.3696 27.1576C68.1905 27.1576 68.0218 27.1149 67.8712 27.0278C67.5224 26.8268 67.329 26.4276 67.3274 25.904C67.3252 24.9269 67.9884 23.7779 68.8384 23.2877C69.2969 23.0226 69.7416 22.987 70.0943 23.1902C70.4432 23.3912 70.6365 23.7905 70.6381 24.3152C70.6403 25.2922 69.9771 26.4407 69.1276 26.9309C68.8658 27.0815 68.6079 27.1576 68.3696 27.1576ZM69.5953 23.6229C69.4557 23.6229 69.2914 23.6738 69.1189 23.7729C68.4496 24.1585 67.886 25.1339 67.8882 25.9023C67.8893 26.2129 67.9852 26.4462 68.1511 26.542C68.3187 26.6384 68.5734 26.6034 68.8472 26.4445C69.5159 26.0595 70.0795 25.0846 70.0773 24.3168C70.0762 24.0052 69.9804 23.7718 69.8144 23.676C69.752 23.6404 69.678 23.6229 69.5953 23.6229Z" fill="#1F3154"/>
<path d="M70.999 25.9495C70.332 25.9495 69.5981 25.7298 68.8428 25.2944C68.7086 25.2167 68.6626 25.0452 68.7398 24.9111C68.8171 24.7769 68.9885 24.7314 69.1232 24.8081C70.2378 25.4516 71.2701 25.5639 72.0314 25.1252C72.7839 24.692 73.2002 23.7582 73.2035 22.4952L73.2188 9.47627C73.2188 9.32182 73.3448 9.19641 73.4992 9.19641C73.6536 9.19641 73.7796 9.32238 73.7796 9.47737L73.7643 22.4963C73.7604 23.968 73.2445 25.0743 72.3113 25.6115C71.9191 25.8372 71.4761 25.9495 70.999 25.9495Z" fill="#1F3154"/>
<path d="M73.5091 6.03308L75.6799 10.8493L73.499 9.59159L73.5091 6.03308Z" fill="#1F3154"/>
<path d="M75.68 11.1297C75.6319 11.1297 75.5837 11.1177 75.5398 11.0925L73.359 9.83503C73.2719 9.78464 73.2182 9.69153 73.2188 9.59131L73.2286 6.03247C73.2292 5.90048 73.3212 5.78655 73.4504 5.75862C73.5841 5.73453 73.7106 5.79751 73.7648 5.918L75.9358 10.7343C75.9857 10.845 75.9583 10.9753 75.8684 11.0574C75.8153 11.1051 75.748 11.1297 75.68 11.1297ZM73.7801 9.43029L75.0672 10.1724L73.7856 7.32937L73.7801 9.43029Z" fill="#1F3154"/>
<path d="M64.5641 5.26848C65.3232 4.83047 65.9407 5.18216 65.9432 6.05425C65.9457 6.92601 65.3322 7.98799 64.5731 8.426C63.8137 8.86418 63.1962 8.51249 63.1937 7.64074C63.1913 6.76864 63.8047 5.70666 64.5641 5.26848Z" fill="#E0FEF2"/>
<path d="M63.9553 8.89571C63.7762 8.89571 63.6075 8.85299 63.4569 8.76591C63.1081 8.56491 62.9147 8.16565 62.9131 7.64207C62.9109 6.665 63.5741 5.51597 64.4241 5.02579C64.8825 4.76016 65.3273 4.72511 65.68 4.9283C66.0289 5.1293 66.2222 5.52856 66.2238 6.05324C66.226 7.03031 65.5628 8.17879 64.7133 8.66897C64.4515 8.81958 64.1936 8.89571 63.9553 8.89571ZM65.181 5.36097C65.0414 5.36097 64.8771 5.4119 64.7046 5.51104C64.0353 5.8966 63.4717 6.87202 63.4739 7.64042C63.475 7.95096 63.5709 8.18427 63.7368 8.28011C63.9044 8.37651 64.1591 8.34145 64.4329 8.18263C65.1016 7.79761 65.6652 6.82273 65.663 6.05489C65.6619 5.74326 65.5661 5.50994 65.4001 5.41409C65.3377 5.37849 65.2637 5.36097 65.181 5.36097Z" fill="#1F3154"/>
</svg>
