<svg width="120" height="120" viewBox="0 0 120 120" fill="none" xmlns="http://www.w3.org/2000/svg">
<path d="M46.5742 111.391C46.5791 110.863 45.893 110.428 45.0417 110.42C44.1904 110.412 43.4962 110.834 43.4913 111.362C43.4863 111.89 44.1724 112.324 45.0237 112.332C45.8751 112.34 46.5692 111.918 46.5742 111.391Z" fill="#1F3154"/>
<path d="M53.0384 107.577C53.0434 107.049 52.3572 106.615 51.5059 106.607C50.6546 106.599 49.9605 107.02 49.9555 107.548C49.9506 108.076 50.6367 108.51 51.488 108.518C52.3393 108.526 53.0334 108.105 53.0384 107.577Z" fill="#1F3154"/>
<path d="M59.5027 103.784C59.5077 103.257 58.8215 102.822 57.9702 102.814C57.1189 102.806 56.4248 103.228 56.4198 103.755C56.4148 104.283 57.101 104.718 57.9523 104.726C58.8036 104.734 59.4977 104.312 59.5027 103.784Z" fill="#1F3154"/>
<path d="M65.9669 99.9785C65.9719 99.4507 65.2858 99.0164 64.4345 99.0084C63.5831 99.0004 62.889 99.4218 62.884 99.9496C62.8791 100.477 63.5652 100.912 64.4165 100.92C65.2678 100.928 65.962 100.506 65.9669 99.9785Z" fill="#1F3154"/>
<path d="M72.4312 96.1824C72.4361 95.6546 71.75 95.2202 70.8987 95.2122C70.0474 95.2042 69.3532 95.6256 69.3483 96.1534C69.3433 96.6813 70.0294 97.1156 70.8807 97.1236C71.7321 97.1316 72.4262 96.7102 72.4312 96.1824Z" fill="#1F3154"/>
<path d="M78.8955 92.3666C78.9004 91.8388 78.2143 91.4044 77.363 91.3964C76.5117 91.3884 75.8175 91.8098 75.8126 92.3376C75.8076 92.8655 76.4937 93.2998 77.345 93.3078C78.1964 93.3158 78.8905 92.8944 78.8955 92.3666Z" fill="#1F3154"/>
<path d="M57.4291 111.968C57.434 111.44 56.7479 111.006 55.8966 110.998C55.0453 110.99 54.3511 111.411 54.3462 111.939C54.3412 112.467 55.0274 112.901 55.8787 112.909C56.73 112.917 57.4241 112.496 57.4291 111.968Z" fill="#1F3154"/>
<path d="M63.8933 108.175C63.8983 107.647 63.2122 107.213 62.3608 107.205C61.5095 107.197 60.8154 107.618 60.8104 108.146C60.8055 108.674 61.4916 109.108 62.3429 109.116C63.1942 109.124 63.8884 108.703 63.8933 108.175Z" fill="#1F3154"/>
<path d="M70.3576 104.369C70.3626 103.841 69.6765 103.407 68.8251 103.399C67.9738 103.391 67.2797 103.812 67.2747 104.34C67.2698 104.868 67.9559 105.302 68.8072 105.31C69.6585 105.318 70.3527 104.897 70.3576 104.369Z" fill="#1F3154"/>
<path d="M76.8218 100.573C76.8268 100.045 76.1407 99.6108 75.2894 99.6028C74.4381 99.5948 73.7439 100.016 73.739 100.544C73.734 101.072 74.4201 101.506 75.2714 101.514C76.1227 101.522 76.8169 101.101 76.8218 100.573Z" fill="#1F3154"/>
<path d="M39.2313 93.7701C39.2363 93.2423 38.5502 92.808 37.6989 92.8C36.8475 92.792 36.1534 93.2134 36.1484 93.7412C36.1435 94.269 36.8296 94.7034 37.6809 94.7114C38.5322 94.7194 39.2264 94.298 39.2313 93.7701Z" fill="#1F3154"/>
<path d="M45.6956 89.9774C45.7005 89.4496 45.0144 89.0152 44.1631 89.0073C43.3118 88.9993 42.6176 89.4207 42.6127 89.9485C42.6077 90.4763 43.2938 90.9107 44.1451 90.9186C44.9965 90.9266 45.6906 90.5052 45.6956 89.9774Z" fill="#1F3154"/>
<path d="M52.1599 86.1714C52.1648 85.6436 51.4787 85.2092 50.6274 85.2012C49.7761 85.1932 49.0819 85.6146 49.077 86.1424C49.072 86.6703 49.7581 87.1046 50.6094 87.1126C51.4608 87.1206 52.1549 86.6992 52.1599 86.1714Z" fill="#1F3154"/>
<path d="M58.6241 82.3754C58.629 81.8476 57.9429 81.4132 57.0916 81.4052C56.2403 81.3972 55.5462 81.8186 55.5412 82.3464C55.5362 82.8742 56.2224 83.3086 57.0737 83.3166C57.925 83.3246 58.6191 82.9032 58.6241 82.3754Z" fill="#1F3154"/>
<path d="M37.2964 102.113C37.3014 101.585 36.6152 101.151 35.7639 101.143C34.9126 101.135 34.2185 101.556 34.2135 102.084C34.2085 102.612 34.8947 103.046 35.746 103.054C36.5973 103.062 37.2914 102.641 37.2964 102.113Z" fill="#1F3154"/>
<path d="M43.7606 98.2993C43.7656 97.7715 43.0795 97.3371 42.2282 97.3292C41.3768 97.3212 40.6827 97.7426 40.6777 98.2704C40.6728 98.7982 41.3589 99.2326 42.2102 99.2405C43.0615 99.2485 43.7557 98.8271 43.7606 98.2993Z" fill="#1F3154"/>
<path d="M50.2249 94.5066C50.2299 93.9788 49.5438 93.5444 48.6924 93.5364C47.8411 93.5284 47.147 93.9498 47.142 94.4777C47.1371 95.0055 47.8232 95.4398 48.6745 95.4478C49.5258 95.4558 50.22 95.0344 50.2249 94.5066Z" fill="#1F3154"/>
<path d="M56.6892 90.7007C56.6941 90.1729 56.008 89.7385 55.1567 89.7305C54.3054 89.7225 53.6112 90.1439 53.6063 90.6717C53.6013 91.1996 54.2874 91.6339 55.1387 91.6419C55.9901 91.6499 56.6842 91.2285 56.6892 90.7007Z" fill="#1F3154"/>
<path d="M63.1534 86.9047C63.1583 86.3769 62.4722 85.9425 61.6209 85.9345C60.7696 85.9265 60.0755 86.3479 60.0705 86.8757C60.0655 87.4035 60.7517 87.8379 61.603 87.8459C62.4543 87.8539 63.1484 87.4325 63.1534 86.9047Z" fill="#1F3154"/>
<path d="M69.6177 83.0887C69.6226 82.5609 68.9365 82.1266 68.0852 82.1186C67.2339 82.1106 66.5397 82.532 66.5348 83.0598C66.5298 83.5876 67.216 84.022 68.0673 84.03C68.9186 84.038 69.6127 83.6166 69.6177 83.0887Z" fill="#1F3154"/>
<path d="M35.2228 110.315C35.2277 109.787 34.5416 109.353 33.6903 109.345C32.839 109.337 32.1448 109.758 32.1399 110.286C32.1349 110.814 32.821 111.248 33.6724 111.256C34.5237 111.264 35.2178 110.843 35.2228 110.315Z" fill="#1F3154"/>
<path d="M41.687 106.503C41.692 105.976 41.0059 105.541 40.1545 105.533C39.3032 105.525 38.6091 105.947 38.6041 106.474C38.5992 107.002 39.2853 107.437 40.1366 107.445C40.9879 107.453 41.6821 107.031 41.687 106.503Z" fill="#1F3154"/>
<path d="M48.1513 102.69C48.1563 102.162 47.4702 101.728 46.6188 101.72C45.7675 101.712 45.0734 102.133 45.0684 102.661C45.0635 103.189 45.7496 103.623 46.6009 103.631C47.4522 103.639 48.1464 103.218 48.1513 102.69Z" fill="#1F3154"/>
<path d="M54.6155 98.8973C54.6205 98.3695 53.9344 97.9352 53.0831 97.9272C52.2318 97.9192 51.5376 98.3406 51.5327 98.8684C51.5277 99.3962 52.2138 99.8306 53.0651 99.8386C53.9164 99.8466 54.6106 99.4252 54.6155 98.8973Z" fill="#1F3154"/>
<path d="M61.0798 95.0913C61.0847 94.5635 60.3986 94.1291 59.5473 94.1211C58.696 94.1132 58.0018 94.5346 57.9969 95.0624C57.9919 95.5902 58.678 96.0245 59.5294 96.0325C60.3807 96.0405 61.0748 95.6191 61.0798 95.0913Z" fill="#1F3154"/>
<path d="M67.5441 91.2953C67.549 90.7675 66.8629 90.3331 66.0116 90.3251C65.1603 90.3171 64.4661 90.7385 64.4612 91.2663C64.4562 91.7942 65.1423 92.2285 65.9937 92.2365C66.845 92.2445 67.5391 91.8231 67.5441 91.2953Z" fill="#1F3154"/>
<path d="M74.0083 87.4795C74.0133 86.9517 73.3272 86.5173 72.4758 86.5093C71.6245 86.5013 70.9304 86.9227 70.9254 87.4506C70.9205 87.9784 71.6066 88.4127 72.4579 88.4207C73.3092 88.4287 74.0034 88.0073 74.0083 87.4795Z" fill="#1F3154"/>
<path d="M80.4725 83.6632C80.4775 83.1354 79.7914 82.701 78.9401 82.693C78.0888 82.6851 77.3946 83.1065 77.3896 83.6343C77.3847 84.1621 78.0708 84.5964 78.9221 84.6044C79.7734 84.6124 80.4676 84.191 80.4725 83.6632Z" fill="#1F3154"/>
<path d="M88.0215 53.0412L88.349 63.0445L76.8666 69.9725L74.2961 89.6057L65.3912 94.9703L67.8814 75.389L59.0478 80.7312L56.4738 100.36L47.4674 105.799L50.0345 86.1613L44.601 89.4286L44.2739 79.439L51.4484 75.1061L53.3997 60.2519L43.8481 66.026L43.5191 55.9773L54.8816 49.1234L57.4472 29.4906L66.3763 24.1005L63.8107 43.729L72.62 38.413L75.11 18.8281L84.3631 13.2495L81.7497 32.9046L87.2535 29.5846L87.5824 39.6293L80.2862 44.0323L78.3316 58.8902L88.0215 53.0412ZM69.3219 64.3285L71.1979 49.5271L62.3716 54.8353L60.4716 69.6708L69.3219 64.3285Z" fill="#E0FEF2"/>
<path d="M87.0255 29.1975L81.5219 32.5215L82.2929 26.7498L87.0255 29.1975Z" fill="#1F3154"/>
<path d="M87.7954 52.6588L78.1055 58.5078L79.4462 48.3383L87.7954 52.6588Z" fill="#1F3154"/>
<path d="M84.1352 12.8666L74.8838 18.4451L60.0756 10.7831L69.3235 5.20068L84.1352 12.8666Z" fill="#E0FEF2"/>
<path d="M74.8838 18.4443L72.3921 38.0293L64.7929 34.0973L66.1502 23.7167L58.9054 19.9672L60.0756 10.7825L74.8838 18.4443Z" fill="#1BF3A4"/>
<path d="M72.3921 38.0299L63.5828 43.346L64.7929 34.098L72.3921 38.0299Z" fill="#1F3154"/>
<path d="M70.9698 49.136L69.0941 63.9459L61.4437 59.9867L62.1572 54.4523L70.9698 49.136Z" fill="#1BF3A4"/>
<path d="M69.0941 63.9462L60.2438 69.2884L61.4437 59.9869L69.0941 63.9462Z" fill="#1F3154"/>
<path d="M66.1485 23.718L57.2194 29.1082L42.4077 21.4422L51.342 16.0559L66.1485 23.718Z" fill="#E0FEF2"/>
<path d="M67.6703 75.0057L65.1801 94.587L57.4769 90.6005L58.82 80.3484L67.6703 75.0057Z" fill="#1BF3A4"/>
<path d="M57.2193 29.1077L54.6538 48.7405L39.8421 41.0746L42.4076 21.4418L57.2193 29.1077Z" fill="#1F3154"/>
<path d="M54.6538 48.7399L43.2913 55.5938L28.4797 47.932L39.8421 41.074L54.6538 48.7399Z" fill="#1F3154"/>
<path d="M53.1853 59.8687L51.234 74.7229L36.4224 67.0605L37.0573 62.2475L43.6203 65.6434L53.1853 59.8687Z" fill="#1BF3A4"/>
<path d="M51.2339 74.7212L44.0594 79.0541L29.2477 71.3882L36.4224 67.0593L51.2339 74.7212Z" fill="#1F3154"/>
<path d="M49.8069 85.787L47.2363 105.416L32.428 97.7536L34.2518 83.8134L44.3868 89.0538L49.8069 85.787Z" fill="#1BF3A4"/>
<path d="M44.0595 79.0558L44.3868 89.0538L29.5753 81.3931L29.2478 71.3894L44.0595 79.0558Z" fill="#E0FEF2"/>
<path d="M43.2913 55.5941L43.6203 65.6428L28.8088 57.9811L28.4797 47.9324L43.2913 55.5941Z" fill="#E0FEF2"/>
<path d="M47.2379 105.416L49.8069 85.7869L44.3868 89.0538L44.0594 79.0558L51.2356 74.7228L53.1853 59.8686L43.6203 65.6432L43.2913 55.5945L54.6538 48.7406L57.2193 29.1078L66.1502 23.7176L63.5845 43.3462L72.3921 38.0302L74.8838 18.4452L84.1352 12.8667L81.5235 32.5218L87.0272 29.1977L87.3562 39.2464L80.06 43.6495L78.1038 58.5074L87.7953 52.6583L88.1228 62.6617L76.6388 69.5897L74.0683 89.2229L65.1801 94.5869L67.6719 75.0056L58.8216 80.3483L56.2459 99.9776L47.2379 105.416Z" stroke="#1F3154" stroke-width="1.01746" stroke-linecap="round" stroke-linejoin="round"/>
<path d="M69.0941 63.9459L70.9698 49.136L62.1572 54.4523L60.2438 69.2881L69.0941 63.9459Z" stroke="#1F3154" stroke-width="1.01746" stroke-linecap="round" stroke-linejoin="round"/>
<path d="M58.9054 19.968L60.0756 10.7831L69.3235 5.20068L84.1352 12.8666" stroke="#1F3154" stroke-width="1.01746" stroke-linecap="round" stroke-linejoin="round"/>
<path d="M60.0756 10.7825L74.8838 18.4443" stroke="#1F3154" stroke-width="1.01746" stroke-linecap="round" stroke-linejoin="round"/>
<path d="M42.4077 21.4418L57.2194 29.1077" stroke="#1F3154" stroke-width="1.01746" stroke-linecap="round" stroke-linejoin="round"/>
<path d="M72.3921 38.0299L64.7929 34.098" stroke="#1F3154" stroke-width="1.01746" stroke-linecap="round" stroke-linejoin="round"/>
<path d="M87.0255 29.1974L82.2878 26.7499" stroke="#1F3154" stroke-width="1.01746" stroke-linecap="round" stroke-linejoin="round"/>
<path d="M39.842 41.074L54.6537 48.7399" stroke="#1F3154" stroke-width="1.01746" stroke-linecap="round" stroke-linejoin="round"/>
<path d="M28.4797 47.9324L43.2913 55.5941" stroke="#1F3154" stroke-width="1.01746" stroke-linecap="round" stroke-linejoin="round"/>
<path d="M66.1502 23.7177L51.342 16.0559L42.4077 21.4422L39.8421 41.075L28.4798 47.9331L28.8088 57.9818L43.6203 65.6435" stroke="#1F3154" stroke-width="1.01746" stroke-linecap="round" stroke-linejoin="round"/>
<path d="M29.2478 71.3894L44.0595 79.0558" stroke="#1F3154" stroke-width="1.01746" stroke-linecap="round" stroke-linejoin="round"/>
<path d="M37.0572 62.2472L36.4224 67.0602L29.2477 71.3891L29.5753 81.3931L44.3868 89.0538" stroke="#1F3154" stroke-width="1.01746" stroke-linecap="round" stroke-linejoin="round"/>
<path d="M34.2518 83.8134L32.428 97.7536L47.2363 105.416" stroke="#1F3154" stroke-width="1.01746" stroke-linecap="round" stroke-linejoin="round"/>
<path d="M51.2339 74.7212L36.4224 67.0593" stroke="#1F3154" stroke-width="1.01746" stroke-linecap="round" stroke-linejoin="round"/>
<path d="M65.1801 94.587L57.4769 90.6005" stroke="#1F3154" stroke-width="1.01746" stroke-linecap="round" stroke-linejoin="round"/>
<path d="M69.0941 63.9462L61.4437 59.9869" stroke="#1F3154" stroke-width="1.01746" stroke-linecap="round" stroke-linejoin="round"/>
<path d="M87.7953 52.6588L79.4462 48.3383" stroke="#1F3154" stroke-width="1.01746" stroke-linecap="round" stroke-linejoin="round"/>
</svg>
