<svg width="120" height="120" viewBox="0 0 120 120" fill="none" xmlns="http://www.w3.org/2000/svg">
<path d="M55.5744 107.571C55.5793 107.043 54.8932 106.609 54.0419 106.601C53.1906 106.593 52.4964 107.014 52.4915 107.542C52.4865 108.07 53.1726 108.504 54.0239 108.512C54.8752 108.52 55.5694 108.098 55.5744 107.571Z" fill="#1F3154"/>
<path d="M62.0386 103.757C62.0435 103.229 61.3574 102.795 60.5061 102.787C59.6548 102.779 58.9606 103.2 58.9557 103.728C58.9507 104.256 59.6368 104.69 60.4882 104.698C61.3395 104.706 62.0336 104.285 62.0386 103.757Z" fill="#1F3154"/>
<path d="M68.5029 99.9645C68.5078 99.4367 67.8217 99.0023 66.9704 98.9943C66.1191 98.9863 65.4249 99.4077 65.42 99.9355C65.415 100.463 66.1011 100.898 66.9525 100.906C67.8038 100.914 68.4979 100.492 68.5029 99.9645Z" fill="#1F3154"/>
<path d="M74.9671 96.1586C74.9721 95.6308 74.286 95.1964 73.4346 95.1884C72.5833 95.1804 71.8892 95.6018 71.8842 96.1296C71.8793 96.6575 72.5654 97.0918 73.4167 97.0998C74.268 97.1078 74.9621 96.6864 74.9671 96.1586Z" fill="#1F3154"/>
<path d="M81.4313 92.3624C81.4363 91.8346 80.7502 91.4003 79.8989 91.3923C79.0476 91.3843 78.3534 91.8057 78.3484 92.3335C78.3435 92.8613 79.0296 93.2957 79.8809 93.3037C80.7322 93.3116 81.4264 92.8902 81.4313 92.3624Z" fill="#1F3154"/>
<path d="M87.8956 88.5466C87.9006 88.0188 87.2145 87.5845 86.3632 87.5765C85.5119 87.5685 84.8177 87.9899 84.8127 88.5177C84.8078 89.0455 85.4939 89.4799 86.3452 89.4879C87.1965 89.4959 87.8907 89.0745 87.8956 88.5466Z" fill="#1F3154"/>
<path d="M66.4293 108.148C66.4342 107.62 65.7481 107.186 64.8968 107.178C64.0455 107.17 63.3513 107.591 63.3464 108.119C63.3414 108.647 64.0275 109.081 64.8788 109.089C65.7302 109.097 66.4243 108.676 66.4293 108.148Z" fill="#1F3154"/>
<path d="M72.8935 104.355C72.8985 103.827 72.2123 103.393 71.361 103.385C70.5097 103.377 69.8156 103.798 69.8106 104.326C69.8057 104.854 70.4918 105.288 71.3431 105.296C72.1944 105.304 72.8885 104.883 72.8935 104.355Z" fill="#1F3154"/>
<path d="M79.3578 100.549C79.3627 100.021 78.6766 99.587 77.8253 99.579C76.974 99.571 76.2799 99.9924 76.2749 100.52C76.2699 101.048 76.9561 101.482 77.8074 101.49C78.6587 101.498 79.3528 101.077 79.3578 100.549Z" fill="#1F3154"/>
<path d="M85.822 96.7532C85.827 96.2254 85.1409 95.791 84.2896 95.783C83.4382 95.775 82.7441 96.1964 82.7391 96.7242C82.7342 97.2521 83.4203 97.6864 84.2716 97.6944C85.1229 97.7024 85.8171 97.281 85.822 96.7532Z" fill="#1F3154"/>
<path d="M91.8405 93.0082C91.8455 92.4804 91.1594 92.046 90.308 92.038C89.4567 92.03 88.7626 92.4514 88.7576 92.9792C88.7527 93.5071 89.4388 93.9414 90.2901 93.9494C91.1414 93.9574 91.8356 93.536 91.8405 93.0082Z" fill="#1F3154"/>
<path d="M39.8323 102.105C39.8373 101.577 39.1512 101.142 38.2999 101.134C37.4486 101.126 36.7544 101.548 36.7495 102.076C36.7445 102.603 37.4306 103.038 38.2819 103.046C39.1332 103.054 39.8274 102.632 39.8323 102.105Z" fill="#1F3154"/>
<path d="M46.2966 98.2929C46.3015 97.765 45.6154 97.3307 44.7641 97.3227C43.9128 97.3147 43.2186 97.7361 43.2137 98.2639C43.2087 98.7917 43.8948 99.2261 44.7462 99.2341C45.5975 99.2421 46.2916 98.8207 46.2966 98.2929Z" fill="#1F3154"/>
<path d="M52.7609 94.4795C52.7658 93.9517 52.0797 93.5173 51.2284 93.5093C50.3771 93.5013 49.6829 93.9227 49.678 94.4506C49.673 94.9784 50.3591 95.4127 51.2105 95.4207C52.0618 95.4287 52.7559 95.0073 52.7609 94.4795Z" fill="#1F3154"/>
<path d="M59.2251 90.6868C59.2301 90.159 58.5439 89.7246 57.6926 89.7166C56.8413 89.7086 56.1472 90.13 56.1422 90.6578C56.1373 91.1856 56.8234 91.62 57.6747 91.628C58.526 91.636 59.2202 91.2146 59.2251 90.6868Z" fill="#1F3154"/>
<path d="M65.6893 86.8807C65.6943 86.3529 65.0082 85.9186 64.1569 85.9106C63.3056 85.9026 62.6114 86.324 62.6064 86.8518C62.6015 87.3796 63.2876 87.814 64.1389 87.822C64.9902 87.83 65.6844 87.4086 65.6893 86.8807Z" fill="#1F3154"/>
<path d="M72.1536 83.0847C72.1586 82.5569 71.4725 82.1225 70.6212 82.1146C69.7698 82.1066 69.0757 82.528 69.0707 83.0558C69.0658 83.5836 69.7519 84.018 70.6032 84.0259C71.4545 84.0339 72.1487 83.6125 72.1536 83.0847Z" fill="#1F3154"/>
<path d="M78.6179 79.2689C78.6228 78.7411 77.9367 78.3067 77.0854 78.2988C76.2341 78.2908 75.5399 78.7122 75.535 79.24C75.53 79.7678 76.2161 80.2022 77.0674 80.2102C77.9188 80.2181 78.6129 79.7967 78.6179 79.2689Z" fill="#1F3154"/>
<path d="M85.0821 75.4526C85.0871 74.9248 84.4009 74.4905 83.5496 74.4825C82.6983 74.4745 82.0042 74.8959 81.9992 75.4237C81.9943 75.9515 82.6804 76.3859 83.5317 76.3939C84.383 76.4019 85.0771 75.9805 85.0821 75.4526Z" fill="#1F3154"/>
<path d="M44.223 106.495C44.228 105.967 43.5419 105.533 42.6906 105.525C41.8392 105.517 41.1451 105.938 41.1401 106.466C41.1352 106.994 41.8213 107.428 42.6726 107.436C43.5239 107.444 44.2181 107.023 44.223 106.495Z" fill="#1F3154"/>
<path d="M50.6873 102.683C50.6922 102.156 50.0061 101.721 49.1548 101.713C48.3035 101.705 47.6093 102.127 47.6044 102.655C47.5994 103.182 48.2855 103.617 49.1368 103.625C49.9882 103.633 50.6823 103.211 50.6873 102.683Z" fill="#1F3154"/>
<path d="M57.1516 98.8701C57.1565 98.3423 56.4704 97.9079 55.6191 97.9C54.7678 97.892 54.0736 98.3134 54.0687 98.8412C54.0637 99.369 54.7498 99.8034 55.6011 99.8113C56.4525 99.8193 57.1466 99.3979 57.1516 98.8701Z" fill="#1F3154"/>
<path d="M63.6158 95.0774C63.6207 94.5496 62.9346 94.1152 62.0833 94.1072C61.232 94.0992 60.5379 94.5206 60.5329 95.0485C60.5279 95.5763 61.2141 96.0106 62.0654 96.0186C62.9167 96.0266 63.6108 95.6052 63.6158 95.0774Z" fill="#1F3154"/>
<path d="M70.08 91.2714C70.085 90.7435 69.3989 90.3092 68.5476 90.3012C67.6962 90.2932 67.0021 90.7146 66.9971 91.2424C66.9922 91.7702 67.6783 92.2046 68.5296 92.2126C69.3809 92.2206 70.0751 91.7992 70.08 91.2714Z" fill="#1F3154"/>
<path d="M76.5443 87.4753C76.5493 86.9475 75.8632 86.5132 75.0118 86.5052C74.1605 86.4972 73.4664 86.9186 73.4614 87.4464C73.4565 87.9742 74.1426 88.4086 74.9939 88.4166C75.8452 88.4246 76.5394 88.0032 76.5443 87.4753Z" fill="#1F3154"/>
<path d="M83.0085 83.6595C83.0135 83.1317 82.3274 82.6974 81.4761 82.6894C80.6248 82.6814 79.9306 83.1028 79.9257 83.6306C79.9207 84.1584 80.6068 84.5928 81.4581 84.6008C82.3094 84.6088 83.0036 84.1874 83.0085 83.6595Z" fill="#1F3154"/>
<path d="M89.4728 79.8433C89.4778 79.3154 88.7917 78.8811 87.9404 78.8731C87.0891 78.8651 86.3949 79.2865 86.39 79.8143C86.385 80.3421 87.0711 80.7765 87.9224 80.7845C88.7737 80.7925 89.4679 80.3711 89.4728 79.8433Z" fill="#1F3154"/>
<path d="M98.8451 60.12C97.218 59.4846 95.743 59.5651 94.5508 60.2525L102.119 55.874C103.591 55.0219 105.492 55.0971 107.57 56.3179C112.224 58.9833 115.99 66.319 115.99 72.6486C115.99 76.1482 114.834 78.6131 113.021 79.6657L105.452 84.0441C107.273 82.9951 108.422 80.5302 108.422 77.0307V76.3165C108.164 70.1658 104.495 63.2902 100.002 60.6964C99.631 60.4763 99.2443 60.2829 98.8451 60.12Z" fill="#1BF3A4"/>
<path d="M108.408 76.2986V77.0146C108.408 80.5142 107.26 82.9791 105.44 84.0263C103.972 84.8801 102.071 84.8032 99.9925 83.5823C99.3267 83.1957 98.7001 82.7392 98.1273 82.2237L108.408 76.2986Z" fill="#1F3154"/>
<path d="M81.5657 75.7974C80.3556 76.8356 79.0292 77.7307 77.6133 78.461C77.078 78.7421 76.4981 78.9264 75.8984 79.007C74.563 79.1502 73.2205 78.8065 72.1178 78.0386C71.7401 77.7969 71.425 77.4693 71.1959 77.0827C70.965 76.6978 70.829 76.2629 70.7949 75.8153C70.7609 75.3678 70.8307 74.9167 70.999 74.5014C71.1691 74.0843 71.4322 73.7138 71.7687 73.4166H71.7956C73.1238 72.2298 74.7903 70.7924 75.9915 69.8061C77.8048 68.3526 79.7399 67.0637 81.7787 65.9503L81.8629 60.7198C83.1445 61.1637 84.4334 61.6076 85.7634 62.1089C87.6161 62.7819 89.5941 63.0397 91.5578 62.8643C93.5215 62.6906 95.4225 62.0892 97.1302 61.1011L98.8272 60.1201C99.2282 60.2776 99.6148 60.4638 99.989 60.6786C104.464 63.2724 108.125 70.148 108.408 76.2986L94.3556 84.4309C89.4455 87.2717 86.5206 84.3897 81.367 85.9488C81.4207 82.8216 81.4959 79.331 81.5657 75.7974Z" fill="#F0F5F7"/>
<path d="M98.8451 60.1201L97.1482 61.101C95.6893 61.9441 94.0872 62.508 92.4242 62.7622C92.8484 61.7204 93.5931 60.8414 94.5508 60.2525C95.743 59.5651 97.2198 59.4846 98.8451 60.1201Z" fill="#1F3154"/>
<path d="M98.2813 36.3624C98.9615 38.4621 99.085 40.7051 98.6411 42.8675C98.1954 45.0298 97.1965 47.0401 95.743 48.6995C95.1093 49.428 92.818 50.8619 89.5745 52.8918V52.3225C89.5745 42.3394 83.1213 30.3621 74.7814 24.3439C76.4569 23.7855 77.8389 23.3004 78.8413 22.9495C81.154 22.1261 83.6547 21.9936 86.0409 22.57C88.4288 23.1446 90.5966 24.403 92.281 26.1913C94.9804 29.1162 97.0265 32.5836 98.2813 36.3624Z" fill="#1F3154"/>
<path d="M89.0965 47.3838C80.4147 54.2236 69.5616 58.2119 59.6984 64.7044C58.0802 65.7695 56.5962 66.924 55.1463 68.0929C53.4493 64.8816 50.6085 62.2251 47.5565 60.0986C49.3197 63.5874 50.7249 67.248 51.747 71.0233C52.7226 74.5712 53.2345 78.2318 53.2685 81.9122C53.2721 83.3747 53.1683 84.8353 52.9624 86.2835C54.4088 83.21 56.24 80.3333 58.4132 77.7252C59.4192 76.4812 60.5004 75.2639 61.6353 74.0753C62.5213 73.1427 63.4522 72.228 64.3991 71.3294C65.1402 70.633 65.8884 69.9439 66.6546 69.2744C67.8826 68.186 69.141 67.1371 70.4083 66.1203C74.2945 63.0128 78.2971 60.1916 81.9309 57.784L82.4715 57.4296C85.0957 55.6968 87.5231 54.1788 89.5619 52.899V52.3315C89.5601 50.6721 89.4044 49.0145 89.0965 47.3838Z" fill="#F0F5F7"/>
<path d="M74.7725 24.326C62.8077 28.3591 35.6024 36.8421 22.535 35.5927C24.445 36.2246 26.2816 37.0569 28.0162 38.0755C35.8906 42.6276 42.9238 50.8744 47.5547 60.0949C50.6085 62.2305 53.4493 64.8869 55.1463 68.0876C56.5908 66.9204 58.0802 65.7658 59.6966 64.699C69.5616 58.2029 80.4147 54.2146 89.0965 47.3802C87.4568 38.6393 81.7877 29.3937 74.7725 24.326Z" fill="#E0FEF2"/>
<path d="M81.9399 57.7804L81.7788 65.9108C79.7417 67.0242 77.8048 68.3131 75.9915 69.7666C74.7904 70.7529 73.1381 72.1904 71.7956 73.3772L71.4537 73.2787C69.8355 72.8366 68.4231 71.8395 67.4655 70.4594L66.6367 69.269C67.8646 68.1806 69.1231 67.1334 70.3904 66.1149C74.2945 62.9984 78.3186 60.1737 81.9399 57.7804Z" fill="#E0FEF2"/>
<path d="M81.5657 75.7974C81.4959 79.3506 81.3491 86.9011 81.3438 87.3755C81.3223 88.6052 80.9088 89.7956 80.1641 90.773C79.4195 91.7503 78.383 92.4646 77.2052 92.8119C73.7002 93.8411 70.6697 92.9586 69.03 91.6251C69.5115 91.7969 70.0199 91.8864 70.5318 91.8882H72.6369C73.1417 91.8882 73.6304 91.7163 74.0242 91.4013C74.418 91.0862 74.6937 90.6441 74.8029 90.1518C74.9551 89.6041 74.9551 89.0277 74.8029 88.4817C75.0284 88.4298 75.2397 88.3349 75.4276 88.2025C75.6138 88.0682 75.7731 87.8982 75.8948 87.703C76.0148 87.5061 76.0953 87.2877 76.1311 87.0604C76.1669 86.8331 76.158 86.6004 76.1025 86.3766C75.9217 85.6856 75.5153 85.077 74.9497 84.6438C75.2486 84.515 75.5153 84.3216 75.7301 84.0764C75.9414 83.8347 76.0971 83.5519 76.1902 83.2458C76.2815 82.9397 76.3066 82.6157 76.2618 82.2989C76.1544 81.309 75.7266 80.3799 75.0428 79.6567C75.2307 79.5941 75.4061 79.4974 75.5619 79.3721C75.6979 79.2665 75.8179 79.143 75.9199 79.0034C76.5196 78.9228 77.0995 78.7384 77.6348 78.4574C79.0435 77.7271 80.3628 76.8338 81.5657 75.7974Z" fill="#E0FEF2"/>
<path d="M76.2403 82.2863C76.2851 82.6032 76.26 82.9254 76.1687 83.2315C76.0774 83.5394 75.9199 83.8222 75.7087 84.0621C75.4975 84.3037 75.2361 84.4971 74.9407 84.626C74.6472 84.7548 74.3285 84.8175 74.0081 84.8085C71.792 84.7602 69.9518 84.8085 67.8969 84.8801C66.3556 84.9446 64.8502 84.4076 63.6992 83.3783C62.2331 82.0465 60.9747 80.8292 59.6143 79.5064L59.4585 79.3542C58.9913 78.8942 58.6333 78.3321 58.4131 77.711C59.4192 76.4687 60.5004 75.2514 61.6353 74.061C62.5517 75.0062 63.5273 75.9352 64.6354 76.9484C65.7954 78.0081 67.265 78.6668 68.8277 78.8297C70.5533 79.0231 72.2682 79.3202 73.958 79.7194C74.3142 79.7928 74.683 79.766 75.0231 79.6388C75.7069 80.3638 76.1365 81.2929 76.2403 82.2863Z" fill="#F0F5F7"/>
<path d="M76.1025 86.3748C76.1669 86.6308 76.1705 86.8975 76.1168 87.1553C76.0631 87.413 75.9503 87.6547 75.7892 87.8624C75.5458 88.1792 75.2003 88.3976 74.8137 88.4853C74.6866 88.5157 74.5577 88.5301 74.427 88.5301H66.8945C66.3324 88.5301 65.7757 88.428 65.2494 88.2275C64.7786 88.0485 64.34 87.7926 63.9516 87.4686C62.3119 86.1099 61.3542 85.2471 60.3804 84.3145C59.7414 83.713 59.3207 82.9129 59.1847 82.0447C59.0504 81.1765 59.2097 80.2869 59.6358 79.5189C60.9658 80.8507 62.2546 82.0769 63.7207 83.3908C64.8717 84.4201 66.3771 84.9589 67.9184 84.8927C69.9734 84.8032 71.8046 84.7727 74.0296 84.821C74.3446 84.83 74.6597 84.7692 74.9515 84.6438C75.5172 85.0752 75.9217 85.6856 76.1025 86.3748Z" fill="#F0F5F7"/>
<path d="M75.0213 79.6441C74.6811 79.7695 74.3124 79.7981 73.9562 79.7229C72.2664 79.3237 70.5515 79.0284 68.8259 78.835C67.2632 78.6721 65.7935 78.0116 64.6336 76.9519C63.5255 75.9405 62.5499 75.0115 61.6334 74.0663C62.5195 73.1337 63.4503 72.219 64.3991 71.3204C65.1384 70.624 65.8866 69.9349 66.6545 69.2654L67.4833 70.4558C68.441 71.8359 69.8534 72.833 71.4716 73.2751L71.8117 73.3736H71.7848C71.4483 73.6707 71.187 74.0413 71.0169 74.4583C70.8487 74.8736 70.777 75.3229 70.811 75.7723C70.8451 76.2198 70.9829 76.6547 71.212 77.0396C71.4429 77.4263 71.758 77.7538 72.1357 77.9955C73.2384 78.7634 74.5809 79.1071 75.9163 78.9639C75.8143 79.1035 75.6925 79.227 75.5565 79.3327C75.3972 79.4651 75.2164 79.5707 75.0213 79.6441Z" fill="#F0F5F7"/>
<path d="M74.7725 88.4799C74.9246 89.0276 74.9246 89.604 74.7725 90.15C74.6615 90.644 74.3876 91.0844 73.9938 91.4012C73.6 91.7163 73.1095 91.8881 72.6047 91.8863H70.4996C69.9877 91.8863 69.4811 91.7968 68.9977 91.625C68.3641 91.4012 67.7895 91.0343 67.3187 90.5545C66.6098 89.8403 65.9045 89.0616 65.1957 88.2239C65.7202 88.4244 66.2786 88.5264 66.8389 88.5246H74.3733C74.5075 88.5264 74.6418 88.5121 74.7725 88.4799Z" fill="#F0F5F7"/>
<path d="M53.2667 81.9087C53.2703 83.3711 53.1683 84.8318 52.9624 86.2782C51.0739 99.1576 40.6289 103.812 28.0162 96.5191C14.0609 88.4513 2.76208 68.8252 2.76208 52.6914C2.76208 38.7164 11.2219 31.9339 22.5351 35.5928C24.445 36.2246 26.2816 37.057 28.0162 38.0756C41.9804 46.1415 53.2667 65.7695 53.2667 81.9087ZM47.4007 82.0519C47.5618 80.9241 47.6424 79.7874 47.6388 78.649C47.5761 74.7073 46.8547 70.8049 45.5032 67.1031C43.7078 62.0587 41.08 57.3527 37.7308 53.18C35.0368 49.7485 31.7467 46.8361 28.0162 44.5824C26.6665 43.7912 25.238 43.145 23.7541 42.6545C14.9488 39.8173 8.38466 45.0747 8.38466 55.9421C8.38466 68.4832 17.172 83.7345 28.0162 90.0087C37.815 95.676 45.9383 92.0654 47.4007 82.0519Z" fill="#E0FEF2"/>
<path d="M47.6388 78.6489C47.6406 79.7874 47.5618 80.9241 47.3989 82.05C45.9364 92.0654 37.8149 95.676 28.0162 90.0086C17.1631 83.7327 8.38464 68.4832 8.38464 55.9421C8.38464 45.0747 14.947 39.8155 23.7523 42.6545C25.238 43.145 26.6665 43.7894 28.0162 44.5824C31.7467 46.8361 35.0368 49.7485 37.7308 53.18L24.2768 61.826C22.9324 62.6852 21.9569 64.0152 21.5398 65.5565C21.1227 67.0977 21.2927 68.7392 22.0195 70.1605C22.7463 71.5818 23.9742 72.6809 25.4671 73.243C26.9583 73.8051 28.6051 73.7889 30.0855 73.2L45.4979 67.0888C46.853 70.7942 47.5761 74.7019 47.6388 78.6489Z" fill="#1F3154"/>
<path d="M45.5247 67.0888L30.0855 73.2C28.6051 73.7907 26.9565 73.8051 25.4653 73.243C23.9742 72.6809 22.7445 71.5818 22.0195 70.1605C21.2927 68.7392 21.1227 67.0977 21.5398 65.5565C21.9568 64.0153 22.9324 62.6852 24.275 61.826L37.729 53.1801C41.0854 57.3473 43.7204 62.048 45.5247 67.0888Z" fill="#F0F5F7"/>
<path d="M22.5351 35.5928C24.445 36.2246 26.2816 37.057 28.0162 38.0756C41.9625 46.1415 53.2757 65.7695 53.2757 81.9087C53.2793 83.3711 53.1772 84.8318 52.9696 86.2782C51.1008 99.1576 40.6379 103.812 28.0252 96.5191C14.0609 88.4513 2.76208 68.8252 2.76208 52.6914C2.76208 38.7164 11.2219 31.9339 22.5351 35.5928Z" stroke="#1F3154" stroke-width="1.10266" stroke-linecap="round" stroke-linejoin="round"/>
<path d="M45.5247 67.0888C46.878 70.7906 47.5994 74.6929 47.6603 78.6346C47.6638 79.7731 47.5833 80.9098 47.4222 82.0375C45.9597 92.0511 37.8364 95.6616 28.0377 89.9961C17.1631 83.7327 8.38464 68.4832 8.38464 55.9421C8.38464 45.0747 14.947 39.8155 23.7523 42.6545C25.238 43.145 26.6665 43.7894 28.0162 44.5824C31.7467 46.8361 35.0368 49.7485 37.7308 53.18C41.089 57.3455 43.7239 62.0462 45.5247 67.0888Z" stroke="#1F3154" stroke-width="1.10266" stroke-linecap="round" stroke-linejoin="round"/>
<path d="M74.7742 24.326C83.1141 30.3621 89.5655 42.3394 89.5655 52.3046V52.8739" stroke="#1F3154" stroke-width="1.10266" stroke-linecap="round" stroke-linejoin="round"/>
<path d="M22.535 35.5927C35.6024 36.8404 62.8077 28.3537 74.7725 24.3261C76.4444 23.7658 77.8317 23.2825 78.8323 22.9317C81.1451 22.1064 83.6475 21.974 86.0337 22.5504C88.4198 23.1268 90.5876 24.3852 92.2738 26.1734C94.9714 29.102 97.0139 32.5765 98.2651 36.3607C98.9454 38.4604 99.0689 40.7033 98.6231 42.8657C98.1792 45.0281 97.1804 47.0383 95.725 48.6977C95.0914 49.4263 92.8001 50.8601 89.5565 52.89C87.5141 54.1699 85.0849 55.6879 82.4661 57.4207L81.9255 57.7751C78.2828 60.1863 74.282 62.9931 70.4029 66.1114C69.1356 67.1281 67.8772 68.1807 66.651 69.2637C65.8884 69.9385 65.1366 70.6241 64.3955 71.3204C63.4468 72.2083 62.5195 73.132 61.6299 74.0646C60.495 75.2603 59.4138 76.4722 58.4077 77.7163C56.2364 80.3244 54.4052 83.201 52.957 86.2728" stroke="#1F3154" stroke-width="1.10266" stroke-linecap="round" stroke-linejoin="round"/>
<path d="M45.4979 67.0888L30.0855 73.2C28.6051 73.7907 26.9565 73.8051 25.4653 73.243C23.9742 72.6809 22.7445 71.5818 22.0195 70.1605C21.2927 68.7392 21.1227 67.0977 21.5398 65.5565C21.9568 64.0153 22.9324 62.6852 24.275 61.826L37.729 53.1801" stroke="#1F3154" stroke-width="1.10266" stroke-linecap="round" stroke-linejoin="round"/>
<path d="M98.8452 60.1201L97.1464 61.1011C95.4405 62.0892 93.5376 62.6906 91.5739 62.8643C89.612 63.0397 87.634 62.7819 85.7795 62.1089C84.4513 61.6291 83.1607 61.1458 81.8808 60.7198" stroke="#1F3154" stroke-width="1.10266" stroke-linecap="round" stroke-linejoin="round"/>
<path d="M71.7956 73.3773L71.4537 73.2788C69.8355 72.8366 68.4231 71.8378 67.4655 70.4595L66.6367 69.269" stroke="#1F3154" stroke-width="1.10266" stroke-linecap="round" stroke-linejoin="round"/>
<path d="M75.8984 78.989C75.7964 79.1287 75.6746 79.2522 75.5386 79.3578C75.3828 79.4795 75.2074 79.5762 75.0213 79.6424C74.6811 79.7695 74.3124 79.7964 73.9562 79.723C72.2664 79.3238 70.5515 79.0266 68.8259 78.8333C67.2632 78.6704 65.7935 78.0117 64.6336 76.9519C63.5255 75.9388 62.5499 75.0097 61.6334 74.0646" stroke="#1F3154" stroke-width="1.10266" stroke-linecap="round" stroke-linejoin="round"/>
<path d="M58.4131 77.7198C58.6333 78.3392 58.9913 78.9013 59.4585 79.3631L59.6143 79.5135C60.9747 80.8453 62.2331 82.0715 63.6992 83.3872C64.8502 84.4147 66.3556 84.9535 67.8969 84.8872C69.9518 84.7995 71.7831 84.7673 74.0081 84.8156C74.3285 84.8246 74.6472 84.7619 74.9407 84.633C75.2361 84.5042 75.4975 84.3126 75.7087 84.071C75.9199 83.8293 76.0774 83.5465 76.1687 83.2404C76.26 82.9343 76.2851 82.6103 76.2403 82.2934C76.1347 81.3035 75.7069 80.3745 75.0231 79.6513C74.5845 79.2253 74.0439 78.9192 73.4532 78.7634" stroke="#1F3154" stroke-width="1.10266" stroke-linecap="round" stroke-linejoin="round"/>
<path d="M59.6125 79.5153C59.1865 80.2832 59.0271 81.1729 59.1632 82.041C59.2974 82.911 59.7181 83.7094 60.3572 84.3108C61.3327 85.2255 62.2886 86.0884 63.9283 87.4649C64.3168 87.7871 64.7553 88.0449 65.2279 88.2239C65.7524 88.4226 66.3091 88.5246 66.8712 88.5264H74.4055C74.5344 88.5264 74.6651 88.5121 74.7904 88.4817C75.1788 88.3939 75.5225 88.1756 75.766 87.8605C75.9306 87.6547 76.047 87.4148 76.1043 87.157C76.1633 86.8992 76.1616 86.6325 76.1025 86.3766C75.9217 85.6856 75.5172 85.077 74.9497 84.6438" stroke="#1F3154" stroke-width="1.10266" stroke-linecap="round" stroke-linejoin="round"/>
<path d="M65.2279 88.2239C65.9368 89.0616 66.642 89.8403 67.3509 90.5545C67.8217 91.0343 68.3963 91.4012 69.03 91.625C69.5133 91.7968 70.0199 91.8863 70.5318 91.8863H72.6369C73.1417 91.8881 73.6322 91.7163 74.026 91.4012C74.4198 91.0844 74.6937 90.644 74.8047 90.15C74.9569 89.604 74.9569 89.0276 74.8047 88.4799" stroke="#1F3154" stroke-width="1.10266" stroke-linecap="round" stroke-linejoin="round"/>
<path d="M85.9442 63.9705C84.5139 64.52 83.1213 65.168 81.7787 65.9109C79.7399 67.0225 77.8048 68.3131 75.9915 69.7649C74.7903 70.7512 73.1381 72.1904 71.7956 73.3754H71.7687C71.4322 73.6726 71.1691 74.0449 70.999 74.4602C70.8307 74.8773 70.7609 75.3266 70.7949 75.7759C70.829 76.2234 70.965 76.6566 71.1959 77.0432C71.425 77.4299 71.7401 77.7557 72.1178 77.9991C73.2222 78.7653 74.563 79.109 75.8984 78.9675C76.4981 78.8852 77.078 78.7008 77.6133 78.4216C79.0292 77.6895 80.3556 76.7962 81.5657 75.7562C83.1481 74.4244 84.1595 73.3486 85.8923 72.9816" stroke="#1F3154" stroke-width="1.10266" stroke-linecap="round" stroke-linejoin="round"/>
<path d="M81.3688 85.9327C86.5224 84.3735 89.4474 87.2663 94.3575 84.4147L108.409 76.2825" stroke="#1F3154" stroke-width="1.10266" stroke-linecap="round" stroke-linejoin="round"/>
<path d="M69.0121 91.6251C70.6518 92.9586 73.6823 93.8465 77.1873 92.8119C78.3651 92.4646 79.4016 91.7503 80.1462 90.773C80.8909 89.7956 81.3044 88.6052 81.3277 87.3755C81.3277 86.9082 81.478 79.3327 81.5478 75.7974" stroke="#1F3154" stroke-width="1.10266" stroke-linecap="round" stroke-linejoin="round"/>
<path d="M81.7787 65.9108L81.938 57.7804" stroke="#1F3154" stroke-width="1.10266" stroke-linecap="round" stroke-linejoin="round"/>
<path d="M92.4242 62.7621C92.8502 61.7203 93.5949 60.8432 94.5508 60.2525C95.743 59.5633 97.2108 59.4881 98.8451 60.1182C99.2461 60.2757 99.6345 60.4637 100.007 60.6785C104.482 63.2723 108.152 70.1461 108.425 76.2985V77.0128C108.425 80.5123 107.274 82.9719 105.458 84.0244C103.99 84.8729 102.089 84.8031 100.01 83.5805C99.3445 83.1938 98.718 82.7373 98.1452 82.2218" stroke="#1F3154" stroke-width="1.10266" stroke-linecap="round" stroke-linejoin="round"/>
<path d="M94.5508 60.2525L102.119 55.874C103.591 55.0219 105.492 55.0971 107.57 56.3179C112.224 58.9833 115.99 66.319 115.99 72.6486C115.99 76.1482 114.834 78.6131 113.021 79.6657L105.452 84.0441" stroke="#1F3154" stroke-width="1.10266" stroke-linecap="round" stroke-linejoin="round"/>
</svg>
