<svg width="120" height="120" viewBox="0 0 120 120" fill="none" xmlns="http://www.w3.org/2000/svg">
<path d="M58.6315 112.78C58.6365 112.252 57.9504 111.817 57.0991 111.809C56.2477 111.801 55.5536 112.223 55.5486 112.751C55.5437 113.278 56.2298 113.713 57.0811 113.721C57.9324 113.729 58.6266 113.307 58.6315 112.78Z" fill="#1F3154"/>
<path d="M65.0958 108.966C65.1007 108.438 64.4146 108.004 63.5633 107.996C62.712 107.988 62.0178 108.409 62.0129 108.937C62.0079 109.465 62.694 109.899 63.5454 109.907C64.3967 109.915 65.0908 109.494 65.0958 108.966Z" fill="#1F3154"/>
<path d="M71.56 105.173C71.565 104.646 70.8788 104.211 70.0275 104.203C69.1762 104.195 68.4821 104.617 68.4771 105.144C68.4722 105.672 69.1583 106.107 70.0096 106.115C70.8609 106.123 71.5551 105.701 71.56 105.173Z" fill="#1F3154"/>
<path d="M78.0242 101.367C78.0292 100.84 77.3431 100.405 76.4918 100.397C75.6405 100.389 74.9463 100.811 74.9413 101.338C74.9364 101.866 75.6225 102.301 76.4738 102.309C77.3251 102.317 78.0193 101.895 78.0242 101.367Z" fill="#1F3154"/>
<path d="M84.4886 97.5713C84.4936 97.0435 83.8074 96.6091 82.9561 96.6011C82.1048 96.5931 81.4107 97.0145 81.4057 97.5423C81.4007 98.0702 82.0869 98.5045 82.9382 98.5125C83.7895 98.5205 84.4836 98.0991 84.4886 97.5713Z" fill="#1F3154"/>
<path d="M90.9528 93.7555C90.9578 93.2277 90.2717 92.7933 89.4204 92.7853C88.569 92.7773 87.8749 93.1987 87.8699 93.7266C87.865 94.2544 88.5511 94.6887 89.4024 94.6967C90.2537 94.7047 90.9479 94.2833 90.9528 93.7555Z" fill="#1F3154"/>
<path d="M69.4865 113.357C69.4915 112.829 68.8054 112.395 67.954 112.387C67.1027 112.379 66.4086 112.8 66.4036 113.328C66.3987 113.856 67.0848 114.29 67.9361 114.298C68.7874 114.306 69.4816 113.885 69.4865 113.357Z" fill="#1F3154"/>
<path d="M75.9508 109.564C75.9557 109.036 75.2696 108.602 74.4183 108.594C73.567 108.586 72.8728 109.007 72.8679 109.535C72.8629 110.063 73.549 110.497 74.4003 110.505C75.2517 110.513 75.9458 110.092 75.9508 109.564Z" fill="#1F3154"/>
<path d="M82.415 105.758C82.4199 105.23 81.7338 104.796 80.8825 104.788C80.0312 104.78 79.337 105.201 79.3321 105.729C79.3271 106.257 80.0133 106.691 80.8646 106.699C81.7159 106.707 82.41 106.286 82.415 105.758Z" fill="#1F3154"/>
<path d="M88.8793 101.962C88.8843 101.434 88.1982 101 87.3469 100.992C86.4955 100.984 85.8014 101.405 85.7964 101.933C85.7915 102.461 86.4776 102.895 87.3289 102.903C88.1802 102.911 88.8744 102.49 88.8793 101.962Z" fill="#1F3154"/>
<path d="M94.8978 98.217C94.9027 97.6892 94.2166 97.2549 93.3653 97.2469C92.514 97.2389 91.8198 97.6603 91.8149 98.1881C91.8099 98.7159 92.496 99.1503 93.3474 99.1583C94.1987 99.1663 94.8928 98.7449 94.8978 98.217Z" fill="#1F3154"/>
<path d="M42.8896 107.313C42.8946 106.786 42.2084 106.351 41.3571 106.343C40.5058 106.335 39.8117 106.757 39.8067 107.285C39.8017 107.812 40.4879 108.247 41.3392 108.255C42.1905 108.263 42.8846 107.841 42.8896 107.313Z" fill="#1F3154"/>
<path d="M49.3538 103.502C49.3588 102.974 48.6727 102.54 47.8214 102.532C46.97 102.524 46.2759 102.945 46.2709 103.473C46.266 104.001 46.9521 104.435 47.8034 104.443C48.6547 104.451 49.3489 104.03 49.3538 103.502Z" fill="#1F3154"/>
<path d="M55.8181 99.6884C55.823 99.1605 55.1369 98.7262 54.2856 98.7182C53.4343 98.7102 52.7401 99.1316 52.7352 99.6594C52.7302 100.187 53.4163 100.622 54.2676 100.63C55.119 100.638 55.8131 100.216 55.8181 99.6884Z" fill="#1F3154"/>
<path d="M62.2824 95.8956C62.2874 95.3678 61.6013 94.9335 60.7499 94.9255C59.8986 94.9175 59.2045 95.3389 59.1995 95.8667C59.1946 96.3945 59.8807 96.8289 60.732 96.8369C61.5833 96.8449 62.2775 96.4235 62.2824 95.8956Z" fill="#1F3154"/>
<path d="M68.7466 92.0896C68.7516 91.5618 68.0655 91.1274 67.2142 91.1194C66.3629 91.1114 65.6687 91.5328 65.6638 92.0607C65.6588 92.5885 66.3449 93.0228 67.1962 93.0308C68.0475 93.0388 68.7417 92.6174 68.7466 92.0896Z" fill="#1F3154"/>
<path d="M75.2109 88.2936C75.2158 87.7658 74.5297 87.3314 73.6784 87.3234C72.8271 87.3154 72.1329 87.7368 72.128 88.2646C72.123 88.7925 72.8092 89.2268 73.6605 89.2348C74.5118 89.2428 75.2059 88.8214 75.2109 88.2936Z" fill="#1F3154"/>
<path d="M81.6751 84.4778C81.6801 83.95 80.994 83.5156 80.1426 83.5076C79.2913 83.4996 78.5972 83.921 78.5922 84.4488C78.5873 84.9767 79.2734 85.411 80.1247 85.419C80.976 85.427 81.6702 85.0056 81.6751 84.4778Z" fill="#1F3154"/>
<path d="M88.1394 80.6615C88.1443 80.1337 87.4582 79.6993 86.6069 79.6913C85.7556 79.6833 85.0614 80.1047 85.0565 80.6326C85.0515 81.1604 85.7376 81.5947 86.5889 81.6027C87.4403 81.6107 88.1344 81.1893 88.1394 80.6615Z" fill="#1F3154"/>
<path d="M47.2802 111.704C47.2852 111.176 46.5991 110.742 45.7477 110.734C44.8964 110.726 44.2023 111.147 44.1973 111.675C44.1924 112.203 44.8785 112.637 45.7298 112.645C46.5811 112.653 47.2753 112.232 47.2802 111.704Z" fill="#1F3154"/>
<path d="M53.7445 107.892C53.7494 107.365 53.0633 106.93 52.212 106.922C51.3607 106.914 50.6665 107.336 50.6616 107.864C50.6566 108.391 51.3427 108.826 52.194 108.834C53.0454 108.842 53.7395 108.42 53.7445 107.892Z" fill="#1F3154"/>
<path d="M60.2087 104.079C60.2136 103.551 59.5275 103.117 58.6762 103.109C57.8249 103.101 57.1307 103.522 57.1258 104.05C57.1208 104.578 57.8069 105.012 58.6583 105.02C59.5096 105.028 60.2037 104.607 60.2087 104.079Z" fill="#1F3154"/>
<path d="M66.673 100.286C66.678 99.7586 65.9919 99.3242 65.1406 99.3162C64.2892 99.3082 63.5951 99.7296 63.5901 100.257C63.5852 100.785 64.2713 101.22 65.1226 101.228C65.9739 101.236 66.6681 100.814 66.673 100.286Z" fill="#1F3154"/>
<path d="M73.1373 96.4804C73.1422 95.9525 72.4561 95.5182 71.6048 95.5102C70.7535 95.5022 70.0593 95.9236 70.0544 96.4514C70.0494 96.9792 70.7355 97.4136 71.5869 97.4216C72.4382 97.4296 73.1323 97.0082 73.1373 96.4804Z" fill="#1F3154"/>
<path d="M79.6015 92.6843C79.6065 92.1565 78.9204 91.7222 78.069 91.7142C77.2177 91.7062 76.5236 92.1276 76.5186 92.6554C76.5137 93.1832 77.1998 93.6176 78.0511 93.6256C78.9024 93.6335 79.5966 93.2121 79.6015 92.6843Z" fill="#1F3154"/>
<path d="M86.0657 88.8685C86.0707 88.3407 85.3846 87.9064 84.5333 87.8984C83.682 87.8904 82.9878 88.3118 82.9828 88.8396C82.9779 89.3674 83.664 89.8018 84.5153 89.8098C85.3666 89.8178 86.0608 89.3964 86.0657 88.8685Z" fill="#1F3154"/>
<path d="M92.53 85.0523C92.5349 84.5244 91.8488 84.0901 90.9975 84.0821C90.1462 84.0741 89.452 84.4955 89.4471 85.0233C89.4421 85.5511 90.1282 85.9855 90.9796 85.9935C91.8309 86.0015 92.525 85.5801 92.53 85.0523Z" fill="#1F3154"/>
<path d="M54.3467 101.929L47.5692 98.0109C47.3409 97.8813 47.1782 97.6385 47.0967 97.2984L45.8748 91.4854L52.6522 95.4039L53.8742 101.217C53.9394 101.557 54.1184 101.8 54.3467 101.929Z" fill="#1F3154"/>
<path d="M54.3463 102.442C54.2603 102.442 54.1723 102.42 54.0923 102.375C54.0883 102.372 54.0833 102.369 54.0793 102.367L47.3131 98.454C47.0681 98.315 46.742 98.0199 46.599 97.4178L45.3738 91.5908C45.3318 91.3938 45.4108 91.1898 45.5748 91.0707C45.7379 90.9537 45.9559 90.9407 46.1309 91.0427L52.9081 94.9604C53.0341 95.0334 53.1231 95.1554 53.1531 95.2985L54.3753 101.111C54.4093 101.289 54.4874 101.418 54.5954 101.482L54.6024 101.487C54.8474 101.628 54.9314 101.94 54.7904 102.185C54.6954 102.35 54.5234 102.442 54.3463 102.442ZM46.612 92.504L47.5982 97.1938C47.6272 97.3158 47.6932 97.4918 47.8232 97.5659L53.2422 100.699L52.198 95.7325L46.612 92.504Z" fill="#1F3154"/>
<path d="M96.1367 30.0351C95.9088 29.8893 95.5993 29.8731 95.2568 29.9865L89.5545 31.8649L82.777 27.9462L88.4793 26.068C88.8214 25.9546 89.1313 25.987 89.3592 26.1165L96.1367 30.0351Z" fill="#1F3154"/>
<path d="M89.5544 32.3767C89.4654 32.3767 89.3764 32.3537 89.2984 32.3077L82.5212 28.389C82.3462 28.288 82.2472 28.094 82.2682 27.893C82.2882 27.6929 82.4252 27.5229 82.6172 27.4599L88.3192 25.5815C88.7843 25.4285 89.2424 25.4605 89.6134 25.6716L96.3286 29.5542C96.3566 29.5702 96.3856 29.5862 96.4126 29.6042C96.6466 29.7543 96.7186 30.0643 96.5736 30.3014C96.4296 30.5394 96.1205 30.6204 95.8805 30.4784L95.8365 30.4534C95.7415 30.4074 95.5914 30.4164 95.4164 30.4724L89.7144 32.3507C89.6624 32.3687 89.6084 32.3767 89.5544 32.3767ZM84.0235 28.075L89.6124 31.3065L94.5173 29.6902L89.1033 26.5597C88.9923 26.4957 88.8213 26.4937 88.6403 26.5537L84.0235 28.075Z" fill="#1F3154"/>
<path d="M30.6086 100.375L23.8311 96.4563C23.2444 96.1325 23.1306 95.1609 23.5868 94.1084L26.7312 86.7085L33.5087 90.627L30.348 98.0108C29.9081 99.0633 30.0223 100.035 30.6086 100.375Z" fill="#1F3154"/>
<path d="M30.6082 100.887C30.5212 100.887 30.4322 100.865 30.3522 100.818L23.575 96.8997C22.7449 96.4416 22.5529 95.2084 23.117 93.9052L26.2605 86.5089C26.3175 86.3739 26.4305 86.2699 26.5695 86.2229C26.7086 86.1789 26.8616 86.1919 26.9876 86.2659L33.7648 90.1836C33.9898 90.3126 34.0818 90.5896 33.9798 90.8277L30.8193 98.2119C30.4632 99.0621 30.5622 99.7542 30.8633 99.9312L30.8653 99.9322C31.1093 100.074 31.1933 100.387 31.0513 100.632C30.9563 100.796 30.7843 100.887 30.6082 100.887ZM26.9766 87.4421L24.0581 94.3083C23.6931 95.1514 23.7851 95.8465 24.0781 96.0085L29.5721 99.1851C29.5771 98.759 29.6761 98.2899 29.8761 97.8129L32.8596 90.8427L26.9766 87.4421Z" fill="#1F3154"/>
<path d="M88.6912 13.9236L82.7606 10.5718C82.4348 10.3775 81.9786 10.426 81.5223 10.6852C81.1966 10.8795 80.8708 11.1709 80.5776 11.5595L75.7058 17.988L68.9283 14.0693L73.7997 7.64098C74.0933 7.26859 74.4191 6.96093 74.7611 6.78274C75.2011 6.52371 75.6573 6.45897 75.9831 6.65327L81.9133 10.0051L88.6912 13.9236Z" fill="#1F3154"/>
<path d="M75.706 18.5004C75.618 18.5004 75.53 18.4784 75.4499 18.4313L68.6728 14.5127C68.5458 14.4397 68.4557 14.3146 68.4267 14.1706C68.3977 14.0266 68.4317 13.8776 68.5208 13.7606L73.3916 7.33245C73.7597 6.86536 74.1387 6.53032 74.5238 6.32829C75.1269 5.97322 75.763 5.9282 76.2451 6.21325L82.1651 9.55884L88.9472 13.4805C89.1913 13.6215 89.2753 13.9326 89.1363 14.1776C88.9953 14.4227 88.6832 14.5067 88.4392 14.3697L82.5081 11.0181C82.3411 10.9181 82.0661 10.9651 81.774 11.1301C81.502 11.2931 81.2259 11.5502 80.9869 11.8682L76.1141 18.2973C76.014 18.4293 75.861 18.5004 75.706 18.5004ZM69.6869 13.9166L75.571 17.3182L80.1697 11.2501C80.4878 10.8281 80.8649 10.481 81.2599 10.245C81.2659 10.242 81.2719 10.238 81.2789 10.235L75.731 7.09942C75.577 7.0064 75.3009 7.0574 75.0209 7.22343C74.7458 7.36847 74.4698 7.6185 74.2017 7.95856L69.6869 13.9166Z" fill="#1F3154"/>
<path d="M33.5126 90.6218L26.7377 86.7088C25.0125 84.5336 23.7127 81.793 22.953 78.5165L29.7278 82.4294C30.4876 85.706 31.7874 88.4465 33.5126 90.6218Z" fill="white"/>
<path d="M33.5128 91.1337C33.4248 91.1337 33.3368 91.1117 33.2568 91.0647L26.4816 87.1521C26.4256 87.12 26.3766 87.078 26.3366 87.027C24.5223 84.7396 23.216 81.9152 22.4539 78.6326C22.4079 78.4336 22.4839 78.2265 22.6479 78.1055C22.811 77.9835 23.032 77.9705 23.209 78.0735L29.9842 81.9862C30.1072 82.0572 30.1952 82.1752 30.2273 82.3132C30.9524 85.4458 32.1936 88.1332 33.9139 90.3036C34.0669 90.4956 34.0609 90.7697 33.9009 90.9567C33.7999 91.0727 33.6578 91.1337 33.5128 91.1337ZM27.0787 86.3149L31.7935 89.0374C30.6843 87.2001 29.8422 85.0987 29.2811 82.7623L23.7531 79.5698C24.4903 82.1712 25.6065 84.4356 27.0787 86.3149Z" fill="#1F3154"/>
<path d="M66.6389 18.8895L59.864 14.9766C63.1225 13.9754 66.1745 13.6878 68.9262 14.0721L75.701 17.9851C72.9493 17.6007 69.8974 17.8884 66.6389 18.8895Z" fill="white"/>
<path d="M66.6384 19.4015C66.5494 19.4015 66.4614 19.3784 66.3824 19.3325L59.6082 15.4198C59.4322 15.3178 59.3322 15.1217 59.3552 14.9187C59.3782 14.7167 59.5192 14.5466 59.7143 14.4876C63.0088 13.4745 66.1323 13.1644 68.9968 13.5655C69.0619 13.5745 69.1249 13.5965 69.1819 13.6295L75.957 17.5421C76.1691 17.6642 76.2651 17.9202 76.1851 18.1513C76.1061 18.3823 75.88 18.5223 75.63 18.4923C72.9105 18.1122 69.936 18.4113 66.7885 19.3784C66.7394 19.3945 66.6884 19.4015 66.6384 19.4015ZM61.1695 15.1397L66.7024 18.3353C69.0709 17.6282 71.3602 17.2851 73.5076 17.3101L68.7568 14.5666C66.4014 14.2506 63.855 14.4446 61.1695 15.1397Z" fill="#1F3154"/>
<path d="M29.6816 66.214L22.9067 62.3011C23.6659 58.153 24.9357 53.938 26.6325 49.8112L33.4073 53.7241C31.7106 57.8509 30.4408 62.0659 29.6816 66.214Z" fill="white"/>
<path d="M29.6811 66.7256C29.5921 66.7256 29.5041 66.7026 29.4251 66.6566L22.6509 62.7439C22.4639 62.6359 22.3639 62.4219 22.4029 62.2088C23.16 58.0721 24.4242 53.8354 26.1585 49.6156C26.2155 49.4796 26.3276 49.3736 26.4676 49.3256C26.6066 49.2776 26.7586 49.2916 26.8887 49.3676L33.6638 53.2813C33.8858 53.4093 33.9789 53.6824 33.8818 53.9194C32.1746 58.0701 30.9303 62.2378 30.1852 66.3055C30.1552 66.4695 30.0472 66.6085 29.8962 66.6786C29.8272 66.7096 29.7541 66.7256 29.6811 66.7256ZM23.4771 62.0388L29.3131 65.4094C30.0552 61.6337 31.2154 57.783 32.7647 53.9444L26.8857 50.5478C25.3394 54.4015 24.1942 58.2621 23.4771 62.0388Z" fill="#1F3154"/>
<path d="M43.4128 36.5123L36.6379 32.5994C39.3889 29.0575 42.4325 25.8475 45.6757 23.1179L52.4505 27.0309C49.2074 29.7604 46.1638 32.9704 43.4128 36.5123Z" fill="white"/>
<path d="M43.4125 37.0246C43.3245 37.0246 43.2365 37.0026 43.1565 36.9556L36.3823 33.0429C36.2543 32.9689 36.1643 32.8439 36.1363 32.6978C36.1073 32.5528 36.1433 32.4028 36.2343 32.2858C39.0448 28.6651 42.1103 25.4496 45.3459 22.7261C45.5119 22.5891 45.7449 22.5671 45.9319 22.6751L52.7071 26.5878C52.8521 26.6708 52.9462 26.8198 52.9612 26.9858C52.9762 27.1519 52.9081 27.3149 52.7811 27.4229C49.6036 30.0964 46.5871 33.2599 43.8166 36.8265C43.7166 36.9556 43.5656 37.0246 43.4125 37.0246ZM37.4055 32.4518L43.2835 35.8464C45.86 32.5728 48.6424 29.6393 51.5669 27.1119L45.7319 23.7423C42.7894 26.2507 39.9919 29.1772 37.4055 32.4518Z" fill="#1F3154"/>
<path d="M96.6641 40.6926C96.6641 41.6299 96.0961 42.7589 95.2923 43.4192L89.6017 48.0736C88.8623 52.2062 87.5871 56.4346 85.8724 60.5777L89.0659 64.3268C89.5162 64.87 89.4196 65.9563 88.8409 66.9469L82.9468 77.0971C82.6145 77.6617 82.1645 78.1197 81.7145 78.3753C81.3929 78.567 81.0606 78.6522 80.7713 78.6095L75.874 77.7895C73.1305 81.3256 70.0868 84.5208 66.8289 87.258L65.6396 94.4687C65.4679 95.4698 64.7607 96.5349 63.9355 97.0142L55.5765 101.807C54.762 102.276 54.0548 102.031 53.8727 101.211L52.6402 95.3953C49.393 96.3965 46.3497 96.6947 43.5847 96.3112L38.7086 102.744C38.4192 103.117 38.0869 103.405 37.7657 103.596C37.3156 103.852 36.8654 103.916 36.5331 103.724L30.6068 100.369C30.0176 100.039 29.9103 99.0698 30.3603 98.0154L33.5112 90.6237C31.7857 88.451 30.489 85.703 29.7282 82.4332L24.0376 84.3078C23.2339 84.5741 22.6444 84.1054 22.6444 83.1575L22.6229 73.6143C22.6122 72.6771 23.191 71.5268 23.9947 70.8771L29.6853 66.212C30.4461 62.0688 31.7106 57.8511 33.4039 53.7292L30.2211 49.9695C29.7711 49.437 29.8674 48.3399 30.4354 47.3494L36.3403 37.1991C36.6725 36.624 37.1225 36.1767 37.5621 35.9104C37.8941 35.7293 38.2264 35.6441 38.5158 35.6974L43.4133 36.5175C46.1673 32.9708 49.2109 29.7648 52.4473 27.0276L53.637 19.8276C53.8084 18.8158 54.5156 17.7507 55.3408 17.2821L63.6891 12.4892C64.5143 12.0206 65.2322 12.2549 65.4038 13.075L66.6361 18.8904C69.894 17.8892 72.9483 17.6016 75.7023 17.985L80.5784 11.5519C80.8678 11.1791 81.2001 10.8809 81.5321 10.6892C81.9824 10.4336 82.4324 10.3697 82.7647 10.5614L88.691 13.9164C89.2802 14.2572 89.3767 15.2371 88.9267 16.2809L85.7758 23.6726C87.4906 25.8453 88.7873 28.5826 89.5591 31.8524L95.2601 29.9885C96.0639 29.7223 96.6319 30.2016 96.6426 31.1388L96.6641 40.6926Z" fill="#E0FEF2"/>
<path d="M96.6418 31.1363C96.6418 30.1971 96.0555 29.7113 95.2568 29.9866L89.5545 31.8649C88.7892 28.594 87.4857 25.8413 85.7749 23.6716L88.9356 16.2879C89.3755 15.2353 89.2776 14.2476 88.6913 13.9237L82.7607 10.5719C82.4349 10.3776 81.9787 10.4261 81.5224 10.6853C81.1967 10.8795 80.8709 11.171 80.5777 11.5596L75.7059 17.988C74.4192 17.8099 73.0668 17.7775 71.6654 17.8909C77.303 24.3841 80.7567 33.1117 80.7567 42.7138C80.7567 53.8866 76.081 63.8935 68.7331 70.5324C66.061 73.7709 62.9819 76.5074 59.7071 78.3857C53.8743 81.7213 48.6445 81.6404 45.2229 78.7743C37.6145 78.2399 30.7228 74.9205 25.3626 69.7551L23.9943 70.8886C23.1956 71.5363 22.6093 72.6697 22.6256 73.6089L22.6419 83.1625C22.6419 84.1016 23.2282 84.5712 24.0269 84.3121L29.7292 82.4338C30.4945 85.7047 31.7817 88.4412 33.5088 90.6271L30.3482 98.0109C29.9082 99.0634 30.0224 100.035 30.6087 100.375L36.523 103.727C36.8651 103.921 37.3213 103.856 37.7613 103.597C38.087 103.403 38.4128 103.112 38.706 102.739L43.5778 96.3107C46.3474 96.6993 49.3939 96.3917 52.6523 95.4039L53.8743 101.217C54.0537 102.027 54.7541 102.27 55.5851 101.8L63.9266 97.007C64.7579 96.5374 65.4747 95.4687 65.6373 94.4647L66.8266 87.2591C70.0851 84.5226 73.132 81.3165 75.869 77.7866L80.773 78.6124C81.0662 78.6447 81.3924 78.5638 81.7181 78.3695C82.1744 78.1105 82.6143 77.657 82.94 77.0903L88.8377 66.9539C89.4244 65.9499 89.5222 64.8651 89.066 64.3307L85.8728 60.574C87.5831 56.4288 88.8703 52.2026 89.6038 48.0735L95.2894 43.4101C96.104 42.7624 96.6744 41.6289 96.6744 40.6897L96.6418 31.1363Z" fill="#1BF3A4"/>
<path d="M36.9684 104.346C36.7233 104.346 36.4913 104.291 36.2853 104.179L30.3502 100.817C29.5261 100.349 29.3341 99.1151 29.8842 97.8149L32.9237 90.6987C31.3044 88.5823 30.1082 86.0259 29.3611 83.0894L24.1942 84.7907C23.6721 84.9677 23.17 84.9117 22.784 84.6346C22.3659 84.3356 22.1348 83.8135 22.1328 83.1644L22.1058 73.6118C22.1028 72.5216 22.7469 71.2344 23.6731 70.4822L29.2121 65.9365C29.9562 61.9518 31.1674 57.8771 32.8157 53.8184L29.8292 50.3048C29.2341 49.5917 29.3021 48.3015 29.9962 47.0923L35.8972 36.9465C36.2703 36.3044 36.7733 35.7803 37.3124 35.4713C37.7535 35.2192 38.1986 35.1212 38.5986 35.1892L43.1964 35.9573C45.9169 32.4868 48.8694 29.3942 51.9769 26.7618L53.1331 19.7456C53.3342 18.5764 54.1373 17.3822 55.0855 16.8371L63.4379 12.0443C64.021 11.7112 64.6031 11.6492 65.0782 11.8612C65.5022 12.0533 65.7963 12.4483 65.9043 12.9744L67.0245 18.2413C70.006 17.3882 72.8435 17.1181 75.473 17.4392L80.1718 11.2461C80.4968 10.8191 80.8779 10.473 81.274 10.246C81.8941 9.89089 82.5282 9.84287 83.0172 10.1179L88.9443 13.4765C89.7654 13.9406 89.9524 15.1778 89.4003 16.484L86.3608 23.6012C87.9691 25.7096 89.1653 28.262 89.9214 31.1995L95.1003 29.5022C95.6194 29.3272 96.1165 29.3822 96.4995 29.6553C96.9176 29.9553 97.1497 30.4804 97.1517 31.1345L97.1786 40.6872C97.1817 41.7793 96.5376 43.0666 95.6104 43.8167L90.0724 48.3495C89.3563 52.2831 88.1441 56.3618 86.4688 60.4805L89.4553 63.9941C90.0555 64.7133 89.9864 66.0035 89.2873 67.2087L83.3873 77.3524C83.0192 77.9845 82.5172 78.5046 81.9721 78.8186C81.535 79.0707 81.0909 79.1757 80.6939 79.1107L76.0891 78.3416C73.3966 81.7832 70.4441 84.8707 67.3076 87.5262L66.1404 94.5483C65.9523 95.7075 65.1492 96.9047 64.189 97.4558L55.8366 102.249C55.2615 102.578 54.6854 102.644 54.2113 102.434C53.7853 102.246 53.4872 101.853 53.3702 101.326L52.258 96.0456C49.2715 96.8988 46.431 97.1728 43.8125 96.8587L39.1127 103.053C38.7897 103.473 38.4126 103.813 38.0195 104.039C37.6645 104.243 37.3034 104.346 36.9684 104.346ZM29.7282 81.9172C29.8151 81.9172 29.9022 81.9392 29.9792 81.9832C30.1042 82.0532 30.1942 82.1732 30.2272 82.3133C30.9523 85.4458 32.1936 88.1333 33.9138 90.3036C34.0309 90.4506 34.0579 90.6497 33.9839 90.8227L30.8273 98.215C30.4703 99.0591 30.5633 99.7602 30.8543 99.9263L36.7823 103.283C36.9384 103.368 37.2124 103.322 37.5095 103.151C37.7865 102.992 38.0596 102.743 38.2986 102.431L43.1754 96.0036C43.2885 95.8576 43.4755 95.7846 43.6525 95.8066C46.37 96.1786 49.3395 95.8756 52.495 94.9074C52.6321 94.8644 52.7821 94.8834 52.9051 94.9564C53.0291 95.0294 53.1161 95.1515 53.1461 95.2915L54.3714 101.109C54.4014 101.246 54.4714 101.429 54.6254 101.498C54.7964 101.572 55.0475 101.521 55.3265 101.361L63.6789 96.5677C64.3681 96.1716 64.9922 95.2325 65.1302 94.3823L66.3284 87.1721C66.3484 87.0521 66.4104 86.943 66.5044 86.864C69.712 84.1666 72.7275 81.007 75.467 77.4724C75.582 77.3234 75.772 77.2474 75.956 77.2814L80.8549 78.0995C81.0099 78.1205 81.2309 78.0635 81.462 77.9305C81.8481 77.7085 82.2271 77.3104 82.5012 76.8383L88.4012 66.6946C88.9083 65.8214 88.9373 64.9713 88.6722 64.6542L85.4867 60.9066C85.3627 60.7596 85.3306 60.5565 85.4037 60.3795C87.1389 56.1648 88.3822 51.9941 89.0983 47.9824C89.1193 47.8624 89.1833 47.7534 89.2783 47.6763L94.9643 43.0225C95.6574 42.4614 96.1575 41.4813 96.1545 40.6902L96.1275 31.1375C96.1265 30.8265 96.0445 30.5894 95.9034 30.4884C95.7644 30.3884 95.5654 30.4264 95.4234 30.4734C95.4224 30.4744 95.4214 30.4744 95.4194 30.4754L89.7154 32.3447C89.5804 32.3897 89.4323 32.3757 89.3053 32.3037C89.1803 32.2337 89.0903 32.1147 89.0583 31.9747C88.3202 28.8411 87.0789 26.1567 85.3697 23.9953C85.2536 23.8473 85.2266 23.6482 85.3006 23.4762L88.4572 16.084C88.8172 15.2338 88.7282 14.5307 88.4402 14.3677L82.5132 11.0091C82.3511 10.9211 82.0791 10.9641 81.783 11.1351C81.504 11.2941 81.2299 11.5472 80.9879 11.8652L76.1091 18.2953C75.998 18.4424 75.822 18.5164 75.63 18.4924C72.9105 18.1123 69.936 18.4113 66.7885 19.3785C66.6514 19.4235 66.5034 19.4035 66.3784 19.3305C66.2554 19.2575 66.1674 19.1365 66.1374 18.9954L64.9021 13.1834C64.8731 13.0424 64.8071 12.8634 64.6571 12.7954C64.4881 12.7214 64.226 12.7724 63.948 12.9324L55.5956 17.7252C54.9044 18.1223 54.2933 19.0435 54.1433 19.9156L52.9561 27.1138C52.9361 27.2349 52.8741 27.3439 52.7811 27.4229C49.6035 30.0963 46.587 33.2599 43.8165 36.8265C43.7015 36.9745 43.5105 37.0495 43.3285 37.0175L38.4296 36.1994C38.2686 36.1714 38.0516 36.2284 37.8215 36.3594C37.4415 36.5775 37.0634 36.9795 36.7833 37.4606L30.8833 47.6043C30.3802 48.4805 30.3502 49.3306 30.6123 49.6447L33.7978 53.3923C33.9218 53.5383 33.9539 53.7424 33.8819 53.9194C32.1746 58.0701 30.9303 62.2378 30.1852 66.3055C30.1632 66.4245 30.0992 66.5326 30.0062 66.6096L24.3212 71.2764C23.6391 71.8295 23.128 72.8316 23.13 73.6088L23.157 83.1614C23.158 83.4675 23.24 83.7015 23.3811 83.8025C23.5211 83.9045 23.7261 83.8675 23.8711 83.8195L29.5681 81.9432C29.6201 81.9262 29.6741 81.9172 29.7282 81.9172Z" fill="#1F3154"/>
<path d="M46.8684 15.9154L45.6791 23.121L52.457 27.0233L53.6463 19.834C53.7254 19.3379 53.9394 18.8323 54.2278 18.3877L47.4535 14.4709C47.1627 14.9129 46.9479 15.4171 46.8684 15.9154Z" fill="#1F3154"/>
<path d="M52.457 27.535C52.369 27.535 52.28 27.512 52.202 27.4669L45.4238 23.5653C45.2388 23.4583 45.1388 23.2482 45.1738 23.0382L46.363 15.832C46.451 15.2829 46.68 14.7158 47.0251 14.1897C47.1741 13.9626 47.4762 13.8906 47.7092 14.0276L54.4834 17.9443C54.6054 18.0143 54.6924 18.1313 54.7254 18.2674C54.7584 18.4044 54.7334 18.5474 54.6574 18.6654C54.3954 19.0705 54.2153 19.5136 54.1523 19.9147L52.9621 27.1069C52.9351 27.2719 52.8281 27.4139 52.6761 27.4859C52.6071 27.519 52.532 27.535 52.457 27.535ZM46.242 22.8542L52.072 26.2107L53.1412 19.7496C53.2022 19.3636 53.3352 18.9645 53.5302 18.5754L47.6432 15.1718C47.5092 15.4489 47.4162 15.7309 47.3742 15.996C47.3732 15.997 47.3732 15.998 47.3732 15.998L46.242 22.8542Z" fill="#1F3154"/>
<path d="M58.1593 8.45066C57.8494 8.27257 57.3936 8.30488 56.9211 8.58023L48.5628 13.3731C48.146 13.6134 47.7582 14.0079 47.4535 14.4709L54.2278 18.3877C54.5329 17.9181 54.9219 17.5167 55.3403 17.2756L63.6986 12.4826C64.1711 12.2073 64.6273 12.1749 64.9368 12.3692L58.1593 8.45066Z" fill="white"/>
<path d="M54.2273 18.8995C54.1393 18.8995 54.0513 18.8775 53.9713 18.8305L47.1971 14.9138C47.0751 14.8438 46.9871 14.7258 46.9551 14.5887C46.9221 14.4517 46.9481 14.3067 47.0251 14.1887C47.3871 13.6396 47.8312 13.2045 48.3083 12.9295L56.6657 8.13665C57.2808 7.77858 57.9339 7.72956 58.415 8.00661L65.1422 11.8963C65.1642 11.9083 65.1872 11.9213 65.2092 11.9353C65.4452 12.0833 65.5202 12.3944 65.3762 12.6334C65.2322 12.8734 64.9211 12.9535 64.6811 12.8124L64.6451 12.7914C64.4911 12.7154 64.227 12.7674 63.957 12.9245L55.5955 17.7193C55.2635 17.9113 54.9294 18.2474 54.6564 18.6674C54.5584 18.8175 54.3943 18.8995 54.2273 18.8995ZM48.2153 14.3197L54.0843 17.7133C54.3863 17.3392 54.7264 17.0382 55.0844 16.8321L63.3929 12.0683L57.9029 8.89478C57.7849 8.82576 57.5249 8.81976 57.1788 9.02279L48.8184 13.8176C48.6123 13.9366 48.4063 14.1087 48.2153 14.3197Z" fill="#1F3154"/>
<path d="M23.4401 46.0656L26.6334 49.8061L33.4109 53.7247L30.2176 49.9681C30.0434 49.7641 29.9774 49.463 29.9631 49.1318L23.1915 45.2167C23.2059 45.5504 23.2715 45.8544 23.4401 46.0656Z" fill="#1F3154"/>
<path d="M33.4107 54.2365C33.3227 54.2365 33.2347 54.2145 33.1547 54.1675L26.3775 50.2488C26.3265 50.2198 26.2815 50.1828 26.2445 50.1378L23.051 46.3982C23.047 46.3942 23.043 46.3901 23.04 46.3851C22.8199 46.1091 22.7019 45.7351 22.6799 45.24C22.6709 45.0529 22.7649 44.8769 22.9249 44.7789C23.085 44.6819 23.285 44.6789 23.447 44.7739L30.2192 48.6886C30.3712 48.7756 30.4672 48.9346 30.4752 49.1096C30.4892 49.4497 30.5632 49.5847 30.6073 49.6357L33.8008 53.3924C33.9618 53.5824 33.9638 53.8614 33.8038 54.0525C33.7038 54.1725 33.5578 54.2365 33.4107 54.2365ZM26.9656 49.4067L31.0993 51.7971L29.8271 50.2998C29.6421 50.0828 29.5271 49.8007 29.4771 49.4417L24.5782 46.6102L26.9656 49.4067Z" fill="#1F3154"/>
<path d="M30.5724 32.1812C30.208 32.4402 29.8512 32.804 29.566 33.2899L23.668 43.4263C23.3168 44.0451 23.1688 44.6805 23.1915 45.2167L29.963 49.1318C29.9399 48.5951 30.0931 47.9556 30.4459 47.3449L36.3435 37.2085C36.6132 36.7259 36.9752 36.3626 37.3403 36.0943L30.5724 32.1812Z" fill="white"/>
<path d="M29.9631 49.6437C29.8751 49.6437 29.7861 49.6207 29.7071 49.5747L22.9349 45.6601C22.7829 45.573 22.6869 45.413 22.6789 45.238C22.6519 44.5719 22.8449 43.8388 23.223 43.1736L29.123 33.0329C29.424 32.5208 29.8111 32.0937 30.2752 31.7637C30.4392 31.6477 30.6562 31.6367 30.8283 31.7377L37.5964 35.6513C37.7465 35.7374 37.8425 35.8934 37.8515 36.0664C37.8615 36.2394 37.7825 36.4045 37.6434 36.5075C37.2814 36.7725 36.9943 37.0926 36.7903 37.4587L30.8893 47.6024C30.6062 48.0915 30.4542 48.6416 30.4752 49.1096C30.4832 49.2967 30.3882 49.4727 30.2282 49.5697C30.1472 49.6187 30.0551 49.6437 29.9631 49.6437ZM23.709 44.9249L29.531 48.2905C29.6201 47.8844 29.7801 47.4744 30.0031 47.0893L35.9001 36.9516C36.0552 36.6755 36.2452 36.4175 36.4682 36.1814L30.6182 32.7989C30.3812 33.0099 30.1762 33.2609 30.0081 33.549L24.1111 43.6837C23.8811 44.0888 23.7421 44.5209 23.709 44.9249Z" fill="#1F3154"/>
<path d="M37.5654 35.913C37.8911 35.7348 38.2173 35.6377 38.5104 35.7025L43.4145 36.5122L36.6366 32.5935L31.733 31.7839C31.4557 31.7354 31.1136 31.8163 30.7879 32.0106C30.7147 32.051 30.6451 32.1294 30.5723 32.1811L37.3402 36.0942C37.4162 36.0384 37.4898 35.9576 37.5654 35.913Z" fill="#1F3154"/>
<path d="M43.4144 37.0245C43.3874 37.0245 43.3594 37.0225 43.3314 37.0175L38.4275 36.2074C38.2665 36.1724 38.0685 36.2254 37.8264 36.3544C37.7294 36.4385 37.6874 36.4755 37.6444 36.5065C37.4814 36.6265 37.2603 36.6405 37.0843 36.5375L30.3162 32.6238C30.1641 32.5368 30.0681 32.3778 30.0601 32.2027C30.0531 32.0277 30.1351 31.8617 30.2791 31.7607C30.3822 31.6726 30.4512 31.6116 30.5422 31.5616C30.9572 31.3126 31.4163 31.2086 31.8204 31.2786L36.7192 32.0887C36.7802 32.0987 36.8393 32.1197 36.8923 32.1507L43.6704 36.0694C43.8845 36.1934 43.9795 36.4524 43.8965 36.6855C43.8225 36.8915 43.6274 37.0245 43.4144 37.0245ZM38.3245 35.1702C38.4265 35.1702 38.5256 35.1812 38.6216 35.2022L40.7259 35.5493L36.4602 33.0839L31.8354 32.3198L37.2963 35.4773C37.3003 35.4753 37.3043 35.4723 37.3083 35.4703L37.3203 35.4643C37.6774 35.2683 38.0145 35.1702 38.3245 35.1702Z" fill="#1F3154"/>
<path d="M23.9941 70.8886L29.6797 66.209L22.9023 62.3066L17.2162 66.9701C16.7711 67.3311 16.4116 67.8502 16.1677 68.3969L22.9393 72.308C23.1851 71.7634 23.5494 71.2493 23.9941 70.8886Z" fill="#1F3154"/>
<path d="M22.9389 72.8197C22.8499 72.8197 22.7619 72.7967 22.6829 72.7507L15.9117 68.84C15.6847 68.709 15.5937 68.4279 15.6997 68.1879C15.9067 67.7248 16.2818 67.0677 16.8929 66.5716L22.5769 61.9108C22.7429 61.7758 22.9749 61.7588 23.157 61.8628L29.9351 65.7645C30.0812 65.8485 30.1762 65.9985 30.1902 66.1656C30.2042 66.3336 30.1352 66.4976 30.0051 66.6036L24.3192 71.2834C24.3182 71.2844 24.3182 71.2854 24.3172 71.2864C23.9561 71.5785 23.6331 72.0166 23.406 72.5186C23.346 72.6507 23.233 72.7507 23.096 72.7947C23.0449 72.8117 22.9919 72.8197 22.9389 72.8197ZM16.8459 68.1969L22.7339 71.5975C22.9949 71.1604 23.318 70.7783 23.6701 70.4923L28.7839 66.2836L22.9529 62.927L17.541 67.3658C17.283 67.5748 17.0449 67.8619 16.8459 68.1969Z" fill="#1F3154"/>
<path d="M22.6255 73.609C22.6184 73.1929 22.7441 72.7413 22.9394 72.3081L16.1678 68.397C15.9741 68.8312 15.848 69.2819 15.848 69.6905L15.8639 79.2439C15.8639 79.7783 16.0596 80.1669 16.3691 80.3451L23.147 84.2636C22.8371 84.0855 22.6418 83.6969 22.6418 83.1626L22.6255 73.609Z" fill="white"/>
<path d="M23.147 84.7757C23.06 84.7757 22.972 84.7538 22.892 84.7077C22.89 84.7067 22.888 84.7047 22.885 84.7037L16.1128 80.7881C15.6297 80.51 15.3517 79.9469 15.3517 79.2438L15.3357 69.6912C15.3357 69.2351 15.4587 68.729 15.7008 68.1879C15.7598 68.0559 15.8718 67.9549 16.0098 67.9099C16.1498 67.8649 16.2979 67.8809 16.4239 67.9539L23.195 71.8645C23.4231 71.9956 23.5141 72.2776 23.4061 72.5176C23.225 72.9207 23.132 73.2948 23.138 73.5988V73.6078L23.154 83.1615C23.154 83.4835 23.246 83.7286 23.4011 83.8186L23.4031 83.8206C23.6481 83.9616 23.7321 84.2747 23.5911 84.5197C23.4961 84.6837 23.324 84.7757 23.147 84.7757ZM16.4399 69.1461C16.3869 69.3431 16.3599 69.5261 16.3599 69.6902L16.3759 79.2428C16.3759 79.5608 16.4709 79.8129 16.6249 79.9009L22.1299 83.0845L22.1139 73.6138C22.1079 73.2778 22.1708 72.9147 22.3009 72.5306L16.4399 69.1461Z" fill="#1F3154"/>
<path d="M85.9721 51.3437L66.5341 83.7774L51.2444 83.7668L51.0235 83.7774L51.034 83.7668C44.8373 83.4709 40.6186 78.3454 40.587 69.6585C40.5557 57.0087 49.4033 41.6217 60.3551 35.2703C68.1612 30.7472 74.9366 32.0259 78.1873 37.7221L78.4819 38.2822L85.9721 51.3437Z" fill="#E0FEF2"/>
<path d="M85.9683 51.3434L66.5368 83.778L51.2491 83.7683L51.0264 83.778L51.0361 83.7683C44.8398 83.4668 40.6184 78.3414 40.5894 69.6565C40.5894 68.0712 40.725 66.4471 40.9765 64.8035C43.0874 66.2623 45.5466 67.0987 48.1897 67.0987C55.8964 67.0987 62.1509 59.9504 62.1509 51.1294C62.1509 45.7609 59.8273 41.0148 56.2739 38.1263C57.5907 37.0371 58.9558 36.084 60.3596 35.267C68.1632 30.7447 74.9405 32.0284 78.184 37.7179L78.4842 38.282L85.9683 51.3434Z" fill="#1BF3A4"/>
<path d="M51.0238 84.1259C50.9878 84.1259 50.9524 84.1205 50.919 84.1099C44.3592 83.7442 40.2695 78.2173 40.2389 69.6599C40.2075 56.926 49.1532 41.3641 60.1804 34.9689C64.5321 32.447 68.6939 31.6172 72.2188 32.5678C74.87 33.2833 77.0387 35.0056 78.4901 37.5493L78.7902 38.1199L86.2742 51.1705C86.3368 51.2797 86.3354 51.4144 86.2708 51.5226L66.8328 83.9565C66.7702 84.0616 66.6565 84.1259 66.5341 84.1259L51.2443 84.1154L51.0401 84.1256C51.0347 84.1259 51.0293 84.1259 51.0238 84.1259ZM51.228 83.4189L66.3367 83.4291L85.5685 51.3399L77.8791 37.8844C76.5269 35.516 74.5052 33.9066 72.0371 33.2408C68.6959 32.3405 64.7172 33.1462 60.5302 35.5718C49.6948 41.8557 40.905 57.1465 40.9357 69.6575C40.9649 77.8492 44.841 83.1222 51.0504 83.4189C51.0674 83.4199 51.0844 83.422 51.1007 83.425L51.228 83.4189Z" fill="#1F3154"/>
<path d="M73.9977 50.2272C81.578 45.8309 87.7421 49.3526 87.7668 58.1091C87.7915 66.852 81.6674 77.507 74.0871 81.9033C66.5127 86.2961 60.3486 82.7676 60.3239 74.0247C60.2992 65.2683 66.4233 54.62 73.9977 50.2272Z" fill="#E0FEF2"/>
<path d="M87.7689 58.1123C87.7883 66.8555 81.6693 77.505 74.0886 81.901C66.5173 86.2969 60.3501 82.7665 60.3208 74.0233C60.3208 73.5954 60.3307 73.1674 60.3692 72.7395C62.0636 73.644 63.942 74.14 65.9172 74.14C73.3043 74.14 79.2973 67.1473 79.2973 58.511C79.2973 54.9515 78.271 51.6545 76.5379 49.0286C82.9086 46.7042 87.7398 50.3513 87.7689 58.1123Z" fill="white"/>
<path d="M67.9338 84.1466C66.5715 84.1466 65.3098 83.8285 64.1932 83.1875C61.4855 81.6329 59.9878 78.3792 59.9755 74.0258C59.951 65.1796 66.1625 54.368 73.8227 49.9255C77.6082 47.7316 81.1862 47.3812 83.8979 48.9388C86.6049 50.493 88.1026 53.7495 88.1148 58.108C88.14 66.9502 81.9259 77.76 74.2623 82.2045C72.0378 83.4947 69.8827 84.1466 67.9338 84.1466ZM74.1724 50.5284C66.7042 54.8593 60.6485 65.3997 60.6723 74.0238C60.6839 78.1179 62.0578 81.1576 64.5402 82.5832C67.0281 84.0109 70.357 83.6638 73.9125 81.6016C81.3842 77.2687 87.4425 66.73 87.418 58.11C87.4065 54.0108 86.0333 50.9683 83.5509 49.5431C81.0637 48.1137 77.7314 48.4642 74.1724 50.5284Z" fill="#1F3154"/>
<path d="M74.0031 57.7436C76.0495 56.5571 77.7002 57.5132 77.7068 59.8574C77.7092 60.7254 77.4884 61.6712 77.1014 62.5734C76.8921 63.0704 76.8168 63.5709 76.9137 63.9494L78.1024 68.7862C78.3221 69.6755 77.6618 71.0382 76.7564 71.5631L71.3436 74.7008C70.4381 75.2256 69.7723 74.6317 69.9861 73.491L71.1565 67.2868C71.2445 66.801 71.1732 66.3856 70.9552 66.1362C70.3723 65.4573 70.139 64.2664 70.5051 62.728C70.9152 60.9651 72.085 59.1303 73.4488 58.1113C73.636 57.9715 73.8212 57.849 74.0031 57.7436Z" fill="white"/>
<path d="M70.7157 75.2418C70.4911 75.2418 70.2822 75.1789 70.1039 75.0526C69.6745 74.7491 69.5071 74.1564 69.6439 73.4266L70.8143 67.222C70.881 66.8508 70.8361 66.5296 70.6925 66.3653C69.9903 65.547 69.7984 64.1928 70.1658 62.6474C70.5966 60.7965 71.8031 58.9058 73.2403 57.8324C73.4396 57.6837 73.6356 57.554 73.8282 57.4421C74.9292 56.8035 75.9819 56.7089 76.7944 57.175C77.6035 57.6398 78.0519 58.5921 78.0554 59.8564C78.0574 60.7527 77.8383 61.7393 77.4218 62.7107C77.2381 63.1469 77.1755 63.5678 77.251 63.8635L78.4405 68.7031C78.6991 69.7496 77.9798 71.2566 76.9312 71.8646L71.5186 75.0023C71.243 75.1615 70.9688 75.2418 70.7157 75.2418ZM74.178 58.045C74.0072 58.144 73.833 58.2594 73.6567 58.3907C72.3645 59.3563 71.2342 61.1313 70.8443 62.807C70.5285 64.1343 70.666 65.2646 71.2192 65.9093C71.5077 66.239 71.6078 66.7511 71.4996 67.3486L70.3285 73.5556C70.2468 73.9925 70.3149 74.3484 70.5061 74.4838C70.6544 74.5886 70.8967 74.5576 71.1689 74.3994L76.5814 71.2617C77.3504 70.8163 77.9465 69.6091 77.7641 68.8698L76.5753 64.0326C76.4623 63.5896 76.5345 63.0224 76.7801 62.4382C77.1605 61.5512 77.3606 60.6598 77.3585 59.8582C77.3558 58.8534 77.0319 58.1151 76.4474 57.7793C75.8588 57.4414 75.0544 57.5364 74.178 58.045Z" fill="#1F3154"/>
<path d="M87.0912 68.3241L82.9958 70.7166L77.845 67.7308L70.3804 63.4029C70.4094 63.189 70.4482 62.9653 70.5061 62.7319C70.7581 61.6329 71.3001 60.5145 72.0068 59.5808L77.1189 62.5374L85.5421 67.4293L87.0912 68.3241Z" fill="#1F3154"/>
<path d="M82.9956 71.065C82.9351 71.065 82.8752 71.0494 82.8208 71.0181L70.2053 63.7042C70.0835 63.6335 70.0161 63.4957 70.0352 63.3555C70.0658 63.1303 70.1066 62.8941 70.1679 62.6481C70.4251 61.5264 70.9797 60.3603 71.7296 59.3706C71.8371 59.2297 72.0317 59.1926 72.1814 59.2794L87.2657 68.0222C87.3732 68.0845 87.4399 68.1992 87.4399 68.323C87.4399 68.4472 87.3746 68.5622 87.267 68.6248L83.1712 71.0174C83.1168 71.049 83.0562 71.065 82.9956 71.065ZM70.7606 63.2204L82.995 70.3134L86.3981 68.3257L72.1038 60.0395C71.5043 60.8952 71.0613 61.8683 70.8456 62.8097C70.8102 62.952 70.783 63.0887 70.7606 63.2204Z" fill="#1F3154"/>
<path d="M100.943 84.041L97.9348 85.8009C97.2862 86.1802 96.3856 86.1218 95.408 85.548C93.4329 84.4101 91.8546 81.6578 91.8643 79.3918C91.8643 78.2539 92.2614 77.4661 92.8906 77.0868L95.8987 75.3367C95.2598 75.7063 94.8724 76.5038 94.8627 77.6319C94.8627 79.898 96.441 82.6503 98.4064 83.7979C99.394 84.362 100.294 84.4204 100.943 84.041Z" fill="#1F3154"/>
<path d="M97.0067 86.3878C96.4508 86.3878 95.8417 86.2064 95.232 85.8485C93.1389 84.643 91.5057 81.8058 91.5159 79.3904C91.5159 78.1778 91.9399 77.2533 92.7102 76.7886L95.7172 75.0394C95.7193 75.0384 95.7206 75.0373 95.7227 75.0363C95.7227 75.0361 95.7242 75.0353 95.7247 75.0353C95.8887 74.9383 96.1037 74.9955 96.2004 75.1619C96.297 75.3282 96.2405 75.5412 96.0738 75.6379C96.0738 75.6381 96.0742 75.6376 96.0738 75.6379L96.0683 75.6413C95.524 75.9594 95.2198 76.6671 95.2109 77.6351C95.2109 79.7803 96.723 82.4114 98.5821 83.4971C99.4279 83.9806 100.204 84.068 100.764 83.7421L100.766 83.7404C100.932 83.6434 101.147 83.6985 101.243 83.8652C101.341 84.0313 101.285 84.2446 101.119 84.3419L98.1112 86.1016C97.7838 86.2929 97.4096 86.3878 97.0067 86.3878ZM94.6795 76.449L93.0654 77.3881C92.5176 77.7191 92.2127 78.4316 92.2127 79.3917C92.2039 81.5451 93.7152 84.1708 95.5825 85.2463C96.4099 85.7325 97.2027 85.825 97.7587 85.5001L99.3687 84.5583C99.0033 84.4749 98.6215 84.3222 98.2336 84.1003C96.1466 82.8816 94.5141 80.0413 94.5141 77.632C94.5182 77.1965 94.5747 76.7998 94.6795 76.449Z" fill="#1F3154"/>
<path d="M106.784 83.2821C106.774 86.472 105.651 88.7186 103.841 89.7787L99.7454 92.1713C101.556 91.1111 102.679 88.8645 102.689 85.6649C102.708 79.2362 98.2156 71.4072 92.6389 68.1686C89.8312 66.5444 87.2945 66.3986 85.4647 67.4684L89.5601 65.0759C91.3899 64.0061 93.9267 64.1617 96.7246 65.7859C102.301 69.0147 106.804 76.8535 106.784 83.2821Z" fill="#E0FEF2"/>
<path d="M106.784 83.2819C106.774 86.472 105.651 88.7185 103.841 89.7786L99.7454 92.1711C101.556 91.111 102.679 88.8644 102.689 85.6647C102.708 79.2361 98.2156 71.4071 92.6389 68.1685C89.8312 66.5443 87.2945 66.3984 85.4647 67.4682L89.5601 65.0758C91.3899 64.0059 93.9267 64.1616 96.7246 65.7857C97.5573 66.2622 98.3608 66.8458 99.1354 67.5071C99.0193 68.0907 98.9708 68.7034 98.9708 69.3355C98.9708 73.7995 101.662 77.4175 104.974 77.4175C105.225 77.4175 105.467 77.398 105.7 77.3591C106.397 79.3528 106.794 81.3758 106.784 83.2819Z" fill="#1BF3A4"/>
<path d="M99.7457 92.5196C99.6266 92.5196 99.5095 92.458 99.4449 92.3471C99.3476 92.1811 99.4034 91.9678 99.5694 91.8704L99.5715 91.8698C101.348 90.8283 102.331 88.6242 102.34 85.6638C102.359 79.3564 97.9288 71.6434 92.4638 68.47C89.8671 66.9675 87.4459 66.7174 85.6467 67.7657L85.6406 67.7691C85.4746 67.8654 85.2609 67.8103 85.1643 67.6442C85.067 67.4782 85.1228 67.2649 85.2895 67.1676C85.2909 67.1669 85.2922 67.1659 85.2936 67.1648L89.3846 64.775C91.4057 63.5927 94.0745 63.8448 96.8992 65.4844C102.562 68.7626 107.152 76.7474 107.132 83.2831C107.123 86.495 106.016 88.9086 104.017 90.0794L99.9212 92.472C99.8661 92.5043 99.8056 92.5196 99.7457 92.5196ZM88.1176 66.4299C89.565 66.4299 91.1627 66.912 92.8129 67.8671C98.4711 71.1521 103.057 79.1366 103.037 85.6658C103.031 87.6161 102.622 89.2717 101.857 90.5343L103.665 89.4779C105.443 88.4371 106.427 86.2364 106.435 83.281C106.455 76.9675 102.02 69.2543 96.5494 66.0873C93.9527 64.5793 91.5322 64.3266 89.7358 65.3765L87.9284 66.433C87.991 66.4309 88.0543 66.4299 88.1176 66.4299Z" fill="#1F3154"/>
<path d="M91.8644 79.3918C91.8644 77.116 93.4522 76.2018 95.4273 77.3494C97.3831 78.4873 98.9709 81.2299 98.9709 83.5057C98.9612 85.7815 97.3637 86.6859 95.408 85.548C93.4329 84.4101 91.8547 81.6578 91.8644 79.3918ZM92.6389 68.1685C89.8798 66.5735 87.3721 66.3984 85.5421 67.4293C84.3803 68.0712 83.4993 69.1799 82.9959 70.7166L77.8451 67.7308L70.3804 63.403C70.2159 64.6186 70.4579 65.5621 70.9517 66.1358C71.1744 66.3887 71.2422 66.7972 71.155 67.2834L70.5352 70.5513L74.5146 72.8659L82.9765 77.7676C84.2546 83.2236 88.0594 88.845 92.5711 91.4612C98.1479 94.6997 102.669 92.0933 102.689 85.6647C102.708 79.2362 98.2157 71.4071 92.6389 68.1685Z" fill="white"/>
<path d="M94.4978 69.4425C94.1494 73.2841 90.9543 76.299 87.0816 76.299C82.9959 76.299 79.6751 72.934 79.646 68.7715L77.8451 67.7308L70.3804 63.403C70.2159 64.6186 70.4579 65.5621 70.9517 66.1358C71.1744 66.3887 71.2422 66.7972 71.155 67.2834L70.5352 70.5513L74.5146 72.8659L82.9765 77.7676C84.2546 83.2236 88.0594 88.845 92.5711 91.4612C98.1479 94.6997 102.669 92.0933 102.689 85.6647C102.708 79.9656 99.1839 73.1771 94.4978 69.4425ZM95.408 85.548C93.4329 84.4102 91.8547 81.6578 91.8643 79.3917C91.8643 77.116 93.4523 76.2018 95.4274 77.3494C97.3832 78.4873 98.9709 81.2299 98.9709 83.5057C98.9612 85.7814 97.3638 86.6859 95.408 85.548Z" fill="#F0F5F7"/>
<path d="M97.0026 86.3895C96.4521 86.3895 95.8499 86.2082 95.2327 85.8492C93.1389 84.6427 91.5064 81.8065 91.5159 79.3918C91.5159 78.1618 91.9467 77.236 92.7299 76.7859C93.5125 76.3333 94.5339 76.4269 95.6022 77.0482C97.6865 78.2608 99.319 81.0974 99.319 83.5056C99.3136 84.7353 98.8787 85.659 98.0935 86.1085C97.7661 86.2963 97.3973 86.3895 97.0026 86.3895ZM93.8234 77.2013C93.5478 77.2013 93.2961 77.2636 93.0769 77.3898C92.5196 77.7106 92.2127 78.4214 92.2127 79.3918C92.2039 81.5435 93.7152 84.1705 95.5818 85.2463C96.4188 85.7332 97.1871 85.824 97.7478 85.5039C98.3078 85.1834 98.6181 84.4729 98.6222 83.5043C98.6222 81.3584 97.1102 78.7317 95.2518 77.6504C94.7387 77.3524 94.2521 77.2013 93.8234 77.2013Z" fill="#1F3154"/>
<path d="M97.0945 93.2045C95.6458 93.2045 94.0473 92.7214 92.3972 91.7646C87.9332 89.1744 84.0402 83.6557 82.6731 77.9971L70.357 70.8531C70.2291 70.7786 70.1617 70.6319 70.1896 70.4866L70.8095 67.2186C70.8803 66.8403 70.8368 66.5354 70.6864 66.3615C70.0998 65.6845 69.8671 64.6175 70.0331 63.3569C70.0488 63.2415 70.1202 63.1412 70.225 63.0898C70.3284 63.0377 70.4516 63.0425 70.5537 63.101L82.8105 70.2073C83.3495 68.8157 84.2293 67.7552 85.3732 67.1247C87.3868 65.9917 90.0311 66.2557 92.8156 67.8671C98.4745 71.1562 103.06 79.141 103.038 85.6668C103.028 88.9056 101.908 91.3281 99.8865 92.4887C99.053 92.967 98.1105 93.2045 97.0945 93.2045ZM70.9205 70.374L83.1521 77.4694C83.2351 77.5177 83.2943 77.598 83.3168 77.6916C84.6104 83.2263 88.4 88.6395 92.7469 91.1617C95.3294 92.6595 97.7417 92.9153 99.5395 91.8841C101.337 90.8528 102.332 88.6439 102.341 85.6648C102.362 79.3605 97.9329 71.6469 92.4666 68.4697C89.9025 66.9866 87.5024 66.7263 85.7121 67.7334C84.5995 68.3469 83.7986 69.3873 83.3291 70.8269C83.2964 70.9269 83.2202 71.0069 83.1222 71.0446C83.0242 71.0814 82.9133 71.0729 82.8228 71.0205L70.6796 63.9795C70.653 64.7988 70.8367 65.4715 71.2137 65.9056C71.5097 66.2489 71.6064 66.7474 71.4941 67.3476L70.9205 70.374Z" fill="#1F3154"/>
</svg>
