<svg width="120" height="120" viewBox="0 0 120 120" fill="none" xmlns="http://www.w3.org/2000/svg">
<g clip-path="url(#clip0_10673_26915)">
<path d="M21.3757 100.55L14.5011 96.6728C14.3286 96.5713 14.2067 96.3481 14.2067 96.0029L14.0546 42.4814L20.9292 46.3588L21.0813 99.8803C21.0813 100.236 21.2028 100.449 21.3757 100.55Z" fill="#1F3154"/>
<path d="M80.0228 9.48333C79.4038 9.1281 78.5509 9.17884 77.6072 9.71682L24.3291 40.4818L17.455 36.6044L70.7326 5.83942C71.6768 5.29134 72.5292 5.2406 73.1487 5.60598L80.0228 9.48333Z" fill="#E0FEF2"/>
<path d="M80.0201 9.48102C79.4006 9.12574 78.5481 9.17647 77.604 9.71446L24.3263 40.4794L17.4547 36.6021L33.7251 27.2031C35.2883 27.8324 37.0749 28.1877 38.9831 28.1877C44.9413 28.1877 49.7725 24.7468 49.7725 20.5142C49.7725 19.7123 49.6 18.9409 49.2853 18.2202L70.7329 5.83711C71.6765 5.28901 72.529 5.23828 73.1485 5.60368L80.0201 9.48102Z" fill="#1BF3A4"/>
<path d="M20.9304 46.3593L14.0567 42.4791C14.0505 40.3204 15.5716 37.6857 17.4505 36.601L24.3243 40.4811C22.4454 41.5659 20.9243 44.2006 20.9304 46.3593Z" fill="#1BF3A4"/>
<path d="M77.6038 9.72022C79.4827 8.63544 81.0137 9.50795 81.0198 11.6667L81.1303 50.6174C81.1364 52.7829 79.6153 55.4175 77.7364 56.5023L30.6072 83.7123L22.9631 99.5359C22.7448 99.9856 22.4426 100.305 22.144 100.477C21.608 100.787 21.0842 100.622 21.0821 99.8834L20.9304 46.3593C20.9243 44.2006 22.4454 41.566 24.3242 40.4812L77.6038 9.72022Z" fill="#E0FEF2"/>
<path d="M81.1263 50.6195C81.1367 52.7814 79.6142 55.4204 77.7363 56.5065L30.6092 83.7088L22.9659 99.5328C22.7429 99.9896 22.4386 100.304 22.1442 100.477C21.606 100.791 21.0885 100.619 21.0781 99.8881L20.9666 61.8962C22.9867 62.4951 25.1283 62.8097 27.3412 62.8097C39.8256 62.8097 49.945 52.6901 49.945 40.1953C49.945 35.6277 48.5949 31.3749 46.2606 27.8224L77.604 9.72468C79.4819 8.63862 81.0148 9.51151 81.0247 11.6633L81.1263 50.6195Z" fill="#E0FEF2"/>
<path d="M21.3758 101.05C21.2928 101.05 21.2078 101.029 21.1297 100.985L14.2561 97.1085C13.9035 96.9014 13.7062 96.5 13.7062 96.0028L13.5548 42.4824C13.5538 42.3046 13.6486 42.1396 13.8019 42.0497C13.9553 41.9589 14.1438 41.9579 14.3011 42.0458L21.1756 45.9226C21.3319 46.0115 21.4286 46.1766 21.4296 46.3573L21.581 99.8796C21.581 100.066 21.6288 100.118 21.6288 100.119C21.8672 100.257 21.9473 100.56 21.8105 100.799C21.7187 100.96 21.5497 101.05 21.3758 101.05ZM14.557 43.339L14.7064 96.0018C14.7064 96.16 14.7455 96.2323 14.7592 96.245L20.5798 99.527L20.4303 46.6513L14.557 43.339Z" fill="#1F3154"/>
<path d="M24.3286 40.9821C24.2436 40.9821 24.1597 40.9606 24.0825 40.9177L17.2089 37.0399C17.0526 36.952 16.9559 36.7859 16.955 36.6072C16.954 36.4274 17.0497 36.2614 17.205 36.1715L70.4822 5.40704C71.5576 4.78191 72.5969 4.69986 73.4027 5.17554L80.2489 9.03576C80.2568 9.04063 80.2646 9.04455 80.2714 9.04943C80.5107 9.18617 80.5947 9.49093 80.458 9.73025C80.3202 9.97053 80.0155 10.0536 79.7781 9.91876L79.7605 9.90899C79.278 9.64136 78.6011 9.72731 77.8539 10.1512L24.5787 40.9147C24.5015 40.9597 24.4146 40.9821 24.3286 40.9821ZM18.4641 36.5993L24.3257 39.9057L77.3567 9.28385C77.596 9.14711 77.8334 9.03771 78.0668 8.95371L72.9026 6.04195C72.4123 5.75183 71.7334 5.8378 70.9833 6.27246L18.4641 36.5993Z" fill="#1F3154"/>
<path d="M20.9305 46.8594C20.8455 46.8594 20.7605 46.8379 20.6843 46.7949L13.8108 42.9152C13.6545 42.8263 13.5578 42.6612 13.5568 42.4815C13.549 40.1245 15.1499 37.3515 17.2002 36.1686C17.3535 36.0797 17.543 36.0787 17.6964 36.1657L24.5709 40.0454C24.7272 40.1333 24.8239 40.2994 24.8249 40.4781C24.8258 40.6579 24.7301 40.8239 24.5748 40.9138C22.8655 41.9013 21.4257 44.394 21.4306 46.3583C21.4306 46.5361 21.3368 46.7011 21.1835 46.791C21.1053 46.8369 21.0174 46.8594 20.9305 46.8594ZM14.5658 42.1924L20.4899 45.5359C20.7566 43.6712 21.8955 41.6952 23.3802 40.5221L17.4619 37.1825C15.9392 38.1993 14.683 40.3726 14.5658 42.1924Z" fill="#1F3154"/>
<path d="M21.6552 101.126C21.4677 101.126 21.2889 101.081 21.1307 100.99C20.9265 100.872 20.5837 100.573 20.5817 99.8846L20.4303 46.3603C20.4235 44.0043 22.0244 41.2313 24.0747 40.0484L77.3538 9.28779C78.4272 8.66755 79.4626 8.58159 80.2695 9.04654C81.0724 9.50856 81.5168 10.4384 81.5197 11.6653L81.6301 50.6161C81.6379 52.976 80.037 55.752 77.9867 56.9348L30.9902 84.0686L23.4134 99.7537C23.1672 100.262 22.8049 100.673 22.3936 100.91C22.1455 101.054 21.8926 101.126 21.6552 101.126ZM79.1286 9.75275C78.7496 9.75275 78.3149 9.88754 77.8539 10.1532L24.5748 40.9138C22.8654 41.9013 21.4257 44.394 21.4305 46.3583L21.5819 99.8826C21.5819 100.043 21.6191 100.112 21.6317 100.124C21.6415 100.13 21.7392 100.135 21.8935 100.045C22.1299 99.908 22.3555 99.6433 22.5128 99.318L30.157 83.4943C30.201 83.4044 30.2703 83.3292 30.3573 83.2794L77.4866 56.0694C79.2263 55.0653 80.6357 52.6195 80.6299 50.619L80.5195 11.6672C80.5175 10.8135 80.2509 10.1903 79.7713 9.91391C79.5838 9.80647 79.3669 9.75275 79.1286 9.75275Z" fill="#1F3154"/>
<path d="M47.9266 35.2327V67.1682" stroke="#1BF3A4" stroke-width="2" stroke-linecap="round" stroke-linejoin="round"/>
<path d="M59.5217 27.9153V59.8508" stroke="#1BF3A4" stroke-width="2" stroke-linecap="round" stroke-linejoin="round"/>
<path d="M67.2869 35.4125L39.2219 50.6517" stroke="#1BF3A4" stroke-width="2" stroke-linecap="round" stroke-linejoin="round"/>
<path d="M67.2869 47.3225L39.2219 62.5618" stroke="#1BF3A4" stroke-width="2" stroke-linecap="round" stroke-linejoin="round"/>
<path d="M68.0124 104.908C68.0179 104.325 67.2596 103.845 66.3188 103.836C65.378 103.827 64.6109 104.293 64.6054 104.876C64.6 105.459 65.3582 105.939 66.299 105.948C67.2398 105.957 68.0069 105.491 68.0124 104.908Z" fill="#1F3154"/>
<path d="M75.1562 100.694C75.1617 100.11 74.4034 99.6304 73.4626 99.6216C72.5218 99.6127 71.7547 100.078 71.7492 100.662C71.7438 101.245 72.502 101.725 73.4428 101.734C74.3836 101.743 75.1507 101.277 75.1562 100.694Z" fill="#1F3154"/>
<path d="M82.2999 96.5022C82.3054 95.9189 81.5472 95.4389 80.6064 95.43C79.6656 95.4212 78.8984 95.8869 78.893 96.4702C78.8875 97.0535 79.6457 97.5335 80.5865 97.5424C81.5273 97.5512 82.2945 97.0855 82.2999 96.5022Z" fill="#1F3154"/>
<path d="M89.4437 92.2963C89.4492 91.713 88.691 91.2329 87.7502 91.2241C86.8094 91.2153 86.0422 91.681 86.0368 92.2643C86.0313 92.8476 86.7895 93.3276 87.7303 93.3364C88.6711 93.3453 89.4383 92.8796 89.4437 92.2963Z" fill="#1F3154"/>
<path d="M96.5875 88.1011C96.593 87.5178 95.8348 87.0377 94.894 87.0289C93.9532 87.0201 93.186 87.4858 93.1806 88.0691C93.1751 88.6524 93.9333 89.1324 94.8741 89.1412C95.8149 89.1501 96.5821 88.6844 96.5875 88.1011Z" fill="#1F3154"/>
<path d="M103.731 83.8842C103.737 83.3009 102.979 82.8208 102.038 82.812C101.097 82.8032 100.33 83.2689 100.324 83.8522C100.319 84.4355 101.077 84.9155 102.018 84.9243C102.959 84.9332 103.726 84.4675 103.731 83.8842Z" fill="#1F3154"/>
<path d="M80.0084 105.546C80.0139 104.963 79.2556 104.483 78.3148 104.474C77.374 104.465 76.6069 104.931 76.6014 105.514C76.5959 106.097 77.3542 106.577 78.295 106.586C79.2358 106.595 80.0029 106.129 80.0084 105.546Z" fill="#1F3154"/>
<path d="M87.1522 101.354C87.1577 100.771 86.3994 100.291 85.4586 100.282C84.5178 100.274 83.7507 100.739 83.7452 101.323C83.7397 101.906 84.498 102.386 85.4388 102.395C86.3796 102.403 87.1467 101.938 87.1522 101.354Z" fill="#1F3154"/>
<path d="M94.2959 97.1484C94.3014 96.5651 93.5432 96.0851 92.6023 96.0763C91.6615 96.0674 90.8944 96.5331 90.8889 97.1164C90.8835 97.6997 91.6417 98.1798 92.5825 98.1886C93.5233 98.1974 94.2904 97.7317 94.2959 97.1484Z" fill="#1F3154"/>
<path d="M101.44 92.9534C101.445 92.3701 100.687 91.89 99.7461 91.8812C98.8053 91.8724 98.0382 92.3381 98.0327 92.9214C98.0273 93.5047 98.7855 93.9847 99.7263 93.9935C100.667 94.0024 101.434 93.5367 101.44 92.9534Z" fill="#1F3154"/>
<path d="M59.8977 85.4353C59.9032 84.852 59.145 84.372 58.2042 84.3631C57.2633 84.3543 56.4962 84.82 56.4908 85.4033C56.4853 85.9866 57.2435 86.4666 58.1843 86.4755C59.1251 86.4843 59.8922 86.0186 59.8977 85.4353Z" fill="#1F3154"/>
<path d="M67.0415 81.2438C67.047 80.6605 66.2888 80.1805 65.348 80.1716C64.4071 80.1628 63.64 80.6285 63.6345 81.2118C63.6291 81.7951 64.3873 82.2751 65.3281 82.2839C66.2689 82.2928 67.036 81.8271 67.0415 81.2438Z" fill="#1F3154"/>
<path d="M74.1853 77.0377C74.1907 76.4544 73.4325 75.9744 72.4917 75.9656C71.5509 75.9567 70.7838 76.4224 70.7783 77.0057C70.7728 77.589 71.531 78.069 72.4719 78.0779C73.4127 78.0867 74.1798 77.621 74.1853 77.0377Z" fill="#1F3154"/>
<path d="M81.3291 72.8426C81.3345 72.2593 80.5763 71.7793 79.6355 71.7705C78.6947 71.7617 77.9276 72.2274 77.9221 72.8107C77.9166 73.394 78.6748 73.874 79.6157 73.8828C80.5565 73.8916 81.3236 73.426 81.3291 72.8426Z" fill="#1F3154"/>
<path d="M57.7593 94.6549C57.7648 94.0716 57.0066 93.5916 56.0658 93.5828C55.125 93.5739 54.3579 94.0396 54.3524 94.6229C54.3469 95.2062 55.1051 95.6862 56.046 95.6951C56.9868 95.7039 57.7539 95.2382 57.7593 94.6549Z" fill="#1F3154"/>
<path d="M64.9032 90.4407C64.9086 89.8574 64.1504 89.3773 63.2096 89.3685C62.2688 89.3597 61.5017 89.8254 61.4962 90.4087C61.4907 90.992 62.2489 91.472 63.1898 91.4808C64.1306 91.4897 64.8977 91.024 64.9032 90.4407Z" fill="#1F3154"/>
<path d="M72.0469 86.2491C72.0524 85.6658 71.2941 85.1858 70.3533 85.177C69.4125 85.1682 68.6454 85.6339 68.6399 86.2172C68.6344 86.8005 69.3927 87.2805 70.3335 87.2893C71.2743 87.2981 72.0414 86.8324 72.0469 86.2491Z" fill="#1F3154"/>
<path d="M79.1907 82.0432C79.1962 81.4599 78.4379 80.9799 77.4971 80.9711C76.5563 80.9622 75.7892 81.4279 75.7837 82.0112C75.7782 82.5945 76.5365 83.0745 77.4773 83.0834C78.4181 83.0922 79.1852 82.6265 79.1907 82.0432Z" fill="#1F3154"/>
<path d="M86.3345 77.848C86.34 77.2647 85.5817 76.7847 84.6409 76.7759C83.7001 76.767 82.933 77.2327 82.9275 77.816C82.922 78.3993 83.6803 78.8794 84.6211 78.8882C85.5619 78.897 86.329 78.4313 86.3345 77.848Z" fill="#1F3154"/>
<path d="M93.4782 73.6311C93.4837 73.0478 92.7255 72.5678 91.7846 72.559C90.8438 72.5501 90.0767 73.0158 90.0713 73.5991C90.0658 74.1824 90.824 74.6624 91.7648 74.6713C92.7056 74.6801 93.4727 74.2144 93.4782 73.6311Z" fill="#1F3154"/>
<path d="M55.4678 103.719C55.4733 103.136 54.715 102.656 53.7742 102.647C52.8334 102.638 52.0663 103.104 52.0608 103.687C52.0553 104.271 52.8136 104.751 53.7544 104.76C54.6952 104.768 55.4623 104.303 55.4678 103.719Z" fill="#1F3154"/>
<path d="M62.6116 99.5071C62.6171 98.9238 61.8588 98.4438 60.918 98.4349C59.9772 98.4261 59.2101 98.8918 59.2046 99.4751C59.1991 100.058 59.9574 100.538 60.8982 100.547C61.839 100.556 62.6061 100.09 62.6116 99.5071Z" fill="#1F3154"/>
<path d="M69.7553 95.2928C69.7608 94.7095 69.0026 94.2295 68.0618 94.2207C67.1209 94.2119 66.3538 94.6776 66.3484 95.2609C66.3429 95.8442 67.1011 96.3242 68.0419 96.333C68.9827 96.3418 69.7498 95.8761 69.7553 95.2928Z" fill="#1F3154"/>
<path d="M76.8991 91.1013C76.9046 90.518 76.1464 90.038 75.2055 90.0292C74.2647 90.0203 73.4976 90.486 73.4922 91.0693C73.4867 91.6526 74.2449 92.1326 75.1857 92.1415C76.1265 92.1503 76.8936 91.6846 76.8991 91.1013Z" fill="#1F3154"/>
<path d="M84.0429 86.8953C84.0484 86.312 83.2902 85.8319 82.3494 85.8231C81.4085 85.8143 80.6414 86.28 80.636 86.8633C80.6305 87.4466 81.3887 87.9266 82.3295 87.9354C83.2703 87.9443 84.0374 87.4786 84.0429 86.8953Z" fill="#1F3154"/>
<path d="M91.1867 82.7002C91.1921 82.1169 90.4339 81.6369 89.4931 81.628C88.5523 81.6192 87.7852 82.0849 87.7797 82.6682C87.7742 83.2515 88.5324 83.7315 89.4733 83.7404C90.4141 83.7492 91.1812 83.2835 91.1867 82.7002Z" fill="#1F3154"/>
<path d="M98.3305 78.4833C98.3359 77.9 97.5777 77.4199 96.6369 77.4111C95.6961 77.4023 94.929 77.868 94.9235 78.4513C94.918 79.0346 95.6762 79.5146 96.6171 79.5234C97.5579 79.5323 98.325 79.0666 98.3305 78.4833Z" fill="#1F3154"/>
<path d="M105.474 74.2659C105.48 73.6826 104.721 73.2025 103.781 73.1937C102.84 73.1849 102.073 73.6506 102.067 74.2339C102.062 74.8172 102.82 75.2972 103.761 75.306C104.702 75.3149 105.469 74.8492 105.474 74.2659Z" fill="#1F3154"/>
<path d="M49.0967 113.643L42.2221 109.765C42.0497 109.664 41.9277 109.44 41.9277 109.095L41.7756 55.5737L48.6502 59.4511L48.8023 112.973C48.8023 113.328 48.9238 113.541 49.0967 113.643Z" fill="#1F3154"/>
<path d="M107.744 22.5756C107.125 22.2204 106.272 22.2711 105.328 22.8091L52.0501 53.5741L45.176 49.6967L98.4536 18.9317C99.3978 18.3836 100.25 18.3329 100.87 18.6983L107.744 22.5756Z" fill="white"/>
<path d="M107.741 22.5733C107.122 22.218 106.269 22.2688 105.325 22.8067L52.0474 53.5717L45.1757 49.6944L61.4461 40.2954C63.0093 40.9247 64.7959 41.2799 66.7041 41.2799C72.6623 41.2799 77.4935 37.8391 77.4935 33.6065C77.4935 32.8046 77.321 32.0332 77.0063 31.3125L98.4539 18.9294C99.3975 18.3813 100.25 18.3306 100.869 18.696L107.741 22.5733Z" fill="#F0F5F7"/>
<path d="M48.6514 59.4516L41.7777 55.5714C41.7715 53.4127 43.2926 50.778 45.1715 49.6932L52.0453 53.5734C50.1664 54.6582 48.6453 57.2928 48.6514 59.4516Z" fill="#1BF3A4"/>
<path d="M105.325 22.8125C107.204 21.7277 108.735 22.6002 108.741 24.759L108.851 63.7097C108.857 65.8752 107.336 68.5098 105.457 69.5946L58.3282 96.8046L50.6841 112.628C50.4658 113.078 50.1636 113.397 49.865 113.57C49.329 113.879 48.8052 113.714 48.8031 112.976L48.6514 59.4516C48.6453 57.2929 50.1664 54.6583 52.0453 53.5735L105.325 22.8125Z" fill="#E0FEF2"/>
<path d="M108.847 63.7117C108.858 65.8737 107.335 68.5127 105.457 69.5988L58.3302 96.8011L50.6869 112.625C50.4639 113.082 50.1596 113.397 49.8652 113.569C49.327 113.884 48.8095 113.711 48.7991 112.98L48.6876 74.9885C50.7077 75.5874 52.8493 75.902 55.0622 75.902C67.5466 75.902 77.666 65.7824 77.666 53.2875C77.666 48.72 76.3159 44.4672 73.9816 40.9146L105.325 22.817C107.203 21.7309 108.736 22.6038 108.746 24.7556L108.847 63.7117Z" fill="#1BF3A4"/>
<path d="M49.0969 114.142C49.0138 114.142 48.9289 114.122 48.8507 114.078L41.9772 110.201C41.6245 109.994 41.4272 109.592 41.4272 109.095L41.2758 55.5747C41.2748 55.3969 41.3696 55.2318 41.5229 55.142C41.6763 55.0512 41.8648 55.0502 42.0221 55.1381L48.8966 59.0149C49.0529 59.1038 49.1496 59.2689 49.1506 59.4496L49.302 112.972C49.302 113.158 49.3498 113.21 49.3498 113.211C49.5882 113.349 49.6683 113.653 49.5315 113.891C49.4397 114.052 49.2707 114.142 49.0969 114.142ZM42.278 56.4313L42.4275 109.094C42.4275 109.252 42.4665 109.325 42.4802 109.337L48.3008 112.619L48.1513 59.7436L42.278 56.4313Z" fill="#1F3154"/>
<path d="M52.0496 54.0744C51.9647 54.0744 51.8807 54.0529 51.8035 54.0099L44.9299 50.1322C44.7737 50.0442 44.6769 49.8782 44.676 49.6994C44.675 49.5197 44.7707 49.3537 44.926 49.2638L98.2032 18.4993C99.2786 17.8742 100.318 17.7921 101.124 18.2678L107.97 22.128C107.978 22.1329 107.986 22.1368 107.992 22.1417C108.232 22.2785 108.316 22.5832 108.179 22.8225C108.041 23.0628 107.736 23.1458 107.499 23.011L107.482 23.0013C106.999 22.7336 106.322 22.8196 105.575 23.2435L52.2997 54.007C52.2225 54.0519 52.1356 54.0744 52.0496 54.0744ZM46.1851 49.6916L52.0467 52.998L105.078 22.3761C105.317 22.2394 105.554 22.13 105.788 22.046L100.624 19.1342C100.133 18.8441 99.4544 18.9301 98.7043 19.3647L46.1851 49.6916Z" fill="#1F3154"/>
<path d="M48.6514 59.9517C48.5665 59.9517 48.4815 59.9302 48.4053 59.8872L41.5317 56.0075C41.3754 55.9186 41.2787 55.7535 41.2777 55.5738C41.2699 53.2168 42.8709 50.4438 44.9211 49.2609C45.0745 49.172 45.264 49.171 45.4173 49.258L52.2919 53.1377C52.4481 53.2256 52.5448 53.3917 52.5458 53.5704C52.5468 53.7501 52.4511 53.9162 52.2958 54.0061C50.5864 54.9936 49.1466 57.4863 49.1515 59.4506C49.1515 59.6284 49.0577 59.7934 48.9044 59.8833C48.8263 59.9292 48.7383 59.9517 48.6514 59.9517ZM42.2868 55.2846L48.2109 58.6282C48.4776 56.7635 49.6165 54.7875 51.1012 53.6144L45.1829 50.2748C43.6601 51.2916 42.404 53.4649 42.2868 55.2846Z" fill="#1F3154"/>
<path d="M49.3762 114.218C49.1887 114.218 49.0099 114.173 48.8517 114.083C48.6475 113.964 48.3047 113.665 48.3027 112.977L48.1513 59.4526C48.1445 57.0966 49.7454 54.3235 51.7957 53.1406L105.075 22.3801C106.148 21.7598 107.184 21.6739 107.99 22.1388C108.793 22.6008 109.238 23.5307 109.241 24.7576L109.351 63.7084C109.359 66.0682 107.758 68.8442 105.708 70.0271L58.7112 97.1609L51.1344 112.846C50.8882 113.354 50.5259 113.765 50.1147 114.002C49.8665 114.146 49.6136 114.218 49.3762 114.218ZM106.85 22.845C106.471 22.845 106.036 22.9798 105.575 23.2455L52.2958 54.0061C50.5864 54.9936 49.1467 57.4863 49.1516 59.4506L49.3029 112.975C49.3029 113.135 49.3401 113.204 49.3528 113.216C49.3625 113.222 49.4602 113.227 49.6145 113.137C49.8509 113 50.0766 112.736 50.2338 112.41L57.878 96.5866C57.922 96.4967 57.9913 96.4215 58.0783 96.3717L105.208 69.1617C106.947 68.1576 108.357 65.7117 108.351 63.7113L108.241 24.7595C108.239 23.9058 107.972 23.2826 107.492 23.0062C107.305 22.8988 107.088 22.845 106.85 22.845Z" fill="#1F3154"/>
<path d="M75.6476 48.3251V80.2606" stroke="#1F3154" stroke-width="2" stroke-linecap="round" stroke-linejoin="round"/>
<path d="M87.2427 41.0077V72.9432" stroke="#1F3154" stroke-width="2" stroke-linecap="round" stroke-linejoin="round"/>
<path d="M94.8207 47.3225L67.1301 63.2319" stroke="#1F3154" stroke-width="2" stroke-linecap="round" stroke-linejoin="round"/>
<path d="M94.8207 60.0455L67.1301 75.9549" stroke="#1F3154" stroke-width="2" stroke-linecap="round" stroke-linejoin="round"/>
</g>
<defs>
<clipPath id="clip0_10673_26915">
<rect width="120" height="120" fill="white"/>
</clipPath>
</defs>
</svg>
