<svg width="120" height="120" viewBox="0 0 120 120" fill="none" xmlns="http://www.w3.org/2000/svg">
<g clip-path="url(#clip0_10673_26992)">
<path d="M56.9373 116.133C56.9427 115.55 56.1845 115.07 55.2437 115.061C54.3029 115.052 53.5358 115.518 53.5303 116.101C53.5248 116.684 54.2831 117.165 55.2239 117.173C56.1647 117.182 56.9318 116.716 56.9373 116.133Z" fill="#1F3154"/>
<path d="M64.0811 111.919C64.0865 111.336 63.3283 110.856 62.3875 110.847C61.4467 110.838 60.6796 111.304 60.6741 111.887C60.6686 112.47 61.4269 112.95 62.3677 112.959C63.3085 112.968 64.0756 112.502 64.0811 111.919Z" fill="#1F3154"/>
<path d="M71.2248 107.727C71.2303 107.144 70.472 106.664 69.5312 106.655C68.5904 106.646 67.8233 107.112 67.8178 107.695C67.8124 108.279 68.5706 108.759 69.5114 108.768C70.4522 108.776 71.2193 108.311 71.2248 107.727Z" fill="#1F3154"/>
<path d="M78.3686 103.521C78.3741 102.938 77.6158 102.458 76.675 102.449C75.7342 102.44 74.9671 102.906 74.9616 103.489C74.9562 104.073 75.7144 104.553 76.6552 104.562C77.596 104.57 78.3631 104.105 78.3686 103.521Z" fill="#1F3154"/>
<path d="M85.5124 99.3263C85.5179 98.743 84.7596 98.263 83.8188 98.2541C82.878 98.2453 82.1109 98.711 82.1054 99.2943C82.1 99.8776 82.8582 100.358 83.799 100.366C84.7398 100.375 85.5069 99.9096 85.5124 99.3263Z" fill="#1F3154"/>
<path d="M92.6561 95.1094C92.6616 94.5261 91.9034 94.046 90.9626 94.0372C90.0218 94.0284 89.2546 94.4941 89.2492 95.0774C89.2437 95.6607 90.0019 96.1407 90.9427 96.1495C91.8836 96.1584 92.6507 95.6927 92.6561 95.1094Z" fill="#1F3154"/>
<path d="M68.9333 116.771C68.9388 116.188 68.1805 115.708 67.2397 115.699C66.2989 115.69 65.5318 116.156 65.5263 116.739C65.5209 117.322 66.2791 117.802 67.2199 117.811C68.1607 117.82 68.9278 117.354 68.9333 116.771Z" fill="#1F3154"/>
<path d="M76.0771 112.58C76.0826 111.996 75.3243 111.516 74.3835 111.507C73.4427 111.499 72.6756 111.964 72.6701 112.548C72.6647 113.131 73.4229 113.611 74.3637 113.62C75.3045 113.629 76.0716 113.163 76.0771 112.58Z" fill="#1F3154"/>
<path d="M83.2208 108.374C83.2263 107.79 82.4681 107.31 81.5273 107.301C80.5865 107.293 79.8193 107.758 79.8139 108.342C79.8084 108.925 80.5666 109.405 81.5074 109.414C82.4482 109.423 83.2154 108.957 83.2208 108.374Z" fill="#1F3154"/>
<path d="M90.3646 104.178C90.3701 103.595 89.6119 103.115 88.6711 103.106C87.7303 103.097 86.9631 103.563 86.9577 104.146C86.9522 104.73 87.7104 105.21 88.6512 105.219C89.592 105.227 90.3592 104.762 90.3646 104.178Z" fill="#1F3154"/>
<path d="M48.8226 96.6605C48.8281 96.0772 48.0699 95.5972 47.1291 95.5884C46.1883 95.5795 45.4212 96.0452 45.4157 96.6285C45.4102 97.2118 46.1684 97.6919 47.1092 97.7007C48.0501 97.7095 48.8172 97.2438 48.8226 96.6605Z" fill="#1F3154"/>
<path d="M55.9664 92.469C55.9719 91.8857 55.2137 91.4057 54.2729 91.3968C53.3321 91.388 52.565 91.8537 52.5595 92.437C52.554 93.0203 53.3122 93.5003 54.253 93.5092C55.1939 93.518 55.961 93.0523 55.9664 92.469Z" fill="#1F3154"/>
<path d="M63.1102 88.2629C63.1157 87.6796 62.3574 87.1996 61.4166 87.1908C60.4758 87.1819 59.7087 87.6477 59.7032 88.231C59.6977 88.8143 60.456 89.2943 61.3968 89.3031C62.3376 89.3119 63.1047 88.8462 63.1102 88.2629Z" fill="#1F3154"/>
<path d="M70.254 84.0679C70.2595 83.4846 69.5012 83.0046 68.5604 82.9957C67.6196 82.9869 66.8525 83.4526 66.847 84.0359C66.8415 84.6192 67.5998 85.0992 68.5406 85.108C69.4814 85.1169 70.2485 84.6512 70.254 84.0679Z" fill="#1F3154"/>
<path d="M46.6842 105.88C46.6897 105.297 45.9315 104.817 44.9907 104.808C44.0498 104.799 43.2827 105.265 43.2772 105.848C43.2718 106.431 44.03 106.911 44.9708 106.92C45.9116 106.929 46.6787 106.463 46.6842 105.88Z" fill="#1F3154"/>
<path d="M53.828 101.666C53.8335 101.083 53.0753 100.603 52.1344 100.594C51.1936 100.585 50.4265 101.051 50.421 101.634C50.4156 102.217 51.1738 102.697 52.1146 102.706C53.0554 102.715 53.8225 102.249 53.828 101.666Z" fill="#1F3154"/>
<path d="M60.9718 97.4744C60.9773 96.8911 60.219 96.411 59.2782 96.4022C58.3374 96.3934 57.5703 96.8591 57.5648 97.4424C57.5594 98.0257 58.3176 98.5057 59.2584 98.5145C60.1992 98.5234 60.9663 98.0577 60.9718 97.4744Z" fill="#1F3154"/>
<path d="M68.1156 93.2684C68.121 92.6851 67.3628 92.2051 66.422 92.1963C65.4812 92.1874 64.7141 92.6531 64.7086 93.2364C64.7031 93.8197 65.4613 94.2998 66.4022 94.3086C67.343 94.3174 68.1101 93.8517 68.1156 93.2684Z" fill="#1F3154"/>
<path d="M75.2593 89.0732C75.2648 88.4899 74.5066 88.0099 73.5658 88.0011C72.625 87.9923 71.8579 88.458 71.8524 89.0413C71.8469 89.6246 72.6051 90.1046 73.5459 90.1134C74.4868 90.1222 75.2539 89.6565 75.2593 89.0732Z" fill="#1F3154"/>
<path d="M82.4031 84.8563C82.4086 84.273 81.6503 83.793 80.7095 83.7842C79.7687 83.7753 79.0016 84.241 78.9961 84.8243C78.9906 85.4076 79.7489 85.8877 80.6897 85.8965C81.6305 85.9053 82.3976 85.4396 82.4031 84.8563Z" fill="#1F3154"/>
<path d="M44.3927 114.945C44.3982 114.361 43.6399 113.881 42.6991 113.873C41.7583 113.864 40.9912 114.329 40.9857 114.913C40.9803 115.496 41.7385 115.976 42.6793 115.985C43.6201 115.994 44.3872 115.528 44.3927 114.945Z" fill="#1F3154"/>
<path d="M51.5365 110.732C51.542 110.149 50.7838 109.669 49.8429 109.66C48.9021 109.651 48.135 110.117 48.1295 110.7C48.1241 111.284 48.8823 111.764 49.8231 111.772C50.7639 111.781 51.531 111.316 51.5365 110.732Z" fill="#1F3154"/>
<path d="M58.6803 106.518C58.6858 105.935 57.9275 105.455 56.9867 105.446C56.0459 105.437 55.2788 105.903 55.2733 106.486C55.2679 107.069 56.0261 107.549 56.9669 107.558C57.9077 107.567 58.6748 107.101 58.6803 106.518Z" fill="#1F3154"/>
<path d="M65.824 102.327C65.8295 101.743 65.0713 101.263 64.1305 101.254C63.1897 101.246 62.4226 101.711 62.4171 102.295C62.4116 102.878 63.1698 103.358 64.1106 103.367C65.0515 103.376 65.8186 102.91 65.824 102.327Z" fill="#1F3154"/>
<path d="M72.9679 98.1206C72.9733 97.5373 72.2151 97.0573 71.2743 97.0485C70.3335 97.0396 69.5664 97.5053 69.5609 98.0886C69.5554 98.6719 70.3136 99.1519 71.2544 99.1608C72.1953 99.1696 72.9624 98.7039 72.9679 98.1206Z" fill="#1F3154"/>
<path d="M80.1116 93.9254C80.1171 93.3421 79.3588 92.8621 78.418 92.8533C77.4772 92.8444 76.7101 93.3101 76.7046 93.8934C76.6991 94.4767 77.4574 94.9567 78.3982 94.9656C79.339 94.9744 80.1061 94.5087 80.1116 93.9254Z" fill="#1F3154"/>
<path d="M87.2554 89.7085C87.2609 89.1252 86.5026 88.6452 85.5618 88.6363C84.621 88.6275 83.8539 89.0932 83.8484 89.6765C83.8429 90.2598 84.6012 90.7398 85.542 90.7487C86.4828 90.7575 87.2499 90.2918 87.2554 89.7085Z" fill="#1F3154"/>
<path d="M94.3992 85.4911C94.4047 84.9078 93.6464 84.4278 92.7056 84.4189C91.7648 84.4101 90.9977 84.8758 90.9922 85.4591C90.9867 86.0424 91.745 86.5224 92.6858 86.5313C93.6266 86.5401 94.3937 86.0744 94.3992 85.4911Z" fill="#1F3154"/>
<path d="M28.89 115.561L19.4882 110.095C18.0528 109.258 17.1557 107.475 17.1438 104.951L16.9884 47.8234L26.378 53.2897L26.5456 110.418C26.5456 112.942 27.4428 114.724 28.89 115.561Z" fill="#1F3154"/>
<path d="M92.8841 8.39819C91.4248 7.54889 89.4031 7.66849 87.1664 8.96034L34.3802 39.4382L24.9906 33.9719L77.7766 3.494C80.0015 2.20215 82.0229 2.08255 83.4822 2.93178L92.8841 8.39819Z" fill="white"/>
<path d="M92.8841 8.39824C91.4248 7.54895 89.4031 7.66854 87.1664 8.9604L34.3802 39.4383L24.9906 33.9719L38.6745 26.0653C40.5765 26.7113 42.6817 27.0581 44.8824 27.0581C53.7221 27.0581 60.8871 21.4004 60.8871 14.4268C60.8871 14.044 60.8631 13.6612 60.8152 13.2905L77.7766 3.49399C80.0015 2.20213 82.0229 2.08254 83.4822 2.93183L92.8841 8.39824Z" fill="#F0F5F7"/>
<path d="M26.3815 53.2887L16.9867 47.8279C16.9723 42.7365 20.5549 36.5312 24.9858 33.973L34.3805 39.4338C29.9497 41.992 26.3671 48.1974 26.3815 53.2887Z" fill="#E0FEF2"/>
<path d="M34.3802 39.4383C29.9545 41.9861 26.366 48.1941 26.378 53.2897L16.9884 47.8233C16.9884 47.2132 17.036 46.5913 17.1438 45.9573C17.359 45.9813 17.5865 45.9932 17.8137 45.9932C22.1556 45.9932 25.6841 42.6918 25.6841 38.6129C25.6841 37.0579 25.1699 35.6106 24.2847 34.4264C24.5119 34.259 24.7514 34.1155 24.9906 33.9719L34.3802 39.4383Z" fill="#1BF3A4"/>
<path d="M87.1715 8.95494C91.6024 6.39677 95.2084 8.45176 95.2228 13.5432L95.3848 70.6671C95.3992 75.7585 91.8166 81.9639 87.3858 84.522L34.5948 115.001C30.1639 117.559 26.5579 115.504 26.5435 110.413L26.3815 53.2887C26.3671 48.1973 29.9497 41.992 34.3805 39.4338L87.1715 8.95494Z" fill="#E0FEF2"/>
<path d="M95.3838 70.6698C95.3961 75.7534 91.8193 81.9614 87.3816 84.5211L34.5957 114.999C30.1697 117.559 26.5576 115.501 26.5456 110.418L26.4259 68.421C28.3518 69.0789 30.4092 69.4257 32.5264 69.4257C44.1409 69.4257 53.5665 58.9356 53.5665 45.9932C53.5665 40.3474 51.7722 35.1681 48.7819 31.1251L87.1664 8.9604C91.6041 6.40063 95.2045 8.44606 95.2285 13.5417L95.3838 70.6698Z" fill="#1BF3A4"/>
<path d="M28.89 116.159C28.7884 116.159 28.6844 116.133 28.591 116.079C28.584 116.075 28.577 116.071 28.5711 116.067L19.1876 110.612C17.4974 109.625 16.5594 107.616 16.5454 104.955L16.39 47.825C16.39 47.6106 16.5033 47.4121 16.6891 47.3052C16.876 47.1989 17.1049 47.1989 17.2895 47.3063L26.68 52.7725C26.8633 52.8794 26.9755 53.0757 26.9767 53.2877L27.1437 110.416C27.1437 112.63 27.8656 114.269 29.1762 115.035L29.1902 115.044C29.4764 115.21 29.5734 115.576 29.4075 115.861C29.2965 116.052 29.0956 116.159 28.89 116.159ZM17.5885 48.8652L17.7415 104.95C17.7532 107.17 18.4798 108.814 19.7892 109.579L26.4498 113.45C26.1192 112.579 25.9475 111.558 25.9475 110.418L25.7817 53.634L17.5885 48.8652Z" fill="#1F3154"/>
<path d="M34.3802 40.0365C34.2762 40.0365 34.1723 40.0097 34.0788 39.9553L24.6895 34.4886C24.5061 34.3811 24.3928 34.1837 24.3928 33.9705C24.3928 33.7573 24.5073 33.5605 24.6918 33.4536L77.4778 2.97574C79.8257 1.61314 82.0627 1.4134 83.7833 2.41505L93.1843 7.88125C93.4693 8.04713 93.5674 8.41334 93.4015 8.69894C93.2345 8.98512 92.8665 9.07915 92.5838 8.91503L92.578 8.91211C91.2487 8.14232 89.4323 8.34149 87.4652 9.47865L34.6792 39.9565C34.5869 40.0097 34.483 40.0365 34.3802 40.0365ZM26.1835 33.974L34.3814 38.7469L86.8671 8.44254C87.895 7.84912 88.902 7.47592 89.8528 7.32756L83.1817 3.44883C81.8524 2.67438 80.0395 2.87238 78.077 4.01129L26.1835 33.974Z" fill="#1F3154"/>
<path d="M26.3821 53.8869C26.2781 53.8869 26.1741 53.8601 26.0819 53.8057L16.6867 48.3448C16.5021 48.2385 16.39 48.0423 16.3888 47.8297C16.3748 42.5539 20.0964 36.1053 24.6871 33.4548C24.8729 33.3485 25.103 33.3485 25.2864 33.456L34.6803 38.9169C34.8649 39.0238 34.9782 39.2212 34.9782 39.435C34.9782 39.6482 34.8637 39.845 34.6792 39.9519C30.4191 42.4113 26.9661 48.3933 26.9801 53.2871C26.9813 53.5014 26.8668 53.6994 26.6811 53.8069C26.5888 53.8601 26.4849 53.8869 26.3821 53.8869ZM17.5897 47.4862L25.8249 52.2737C26.2162 47.5499 29.3222 42.1719 33.2295 39.4572L24.9908 34.6673C20.9644 37.1659 17.7275 42.7729 17.5897 47.4862Z" fill="#1F3154"/>
<path d="M30.9949 116.703C30.1259 116.703 29.3187 116.499 28.6015 116.087C26.896 115.105 25.9534 113.091 25.9452 110.414L25.784 53.2905C25.7688 48.0148 29.4904 41.5662 34.0811 38.9157L86.8729 8.43669C89.2161 7.08401 91.4496 6.8831 93.1655 7.87016C94.8698 8.85078 95.8137 10.8652 95.8206 13.5414L95.983 70.6657C95.997 75.9415 92.2754 82.3895 87.6847 85.0399L34.8941 115.519C33.5309 116.306 32.204 116.703 30.9949 116.703ZM87.471 9.4728L34.6792 39.9518C30.4191 42.4113 26.9661 48.3932 26.9801 53.287L27.1414 110.411C27.1483 112.643 27.8784 114.29 29.1984 115.049C30.5265 115.814 32.3383 115.614 34.2961 114.483L87.0867 84.0038C91.3456 81.5449 94.8009 75.5624 94.7869 70.6692L94.6245 13.5449C94.6187 11.3132 93.8886 9.66614 92.5686 8.90685C91.2393 8.14116 89.4276 8.34266 87.471 9.4728Z" fill="#1F3154"/>
<path d="M84.8471 19.8302C86.2716 19.0078 87.4253 19.6652 87.4299 21.3022L87.5817 60.8365C87.5863 62.4734 86.44 64.4588 85.0156 65.2812L38.3988 92.1954C36.983 93.0128 35.8206 92.3604 35.8159 90.7234L35.6642 51.1892C35.6596 49.5522 36.8058 47.5668 38.2303 46.7444L84.8471 19.8302Z" fill="white"/>
<path d="M87.5774 60.8309C87.591 62.4749 86.4348 64.4533 85.0136 65.2754L38.3953 92.1931C36.9881 93.0151 35.8176 92.3603 35.8176 90.7302L35.7343 75.1059C37.3364 75.5378 39.0082 75.7607 40.7358 75.7607C52.3 75.7607 61.6626 65.5899 61.6626 53.0645C61.6626 46.7113 59.2523 40.9571 55.3651 36.847L84.8466 19.8353C86.2674 19.0133 87.424 19.6681 87.424 21.2982L87.5774 60.8309Z" fill="#F0F5F7"/>
<path d="M37.2409 93.2325C36.876 93.2325 36.5313 93.146 36.2282 92.971C35.5227 92.5646 35.1324 91.7672 35.1297 90.7257L34.9782 51.1918C34.9715 49.3101 36.2497 47.0957 37.8873 46.1494L84.5036 19.2353C85.4157 18.7082 86.3076 18.6445 87.0171 19.0509C87.7226 19.4573 88.1129 20.256 88.1169 21.3002L88.2685 60.8341C88.2725 62.7172 86.9957 64.9315 85.3593 65.8758L38.7417 92.7905C38.2334 93.0836 37.7183 93.2325 37.2409 93.2325ZM85.1904 20.425L38.5741 47.3391C37.3642 48.0372 36.3476 49.7996 36.3516 51.1871L36.5032 90.721C36.5045 91.2454 36.6547 91.6311 36.9136 91.7806C37.1778 91.9328 37.5949 91.8658 38.055 91.6009L84.6726 64.6861C85.8811 63.9886 86.8991 62.2269 86.8951 60.8388L86.7435 21.3049C86.7422 20.7784 86.5919 20.3908 86.3331 20.2419C86.0675 20.0897 85.6531 20.1568 85.1904 20.425Z" fill="#1F3154"/>
<path d="M55.7804 45.5755C56.1179 45.3806 56.4637 45.2916 56.781 45.3524L72.4152 48.4285C73.4738 48.6355 73.4789 50.4282 72.4249 51.855L56.8592 72.9458C56.5449 73.37 56.2019 73.678 55.866 73.8719C54.9292 74.4129 54.0541 74.0599 54.0507 72.8401L53.9822 48.6845C53.9787 47.4671 54.8457 46.1153 55.7804 45.5755Z" fill="#E0FEF2"/>
<path d="M72.4269 51.8581L56.8561 72.9432C56.5472 73.364 56.1965 73.6727 55.8595 73.8692C54.9341 74.4162 54.0505 74.0655 54.0505 72.845L54.0081 59.6721C54.2745 59.7141 54.5416 59.7282 54.8218 59.7282C59.6753 59.7282 63.6034 55.3793 63.6034 50.0063C63.6034 48.7998 63.4069 47.6495 63.0281 46.5833L72.4125 48.4351C73.479 48.6314 73.479 50.4271 72.4269 51.8581Z" fill="#1BF3A4"/>
<path d="M55.0499 74.8052C54.7562 74.8052 54.4785 74.7348 54.2304 74.5926C53.9085 74.4069 53.368 73.9334 53.3639 72.8423L53.2955 48.6865C53.2915 47.305 54.2317 45.6774 55.4375 44.9806C55.9338 44.6936 56.4354 44.5897 56.9102 44.6775L72.5478 47.7543C73.1004 47.8629 73.5256 48.2298 73.7415 48.7871C74.113 49.7441 73.8059 51.1403 72.977 52.2629L57.4118 73.354C57.0578 73.8321 56.642 74.2164 56.2101 74.4665C55.8198 74.6912 55.4228 74.8052 55.0499 74.8052ZM56.5789 46.0194C56.4542 46.0194 56.2946 46.0717 56.1242 46.1703C55.4187 46.5774 54.6663 47.6839 54.669 48.6824L54.7374 72.8383C54.7387 73.1233 54.8071 73.3392 54.9158 73.4016C55.0137 73.4579 55.2377 73.4412 55.5234 73.2769C55.7943 73.1206 56.0652 72.8651 56.308 72.5378L71.8718 51.4474C72.4807 50.6232 72.6296 49.7179 72.462 49.2847C72.4003 49.1251 72.3265 49.111 72.2835 49.1023L56.6487 46.0261C56.6272 46.0221 56.6031 46.0194 56.5789 46.0194Z" fill="#1F3154"/>
<path d="M36.324 102.532C36.1138 102.532 35.9084 102.423 35.795 102.227C35.6255 101.935 35.7258 101.561 36.0183 101.392L48.2821 94.3007C48.5699 94.13 48.9472 94.2303 49.1168 94.5234C49.2863 94.8159 49.186 95.1897 48.8935 95.3586L36.6296 102.45C36.5341 102.506 36.4278 102.532 36.324 102.532Z" fill="#1F3154"/>
<path d="M55.1776 91.638C54.9675 91.638 54.7609 91.5288 54.6487 91.3323C54.4791 91.0398 54.5794 90.6661 54.8719 90.4971L87.5668 71.619C87.8581 71.45 88.2331 71.5485 88.4014 71.8428C88.571 72.1354 88.4707 72.5091 88.1781 72.678L55.4833 91.5562C55.3865 91.6117 55.2815 91.638 55.1776 91.638Z" fill="#1F3154"/>
<path d="M50.4123 97.9807C49.992 97.9807 49.5979 97.8798 49.2457 97.6768C48.4266 97.2052 47.9741 96.2643 47.9705 95.0273C47.9633 92.6959 49.5442 89.955 51.5681 88.7873C52.6499 88.161 53.6994 88.0768 54.5269 88.5526C55.3472 89.0243 55.8009 89.967 55.8045 91.2064C55.8116 93.5324 54.2284 96.272 52.2009 97.4434C51.5812 97.8004 50.9735 97.9807 50.4123 97.9807ZM53.3591 89.4756C53.0105 89.4756 52.6045 89.601 52.1794 89.8464C50.5555 90.7831 49.1884 93.1544 49.1932 95.0237C49.1956 95.8064 49.4308 96.3723 49.8559 96.6171C50.2797 96.8619 50.9114 96.7771 51.5896 96.3843C53.217 95.444 54.5866 93.0744 54.5818 91.21C54.5794 90.4249 54.343 89.8577 53.9167 89.6123C53.7579 89.521 53.5693 89.4756 53.3591 89.4756Z" fill="#1F3154"/>
</g>
<defs>
<clipPath id="clip0_10673_26992">
<rect width="120" height="120" fill="white"/>
</clipPath>
</defs>
</svg>
