<svg width="74" height="20" viewBox="0 0 74 20" fill="none" xmlns="http://www.w3.org/2000/svg">
<path d="M0.398972 14.427C0.650972 14.329 0.916972 14.259 1.19697 14.217C1.47697 14.161 1.76397 14.147 2.05797 14.175C2.33797 14.189 2.60397 14.238 2.85597 14.322C3.12197 14.392 3.35997 14.497 3.56997 14.637C4.74597 15.351 5.76797 15.813 6.63597 16.023C7.51797 16.233 8.15497 16.184 8.54697 15.876C8.70097 15.778 8.72897 15.645 8.63097 15.477C8.54697 15.309 8.37197 15.127 8.10597 14.931C7.85397 14.721 7.53197 14.497 7.13997 14.259C6.76197 14.007 6.35597 13.748 5.92197 13.482C5.50197 13.216 5.07497 12.943 4.64097 12.663C4.22097 12.383 3.83597 12.096 3.48597 11.802C3.10797 11.494 2.76497 11.151 2.45697 10.773C2.16297 10.381 1.93197 9.96096 1.76397 9.51296C1.59597 9.05096 1.50497 8.56096 1.49097 8.04296C1.47697 7.52496 1.56097 6.98596 1.74297 6.42596C1.86897 5.94996 2.07897 5.43896 2.37297 4.89296C2.68097 4.34696 3.03797 3.81496 3.44397 3.29696C3.84997 2.77896 4.29797 2.29596 4.78797 1.84796C5.27797 1.39996 5.77497 1.02196 6.27897 0.713956C6.46097 0.587956 6.68497 0.468956 6.95097 0.356956C7.21697 0.230956 7.51097 0.139956 7.83297 0.0839563C8.16897 0.0279562 8.52597 0.0139559 8.90397 0.0419556C9.29597 0.0559562 9.70197 0.125957 10.122 0.251957C10.752 0.475956 11.382 0.748956 12.012 1.07096C12.642 1.39296 13.167 1.75696 13.587 2.16296C13.867 2.41496 14.077 2.67396 14.217 2.93996C14.371 3.19196 14.476 3.44396 14.532 3.69596C14.602 3.94796 14.637 4.19296 14.637 4.43096C14.651 4.65496 14.658 4.87196 14.658 5.08196C14.616 5.45996 14.546 5.87296 14.448 6.32096C14.35 6.76896 14.238 7.22396 14.112 7.68596C13.986 8.13396 13.846 8.56796 13.692 8.98796C13.538 9.40796 13.384 9.77196 13.23 10.08C13.076 10.36 12.908 10.535 12.726 10.605C12.544 10.675 12.292 10.647 11.97 10.521C10.066 9.84896 9.18397 8.93196 9.32397 7.76996C9.33797 7.53196 9.37997 7.25896 9.44997 6.95096C9.53397 6.62896 9.61097 6.31396 9.68097 6.00596C9.76497 5.68396 9.83497 5.38296 9.89097 5.10296C9.94697 4.80896 9.96097 4.57096 9.93297 4.38896C9.91897 4.20696 9.85597 4.10196 9.74397 4.07396C9.63197 4.04596 9.44297 4.12296 9.17697 4.30496C8.95297 4.43096 8.70097 4.61996 8.42097 4.87196C8.14097 5.12396 7.86797 5.41096 7.60197 5.73296C7.34997 6.05496 7.11897 6.40496 6.90897 6.78296C6.71297 7.16096 6.57997 7.53896 6.50997 7.91696C6.43997 8.29496 6.44697 8.66596 6.53097 9.02996C6.61497 9.39396 6.81797 9.71596 7.13997 9.99596C7.54597 10.374 7.99397 10.731 8.48397 11.067C8.98797 11.403 9.48497 11.732 9.97497 12.054C10.479 12.362 10.948 12.67 11.382 12.978C11.83 13.286 12.194 13.608 12.474 13.944C12.768 14.266 12.95 14.609 13.02 14.973C13.104 15.323 13.034 15.701 12.81 16.107C12.67 16.401 12.474 16.716 12.222 17.052C11.97 17.388 11.634 17.703 11.214 17.997C10.794 18.277 10.283 18.515 9.68097 18.711C9.07897 18.907 8.35797 19.012 7.51797 19.026C6.39797 19.054 5.30597 18.858 4.24197 18.438C3.17797 18.004 2.07897 17.262 0.944972 16.212C0.342972 15.694 0.0279716 15.309 -2.84763e-05 15.057C-2.84763e-05 14.791 0.132972 14.581 0.398972 14.427ZM26.1153 2.01596C26.6473 2.44996 27.0323 2.91196 27.2703 3.40196C27.5223 3.87796 27.7043 4.42396 27.8163 5.03996C27.9703 6.06196 28.0053 7.17496 27.9213 8.37896C27.8373 9.56896 27.6273 10.759 27.2913 11.949C26.9693 13.125 26.5213 14.238 25.9473 15.288C25.3873 16.338 24.6943 17.227 23.8683 17.955C23.3083 18.389 22.7203 18.676 22.1043 18.816C21.4883 18.97 20.7813 19.005 19.9833 18.921C19.4513 18.865 18.9053 18.774 18.3453 18.648C17.7853 18.536 17.2743 18.361 16.8123 18.123C16.4343 17.927 16.0633 17.675 15.6993 17.367C15.3353 17.059 15.0483 16.709 14.8383 16.317C14.5023 15.673 14.2503 14.945 14.0823 14.133C13.9143 13.321 13.8373 12.467 13.8513 11.571C13.8653 10.675 13.9703 9.76496 14.1663 8.84096C14.3623 7.90296 14.6493 6.99296 15.0273 6.11096C15.4053 5.22896 15.8673 4.39596 16.4133 3.61196C16.9733 2.81396 17.6173 2.09996 18.3453 1.46996C18.8353 1.09196 19.4163 0.804956 20.0883 0.608956C20.7743 0.412956 21.4253 0.363956 22.0413 0.461956C22.8393 0.587956 23.5953 0.783956 24.3093 1.04996C25.0373 1.31596 25.6393 1.63796 26.1153 2.01596ZM22.7343 4.11596C22.4403 4.01796 22.1113 4.14396 21.7473 4.49396C21.3833 4.82996 21.0193 5.29196 20.6553 5.87996C20.2913 6.46796 19.9483 7.12596 19.6263 7.85396C19.3183 8.56796 19.0663 9.26096 18.8703 9.93296C18.6743 10.591 18.5343 11.277 18.4503 11.991C18.3663 12.691 18.3383 13.349 18.3663 13.965C18.3943 14.567 18.4923 15.085 18.6603 15.519C18.8283 15.953 19.0733 16.219 19.3953 16.317C19.6893 16.415 19.9973 16.352 20.3193 16.128C20.6413 15.904 20.9633 15.561 21.2853 15.099C21.6073 14.637 21.9083 14.07 22.1883 13.398C22.4823 12.712 22.7343 11.97 22.9443 11.172C23.1263 10.514 23.2733 9.79296 23.3853 9.00896C23.4973 8.21096 23.5533 7.46896 23.5533 6.78296C23.5533 6.08296 23.4833 5.48796 23.3433 4.99796C23.2173 4.49396 23.0143 4.19996 22.7343 4.11596ZM39.2893 14.196C39.8213 14.336 40.0943 14.553 40.1083 14.847C40.1363 15.141 40.0313 15.505 39.7933 15.939C39.5413 16.443 39.2193 16.905 38.8273 17.325C38.4353 17.745 38.0433 18.095 37.6513 18.375C37.4553 18.501 37.2173 18.62 36.9373 18.732C36.6713 18.844 36.3843 18.935 36.0763 19.005C35.7823 19.075 35.4673 19.124 35.1313 19.152C34.8093 19.18 34.4943 19.18 34.1863 19.152C33.5283 19.11 32.9333 19.005 32.4013 18.837C31.8693 18.683 31.3933 18.536 30.9733 18.396C30.5953 18.242 30.2173 18.018 29.8393 17.724C29.4613 17.43 29.1673 17.087 28.9573 16.695C28.5933 16.093 28.3413 15.386 28.2013 14.574C28.0473 13.748 27.9913 12.873 28.0333 11.949C28.0753 11.011 28.2153 10.052 28.4533 9.07196C28.6773 8.07796 28.9923 7.11196 29.3983 6.17396C29.8043 5.23596 30.2873 4.35396 30.8473 3.52796C31.4213 2.68796 32.0723 1.95296 32.8003 1.32296C33.3883 0.818956 33.9833 0.489956 34.5853 0.335956C35.1873 0.181956 35.7543 0.125956 36.2863 0.167956C36.6783 0.209956 37.0843 0.286956 37.5043 0.398956C37.9243 0.496956 38.3303 0.622956 38.7223 0.776956C39.1143 0.916956 39.4853 1.07796 39.8353 1.25996C40.1853 1.42796 40.5003 1.60296 40.7803 1.78496C41.0463 2.00896 41.2633 2.23296 41.4313 2.45696C41.6133 2.66696 41.7533 2.88396 41.8513 3.10796C41.9633 3.33196 42.0403 3.56996 42.0823 3.82196C42.1243 4.05996 42.1523 4.31896 42.1663 4.59896C42.1803 4.92096 42.1733 5.25696 42.1453 5.60696C42.1313 5.95696 42.1033 6.30696 42.0613 6.65696C42.0193 6.99296 41.9633 7.32196 41.8933 7.64396C41.8233 7.95196 41.7463 8.23196 41.6623 8.48396C41.6203 8.59596 41.5783 8.70096 41.5363 8.79896C41.4943 8.89696 41.4313 8.97396 41.3473 9.02996C41.2773 9.08596 41.1723 9.12096 41.0323 9.13496C40.8923 9.14896 40.7033 9.13496 40.4653 9.09296C40.0173 9.00896 39.6323 8.89696 39.3103 8.75696C38.9883 8.60296 38.7223 8.42796 38.5123 8.23196C38.3023 8.02196 38.1343 7.78396 38.0083 7.51796C37.8823 7.25196 37.7913 6.94396 37.7353 6.59396C37.6933 6.29996 37.6723 6.02696 37.6723 5.77496C37.6863 5.32696 37.6653 4.92096 37.6093 4.55696C37.5533 4.19296 37.3853 3.95496 37.1053 3.84296C36.8253 3.75896 36.4963 3.91996 36.1183 4.32596C35.7403 4.73196 35.3553 5.26396 34.9633 5.92196C34.5713 6.56596 34.2003 7.27996 33.8503 8.06396C33.5143 8.84796 33.2483 9.57596 33.0523 10.248C32.8703 10.948 32.7303 11.648 32.6323 12.348C32.5483 13.034 32.5203 13.664 32.5483 14.238C32.5763 14.798 32.6673 15.274 32.8213 15.666C32.9753 16.058 33.1993 16.296 33.4933 16.38C34.0533 16.562 34.9073 16.065 36.0553 14.889C36.8813 14.049 37.9593 13.818 39.2893 14.196ZM48.248 1.93196C48.64 2.19796 48.871 2.42896 48.941 2.62496C49.025 2.82096 49.018 3.10796 48.92 3.48596C48.724 4.11596 48.507 4.83696 48.269 5.64896C48.045 6.46096 47.814 7.32196 47.576 8.23196C47.352 9.12796 47.128 10.052 46.904 11.004C46.68 11.942 46.463 12.866 46.253 13.776C46.043 14.672 45.847 15.526 45.665 16.338C45.497 17.136 45.35 17.85 45.224 18.48C45.154 18.718 45.056 18.872 44.93 18.942C44.818 19.012 44.58 19.005 44.216 18.921C43.852 18.823 43.502 18.725 43.166 18.627C42.844 18.529 42.536 18.403 42.242 18.249C41.92 18.095 41.71 17.92 41.612 17.724C41.5 17.514 41.465 17.227 41.507 16.863C41.535 16.373 41.598 15.743 41.696 14.973C41.78 14.189 41.892 13.335 42.032 12.411C42.158 11.487 42.305 10.514 42.473 9.49196C42.641 8.46996 42.809 7.46896 42.977 6.48896C43.159 5.50896 43.341 4.58496 43.523 3.71696C43.705 2.83496 43.873 2.06496 44.027 1.40696C44.153 1.00096 44.321 0.755956 44.531 0.671956C44.755 0.573956 45.084 0.587956 45.518 0.713956C45.952 0.825956 46.421 0.993956 46.925 1.21796C47.429 1.44196 47.87 1.67996 48.248 1.93196ZM58.108 14.637C57.058 14.777 56.008 14.924 54.958 15.078C53.922 15.218 53.005 15.393 52.207 15.603C51.927 16.149 51.682 16.66 51.472 17.136C51.262 17.598 51.059 18.053 50.863 18.501C50.751 18.739 50.611 18.879 50.443 18.921C50.289 18.963 50.051 18.928 49.729 18.816C49.547 18.746 49.351 18.669 49.141 18.585C48.917 18.487 48.693 18.382 48.469 18.27C48.301 18.158 48.154 18.067 48.028 17.997C47.902 17.913 47.804 17.815 47.734 17.703C47.664 17.591 47.629 17.451 47.629 17.283C47.615 17.101 47.65 16.863 47.734 16.569C48.07 15.603 48.511 14.469 49.057 13.167C49.589 11.865 50.163 10.521 50.779 9.13496C51.409 7.74896 52.046 6.38396 52.69 5.03996C53.348 3.68196 53.971 2.47796 54.559 1.42796C54.769 1.04996 55.042 0.741956 55.378 0.503956C55.714 0.265956 56.211 0.174956 56.869 0.230956C57.443 0.258956 57.954 0.307956 58.402 0.377956C58.85 0.433956 59.256 0.503956 59.62 0.587956C59.998 0.671956 60.341 0.762956 60.649 0.860956C60.971 0.958956 61.293 1.04996 61.615 1.13396C62.049 1.28796 62.322 1.49096 62.434 1.74296C62.56 1.99496 62.602 2.32396 62.56 2.72996C62.476 3.72396 62.406 4.86496 62.35 6.15296C62.294 7.44096 62.252 8.78496 62.224 10.185C62.196 11.585 62.175 12.992 62.161 14.406C62.161 15.806 62.168 17.108 62.182 18.312C62.182 18.564 62.126 18.739 62.014 18.837C61.916 18.935 61.685 18.984 61.321 18.984C60.957 18.984 60.621 18.97 60.313 18.942C60.005 18.928 59.69 18.865 59.368 18.753C59.032 18.655 58.794 18.529 58.654 18.375C58.528 18.221 58.437 17.948 58.381 17.556C58.325 17.15 58.276 16.709 58.234 16.233C58.192 15.743 58.15 15.211 58.108 14.637ZM54.097 11.697C54.727 11.599 55.357 11.515 55.987 11.445C56.631 11.375 57.275 11.319 57.919 11.277C57.891 10.129 57.87 8.98796 57.856 7.85396C57.842 6.70596 57.849 5.57196 57.877 4.45196C57.317 5.47396 56.708 6.60796 56.05 7.85396C55.406 9.08596 54.755 10.367 54.097 11.697ZM72.4672 17.745C71.5852 17.913 70.6752 18.088 69.7372 18.27C68.8132 18.438 67.9312 18.606 67.0912 18.774C66.7832 18.858 66.5242 18.907 66.3142 18.921C66.1042 18.935 65.9222 18.921 65.7682 18.879C65.6142 18.851 65.4812 18.809 65.3692 18.753C65.2712 18.697 65.1732 18.634 65.0752 18.564C64.8372 18.41 64.6202 18.256 64.4242 18.102C64.2282 17.934 63.9692 17.724 63.6472 17.472C63.4092 17.276 63.2272 17.059 63.1012 16.821C62.9752 16.569 62.9402 16.268 62.9962 15.918C63.0382 15.372 63.1082 14.728 63.2062 13.986C63.3042 13.23 63.4232 12.418 63.5632 11.55C63.7032 10.682 63.8572 9.78596 64.0252 8.86196C64.1932 7.92396 64.3752 6.99296 64.5712 6.06896C64.7672 5.14496 64.9632 4.25596 65.1592 3.40196C65.3692 2.54796 65.5722 1.76396 65.7682 1.04996C65.9082 0.643956 66.0832 0.405955 66.2932 0.335956C66.5172 0.251956 66.8462 0.272956 67.2802 0.398956C67.7142 0.510956 68.1832 0.671956 68.6872 0.881956C69.1912 1.07796 69.6322 1.30196 70.0102 1.55396C70.3742 1.81996 70.5982 2.05096 70.6822 2.24696C70.7802 2.44296 70.7662 2.72296 70.6402 3.08696C70.3602 3.92696 70.0732 4.85096 69.7792 5.85896C69.4992 6.86696 69.2122 7.90296 68.9182 8.96696C68.6382 10.031 68.3652 11.095 68.0992 12.159C67.8472 13.209 67.6092 14.217 67.3852 15.183C68.0292 15.071 68.6312 14.987 69.1912 14.931C69.7512 14.875 70.3602 14.826 71.0182 14.784C71.4102 14.756 71.7042 14.784 71.9002 14.868C72.1102 14.938 72.2992 15.106 72.4672 15.372C72.6352 15.624 72.7682 15.883 72.8662 16.149C72.9782 16.401 73.0622 16.646 73.1182 16.884C73.2162 17.178 73.2372 17.374 73.1812 17.472C73.1392 17.57 72.9012 17.661 72.4672 17.745Z" fill="white"/>
</svg>
