<svg width="87" height="36" viewBox="0 0 87 36" fill="none" xmlns="http://www.w3.org/2000/svg">
<path d="M39.6453 35.7188C39.5953 35.7188 39.5453 35.7072 39.4994 35.6814C39.3779 35.6143 39.3239 35.4762 39.3671 35.3496L43.7927 22.6311L41.305 21.0627C41.1794 20.984 41.1376 20.8278 41.2051 20.7013L44.0088 15.4928L41.8642 14.1426C41.7372 14.0625 41.6953 13.9025 41.7683 13.7747L48.4816 1.98037C48.5113 1.92874 48.5559 1.88743 48.6113 1.86161L51.9781 0.307451C52.0186 0.28938 52.0618 0.279053 52.105 0.279053C52.1563 0.279053 52.2077 0.291961 52.2536 0.317778C52.3387 0.365538 52.3927 0.449442 52.3967 0.543673L52.7019 5.68893C52.7033 5.71087 52.7019 5.73411 52.6979 5.75605L49.8105 20.7336C49.8051 20.762 49.7943 20.7891 49.7808 20.8149L44.1114 30.9802C44.1006 30.9995 44.0884 31.0176 44.0736 31.0331L39.8654 35.6233C39.8087 35.6866 39.7263 35.7188 39.6453 35.7188Z" fill="#00AD6E"/>
<path d="M52.1115 0.56022L52.4167 5.70548L49.528 20.683L43.8585 30.8483L39.6504 35.4398L44.1476 22.2151L41.4722 20.6804L44.238 15.0975L42.0313 13.6066L48.7447 2.11438L52.1115 0.56022ZM52.1115 0C52.0237 0 51.9373 0.0180715 51.8562 0.0555056L48.4908 1.60967C48.38 1.66001 48.2895 1.74391 48.2301 1.84589L41.5168 13.3381C41.3709 13.5937 41.456 13.9138 41.7099 14.0739L43.4763 15.2872L40.9509 20.4235C40.8145 20.6778 40.8996 20.9902 41.1494 21.1477L43.4507 22.4462L39.0953 35.2629C39.0075 35.5159 39.1183 35.7935 39.36 35.9251C39.4518 35.9755 39.5518 36 39.6504 36C39.8151 36 39.9772 35.9342 40.092 35.809L44.3002 31.2175C44.3299 31.1852 44.3555 31.1504 44.3771 31.1116L50.0466 20.945C50.0749 20.8947 50.0952 20.8392 50.106 20.7837L52.9934 5.80616C53.0028 5.76227 53.0055 5.71709 53.0028 5.6732L52.6976 0.526659C52.6868 0.340779 52.5787 0.170389 52.4099 0.0761586C52.3168 0.027107 52.2141 0 52.1115 0Z" fill="#1D1D1B"/>
<path d="M41.6251 13.9176C41.5337 13.8959 41.4617 13.8187 41.4457 13.7108C41.4227 13.5613 41.5161 13.4115 41.6552 13.3752L44.866 12.5331C45.0039 12.4965 45.1357 12.5879 45.1598 12.7377C45.1828 12.8873 45.0894 13.0371 44.9501 13.0747L41.737 13.9162C41.6982 13.927 41.6601 13.9259 41.6251 13.9176Z" fill="#1D1D1B"/>
<path d="M41.2494 20.9174C41.1411 20.9038 41.0463 20.833 41.0109 20.7267C40.9609 20.5793 41.0444 20.4213 41.1982 20.3728L44.7481 19.247C44.9006 19.1983 45.0663 19.2779 45.1176 19.4255C45.1676 19.5728 45.0841 19.7308 44.9301 19.7807L41.3802 20.9064C41.3363 20.9192 41.2922 20.9228 41.2494 20.9174Z" fill="#1D1D1B"/>
<path d="M43.7571 15.3484C43.6603 15.3298 43.5806 15.2485 43.5627 15.1354C43.5398 14.9844 43.6341 14.8348 43.7732 14.8008L47.1082 13.9759C47.2476 13.9406 47.3798 14.0347 47.4039 14.1859C47.4268 14.3369 47.3325 14.4865 47.1934 14.5205L43.8584 15.3455C43.8229 15.3545 43.7893 15.3546 43.7571 15.3484Z" fill="#1D1D1B"/>
<path d="M43.6572 22.5285C43.5648 22.5085 43.4906 22.4328 43.4719 22.3253C43.4452 22.1762 43.5355 22.0245 43.6746 21.9842L46.8805 21.0785C47.0182 21.0393 47.154 21.1283 47.1808 21.2774C47.2075 21.4265 47.1172 21.5782 46.978 21.6185L43.7722 22.5241C43.7323 22.5354 43.6937 22.5364 43.6572 22.5285Z" fill="#1D1D1B"/>
<path d="M43.5026 31.4939C43.4512 31.4939 43.3999 31.481 43.354 31.4552C43.2311 31.3868 43.1784 31.2435 43.2284 31.1157L47.1381 21.0731L44.6572 19.5099C44.533 19.4311 44.4898 19.2749 44.5573 19.1484L47.3623 13.9399L45.0596 12.8906C44.9327 12.8105 44.8908 12.6505 44.9638 12.5227L51.8325 0.424917C51.8716 0.356502 51.9391 0.30616 52.0188 0.286797C52.0418 0.281634 52.0661 0.279053 52.0891 0.279053C52.1458 0.279053 52.2025 0.294542 52.2498 0.325522L58.1272 4.0315C58.1947 4.0741 58.2406 4.14122 58.2541 4.21738C58.2676 4.29354 58.2487 4.37228 58.2001 4.43424L51.8703 12.4464L55.1223 14.4963C55.1925 14.5414 55.2398 14.6124 55.2519 14.6925C55.2627 14.7725 55.2384 14.8538 55.1817 14.9145L51.4057 19.0594L53.2761 20.2379C53.3464 20.2818 53.3936 20.3528 53.4058 20.4328C53.4179 20.5128 53.3923 20.5929 53.3383 20.6535L43.724 31.3958C43.6687 31.4604 43.5863 31.4939 43.5026 31.4939Z" fill="#00FFA3"/>
</svg>
