<svg width="87" height="36" viewBox="0 0 87 36" fill="none" xmlns="http://www.w3.org/2000/svg">
<path d="M13.1013 13.8071C13.5445 13.7394 13.8169 13.6476 13.9186 13.5318C14.02 13.4018 14.038 13.1535 13.9723 12.787C13.9026 12.1798 13.6623 11.5628 13.2515 10.9358C13.1148 10.741 12.9862 10.5885 12.8658 10.4782C12.7452 10.3538 12.6177 10.2649 12.4835 10.2116C12.3638 10.1438 12.2224 10.1049 12.0593 10.0948C11.9107 10.0702 11.7254 10.0607 11.5033 10.0662C10.6155 10.1168 9.71318 10.1889 8.79645 10.2827C7.89452 10.376 7.00776 10.4903 6.13618 10.6254C5.26436 10.7463 4.42991 10.8876 3.63285 11.0491C2.85035 11.1962 2.14225 11.3626 1.50855 11.5484C1.565 12.2408 1.57159 13.0478 1.52833 13.9694C1.48507 14.8909 1.40565 15.8629 1.29008 16.8853C1.18907 17.8933 1.06609 18.9159 0.921153 19.9533C0.776215 20.9906 0.637698 21.9712 0.505601 22.895C0.373258 23.8045 0.261651 24.6287 0.17078 25.3673C0.0648567 26.0921 0.00793011 26.6529 0 27.0496C0.00638464 27.4176 0.0483106 27.6998 0.125778 27.8961C0.203245 28.0924 0.428525 28.2709 0.801618 28.4315C1.08489 28.5377 1.41271 28.6498 1.78507 28.7679C2.17223 28.8857 2.53644 28.9615 2.87772 28.9955C3.21923 29.0436 3.50795 29.0364 3.74386 28.9738C3.98001 28.9254 4.10329 28.7736 4.11367 28.5185C4.27808 27.7497 4.45546 26.8744 4.64579 25.8925C4.85069 24.8961 5.08434 23.8495 5.34675 22.7525C6.18773 22.5616 7.03624 22.3775 7.89228 22.2003C8.74832 22.0231 9.5972 21.8602 10.4389 21.7117C10.8379 21.6593 11.0883 21.5751 11.19 21.4593C11.3062 21.3289 11.3023 21.1024 11.1782 20.7799C11.0992 20.4986 11.0056 20.2248 10.8973 19.9585C10.8036 19.6776 10.6654 19.3979 10.4828 19.1192C10.1487 18.6461 9.61933 18.4399 8.89458 18.5005C8.43584 18.5261 7.98476 18.5658 7.54132 18.6193C7.11244 18.6584 6.68368 18.7045 6.25505 18.7577C6.49349 17.9871 6.68072 17.2531 6.81675 16.5558C6.96758 15.8582 7.1416 15.2166 7.33882 14.6311C8.38758 14.4632 9.38488 14.3179 10.3307 14.1951C11.2914 14.0719 12.2149 13.9426 13.1013 13.8071Z" fill="white"/>
<path d="M22.4536 27.401C22.9111 27.3046 23.1612 27.2063 23.2039 27.1061C23.2615 27.0055 23.2358 26.8079 23.127 26.5133C23.0636 26.2741 22.9705 26.0286 22.8476 25.7768C22.7393 25.5105 22.5941 25.2521 22.412 25.0018C22.2297 24.7373 22.0269 24.5724 21.8035 24.5072C21.5948 24.4275 21.2834 24.407 20.8693 24.4457C20.1742 24.5055 19.531 24.5712 18.9397 24.6426C18.3485 24.7141 17.7133 24.8149 17.0342 24.9452C17.2541 23.9626 17.4881 22.9372 17.7362 21.8689C17.9989 20.7862 18.2689 19.7032 18.5464 18.62C18.8386 17.5365 19.124 16.4815 19.4024 15.4549C19.6957 14.428 19.983 13.4862 20.2644 12.6295C20.3912 12.2582 20.4011 11.9747 20.2941 11.7791C20.2018 11.5832 19.9608 11.3556 19.5712 11.0963C19.167 10.8515 18.6967 10.6367 18.1603 10.4519C17.6236 10.2529 17.1248 10.1025 16.6638 10.0008C16.2026 9.88488 15.8543 9.87236 15.6189 9.96322C15.398 10.0395 15.2171 10.2848 15.0762 10.699C14.8814 11.4261 14.6805 12.2241 14.4734 13.0931C14.2811 13.9617 14.0894 14.8657 13.8983 15.8051C13.7073 16.7445 13.5311 17.6906 13.3699 18.6434C13.2084 19.582 13.0613 20.492 12.9285 21.3733C12.7956 22.2546 12.684 23.0787 12.5936 23.8456C12.503 24.5984 12.4403 25.2514 12.4054 25.8045C12.3524 26.1599 12.3946 26.4633 12.5323 26.7147C12.6697 26.952 12.866 27.1666 13.1212 27.3584C13.4661 27.6047 13.7437 27.8102 13.9539 27.9748C14.1639 28.1253 14.3961 28.2753 14.6505 28.4247C14.7554 28.4929 14.8601 28.554 14.9648 28.608C15.0842 28.6617 15.2256 28.7006 15.3889 28.7248C15.5525 28.7632 15.7453 28.7726 15.9671 28.7528C16.1889 28.7331 16.462 28.6767 16.7862 28.5836C17.6716 28.3916 18.6015 28.1984 19.5757 28.004C20.5645 27.7952 21.5238 27.5942 22.4536 27.401Z" fill="white"/>
<path d="M34.9743 23.9439C35.0288 24.5232 35.0826 25.0599 35.1356 25.5542C35.1883 26.0344 35.2479 26.4789 35.3142 26.8879C35.3803 27.2828 35.4814 27.5564 35.6173 27.7087C35.7681 27.8607 36.022 27.9818 36.379 28.072C36.7215 28.1767 37.0558 28.2321 37.3818 28.2381C37.708 28.2583 38.0636 28.2635 38.4485 28.2539C38.8335 28.2442 39.0769 28.1886 39.1788 28.0869C39.2955 27.9849 39.3517 27.8064 39.3473 27.5517C39.3114 26.3347 39.2811 25.0186 39.2566 23.6031C39.2466 22.1731 39.2441 20.75 39.2491 19.3338C39.2542 17.9176 39.275 16.5577 39.3117 15.254C39.3483 13.9503 39.4023 12.7948 39.4737 11.7876C39.511 11.376 39.4608 11.0445 39.3232 10.7931C39.2003 10.5413 38.908 10.3432 38.4463 10.199C38.1043 10.1226 37.7622 10.0391 37.4199 9.94859C37.0925 9.85766 36.7282 9.77473 36.3269 9.69981C35.9405 9.62452 35.5099 9.56449 35.0351 9.51973C34.5601 9.46082 34.0188 9.4248 33.4113 9.41169C32.7145 9.37249 32.1904 9.47765 31.8393 9.72717C31.4881 9.97669 31.2048 10.2953 30.9893 10.683C30.3859 11.7602 29.7482 12.994 29.0761 14.3844C28.4186 15.7603 27.7689 17.1572 27.1269 18.5752C26.4998 19.9928 25.9163 21.3668 25.3766 22.6973C24.822 24.0281 24.3755 25.1863 24.0371 26.1719C23.9534 26.4713 23.9206 26.7129 23.9386 26.8965C23.9415 27.0664 23.981 27.207 24.057 27.3184C24.133 27.4298 24.2383 27.5262 24.373 27.6078C24.5075 27.6753 24.6646 27.7634 24.8442 27.8722C25.0831 27.9795 25.3218 28.0797 25.5604 28.1729C25.784 28.2522 25.9926 28.3249 26.1863 28.3909C26.5288 28.4956 26.7811 28.5247 26.9433 28.4781C27.1202 28.4312 27.2658 28.286 27.3801 28.0424C27.5795 27.5842 27.7862 27.1188 28.0002 26.6462C28.2139 26.1594 28.4641 25.6362 28.7506 25.0768C29.5908 24.8434 30.5576 24.6421 31.6507 24.4732C32.7585 24.2897 33.8663 24.1133 34.9743 23.9439ZM30.6809 21.0776C31.3534 19.7155 32.0194 18.4032 32.6789 17.1405C33.3529 15.8634 33.9771 14.7007 34.5514 13.6526C34.5414 14.7857 34.5539 15.9324 34.5888 17.0927C34.6235 18.2389 34.6658 19.3919 34.7155 20.5518C34.0352 20.6114 33.3551 20.685 32.6752 20.7728C32.0102 20.8603 31.3454 20.9619 30.6809 21.0776Z" fill="white"/>
<path d="M72.262 11.3281C72.3741 10.9571 72.384 10.6736 72.2917 10.4777C72.2143 10.2814 71.9807 10.0536 71.5911 9.79428C71.1721 9.54987 70.7314 9.33433 70.269 9.14765C69.8063 8.94682 69.3593 8.79516 68.928 8.69267C68.4668 8.57677 68.111 8.55735 67.8605 8.63443C67.6246 8.69697 67.4439 8.95639 67.3185 9.41267C66.9989 10.6243 66.6743 11.9777 66.3447 13.4728C66.0297 14.9534 65.7002 16.4486 65.356 17.9582C64.7942 18.0148 64.2101 18.0719 63.6038 18.1295C63.0123 18.1868 62.4062 18.2586 61.7856 18.345C62.0601 17.0919 62.3138 15.9173 62.5465 14.8211C62.7941 13.7246 63.0294 12.7699 63.2523 11.9572C63.2935 11.772 63.3203 11.6085 63.3326 11.4666C63.345 11.3247 63.3206 11.1979 63.2594 11.0861C63.213 10.974 63.1222 10.863 62.987 10.7531C62.8666 10.6428 62.6942 10.5267 62.4699 10.4049C62.0657 10.1601 61.5879 9.93844 61.0364 9.73983C60.4995 9.5267 59.993 9.36237 59.517 9.24684C59.0849 9.10188 58.7586 9.07465 58.538 9.16513C58.3174 9.25562 58.1518 9.52882 58.0412 9.98473C57.8841 11.1782 57.729 12.4848 57.5759 13.9047C57.4374 15.3101 57.2915 16.7227 57.1384 18.1426C56.9853 19.5626 56.8238 20.926 56.6539 22.2331C56.4841 23.5401 56.2965 24.6847 56.0914 25.6669C56.0089 26.0372 56.0436 26.3266 56.1953 26.5352C56.3468 26.7297 56.5942 26.9005 56.9374 27.0477C57.2214 27.1963 57.5568 27.3154 57.9435 27.4048C58.3449 27.4939 58.7316 27.5834 59.1035 27.6732C59.4899 27.7485 59.7417 27.7493 59.8589 27.6755C59.991 27.6014 60.0845 27.4433 60.1395 27.2012C60.2462 26.5188 60.3662 25.7511 60.4995 24.8981C60.6326 24.031 60.8091 23.1061 61.0291 22.1236C61.6492 22.0089 62.2548 21.9088 62.8458 21.8232C63.4513 21.7231 64.0643 21.6228 64.6847 21.5223C64.536 22.3473 64.4083 23.0939 64.3014 23.7622C64.1945 24.4304 64.1158 25.02 64.0654 25.5311C63.941 26.044 64.0513 26.4236 64.3963 26.6698C64.741 26.9019 65.2183 27.0953 65.8283 27.25C66.1257 27.3133 66.4007 27.3702 66.6533 27.4205C66.9211 27.4846 67.1512 27.5142 67.3437 27.5094C67.5364 27.5188 67.6839 27.4867 67.7864 27.4134C67.9038 27.3538 67.9608 27.2249 67.9574 27.0268C68.2331 25.8445 68.5442 24.5623 68.8905 23.18C69.2516 21.7974 69.62 20.4075 69.9957 19.0103C70.3862 17.6128 70.7773 16.2507 71.1691 14.9239C71.5608 13.5972 71.9251 12.3986 72.262 11.3281Z" fill="white"/>
<path d="M86.7011 11.4977C86.8008 11.2686 86.8789 11.0755 86.9354 10.9183C86.9917 10.747 87.0112 10.5907 86.9939 10.4496C86.9915 10.308 86.9521 10.1745 86.8759 10.0489C86.7994 9.90925 86.6932 9.76323 86.5572 9.61086C86.3167 9.40447 86.0238 9.17107 85.6786 8.91066C85.3482 8.64987 85.0114 8.44589 84.6681 8.29872C84.3246 8.13738 84.0051 8.07458 83.7095 8.1103C83.4136 8.13186 83.2021 8.32125 83.075 8.67845C82.3279 10.0141 81.5805 11.3285 80.8327 12.6217C80.0849 13.9149 79.3218 15.1801 78.5434 16.4174C78.1225 15.2101 77.7175 14.0662 77.3285 12.9855C76.9394 11.9049 76.5673 10.9442 76.212 10.1034C75.9672 9.65642 75.7394 9.32935 75.5284 9.12222C75.332 8.90057 75.0109 8.74576 74.565 8.65779C74.1191 8.56983 73.6817 8.54537 73.2528 8.58443C72.8385 8.60896 72.4021 8.64112 71.9436 8.68092C71.5599 8.76133 71.3322 8.87323 71.2606 9.01663C71.174 9.14624 71.2155 9.4001 71.3849 9.7782C71.6652 10.5642 71.9836 11.4129 72.3401 12.3245C72.6815 13.2222 73.0383 14.1479 73.4103 15.1015C73.7821 16.041 74.1539 16.9804 74.5257 17.9199C74.8975 18.8593 75.2462 19.7498 75.5719 20.5913C75.4111 21.5724 75.2934 22.4675 75.2185 23.2765C75.1434 24.0714 75.0593 24.7745 74.9663 25.3857C74.943 25.7545 74.985 26.0366 75.092 26.2322C75.1989 26.4136 75.4169 26.5993 75.746 26.7893C76.074 26.9086 76.4314 27.02 76.8183 27.1236C77.2055 27.2413 77.5775 27.3382 77.9343 27.4143C78.3207 27.4896 78.5801 27.4972 78.7123 27.4373C78.8446 27.3773 78.9453 27.2049 79.0144 26.9199C79.164 26.1515 79.3207 25.3617 79.4843 24.5504C79.6478 23.725 79.8471 22.835 80.0823 21.8803C80.7183 20.9723 81.3758 20.0212 82.0547 19.0271C82.7336 18.0331 83.3761 17.0682 83.9819 16.1326C84.5878 15.197 85.1282 14.3267 85.603 13.5219C86.0927 12.7166 86.4587 12.0419 86.7011 11.4977Z" fill="white"/>
<path d="M39.6453 35.7188C39.5953 35.7188 39.5453 35.7072 39.4994 35.6814C39.3779 35.6143 39.3239 35.4762 39.3671 35.3496L43.7927 22.6311L41.305 21.0627C41.1794 20.984 41.1376 20.8278 41.2051 20.7013L44.0088 15.4928L41.8642 14.1426C41.7372 14.0625 41.6953 13.9025 41.7683 13.7747L48.4816 1.98037C48.5113 1.92874 48.5559 1.88743 48.6113 1.86161L51.9781 0.307451C52.0186 0.28938 52.0618 0.279053 52.105 0.279053C52.1563 0.279053 52.2077 0.291961 52.2536 0.317778C52.3387 0.365538 52.3927 0.449442 52.3967 0.543673L52.7019 5.68893C52.7033 5.71087 52.7019 5.73411 52.6979 5.75605L49.8105 20.7336C49.8051 20.762 49.7943 20.7891 49.7808 20.8149L44.1114 30.9802C44.1006 30.9995 44.0884 31.0176 44.0736 31.0331L39.8654 35.6233C39.8087 35.6866 39.7263 35.7188 39.6453 35.7188Z" fill="#00AD6E"/>
<path d="M52.1115 0.56022L52.4167 5.70548L49.528 20.683L43.8585 30.8483L39.6504 35.4398L44.1476 22.2151L41.4722 20.6804L44.238 15.0975L42.0313 13.6066L48.7447 2.11438L52.1115 0.56022ZM52.1115 0C52.0237 0 51.9373 0.0180715 51.8562 0.0555056L48.4908 1.60967C48.38 1.66001 48.2895 1.74391 48.2301 1.84589L41.5168 13.3381C41.3709 13.5937 41.456 13.9138 41.7099 14.0739L43.4763 15.2872L40.9509 20.4235C40.8145 20.6778 40.8996 20.9902 41.1494 21.1477L43.4507 22.4462L39.0953 35.2629C39.0075 35.5159 39.1183 35.7935 39.36 35.9251C39.4518 35.9755 39.5518 36 39.6504 36C39.8151 36 39.9772 35.9342 40.092 35.809L44.3002 31.2175C44.3299 31.1852 44.3555 31.1504 44.3771 31.1116L50.0466 20.945C50.0749 20.8947 50.0952 20.8392 50.106 20.7837L52.9934 5.80616C53.0028 5.76227 53.0055 5.71709 53.0028 5.6732L52.6976 0.526659C52.6868 0.340779 52.5787 0.170389 52.4099 0.0761586C52.3168 0.027107 52.2141 0 52.1115 0Z" fill="#1D1D1B"/>
<path d="M41.6251 13.9176C41.5337 13.8959 41.4617 13.8187 41.4457 13.7108C41.4227 13.5613 41.5161 13.4115 41.6552 13.3752L44.866 12.5331C45.0039 12.4965 45.1357 12.5879 45.1598 12.7377C45.1828 12.8873 45.0894 13.0371 44.9501 13.0747L41.737 13.9162C41.6982 13.927 41.6601 13.9259 41.6251 13.9176Z" fill="#1D1D1B"/>
<path d="M41.2494 20.9174C41.1411 20.9038 41.0463 20.833 41.0109 20.7267C40.9609 20.5793 41.0444 20.4213 41.1982 20.3728L44.7481 19.247C44.9006 19.1983 45.0663 19.2779 45.1176 19.4255C45.1676 19.5728 45.0841 19.7308 44.9301 19.7807L41.3802 20.9064C41.3363 20.9192 41.2922 20.9228 41.2494 20.9174Z" fill="#1D1D1B"/>
<path d="M43.7571 15.3484C43.6603 15.3298 43.5806 15.2485 43.5627 15.1354C43.5398 14.9844 43.6341 14.8348 43.7732 14.8008L47.1082 13.9759C47.2476 13.9406 47.3798 14.0347 47.4039 14.1859C47.4268 14.3369 47.3325 14.4865 47.1934 14.5205L43.8584 15.3455C43.8229 15.3545 43.7893 15.3546 43.7571 15.3484Z" fill="#1D1D1B"/>
<path d="M43.6572 22.5285C43.5648 22.5085 43.4906 22.4328 43.4719 22.3253C43.4452 22.1762 43.5355 22.0245 43.6746 21.9842L46.8805 21.0785C47.0182 21.0393 47.154 21.1283 47.1808 21.2774C47.2075 21.4265 47.1172 21.5782 46.978 21.6185L43.7722 22.5241C43.7323 22.5354 43.6937 22.5364 43.6572 22.5285Z" fill="#1D1D1B"/>
<path d="M43.5026 31.4939C43.4512 31.4939 43.3999 31.481 43.354 31.4552C43.2311 31.3868 43.1784 31.2435 43.2284 31.1157L47.1381 21.0731L44.6572 19.5099C44.533 19.4311 44.4898 19.2749 44.5573 19.1484L47.3623 13.9399L45.0596 12.8906C44.9327 12.8105 44.8908 12.6505 44.9638 12.5227L51.8325 0.424917C51.8716 0.356502 51.9391 0.30616 52.0188 0.286797C52.0418 0.281634 52.0661 0.279053 52.0891 0.279053C52.1458 0.279053 52.2025 0.294542 52.2498 0.325522L58.1272 4.0315C58.1947 4.0741 58.2406 4.14122 58.2541 4.21738C58.2676 4.29354 58.2487 4.37228 58.2001 4.43424L51.8703 12.4464L55.1223 14.4963C55.1925 14.5414 55.2398 14.6124 55.2519 14.6925C55.2627 14.7725 55.2384 14.8538 55.1817 14.9145L51.4057 19.0594L53.2761 20.2379C53.3464 20.2818 53.3936 20.3528 53.4058 20.4328C53.4179 20.5128 53.3923 20.5929 53.3383 20.6535L43.724 31.3958C43.6687 31.4604 43.5863 31.4939 43.5026 31.4939Z" fill="#00FFA3"/>
<path d="M52.0892 0.56022L57.9666 4.26491L51.449 12.5146L54.9617 14.7297L50.9656 19.1159L53.1156 20.4713L43.5013 31.2136L47.4907 20.9618L44.8154 19.4258L47.4231 13.9939L45.2164 12.6541L52.0892 0.56022ZM52.0892 0C52.0419 0 51.9933 0.00516317 51.9474 0.0167807C51.788 0.0542148 51.653 0.154899 51.5746 0.293018L44.7019 12.3895C44.556 12.6451 44.6411 12.9639 44.895 13.1253L46.6628 14.1876L44.2954 19.1728C44.1577 19.4271 44.2441 19.7394 44.4939 19.8969L46.7817 21.1864L42.5233 32.2528C42.4247 32.5071 42.8321 32.116 43.0765 32.2528C43.1697 32.3057 43.4027 31.7751 43.504 31.7751C43.6701 31.7751 43.8349 31.7067 43.9497 31.5789L53.5639 20.8366C53.6733 20.714 53.7219 20.5526 53.699 20.3938C53.6747 20.2338 53.5815 20.0931 53.441 20.004L51.8501 19.001L55.406 15.0976C55.5167 14.9762 55.5667 14.8136 55.5451 14.6535C55.5221 14.4935 55.429 14.3502 55.2872 14.2611L52.2958 12.3752L58.4379 4.60181C58.5351 4.47789 58.5756 4.3217 58.5473 4.16939C58.5203 4.01707 58.4271 3.88282 58.292 3.79634L52.416 0.0903582C52.3147 0.0322708 52.2026 0 52.0892 0Z" fill="#1D1D1B"/>
<path d="M52.6864 1.81226L46.7969 11.9608L47.4937 12.3768L54.2171 2.87708L52.6864 1.81226Z" fill="white"/>
</svg>
