<svg width="30" height="31" viewBox="0 0 30 31" fill="none" xmlns="http://www.w3.org/2000/svg">
<path d="M7.3202 22.8968C6.33756 21.932 5.5583 20.7805 5.02684 19.5101C4.49538 18.2397 4.2235 16.8759 4.22645 15.4988C4.22119 13.434 4.83579 11.4157 5.99129 9.70445L4.762 9.83394C4.54638 9.85858 4.32955 9.7967 4.15965 9.66168C3.98975 9.52666 3.88083 9.32944 3.85614 9.11383C3.84469 9.00682 3.85483 8.89884 3.88543 8.79566C3.91604 8.69249 3.96631 8.59611 4.03426 8.51266C4.10221 8.4292 4.1867 8.36022 4.28153 8.30933C4.37635 8.25845 4.48028 8.22665 4.58739 8.21617L7.81473 7.86812C7.89484 7.86048 7.97586 7.86445 8.05497 7.87926H8.06551H8.08778H8.10653H8.11473C8.15584 7.89036 8.19668 7.90438 8.23543 7.92203L8.26004 7.93433H8.26942L8.29168 7.94371L8.30926 7.95484L8.32098 7.9607C8.35414 7.97992 8.38595 8.00124 8.4159 8.02516C8.44878 8.05251 8.48019 8.08205 8.50965 8.11305L8.51786 8.12359L8.53426 8.14058L8.55653 8.16812C8.65274 8.29367 8.70958 8.4451 8.72059 8.60289L9.06512 11.7681C9.07659 11.8752 9.0675 11.9836 9.037 12.0869C9.00649 12.1901 8.95597 12.2863 8.88817 12.3699C8.82037 12.4535 8.73678 12.5232 8.64207 12.5744C8.54737 12.6256 8.44332 12.6572 8.33622 12.6681C8.30705 12.6701 8.27749 12.6701 8.24832 12.6681C8.04599 12.6692 7.85016 12.5955 7.69871 12.4613C7.54727 12.3271 7.45134 12.142 7.42801 11.941L7.29207 10.6894C6.36122 12.1116 5.8666 13.775 5.87059 15.4748C5.88456 17.8268 6.83128 20.0777 8.50262 21.7326C10.174 23.3875 12.4342 24.3112 14.7862 24.3019C15.004 24.301 15.2127 24.3866 15.3675 24.5398C15.5223 24.693 15.6099 24.9015 15.6112 25.1193C15.6107 25.227 15.5896 25.3334 15.5479 25.4328C15.5062 25.5321 15.4452 25.6224 15.3686 25.6982C15.2921 25.774 15.2012 25.8339 15.1014 25.8746C15.0017 25.9152 14.8951 25.9361 14.7874 25.9355C11.9944 25.9515 9.30836 24.8585 7.3202 22.8968ZM21.6382 23.1371H21.5901H21.562H21.5538H21.5233H21.5163L21.4835 23.13C21.4328 23.1178 21.3834 23.101 21.3358 23.0796L21.3089 23.065H21.2972L21.2772 23.0545L21.2585 23.0445L21.2491 23.0386C21.1954 23.0045 21.1458 22.9641 21.1014 22.9185C20.9618 22.7806 20.8763 22.5968 20.8612 22.4011L20.5167 19.2312C20.4942 19.0151 20.5592 18.7988 20.696 18.63C20.8328 18.4613 21.0307 18.3539 21.2468 18.3312C21.4625 18.3078 21.6789 18.3699 21.8491 18.5046C22.0193 18.6394 22.1294 18.8354 22.1561 19.0507L22.2921 20.3029C23.2227 18.8798 23.7157 17.215 23.7112 15.5146C23.6972 13.1626 22.7505 10.9123 21.0792 9.25738C19.4078 7.60247 17.1488 6.6782 14.7968 6.68746C14.5793 6.68842 14.3701 6.60315 14.2155 6.45016C14.0609 6.29716 13.973 6.08873 13.9718 5.87125C13.973 5.65366 14.061 5.44553 14.2155 5.29234C14.37 5.13916 14.5792 5.05381 14.7968 5.05445C16.1824 5.04942 17.5554 5.31725 18.8374 5.84312C20.1193 6.369 21.2845 7.14227 22.2675 8.11891C23.2494 9.08365 24.0296 10.2351 24.5608 11.505C25.0921 12.775 25.3638 14.138 25.3612 15.5146C25.366 17.5797 24.7514 19.5988 23.5964 21.3107L24.8233 21.18C25.0388 21.1561 25.2559 21.218 25.4257 21.3529C25.5954 21.4878 25.7051 21.6842 25.7304 21.8996C25.742 22.0066 25.7315 22.115 25.7011 22.2183C25.6706 22.3216 25.6201 22.4182 25.5522 22.5019C25.4844 22.5856 25.4009 22.6547 25.3061 22.7058C25.2114 22.757 25.1074 22.7888 25.0003 22.7996L21.7729 23.1441C21.743 23.1458 21.7138 23.1458 21.6839 23.1441L21.6382 23.1371ZM12.5175 19.3748C11.8317 18.8323 11.3711 18.0561 11.2225 17.1945C11.074 16.3329 11.248 15.4468 11.7124 14.706C11.7467 14.65 11.8022 14.6094 11.8659 14.5935C11.9296 14.5776 11.9968 14.5872 12.0534 14.6205C12.0927 14.6432 12.1246 14.6771 12.1448 14.7177C12.3111 15.0383 12.5495 15.3165 12.8409 15.5298C13.1323 15.7432 13.4694 15.8859 13.8253 15.9476C13.6258 15.438 13.5241 14.8953 13.5253 14.348C13.5238 13.9491 13.5799 13.5522 13.6929 13.1697C13.7875 12.7907 13.9396 12.4285 14.144 12.0957C14.3959 11.6486 14.7258 11.2506 15.119 10.9209C15.1886 10.8637 15.2789 10.8362 15.3686 10.8441C15.4584 10.852 15.5409 10.8947 15.5995 10.963C15.6411 11.0113 15.6686 11.0705 15.678 11.1336C15.8089 11.9511 16.1586 12.7174 16.6905 13.3519C17.4681 14.3383 18.4278 15.2423 18.405 16.5863C18.3849 17.4049 18.0952 18.194 17.58 18.8304C17.2403 19.2481 16.8114 19.5841 16.3249 19.8148C15.8384 20.0455 15.3058 20.1648 14.7675 20.1634C13.9483 20.1631 13.1537 19.884 12.5139 19.3724L12.5175 19.3748Z" fill="#A0A0A0"/>
</svg>
