<svg width="36" height="36" viewBox="0 0 36 36" fill="none" xmlns="http://www.w3.org/2000/svg">
<path d="M5.69488 30.305C4.07484 28.6923 2.79065 26.7746 1.91623 24.6626C1.04182 22.5505 0.594647 20.286 0.600608 18.0001C0.59387 15.7144 1.04072 13.4499 1.91519 11.3381C2.78966 9.22626 4.07424 7.30905 5.69488 5.6972C7.30726 4.07713 9.22487 2.79255 11.3365 1.91778C13.4482 1.04301 15.7123 0.595308 17.998 0.600589C20.2848 0.594344 22.55 1.04167 24.6628 1.91647C26.7757 2.79128 28.6943 4.07627 30.3074 5.6972C31.928 7.30905 33.2126 9.22626 34.0871 11.3381C34.9615 13.4499 35.4084 15.7144 35.4016 18.0001C35.4077 20.286 34.9607 22.5505 34.0863 24.6626C33.2119 26.7747 31.9275 28.6923 30.3074 30.305C28.6936 31.9247 26.7748 33.2089 24.6621 34.0829C22.5493 34.9569 20.2844 35.4037 17.998 35.3975C15.7127 35.4027 13.4489 34.9553 11.3373 34.0813C9.22575 33.2073 7.30797 31.9238 5.69488 30.305ZM3.40373 18.0001C3.40712 21.8704 4.94564 25.5813 7.6816 28.3188C10.4176 31.0564 14.1277 32.597 17.998 32.6027C21.8699 32.5987 25.5819 31.059 28.3199 28.3214C31.0579 25.5838 32.5982 21.8719 32.6027 18.0001C32.5987 14.1284 31.0587 10.4166 28.3204 7.6795C25.5821 4.94244 21.8696 3.40389 17.998 3.40163C14.1275 3.40502 10.4164 4.94426 7.67977 7.68132C4.94312 10.4184 3.40447 14.1296 3.40165 18.0001H3.40373ZM13.4733 27.1115C13.309 27.1115 13.1466 27.0944 12.9824 27.0795C12.902 27.0812 12.8221 27.067 12.7472 27.0376C12.6724 27.0082 12.6042 26.9644 12.5464 26.9084C12.4887 26.8525 12.4428 26.7854 12.411 26.7115C12.3793 26.6377 12.3624 26.5583 12.3615 26.4779C12.3563 26.4411 12.3563 26.4038 12.3615 26.367C12.3615 20.9782 12.3615 15.5901 12.3615 10.2027C12.3615 9.77601 12.6155 9.69507 13.0016 9.6972C13.8038 9.6972 14.6081 9.6972 15.4102 9.6972C15.658 9.71519 15.9067 9.68008 16.1399 9.5946C16.5218 9.42607 16.799 9.06138 17.1787 8.85658C17.2939 9.70991 17.5882 11.0988 18.672 11.1201C18.4677 10.7175 18.2993 10.2978 18.1686 9.86569C19.3593 10.2387 20.5287 10.6766 21.6714 11.1777C22.2238 11.4708 22.7004 11.8886 23.0631 12.398C23.4258 12.9074 23.6647 13.4944 23.761 14.1123C23.8573 14.7302 23.8083 15.362 23.6178 15.9576C23.4273 16.5532 23.1006 17.0963 22.6636 17.5436C22.5634 17.6673 22.4501 17.7868 22.3264 17.9404C22.4608 18.0386 22.5717 18.1239 22.6933 18.1964C23.2128 18.4949 23.6685 18.8929 24.0342 19.3675C24.3999 19.8422 24.6685 20.3841 24.8246 20.9626C24.9807 21.5411 25.0213 22.1447 24.9441 22.7389C24.8669 23.3331 24.6734 23.9062 24.3746 24.4256C23.9083 25.2346 23.2053 25.8816 22.3605 26.2795C21.2047 26.8278 19.9406 27.1098 18.6613 27.105C18.1066 27.105 17.5478 27.105 16.991 27.105C15.8326 27.1264 14.653 27.1137 13.4733 27.1115ZM17.4282 25.2107C17.8379 25.3739 18.2796 25.4417 18.7194 25.4092C19.1592 25.3767 19.5857 25.2446 19.967 25.023C20.5607 24.694 21.029 24.178 21.299 23.5553C21.5691 22.9326 21.6257 22.238 21.4602 21.5798C21.2675 21.0193 20.9302 20.5197 20.4826 20.1313C20.035 19.7429 19.493 19.4794 18.911 19.3675C17.6545 18.9835 16.3168 18.7276 15.5915 17.3516C14.9556 18.2072 14.6156 19.2465 14.623 20.3126C14.6659 20.8818 14.8727 21.4263 15.2183 21.8805C15.5639 22.3348 16.0335 22.6793 16.5707 22.8725C17.0295 22.9964 17.4284 23.2813 17.6949 23.6748C17.7277 23.738 17.7437 23.8086 17.7407 23.8798C17.7377 23.9509 17.7162 24.0198 17.6782 24.08C17.6402 24.1402 17.587 24.1894 17.524 24.2227C17.4611 24.256 17.3908 24.2723 17.3196 24.2699C17.0611 24.2457 16.8132 24.1545 16.6006 24.0053C16.4747 23.937 16.3553 23.8645 16.2316 23.792C16.1548 23.7365 15.9116 23.6341 15.8774 23.5488C16.1546 24.2851 16.7111 24.8824 17.4261 25.2107H17.4282ZM16.0886 15.5253C16.9852 16.4203 18.1364 17.0165 19.3847 17.2321C19.4741 17.2442 19.5649 17.2367 19.6511 17.2102C19.7373 17.1837 19.8165 17.1387 19.8837 17.0785C20.2531 16.604 20.423 16.0042 20.3569 15.4066C20.2907 14.8089 19.994 14.2606 19.5298 13.8785C19.1353 13.564 18.7056 13.2963 18.2496 13.0805C17.7522 12.9301 17.307 12.643 16.9649 12.2519C16.6228 11.8607 16.3975 11.3813 16.3147 10.8683C15.7165 11.4856 15.3637 12.2996 15.3217 13.1581C15.2797 14.0167 15.5515 14.8611 16.0865 15.5339L16.0886 15.5253Z" fill="url(#paint0_linear_2937_558)"/>
<defs>
<linearGradient id="paint0_linear_2937_558" x1="0.6017" y1="35.3983" x2="35.4756" y2="35.3241" gradientUnits="userSpaceOnUse">
<stop stop-color="#E90021"/>
<stop offset="1" stop-color="#FD980F"/>
</linearGradient>
</defs>
</svg>
