<?xml version="1.0" encoding="UTF-8"?>
<svg id="Capa_1" data-name="Capa 1" xmlns="http://www.w3.org/2000/svg" xmlns:xlink="http://www.w3.org/1999/xlink" viewBox="0 0 500 500">
  <defs>
    <style>
      .cls-1, .cls-2, .cls-3 {
        fill: none;
      }

      .cls-4 {
        opacity: .29;
      }

      .cls-4, .cls-5, .cls-6 {
        fill: #fff;
      }

      .cls-5 {
        opacity: .75;
      }

      .cls-6 {
        filter: url(#drop-shadow-1);
        opacity: .42;
      }

      .cls-7 {
        fill: url(#Degradado_sin_nombre_46-2);
      }

      .cls-8 {
        fill: url(#Degradado_sin_nombre_46-6);
      }

      .cls-9 {
        fill: url(#Degradado_sin_nombre_46-5);
      }

      .cls-2 {
        stroke: url(#Degradado_sin_nombre_46-3);
      }

      .cls-2, .cls-3 {
        stroke-miterlimit: 10;
        stroke-width: 7.2640913725px;
      }

      .cls-3 {
        stroke: url(#Degradado_sin_nombre_46-4);
      }

      .cls-10 {
        fill: url(#Degradado_sin_nombre_47);
      }

      .cls-11 {
        fill: url(#Degradado_sin_nombre_46);
      }
    </style>
    <linearGradient id="Degradado_sin_nombre_46" data-name="Degradado sin nombre 46" x1="130.6220469731" y1="369.3779530269" x2="466.6816888143" y2="33.3183111857" gradientUnits="userSpaceOnUse">
      <stop offset="0" stop-color="#5fc8c5"/>
      <stop offset=".3148181525" stop-color="#369cab"/>
      <stop offset=".598266232" stop-color="#187c98"/>
      <stop offset=".8362160407" stop-color="#06688d"/>
      <stop offset=".9996420568" stop-color="#006289"/>
    </linearGradient>
    <linearGradient id="Degradado_sin_nombre_46-2" data-name="Degradado sin nombre 46" x1="26.6254538094" y1="503.7238908654" x2="303.628906289" y2="204.7667848093" xlink:href="#Degradado_sin_nombre_46"/>
    <linearGradient id="Degradado_sin_nombre_47" data-name="Degradado sin nombre 47" x1="171.0659570943" y1="423.8449324137" x2="448.0694095739" y2="124.8878263576" gradientUnits="userSpaceOnUse">
      <stop offset="0" stop-color="#5fc8c5"/>
      <stop offset=".1404899644" stop-color="#4cb3b9"/>
      <stop offset=".4687702755" stop-color="#24899f"/>
      <stop offset=".6366471001" stop-color="#157996"/>
      <stop offset=".8374283086" stop-color="#06688c"/>
      <stop offset=".9996420568" stop-color="#006289"/>
    </linearGradient>
    <filter id="drop-shadow-1" x="94.1060168707" y="90.3195609949" width="316.08" height="315.84" filterUnits="userSpaceOnUse">
      <feOffset dx=".9006226905" dy="-1.801245381"/>
      <feGaussianBlur result="blur" stdDeviation="4.5031134526"/>
      <feFlood flood-color="#000" flood-opacity=".75"/>
      <feComposite in2="blur" operator="in"/>
      <feComposite in="SourceGraphic"/>
    </filter>
    <linearGradient id="Degradado_sin_nombre_46-3" data-name="Degradado sin nombre 46" x1="74.3852548248" y1="250" x2="425.6147451752" y2="250" xlink:href="#Degradado_sin_nombre_46"/>
    <linearGradient id="Degradado_sin_nombre_46-4" data-name="Degradado sin nombre 46" x1="107.735815132" y1="250.5246886589" x2="397.2205179761" y2="250.5246886589" xlink:href="#Degradado_sin_nombre_46"/>
    <linearGradient id="Degradado_sin_nombre_46-5" data-name="Degradado sin nombre 46" x1="117.1243465607" y1="239.5392531096" x2="382.8758434416" y2="239.5392531096" xlink:href="#Degradado_sin_nombre_46"/>
    <linearGradient id="Degradado_sin_nombre_46-6" data-name="Degradado sin nombre 46" x1="173.6639614836" y1="327.4249874224" x2="388.034931701" y2="125.1070034823" xlink:href="#Degradado_sin_nombre_46"/>
  </defs>
  <circle class="cls-11" cx="250" cy="250" r="171.9826994889"/>
  <g>
    <path class="cls-7" d="M361.1649470796,206.1971013068l.50862826.0751946939c-8.8027448785-22.1697544755-24.0864211141-41.0760769684-43.4987116774-54.3803060898-16.9705911619-11.8153209775-37.1440506554-19.3261004188-58.9639901927-20.9914678091l-9.2106406239-19.3796589037-9.2106406239,19.3796589037c-46.5107557385,3.5496683882-85.5516989562,33.7051348294-101.954782994,75.2966678779l-19.8365021386,2.9325930637.0205721332.0214588631,14.2926669201,15.1559871327c-1.8146040293,8.2790422106-2.7992288896,16.8688832445-2.7992288896,25.6927322942,0,35.5111375789,15.5064227818,67.386682644,40.100053388,89.2725062115l-4.3400107315,27.361025893-.07448531.4685480693.0780322296-.0393708067-.0780322296.4946179278.7902536703-.4010679254,25.0128764942-12.6902573515c17.1784406461,9.5577953725,36.9468419298,15.0217362286,57.9992280817,15.0217362286,21.1729814158,0,41.0449527496-5.5301795783,58.2914942506-15.1901262331l25.5108639955,12.8044681602-4.3953426761-27.7088013525c-2.279959871,1.9987778256-4.6613616405,3.8806846529-7.0874545959,5.7054860758,2.4317680267-1.8522013762,4.7876319756-3.7970660251,7.0683012305-5.8264360316l.0191533654.1209499558c24.87951232-21.8093874517,40.6342194686-53.7868177802,40.6342194686-89.3930128023,0-8.9823963525-1.0342817336-17.7228927933-2.9311742959-26.1407082303l-.4220834235.4477099171c-1.3669827851-6.234775142-3.2241498487-12.2818295681-5.5232630852-18.1101277325ZM318.4061228152,347.9438877281c.6845554684-.4791001549,1.367692169-.9593530587,2.0423162628-1.4523748727-.6774616294.4891202026-1.3549232588.9772650023-2.0423162628,1.4523748727Z"/>
    <path class="cls-10" d="M381.0014492182,209.1297830435l-19.3278738786-2.8574870428c2.2487469792,5.6642531363,4.0732823831,11.5375085057,5.4367182488,17.5872231215l13.8776773357-14.7153710546.0134782942-.0143650241Z"/>
  </g>
  <path class="cls-6" d="M251.1416315489,105.6945158396c-79.5701738683,0-144.3057115129,64.7355376446-144.3057115129,144.3057115129,0,47.8725954903,23.4387536087,90.367351596,59.4364398735,116.6332660855l4.6010640085-29.0083039937c-23.7253447064-21.7515726634-38.6302099366-52.9775880905-38.6302099366-87.6249620918,0-8.2890622582.8590639091-16.3803837529,2.4807155162-24.1955775625l-15.7050502752-16.6534078834-.0205721332-.0214588631,21.754676218-3.2161692798c16.2867450774-40.6320913168,54.3579604968-70.2462978385,99.7010703275-74.3075206952l9.5461792111-20.0852298703,9.4603437585,19.9045143205c46.5157214258,3.2339038774,85.7262073968,33.3246390373,102.2129987355,74.8469184821l19.3278738786,2.8574870428-.0134782942.0143650241-13.8776773357,14.7153710546c1.8968925623,8.417815437,2.9311742959,17.1583118778,2.9311742959,26.1407082303,0,35.6061950221-15.7547071486,67.5836253507-40.6342194686,89.3930128023l4.3953426761,27.7088013525-25.5768366987-12.8375431848c-16.954984716,9.3197083994-36.4084195458,14.6341465975-57.0841228441,14.6341465975-20.9949260556,0-40.7228924567-5.4919615204-57.8608982202-15.0818565146l-26.292605059,13.3394322977c23.705481957,17.0755799799,52.7731968528,27.1497181623,84.1535032792,27.1497181623,79.5715926361,0,144.3071302807-64.7355376446,144.3071302807-144.3057115129s-64.7355376446-144.3057115129-144.3071302807-144.3057115129Z"/>
  <g>
    <polygon class="cls-1" points="249.9999999961 325.0403392023 333.802373454 367.1020668812 319.0326064882 273.988318592 381.0014113866 209.1297766834 290.1352363332 195.9654191626 249.9999999961 111.5208819228 209.8647636648 195.9654191638 118.9985886108 209.1297766804 180.9673935063 273.9883185918 166.1976265364 367.1020668804 249.9999999961 325.0403392023"/>
    <polygon class="cls-5" points="210.0025016389 195.6756184664 249.9999999987 252.9574547542 249.991839175 111.6202762194 210.0025016389 195.6756184664"/>
    <polygon class="cls-5" points="118.9988264568 209.1297830435 249.9999999987 252.9574547542 180.1646887823 273.9883185918 118.9988264568 209.1297830435"/>
    <polygon class="cls-4" points="118.9985886108 209.1297766804 210.0025016389 195.6756184664 249.9999999987 252.9574547542 118.9985886108 209.1297766804"/>
    <polygon class="cls-4" points="166.1976265364 367.5572968258 249.9999999987 252.9574547542 180.9673935063 274.450004007 166.1976265364 367.5572968258"/>
    <polygon class="cls-4" points="289.9974983618 195.6756184652 249.9999999994 252.9574547513 250.0081608294 111.6202762165 289.9974983618 195.6756184652"/>
    <polygon class="cls-4" points="381.001259202 209.1297830435 249.9999999994 252.9574547513 319.8353112148 273.988318592 381.001259202 209.1297830435"/>
    <polygon class="cls-4" points="333.8023734566 367.1020668812 249.9999999994 252.9574547513 249.9999999987 325.0403391993 333.8023734566 367.1020668812"/>
    <polygon class="cls-5" points="381.0014113892 209.1297766834 289.9974983618 195.6756184652 249.9999999994 252.9574547513 381.0014113892 209.1297766834"/>
    <polygon class="cls-5" points="333.8023734566 367.1020668812 249.9999999994 252.9574547513 319.0326064908 273.988318592 333.8023734566 367.1020668812"/>
    <polygon class="cls-5" points="166.1976265364 367.5572968258 249.9999999987 252.9574547542 249.9999999961 325.0403392023 166.1976265364 367.5572968258"/>
  </g>
  <circle class="cls-2" cx="250" cy="250" r="171.9826994889"/>
  <circle class="cls-3" cx="252.4781665541" cy="250.5246886589" r="141.1103057358"/>
  <path class="cls-9" d="M382.1667947853,212.0554745354c.030636559-.0469992667.0529176928-.0988725314.082161681-.1469162262.0710211141-.1173240953.1371682301-.2360407615.1963524918-.3585869975.0187997067-.0389919842.0438659822-.0755469694.061273118-.115235239.0174071358-.0393401269.0278514173-.0818135383.0438659822-.1218499506.0522214074-.1267239486.0960873896-.2555367536.1350793738-.3864384148.0160145649-.0522214074.0389919842-.1020058158.0529176928-.1545753659.0069628543-.0285477027.0104442815-.0577916909.0174071358-.0863393936.035510557-.1514420815.0591842617-.3046248765.0786802538-.4592002424.0069628543-.0508288365.0194959921-.1006132449.0236737047-.1517902242.0013925709-.0128812805.0034814271-.0254144183.004873998-.0382956988.0160145649-.2033153462.0167108504-.4087195486.0034814272-.6137756084-.0013925709-.0222811338-.0034814272-.0445622677-.0055702835-.0668434015-.0013925709-.0139257086.0013925709-.0275032746,0-.0414289832-.004873998-.0543102637-.020888563-.1047909575-.0278514173-.1587530785-.0160145649-.1249832351-.0320291299-.2499664701-.0591842617-.3742534197-.009747996-.0452585531-.0187997067-.0905171062-.0299402736-.1354275165-.0160145649-.0630138316-.0375994133-.1228943788-.05639912-.1845156395-.0167108504-.0560509773-.025762561-.1134945254-.0452585531-.16919736-.0174071358-.0511769793-.0431696968-.0978281032-.0626656889-.1479606543-.0222811338-.0574435481-.0417771259-.1155833817-.0668434015-.1723306444-.0194959921-.0452585531-.0417771259-.0887763926-.0626656889-.1329905175-.0543102637-.1134945254-.1169759526-.2214187674-.1803379269-.3286467239-.0250662756-.0431696968-.0417771259-.0891245353-.0689322578-.1315979467-.0090517106-.0139257086-.0201922775-.0247181328-.0292439881-.0382956988-.0153182795-.0226292765-.0285477027-.0459548385-.0438659822-.0682359723-.1002651022-.1462199407-.2102782005-.2837363136-.3265578676-.4156824029-.0181034212-.0201922775-.0327254153-.0431696968-.0508288365-.0633619743-.009747996-.0104442815-.0201922775-.0205404202-.030636559-.0309847017-.0292439882-.0316809872-.0633619743-.058836119-.0939985333-.089472678-.1121019546-.1131463827-.2276853363-.2228113383-.3516241432-.3227282978-.0229774193-.018451564-.0452585531-.0372512706-.0682359723-.0553546918-.0473474094-.0362068425-.0995688168-.0657989733-.148308797-.1002651022-.1044428148-.0738062558-.2095819151-.1448273699-.3202912988-.2092337723-.0417771259-.0243699901-.0814653956-.051525122-.1239388069-.0745025412-.0431696968-.023325562-.0898208207-.0407326978-.1336868029-.0626656889-.107924242-.0529176928-.2172410548-.1006132449-.3293430094-.1444792272-.0633619743-.0250662755-.1260276632-.053962121-.1907822084-.0758951121-.0313328444-.0104442815-.0633619743-.0191478494-.0946948187-.0288958454-.11279824-.0351624143-.2283816217-.0609249753-.3446612889-.0873838217-.0849468227-.0191478494-.16919736-.0414289832-.256233039-.0553546918-.0222811338-.0034814272-.0431696968-.0111405669-.0654508306-.0142738514l-.3147210153-.0456066958-86.7293134173-12.8224443741-38.2762027712-80.5330693574c-.7116037116-1.4970136789-2.2211505283-2.44953215-3.8783098566-2.44953215s-3.166706145.9525184711-3.8783098566,2.44953215l-38.2762027712,80.5330693574-86.7293134173,12.8224443741-.3147210153.0456066958c-.0285477027.0041777126-.0557028346.0135775659-.0842505373.0181034212-.0626656889.0104442815-.1239388069.0271551318-.1859082104.040384555-.1336868029.0285477027-.2666773205.0577916909-.3954901254.0985243886-.0369031279.0114887096-.0738062558.0226292765-.1100130983.0351624143-.0501325511.0170589931-.0974799605.0396882696-.1469162262.058836119-.1218499506.0469992667-.2416110449.0978281032-.3585869975.1552716513-.0480436948.0236737047-.0974799605.0442141249-.1441310844.0696285432-.0334217007.0181034212-.0647545452.0400364124-.0981762459.0591842617-.1155833817.0668434015-.2269890509.1403015146-.3356095782.2175891975-.0508288365.0362068425-.1051391003.0675396869-.1538790805.1058353857-.0187997067.0146219941-.0369031279.0299402736-.0557028346.0445622676-.1260276632.1013095304-.2430036158.2120189141-.3571944266.3269060104-.0313328444.0309847017-.0654508306.0584879763-.0960873896.0908652489-.0111405669.0118368523-.0222811338.023325562-.0334217007.0351624143-.0083554252.0097479961-.0160145649.0212367057-.0250662755.0313328444-.1253313778.1396052291-.2423073304.2872177407-.3488390015.4431856775-.0167108504.0243699901-.0313328444.0501325511-.0473474094.0748506839-.0076591398.0114887096-.0174071358.0201922775-.0243699901.0316809872-.0229774193.0362068425-.0369031279.0755469694-.0591842617.1121019546-.0675396869.1134945254-.1336868029.2276853363-.1914784938.348142716-.0222811338.0466511239-.0452585531.0933022479-.0654508306.1409978-.0215848484.0494362657-.0382956988.0999169595-.0577916909.1497013679-.0215848484.0550065491-.0494362657.1061835284-.0689322578.1625826484-.0194959921.0557028346-.0285477027.1131463827-.0452585531.16919736-.0194959921.0647545452-.0410808405.1281165195-.0577916909.1939154928-.009747996.037947556-.0167108504.0755469694-.0250662755.1134945254-.0278514173.1284646622-.0459548385.2569293244-.0626656889.3860902721-.0069628543.053962121-.0229774193.1047909575-.0278514173.1594493639-.0013925709.0170589931.0013925709.0337698435,0,.0508288365-.0013925709.0160145649-.0034814271.0320291299-.0041777126.0480436948-.0139257086.2085374869-.0146219941.4170749738.0020888563.6238717471.0013925709.0153182795.004873998.030636559.0062665689.0463029812.0027851417.0316809872.0111405669.0623175462.0146219941.0939985333.0194959921.1712862163.046651124.340831719.087035679.5082883654.0069628543.0313328444.0118368524.0633619743.0194959921.0943466761.0062665689.0219329911.0167108504.0428215541.0229774193.0647545452.0055702835.0219329911.0153182795.0424734114.0222811338.0647545452.0403845551.1364719447.0856431081.2708550331.1399533718.4031492652.0174071358.0428215541.0292439881.0877319644.0480436948.1298572331.0125331378.0278514173.030636559.0532658356.0438659822.0807691101.0020888563.0052221407.0055702835.009747996.0083554252.0146219941.0598805471.1267239486.1281165195.248922042.2005302044.3700757071.030636559.0501325511.0550065491.1044428148.0877319644.1535309378.0125331378.0194959921.0292439882.0365549852.0424734114.0560509773.0828579664.1208055225.1761602143.235344476.2729438894.3484908588.0438659822.0518732647.0828579664.1075760992.1295090904.1573605076.0041777126.0045258553.0076591398.0100961388.0118368524.0149701368l.0160145649.0170589931c.0006962854.0006962854.0013925709.0017407136.0020888563.002436999l.0215848484.0229774193,59.2218611384,62.7958942611-14.0517363044,88.5967509461c-.0501325511.3147210153-.0550065491.6280494597-.035510557.9382446197-.0041777126.0957392469-.0153182795.1914784938-.0125331378.2865214553.0027851417.1305535185.0222811338.2597144662.0375994133.3899198419.0125331378.105487243.0174071358.2120189141.0375994133.3157654434.0243699901.1263758059.0647545452.2485738992.1002651022.3728608489.0299402736.1020058158.0522214074.2057523452.0891245353.3049730192.0438659822.1187166662.103050244.2311667634.1573605076.3464020025.0473474094.0992206741.0884282499.2008783472.143434799.2962694513.0577916909.1013095304.1295090904.1953080637.1963524918.2924398815.0696285432.1016576731.1357756593.2054042025.2137596276.3007953066.0153182795.0181034212.0250662755.0386438415.0403845551.05639912.0348142716.0410808405.0786802538.0689322578.1148870963.1082723847.1462199407.1601456494.3035804484.3091507318.4741703792.4466671047.0717173995.0577916909.1441310844.1134945254.2193299111.1664122183.1664122183.1173240953.3439650034.2203743392.5298732138.3147210153.0717173995.0362068425.1392570864.0783321111.2130633422.1107093837.0243699901.0107924242.0459548385.0264588464.0710211141.0369031279.1566642222.0651026879.3182024424.0995688168.4776518064.1451755126.1009613876.0288958454.1970487773.0696285432.2994027358.0908652489.2896547397.0605768326.5813983358.0939985333.8717493609.0939985333h.0027851417c.364157281,0,.7276182765-.0577916909,1.0869015594-.1521383669.2903510252-.0762432548.5751317669-.1737232153.8438979437-.3091507318.0034814271-.0017407136.0069628543-.0020888563.0104442815-.0038295699l80.3227911569-40.7508011967,80.3186134443,40.3121413745c.0006962854.0003481427.0020888563.0006962854.0027851417.0010444281.2994027358.1497013679.6141237511.2642403215.9385927624.3404835763.3244690113.0769395402.6545083061.115235239.9831550301.115235239h.0027851417c.0243699901,0,.0487399802-.0066147116.0724136849-.0069628543.2290779071-.0041777126.4567632434-.0271551318.6830560088-.0675396869.0389919842-.0069628543.0779839684-.0114887096.1169759526-.0198441348.0619694035-.0128812805.1204573798-.0358586997.1817304978-.0511769793.1573605076-.0400364123.3119358736-.0877319644.4644223832-.1455236553.0438659822-.0163627077.0891245353-.0222811338.1329905175-.0403845551.0250662756-.0104442815.0466511239-.0264588464.0717173995-.0375994133.0431696968-.0187997067.0849468227-.0389919842.1274202341-.0591842617.0953911042-.0456066958.1866044958-.0992206741.2785141728-.1521383669.0974799605-.0557028346.1928710647-.1121019546.2847807417-.1747676434.0382956988-.0264588464.0807691101-.0456066958.1190648089-.0734581131.0097479961-.0069628543.0174071358-.0156664222.0271551319-.0229774193.0313328444-.0229774193.0584879763-.0511769793.0891245353-.0751988267.0299402736-.0236737047.0570954054-.0487399802.0863393936-.0727618276.0633619743-.0525695501.1281165195-.1027021012.1886933521-.1591012212.0988725314-.091909677.1879970667-.1907822084.277121602-.2910473106.0243699901-.0271551318.0543102637-.0459548385.0779839684-.0738062558.0139257086-.0160145649.0229774193-.0348142716.0362068425-.0511769793.0167108504-.0205404202.035510557-.0389919842.051525122-.0598805472.107924242-.1364719447.2040116316-.2802548864.2938324523-.427867398.0139257086-.0236737047.0327254153-.0449104104.0459548385-.0685841151.0090517106-.0146219941.0153182795-.030636559.0236737047-.0456066958.0264588464-.0456066958.0459548385-.0946948188.0703248286-.1413459427.0682359723-.1315979466.1336868029-.263544036.1879970666-.4014085516.0125331378-.0302884163.0243699901-.0602286899.035510557-.0908652489.0201922775-.0546584064.0334217007-.1117538118.051525122-.1671085037.0389919842-.122546236.0751988267-.2457887575.1037465294-.3718164207.0104442815-.0466511239.0243699901-.0926059625.0334217007-.1396052291.0090517106-.046651124.0125331378-.094346676.0201922775-.1413459427.0194959921-.1239388069.0313328444-.2485738992.0396882696-.3742534197.004873998-.0640582598.0132294232-.1270720914.0146219941-.1911303511.0006962854-.033073558,0-.0654508306,0-.0985243886,0-.1260276632-.0111405669-.2520553264-.0222811338-.378779275-.0069628543-.0793765392-.0097479961-.1580567931-.0215848484-.2370851896-.0027851417-.0191478494-.0020888563-.0382956988-.004873998-.0574435481l-14.0517363044-88.5953583752,59.2629419788-62.8397602433c.0055702835-.0062665689.009747996-.0132294232.0153182795-.0194959921.0452585531-.0487399802.0828579664-.1033983867.1260276632-.1542272232.0933022479-.110361241.1852119249-.2214187674.2666773205-.3394391481.0160145649-.0236737047.0362068425-.0456066958.0522214074-.0696285432ZM245.706686954,320.8121257386l-63.4900908369,31.8665472263,63.4900908369-86.8233119506v54.9567647243ZM215.6912145488,196.0750275842l30.00711698-63.0751047194.0069628543,106.0581970112-30.0140798343-42.9830922919ZM254.2946714731,239.0581198761l.0069628543-106.0581970112,30.00711698,63.0751047194-30.0140798343,42.9830922919ZM260.9595156287,244.5152569498l30.135929785-43.1596006489,68.9928346064,9.9951773772-81.0615500003,27.1203175787-18.0672143911,6.044105693ZM203.6795945604,232.6850193164l-63.7679087243-21.3341856383,68.9928346064-9.9951773772,30.1359297849,43.1596006489-35.3608556671-11.8302376334ZM183.3501488006,268.2965377391l-46.8453875835-49.0296349839,99.3188503143,33.2281333887-52.4734627308,15.8015015951ZM174.7705197067,348.3108744496l11.293749708-71.1979705698,52.789576317-16.4365139092-64.083326025,87.634484479ZM318.2331701282,352.9039213022l-63.939891226-32.0917955636v-54.9981937075l63.939891226,87.0899892711ZM261.1071281403,260.5816951519l52.8313534429,16.0953340475,11.3014088477,71.2575029742-64.1327622907-87.3528370217ZM264.1777468957,252.495036144l99.316761458-33.2274371033-46.8439950126,49.0285905557-52.4727664454-15.8011534524Z"/>
  <circle class="cls-8" cx="251.1423409328" cy="254.3028220788" r="56.0749402272"/>
</svg>